%FSTAX23Y23*%
%MOIN*%
%SFA1B1*%

%IPPOS*%
%ADD20C,0.006000*%
%ADD23C,0.019680*%
%ADD24C,0.010000*%
%LNmod_duo_x_g3399-1*%
%LPD*%
G36*
X02985Y00006D02*
X00006D01*
Y0267*
X02985*
Y00006*
G37*
%LNmod_duo_x_g3399-2*%
%LPC*%
G36*
X0296Y02654D02*
X02954Y02653D01*
X0295Y02649*
X02946Y02645*
X02945Y0264*
X02946Y02634*
X02948Y02631*
X02945Y02628*
X02945Y02628*
X0294Y02629*
X02934Y02628*
X0293Y02624*
X02926Y0262*
X02925Y02615*
X02926Y02609*
X0293Y02605*
X02934Y02601*
X0294Y026*
X02945Y02601*
X02945Y02601*
X02948Y02598*
X02946Y02595*
X02945Y0259*
X02946Y02584*
X0295Y0258*
X02954Y02576*
X0296Y02575*
X02965Y02576*
X02969Y0258*
X02973Y02584*
X02974Y0259*
X02973Y02595*
X02969Y02599*
X02965Y02603*
X0296Y02604*
X02954Y02603*
X02954Y02603*
X02951Y02606*
X02953Y02609*
X02954Y02615*
X02953Y0262*
X02951Y02623*
X02954Y02626*
X02954Y02626*
X0296Y02625*
X02965Y02626*
X02969Y0263*
X02973Y02634*
X02974Y0264*
X02973Y02645*
X02969Y02649*
X02965Y02653*
X0296Y02654*
G37*
G36*
X02915D02*
X02909Y02653D01*
X02905Y02649*
X02901Y02645*
X029Y0264*
X02901Y02634*
X02905Y0263*
X02909Y02626*
X02915Y02625*
X0292Y02626*
X02924Y0263*
X02928Y02634*
X02929Y0264*
X02928Y02645*
X02924Y02649*
X0292Y02653*
X02915Y02654*
G37*
G36*
X01385Y02629D02*
X01379Y02628D01*
X01375Y02624*
X01372Y0262*
X01371Y02615*
X01372Y02609*
X01375Y02605*
X01379Y02601*
X01385Y026*
X0139Y02601*
X01395Y02605*
X01398Y02609*
X01399Y02615*
X01398Y0262*
X01395Y02624*
X0139Y02628*
X01385Y02629*
G37*
G36*
X00065Y02619D02*
X00059Y02618D01*
X00055Y02614*
X00051Y0261*
X0005Y02605*
X00051Y02599*
X00055Y02595*
X00059Y02591*
X00065Y0259*
X0007Y02591*
X00074Y02595*
X00078Y02599*
X00079Y02605*
X00078Y0261*
X00074Y02614*
X0007Y02618*
X00065Y02619*
G37*
G36*
X02915Y02604D02*
X02909Y02603D01*
X02905Y02599*
X02901Y02595*
X029Y0259*
X02901Y02584*
X02905Y0258*
X02909Y02576*
X02915Y02575*
X0292Y02576*
X02924Y0258*
X02928Y02584*
X02929Y0259*
X02928Y02595*
X02924Y02599*
X0292Y02603*
X02915Y02604*
G37*
G36*
X02058Y02535D02*
X0205Y02534D01*
X02045Y02531*
X02041Y02533*
X02033Y02534*
X02025Y02533*
X02018Y0253*
X02012Y02525*
X0201Y02522*
X02003Y02522*
X02001Y02526*
X01995Y02531*
X01987Y02534*
X0198Y02535*
X01972Y02534*
X01966Y02531*
X01962Y02533*
X01955Y02534*
X01947Y02533*
X01939Y0253*
X01933Y02525*
X01928Y02519*
X01925Y02512*
X01924Y02504*
X01925Y02496*
X01928Y02489*
X01933Y02483*
X01939Y02478*
X01947Y02475*
X01955Y02474*
X01962Y02475*
X01968Y02477*
X01972Y02475*
X0198Y02474*
X01987Y02475*
X01995Y02478*
X02001Y02483*
X02003Y02486*
X02009Y02486*
X02012Y02483*
X02018Y02478*
X02025Y02475*
X02033Y02474*
X02041Y02475*
X02046Y02477*
X0205Y02475*
X02058Y02474*
X02066Y02475*
X02073Y02478*
X0208Y02483*
X02084Y02489*
X02087Y02497*
X02088Y02505*
X02087Y02512*
X02084Y0252*
X0208Y02526*
X02073Y02531*
X02066Y02534*
X02058Y02535*
G37*
G36*
X01437Y02527D02*
X01431Y02526D01*
X01427Y02522*
X01424Y02518*
X01423Y02512*
X01424Y02507*
X01427Y02503*
X01431Y02499*
X01437Y02498*
X01442Y02499*
X01447Y02503*
X0145Y02507*
X01451Y02512*
X0145Y02518*
X01447Y02522*
X01442Y02526*
X01437Y02527*
G37*
G36*
X01397Y02502D02*
X01392Y02501D01*
X01387Y02498*
X01384Y02493*
X01383Y02488*
X01384Y02483*
X01387Y02478*
X01392Y02475*
X01397Y02474*
X01403Y02475*
X01407Y02478*
X0141Y02483*
X01411Y02488*
X0141Y02493*
X01407Y02498*
X01403Y02501*
X01397Y02502*
G37*
G36*
X0182Y02312D02*
X01815Y02311D01*
X0181Y02307*
X01807Y02303*
X01806Y02298*
X01801Y02296*
X018Y02296*
X018Y02296*
X01795Y02298*
X01794Y02303*
X01791Y02307*
X01786Y02311*
X01781Y02312*
X01775Y02311*
X01771Y02307*
X01768Y02303*
X01767Y02298*
X01762Y02296*
X01761Y02296*
X01756Y02295*
X01751Y02292*
X01748Y02287*
X01747Y02282*
X01748Y02276*
X01751Y02272*
X01756Y02269*
X01761Y02267*
X01766Y02269*
X01771Y02272*
X01774Y02276*
X01775Y02282*
X0178Y02284*
X01781Y02283*
X01782Y02284*
X01786Y02282*
X01787Y02276*
X0179Y02272*
X01795Y02269*
X018Y02267*
X01806Y02269*
X0181Y02272*
X01813Y02276*
X01815Y02282*
X01819Y02284*
X0182Y02283*
X01826Y02284*
X0183Y02288*
X01833Y02292*
X01834Y02298*
X01833Y02303*
X0183Y02307*
X01826Y02311*
X0182Y02312*
G37*
G36*
X01345Y02529D02*
X01339Y02528D01*
X01335Y02524*
X01332Y0252*
X01331Y02515*
X01332Y02509*
X01335Y02505*
X01339Y02501*
X01345Y025*
X01347Y02496*
Y0239*
X01348Y02387*
X01349Y02384*
X01379Y02354*
X01382Y02353*
X01385Y02352*
X01402*
X01452Y02302*
X01454Y02301*
X01457Y023*
X01512*
X01512Y023*
X01514Y02295*
X01512Y02292*
X01511Y02287*
X01512Y02281*
X01515Y02277*
X01519Y02274*
X01525Y02272*
X0153Y02274*
X01535Y02277*
X01538Y02281*
X01539Y02287*
X01538Y02292*
X01536Y02295*
X01537Y023*
X01538Y023*
X01575*
X01576Y02295*
X01575Y02294*
X01571Y02289*
X0157Y02284*
X01571Y02279*
X01575Y02274*
X01579Y02271*
X01585Y0227*
X0159Y02271*
X01594Y02274*
X01598Y02279*
X01599Y02284*
X01598Y02289*
X01594Y02294*
X01593Y02295*
X01594Y023*
X01668*
X01668Y023*
X01669Y023*
X01669Y023*
X0167Y023*
X0167Y023*
X01671Y02299*
X01671Y02299*
X01672Y02299*
X01672Y02298*
X01673Y02298*
X01673Y02297*
X01674Y02297*
X01678Y02294*
X01684Y02293*
X01689Y02294*
X01693Y02297*
X01697Y02302*
X01698Y02307*
X01697Y02313*
X01693Y02317*
X01689Y0232*
X01684Y02321*
X01678Y0232*
X01674Y02317*
X01673Y02317*
X01673Y02317*
X01672Y02316*
X01672Y02316*
X01671Y02315*
X01671Y02315*
X0167Y02315*
X0167Y02315*
X01669Y02315*
X01669Y02315*
X01668Y02315*
X01668Y02314*
X0146*
X0141Y02365*
X01407Y02366*
X01405Y02367*
X01387*
X01362Y02392*
Y02505*
X01361Y02507*
X0136Y02509*
X0136Y0251*
X01359Y0251*
X01359Y02511*
X01359Y02511*
X01358Y02511*
X01358Y02511*
X01358Y02511*
X01358Y02511*
X01358Y02512*
X01358Y02512*
X01359Y02515*
X01358Y0252*
X01355Y02524*
X0135Y02528*
X01345Y02529*
G37*
G36*
X01722Y02307D02*
X01716Y02305D01*
X01712Y02302*
X01709Y02298*
X01708Y02292*
X01709Y02287*
X01712Y02282*
X01716Y02279*
X01722Y02278*
X01727Y02279*
X01732Y02282*
X01735Y02287*
X01736Y02292*
X01735Y02298*
X01732Y02302*
X01727Y02305*
X01722Y02307*
G37*
G36*
X01367Y02344D02*
X01362Y02343D01*
X01357Y02339*
X01354Y02335*
X01353Y0233*
X01354Y02324*
X01357Y0232*
X01362Y02316*
X01367Y02315*
X0137Y02316*
X01372Y02315*
X01374Y02312*
X01373Y02307*
X01374Y02302*
X01377Y02297*
X01382Y02294*
X01387Y02293*
X01392Y02294*
X01393Y02294*
X01396Y02291*
X01394Y02287*
X01393Y02282*
X01394Y02276*
X01397Y02272*
X01401Y02269*
X01407Y02267*
X01412Y02269*
X01417Y02272*
X0142Y02276*
X01421Y02282*
X01426Y02284*
X01426Y02283*
X01427Y02284*
X01432Y02282*
X01433Y02276*
X01436Y02272*
X01441Y02269*
X01446Y02267*
X01451Y02269*
X01456Y02272*
X01459Y02276*
X0146Y02282*
X01459Y02287*
X01456Y02292*
X01451Y02295*
X01446Y02296*
X01445Y02296*
X01441Y02298*
X01439Y02303*
X01436Y02307*
X01432Y02311*
X01426Y02312*
X01421Y02311*
X01416Y02307*
X01413Y02303*
X01412Y02298*
X01408Y02296*
X01407Y02296*
X01401Y02295*
X01401Y02295*
X01398Y02298*
X014Y02302*
X01401Y02307*
X014Y02313*
X01397Y02317*
X01393Y0232*
X01387Y02321*
X01384Y02321*
X01383Y02322*
X01381Y02325*
X01382Y0233*
X01381Y02335*
X01377Y02339*
X01373Y02343*
X01367Y02344*
G37*
G36*
X00545Y02285D02*
X00539Y02284D01*
X00535Y02281*
X00531Y02276*
X0053Y02271*
X00531Y02265*
X00535Y02261*
X00539Y02258*
X00545Y02257*
X0055Y02258*
X00554Y02261*
X00558Y02265*
X00559Y02271*
X00558Y02276*
X00554Y02281*
X0055Y02284*
X00545Y02285*
G37*
G36*
X0057Y02238D02*
X00565Y02237D01*
X0056Y02234*
X00557Y02229*
X00556Y02224*
X00557Y02219*
X0056Y02214*
X00565Y02211*
X0057Y0221*
X00576Y02211*
X0058Y02214*
X00583Y02219*
X00584Y02224*
X00583Y02229*
X0058Y02234*
X00576Y02237*
X0057Y02238*
G37*
G36*
X01135Y02212D02*
X01129Y02211D01*
X01125Y02208*
X01121Y02204*
X0112Y02198*
X01121Y02193*
X01125Y02188*
X01129Y02185*
X01135Y02184*
X0114Y02185*
X01144Y02188*
X01148Y02193*
X01149Y02198*
X01148Y02204*
X01144Y02208*
X0114Y02211*
X01135Y02212*
G37*
G36*
X01585Y02198D02*
X01579Y02197D01*
X01575Y02194*
X01571Y02189*
X0157Y02184*
X01571Y02179*
X01575Y02174*
X01579Y02171*
X01585Y0217*
X0159Y02171*
X01594Y02174*
X01598Y02179*
X01599Y02184*
X01598Y02189*
X01594Y02194*
X0159Y02197*
X01585Y02198*
G37*
G36*
X01111Y02174D02*
X01106Y02173D01*
X01101Y02169*
X01098Y02165*
X01097Y0216*
X01098Y02154*
X01101Y0215*
X01106Y02146*
X01111Y02145*
X01117Y02146*
X01121Y0215*
X01124Y02154*
X01125Y0216*
X01124Y02165*
X01121Y02169*
X01117Y02173*
X01111Y02174*
G37*
G36*
X01085Y02134D02*
X0108Y02133D01*
X01075Y0213*
X01072Y02125*
X01071Y0212*
X01072Y02114*
X01075Y0211*
X0108Y02107*
X01085Y02105*
X01091Y02107*
X01095Y0211*
X01098Y02114*
X01099Y0212*
X01098Y02125*
X01095Y0213*
X01091Y02133*
X01085Y02134*
G37*
G36*
X0146Y02097D02*
X01225D01*
X01223Y02096*
X0122Y02095*
X01181Y02056*
X00615*
X00615Y02056*
X00614Y02056*
X00614Y02056*
X00613Y02056*
X00613Y02056*
X00612Y02056*
X00612Y02057*
X00611Y02057*
X00611Y02057*
X0061Y02058*
X0061Y02058*
X00609Y02059*
X00605Y02062*
X006Y02063*
X00594Y02062*
X0059Y02058*
X00586Y02054*
X00585Y02048*
X00586Y02043*
X0059Y02038*
X00594Y02035*
X006Y02034*
X00605Y02035*
X00609Y02038*
X00609Y02038*
X0061Y02039*
X00611Y0204*
X00611Y0204*
X00612Y0204*
X00612Y02041*
X00613Y02041*
X00613Y02041*
X00614Y02041*
X00614Y02041*
X00615Y02041*
X00615Y02041*
X01046*
X01047Y02036*
X01045Y02035*
X01041Y0203*
X0104Y02025*
X01041Y02019*
X01044Y02015*
X01044Y02014*
X01043Y0201*
X01012*
X01012Y0201*
X01011Y0201*
X01011Y0201*
X0101Y0201*
X0101Y0201*
X01009Y02011*
X01009Y02011*
X01008Y02011*
X01008Y02012*
X01007Y02012*
X01007Y02013*
X01006Y02013*
X01002Y02016*
X00996Y02017*
X00991Y02016*
X00986Y02013*
X00983Y02008*
X00982Y02003*
X00983Y01997*
X00986Y01993*
X00991Y0199*
X00996Y01989*
X01002Y0199*
X01006Y01992*
X01007Y01992*
X01007Y01992*
X01011Y01988*
X0101Y01985*
X01011Y01979*
X01015Y01975*
X01019Y01972*
X01025Y0197*
X0103Y01972*
X01034Y01974*
X01034Y01974*
X01035Y01975*
X01036Y01976*
X01036Y01976*
X01037Y01976*
X01037Y01977*
X01038Y01977*
X01038Y01977*
X01039Y01977*
X01039Y01977*
X0104Y01977*
X0104Y01977*
X01255*
X01256Y01972*
X0125Y01968*
X01244Y0196*
X01242Y0195*
X01242Y01945*
X01242Y01226*
X01242Y01226*
X01242*
X01244Y01216*
X0125Y01208*
X01258Y01202*
X01268Y012*
X01268Y012*
X02047Y012*
X02052Y012*
X02062Y01202*
X0207Y01208*
X02076Y01216*
X02077Y01226*
X02077Y01231*
X02077Y0195*
X02077Y0195*
X02077*
X02076Y0196*
X0207Y01968*
X02062Y01974*
X02052Y01975*
X02047Y01975*
X01542Y01975*
X01541Y01977*
X0154Y0198*
X0155Y01989*
X01551Y01992*
X01552Y01994*
Y02004*
X01552Y02004*
X01552Y02005*
X01552Y02005*
X01552Y02006*
X01552Y02006*
X01552Y02007*
X01553Y02007*
X01553Y02008*
X01553Y02008*
X01554Y02009*
X01554Y02009*
X01555Y0201*
X01558Y02014*
X01559Y0202*
X01558Y02025*
X01554Y02029*
X0155Y02033*
X01544Y02034*
X01539Y02033*
X01535Y02034*
X01534Y02035*
X01534Y02036*
X01534Y02038*
X01534Y02038*
X01534Y02039*
X01535Y02039*
X01535Y0204*
X01538Y02044*
X01539Y0205*
X01538Y02055*
X01535Y02059*
X0153Y02063*
X01525Y02064*
X01519Y02063*
X01515Y02059*
X01512Y02055*
X01511Y0205*
X01512Y02044*
X01515Y0204*
X01515Y02039*
X01515Y02039*
X01516Y02038*
X01516Y02038*
X01516Y02036*
X01516Y02035*
X01514Y02034*
X01511Y02033*
X01505Y02034*
X015Y02033*
X01495Y0203*
X01495Y0203*
X01494Y02029*
X01494Y02028*
X01493Y02028*
X01493Y02028*
X01492Y02027*
X01492Y02027*
X01491Y02027*
X01491Y02027*
X0149Y02027*
X0149Y02027*
X01489Y02027*
X01482*
X01476Y02033*
X01479Y02037*
X0148Y02036*
X01485Y02035*
X01491Y02036*
X01495Y0204*
X01498Y02044*
X015Y0205*
X01498Y02055*
X01495Y02059*
X01494Y02061*
X01493Y02061*
X01493Y02061*
X01493Y02062*
X01493Y02062*
X01493Y02062*
X01493Y02062*
X01493Y02062*
X01493Y02063*
X01492Y02063*
X01492Y02064*
X01492Y02065*
X01492Y02067*
X0149Y02069*
X01465Y02095*
X01462Y02096*
X0146Y02097*
G37*
G36*
X01623Y02064D02*
X01618Y02063D01*
X01613Y02059*
X0161Y02055*
X01609Y0205*
X0161Y02044*
X01613Y0204*
X01618Y02036*
X01623Y02035*
X01629Y02036*
X01633Y0204*
X01636Y02044*
X01637Y0205*
X01636Y02055*
X01633Y02059*
X01629Y02063*
X01623Y02064*
G37*
G36*
X01584D02*
X01578Y02063D01*
X01574Y02059*
X01571Y02055*
X0157Y0205*
X01571Y02044*
X01574Y0204*
X01578Y02036*
X01584Y02035*
X01589Y02036*
X01594Y0204*
X01597Y02044*
X01598Y0205*
X01597Y02055*
X01594Y02059*
X01589Y02063*
X01584Y02064*
G37*
G36*
X01683Y02063D02*
X01678Y02061D01*
X01673Y02058*
X0167Y02054*
X01669Y02048*
X0167Y02043*
X01673Y02038*
X01678Y02035*
X01683Y02034*
X01689Y02035*
X01693Y02038*
X01696Y02043*
X01697Y02048*
X01696Y02054*
X01693Y02058*
X01689Y02061*
X01683Y02063*
G37*
G36*
X02365Y02041D02*
X02359Y0204D01*
X02355Y02037*
X02352Y02032*
X02351Y02027*
X02352Y02022*
X02355Y02017*
X02359Y02014*
X02365Y02013*
X0237Y02014*
X02375Y02017*
X02378Y02022*
X02379Y02027*
X02378Y02032*
X02375Y02037*
X0237Y0204*
X02365Y02041*
G37*
G36*
X01643Y02034D02*
X01638Y02033D01*
X01633Y02029*
X0163Y02025*
X01629Y0202*
X0163Y02014*
X01633Y0201*
X01638Y02006*
X01643Y02005*
X01648Y02006*
X01653Y0201*
X01656Y02014*
X01657Y0202*
X01656Y02025*
X01653Y02029*
X01648Y02033*
X01643Y02034*
G37*
G36*
X01604D02*
X01598Y02033D01*
X01594Y02029*
X01591Y02025*
X01589Y0202*
X01591Y02014*
X01594Y0201*
X01598Y02006*
X01604Y02005*
X01609Y02006*
X01614Y0201*
X01617Y02014*
X01618Y0202*
X01617Y02025*
X01614Y02029*
X01609Y02033*
X01604Y02034*
G37*
G36*
X01703Y02033D02*
X01698Y02031D01*
X01693Y02028*
X0169Y02024*
X01689Y02018*
X0169Y02013*
X01693Y02008*
X01698Y02005*
X01703Y02004*
X01708Y02005*
X01713Y02008*
X01716Y02013*
X01717Y02018*
X01716Y02024*
X01713Y02028*
X01708Y02031*
X01703Y02033*
G37*
G36*
X02396Y02017D02*
X02391Y02016D01*
X02386Y02013*
X02383Y02008*
X02382Y02003*
X02383Y01997*
X02386Y01993*
X02391Y0199*
X02396Y01988*
X02401Y0199*
X02406Y01993*
X02409Y01997*
X0241Y02003*
X02409Y02008*
X02406Y02013*
X02401Y02016*
X02396Y02017*
G37*
G36*
X02215Y01989D02*
X02209Y01988D01*
X02205Y01984*
X02202Y0198*
X02201Y01974*
X02202Y01969*
X02205Y01964*
X02209Y01961*
X02215Y0196*
X0222Y01961*
X02225Y01964*
X02228Y01969*
X02229Y01974*
X02228Y0198*
X02225Y01984*
X0222Y01988*
X02215Y01989*
G37*
G36*
X02421Y01989D02*
X02416Y01987D01*
X02411Y01984*
X02408Y0198*
X02407Y01974*
X02408Y01969*
X02411Y01964*
X02416Y01961*
X02421Y0196*
X02426Y01961*
X02431Y01964*
X02434Y01969*
X02435Y01974*
X02434Y0198*
X02431Y01984*
X02426Y01987*
X02421Y01989*
G37*
G36*
X02456Y01962D02*
X02451Y01961D01*
X02446Y01958*
X02443Y01954*
X02442Y01948*
X02443Y01943*
X02446Y01938*
X02451Y01935*
X02456Y01934*
X02462Y01935*
X02466Y01938*
X0247Y01943*
X02471Y01948*
X0247Y01954*
X02466Y01958*
X02462Y01961*
X02456Y01962*
G37*
G36*
X02245Y01924D02*
X02239Y01923D01*
X02235Y01919*
X02232Y01915*
X02231Y0191*
X02232Y01904*
X02235Y019*
X02239Y01896*
X02245Y01895*
X0225Y01896*
X02255Y019*
X02258Y01904*
X02259Y0191*
X02258Y01915*
X02255Y01919*
X0225Y01923*
X02245Y01924*
G37*
G36*
X02335Y01884D02*
X02329Y01883D01*
X02325Y01879*
X02322Y01875*
X02321Y0187*
X02322Y01864*
X02325Y0186*
X02329Y01856*
X02335Y01855*
X0234Y01856*
X02345Y0186*
X02348Y01864*
X02349Y0187*
X02348Y01875*
X02345Y01879*
X0234Y01883*
X02335Y01884*
G37*
G36*
X02305Y01859D02*
X02299Y01858D01*
X02295Y01855*
X02292Y0185*
X02291Y01845*
X02292Y01839*
X02295Y01835*
X02299Y01832*
X02305Y0183*
X0231Y01832*
X02315Y01835*
X02318Y01839*
X02319Y01845*
X02318Y0185*
X02315Y01855*
X0231Y01858*
X02305Y01859*
G37*
G36*
X02858Y01741D02*
X02858Y01741D01*
X02858Y01741*
X02857Y0174*
X02855Y01739*
X02855Y01739*
X02855Y01739*
X02855Y01738*
X02854Y01737*
X02851*
X02848Y01736*
X02846Y01735*
X02845Y01732*
X02844Y0173*
X02845Y01727*
X02846Y01724*
X02848Y01723*
X02851Y01722*
X02854*
X02855Y01721*
X02855Y0172*
X02855Y0172*
X02855Y0172*
X02857Y01719*
X02858Y01718*
X02858Y01718*
X02858Y01718*
X0286Y01719*
X02861Y01719*
X02862Y0172*
X02862Y01721*
X02863Y01721*
X02864Y01721*
X02864Y01722*
X02865Y01722*
X02865Y01722*
X02866Y01722*
X02866Y01722*
X02867Y01722*
X02867Y01722*
X02905*
X02926Y01701*
Y01682*
X02926Y01681*
X02926Y01681*
X02926Y0168*
X02925Y0168*
X02925Y01679*
X02925Y01679*
X02925Y01678*
X02924Y01678*
X02924Y01677*
X02924Y01676*
X02923Y01676*
X02923Y01676*
X02923Y01676*
X02922Y01675*
X02922Y01675*
X02921Y01674*
X02921Y01674*
X0292Y01674*
X0292Y01673*
X02919Y01673*
X02919Y01673*
X02918Y01673*
X02917Y01673*
X02917Y01673*
X02855*
X02852Y01672*
X02849Y01671*
X02821Y01642*
X0282Y0164*
X02819Y01637*
Y01568*
X02819Y01567*
X02819Y01567*
X02819Y01566*
X02819Y01566*
X02818Y01565*
X02818Y01565*
X02818Y01564*
X02818Y01564*
X02817Y01563*
X02817Y01563*
X02816Y01562*
X02816Y0156*
X02815Y01559*
X02815Y01559*
X02815Y01559*
X02816Y01557*
X02816Y01556*
X02816Y01556*
X02816Y01556*
X02818Y01555*
X02819Y01555*
Y01549*
X02818Y01549*
X02816Y01548*
X02816Y01548*
X02816Y01548*
X02816Y01546*
X02815Y01545*
X02815Y01545*
X02815Y01545*
X02816Y01543*
X02816Y01542*
X02817Y01541*
X02817Y01541*
X02818Y0154*
X02818Y0154*
X02818Y01539*
X02818Y01539*
X02819Y01538*
X02819Y01538*
X02819Y01537*
X02819Y01536*
X02819Y01536*
Y01513*
X0282Y01511*
X02821Y01508*
X02845Y01484*
X02847Y01483*
X0285Y01482*
X02889*
X02889Y01482*
X0289Y01482*
X0289Y01482*
X02891Y01482*
X02891Y01482*
X02892Y01482*
X02892Y01481*
X02893Y01481*
X02893Y01481*
X02894Y0148*
X02895Y0148*
X02895Y01479*
X02896Y01478*
X02896Y01478*
X02897Y01477*
X02897Y01477*
X02897Y01476*
X02897Y01476*
X02897Y01475*
X02897Y01475*
X02897Y01474*
X02898Y01474*
Y01247*
X0287Y0122*
X0287Y0122*
X0287Y01219*
X0287Y01219*
X02869Y01219*
X02869Y01219*
X02869Y01218*
X02868Y01218*
X02868Y01218*
X02867Y01218*
X02867Y01218*
X02866Y01218*
X02866Y01218*
X02865Y01218*
X02863Y01218*
X02862Y01217*
X02862*
X02862Y01217*
X02862Y01217*
X02859Y01214*
X02856Y01215*
X02856Y01215*
X02856Y01215*
X02855Y01214*
X02853Y01214*
X02852Y01213*
X02852Y01213*
X02851Y01212*
X02851Y01212*
X0285Y01212*
X0285Y01212*
X02849Y01211*
X02849Y01211*
X02848Y01211*
X02848Y01211*
X02847Y01211*
X02815*
X02783Y01243*
Y01254*
X02783Y01254*
X02783Y01255*
X02783Y01255*
X02783Y01256*
X02783Y01256*
X02784Y01257*
X02784Y01257*
X02784Y01258*
X02785Y01258*
X02785Y01259*
X02786Y0126*
X02786Y01261*
X02787Y01263*
X02787Y01263*
X02787Y01263*
X02786Y01264*
X02786Y01266*
X02786Y01266*
X02786Y01266*
X02784Y01266*
X02783Y01267*
Y0127*
X02782Y01272*
X02781Y01275*
X02778Y01276*
X02776Y01277*
X02773Y01276*
X02771Y01275*
X02769Y01272*
X02769Y0127*
Y01267*
X02767Y01266*
X02766Y01266*
X02766Y01266*
X02766Y01266*
X02765Y01264*
X02765Y01263*
X02765Y01263*
X02765Y01263*
X02765Y01261*
X02766Y0126*
X02766Y01259*
X02767Y01258*
X02767Y01258*
X02768Y01257*
X02768Y01257*
X02768Y01256*
X02768Y01256*
X02768Y01255*
X02768Y01255*
X02768Y01254*
X02769Y01254*
Y0124*
X02769Y01237*
X02771Y01235*
X02807Y01199*
X02809Y01197*
X02812Y01197*
X02847*
X02848Y01197*
X02848Y01197*
X02849Y01196*
X02849Y01196*
X0285Y01196*
X0285Y01196*
X02851Y01196*
X02851Y01195*
X02852Y01195*
X02852Y01195*
X02853Y01194*
X02855Y01193*
X02856Y01193*
X02856Y01193*
X02856Y01193*
X02858Y01193*
X02859Y01194*
X02859Y01194*
X02859Y01194*
X0286Y01196*
X0286Y01197*
X02865*
X02867Y01197*
X0287Y01199*
X02871Y012*
X02871Y01199*
X02872Y01199*
X02872Y01199*
X02872Y01199*
X02874Y01199*
X02875Y01199*
X02875Y01199*
X02876*
X02876Y01201*
X02876*
X02877Y01202*
X02877Y01203*
X02877Y01204*
X02878Y01205*
X02878Y01205*
X02878Y01206*
X02878Y01207*
X02879Y01207*
X02879Y01208*
X02879Y01208*
X0288Y01208*
X0288Y01209*
X0291Y01239*
X02911Y01241*
X02912Y01244*
Y01474*
X02912Y01474*
X02912Y01475*
X02912Y01475*
X02912Y01476*
X02912Y01476*
X02913Y01477*
X02913Y01477*
X02913Y01478*
X02914Y01478*
X02914Y01479*
X02915Y0148*
X02915Y01481*
X02916Y01483*
X02916Y01483*
X02916Y01483*
X02915Y01484*
X02915Y01486*
X02915Y01486*
X02915Y01486*
X02913Y01486*
X02912Y01487*
Y0149*
X02911Y01492*
X0291Y01495*
X02907Y01496*
X02905Y01497*
X02902*
X02901Y01498*
X02901Y01499*
X02901Y01499*
X02901Y01499*
X02899Y015*
X02898Y01501*
X02898Y01501*
X02898Y01501*
X02896Y015*
X02895Y015*
X02894Y01499*
X02893Y01498*
X02893Y01498*
X02892Y01498*
X02892Y01497*
X02891Y01497*
X02891Y01497*
X0289Y01497*
X0289Y01497*
X02889Y01497*
X02889Y01497*
X02853*
X02833Y01516*
Y01536*
X02833Y01536*
X02834Y01537*
X02834Y01538*
X02834Y01538*
X02834Y01539*
X02834Y01539*
X02834Y0154*
X02835Y0154*
X02835Y01541*
X02836Y01541*
X02836Y01542*
X02837Y01543*
X02837Y01545*
X02837Y01545*
X02837Y01545*
X02837Y01546*
X02836Y01548*
X02836Y01548*
X02836Y01548*
X02835Y01549*
X02833Y01549*
Y01555*
X02835Y01555*
X02836Y01556*
X02836Y01556*
X02836Y01556*
X02837Y01557*
X02837Y01559*
X02837Y01559*
X02837Y01559*
X02837Y0156*
X02836Y01562*
X02836Y01563*
X02835Y01563*
X02835Y01564*
X02834Y01564*
X02834Y01565*
X02834Y01565*
X02834Y01566*
X02834Y01566*
X02834Y01567*
X02833Y01567*
X02833Y01568*
Y01634*
X02857Y01659*
X02917*
X02917Y01658*
X02918Y01658*
X02919Y01658*
X02919Y01658*
X0292Y01658*
X0292Y01658*
X02921Y01658*
X02921Y01657*
X02922Y01657*
X02922Y01656*
X02923Y01656*
X02924Y01655*
X02926Y01654*
X02926Y01654*
X02926Y01654*
X02928Y01655*
X02929Y01656*
X02929Y01656*
X02929Y01656*
X0293Y01657*
X0293Y01659*
X02933*
X02936Y01659*
X02938Y01661*
X0294Y01663*
X0294Y01666*
Y01669*
X02941Y01669*
X02943Y0167*
X02943Y0167*
X02943Y0167*
X02944Y01671*
X02944Y01673*
X02944Y01673*
X02944Y01673*
X02944Y01674*
X02943Y01676*
X02942Y01676*
X02942Y01677*
X02941Y01678*
X02941Y01678*
X02941Y01679*
X02941Y01679*
X0294Y0168*
X0294Y0168*
X0294Y01681*
X0294Y01681*
X0294Y01682*
Y01704*
X0294Y01707*
X02938Y01709*
X02913Y01735*
X0291Y01736*
X02908Y01737*
X02867*
X02867Y01737*
X02866Y01737*
X02866Y01737*
X02865Y01737*
X02865Y01737*
X02864Y01737*
X02864Y01738*
X02863Y01738*
X02863Y01738*
X02862Y01739*
X02861Y0174*
X0286Y0174*
X02858Y01741*
G37*
G36*
X02705Y01384D02*
X02699Y01383D01*
X02695Y01379*
X02691Y01375*
X0269Y0137*
X02691Y01364*
X02695Y0136*
X02699Y01356*
X02705Y01355*
X0271Y01356*
X02714Y0136*
X02718Y01364*
X02719Y0137*
X02718Y01375*
X02714Y01379*
X0271Y01383*
X02705Y01384*
G37*
G36*
X0262Y02554D02*
X0238D01*
X02376Y02553*
X02233Y02409*
X02085*
X02081Y02408*
X01928Y02254*
X0179*
X01786Y02253*
X01751Y02218*
X0175Y02215*
Y022*
X01745Y02197*
X01742Y02198*
X01741Y02198*
X0174Y02198*
X0174Y02198*
X01739Y02198*
X01738Y02198*
X01738Y02199*
X01737Y02199*
X01737Y02199*
X01736Y02199*
X01736Y022*
X01736Y022*
X01735Y022*
X01717Y02219*
X01714Y0222*
X01712Y02221*
X01274*
X01247Y02248*
X01245Y02249*
X01242Y0225*
X012*
X01197Y02249*
X01195Y02248*
X0098*
X0098Y02248*
X00979Y02248*
X00978Y02248*
X00978Y02248*
X00977Y02248*
X00977Y02249*
X00976Y02249*
X00976Y02249*
X00975Y0225*
X00975Y0225*
X00974Y02251*
X00974Y02251*
X00969Y02254*
X00964Y02255*
X00959Y02254*
X00954Y02251*
X00951Y02246*
X0095Y02241*
X00951Y02235*
X00954Y02231*
X00959Y02228*
X00964Y02227*
X00969Y02228*
X00974Y02231*
X00974Y02231*
X00975Y02231*
X00975Y02232*
X00976Y02232*
X00976Y02233*
X00977Y02233*
X00977Y02233*
X00978Y02233*
X00978Y02233*
X00979Y02233*
X0098Y02233*
X0098Y02234*
X0119*
X01193Y02229*
X01192Y02224*
X01193Y02218*
X01196Y02213*
X01202Y02209*
X01208Y02208*
X01214Y02209*
X01219Y02213*
X01223Y02218*
X01224Y02224*
X01223Y0223*
X01222Y02231*
X01225Y02236*
X01239*
X01266Y02209*
X01269Y02207*
X01271Y02207*
X01709*
X01725Y0219*
X01725Y0219*
X01726Y02189*
X01726Y02189*
X01726Y02188*
X01726Y02188*
X01727Y02187*
X01727Y02187*
X01727Y02186*
X01727Y02186*
X01727Y02185*
X01727Y02184*
X01727Y02184*
X01728Y02179*
X01731Y02174*
X01736Y02171*
X01741Y0217*
X01745Y02171*
X0175Y02168*
Y02092*
X01751Y02089*
X01755Y02088*
X02302*
X02305Y02089*
X02408Y02191*
X02511Y02295*
X027*
X02703Y02296*
X02709Y02302*
X0272Y02291*
Y02195*
X02721Y02191*
X02723Y02188*
X02763Y02148*
X02766Y02146*
X02769Y02145*
X02808*
X02835Y02118*
Y01859*
X02835Y01859*
X02835Y01857*
X02835Y01856*
X02835Y01856*
X02835Y01855*
X02835Y01855*
X02835Y01855*
X02835Y01855*
X02835Y01855*
X02834Y01854*
X02834Y01854*
X02831Y0185*
X0283Y01845*
X02831Y01839*
X02834Y01835*
X02834Y01835*
X02835Y01834*
X02835Y01834*
X02835Y01834*
X02835Y01834*
X02835Y01834*
X02835Y01833*
X02835Y01833*
X02835Y01831*
X02835Y0183*
X02835Y0183*
Y01813*
X02821Y01799*
X02775*
X02771Y01798*
X02768Y01796*
X02733Y01761*
X02731Y01758*
X0273Y01755*
Y01575*
X0273Y01574*
X0273Y01573*
X0273Y01572*
X0273Y01571*
X0273Y01571*
X0273Y0157*
X0273Y0157*
X0273Y0157*
X0273Y0157*
X02729Y0157*
X02729Y01569*
X02726Y01565*
X02725Y0156*
X02726Y01554*
X02729Y0155*
X02729Y0155*
X0273Y0155*
X0273Y0155*
X0273Y0155*
X0273Y01549*
X0273Y01549*
X0273Y01549*
X0273Y01548*
X0273Y01546*
X0273Y01545*
X0273Y01545*
Y01335*
X02695Y013*
X02695Y013*
X02693Y01299*
X02693Y01298*
X02692Y01298*
X02692Y01298*
X02692Y01297*
X02691Y01297*
X02691Y01297*
X02691Y01297*
X02691Y01297*
X02691Y01297*
X02686Y01296*
X02681Y01293*
X02678Y01289*
X02677Y01283*
X02678Y01278*
X02681Y01273*
X02686Y0127*
X02691Y01269*
X02696Y0127*
X02701Y01273*
X02704Y01278*
X02705Y01283*
X02705Y01283*
X02705Y01283*
Y01283*
X02705Y01283*
X02705Y01284*
X02706Y01284*
X02706Y01284*
X02706Y01285*
X02707Y01286*
X02708Y01287*
X02708Y01287*
X02746Y01325*
X02748Y01328*
X02749Y01332*
Y01545*
X02749Y01545*
X02749Y01547*
X02749Y01548*
X02749Y01549*
X02749Y01549*
X02749Y01549*
X02749Y0155*
X02749Y0155*
X02749Y0155*
X0275Y0155*
X0275Y0155*
X02753Y01554*
X02754Y0156*
X02753Y01565*
X0275Y01569*
X0275Y0157*
X02749Y0157*
X02749Y0157*
X02749Y0157*
X02749Y0157*
X02749Y01571*
X02749Y01571*
X02749Y01572*
X02749Y01573*
X02749Y01574*
X02749Y01575*
Y01751*
X02778Y0178*
X02825*
X02828Y01781*
X02831Y01783*
X02851Y01803*
X02853Y01806*
X02854Y0181*
Y0183*
X02854Y0183*
X02854Y01832*
X02854Y01833*
X02854Y01833*
X02854Y01834*
X02854Y01834*
X02854Y01834*
X02854Y01834*
X02854Y01834*
X02855Y01835*
X02855Y01835*
X02858Y01839*
X02859Y01845*
X02858Y0185*
X02855Y01854*
X02855Y01854*
X02854Y01855*
X02854Y01855*
X02854Y01855*
X02854Y01855*
X02854Y01855*
X02854Y01856*
X02854Y01856*
X02854Y01858*
X02854Y01859*
X02854Y01859*
Y02122*
X02853Y02125*
X02851Y02128*
X02818Y02161*
X02815Y02163*
X02812Y02164*
X02773*
X02739Y02198*
Y02295*
X02738Y02298*
X02736Y02301*
X02722Y02315*
X02723Y02316*
X02724Y0232*
Y0248*
X02723Y02483*
X02708Y02498*
X02705Y02499*
X02666*
X02624Y02541*
Y0255*
X02623Y02553*
X0262Y02554*
G37*
G36*
X0057Y01174D02*
X00565Y01173D01*
X0056Y0117*
X00557Y01165*
X00556Y0116*
X00557Y01154*
X0056Y0115*
X00565Y01147*
X0057Y01145*
X00576Y01147*
X0058Y0115*
X00583Y01154*
X00584Y0116*
X00583Y01165*
X0058Y0117*
X00576Y01173*
X0057Y01174*
G37*
G36*
X01643Y01189D02*
X01638Y01188D01*
X01633Y01184*
X0163Y0118*
X01629Y01175*
X0163Y01169*
X01633Y01165*
X01638Y01161*
X01643Y0116*
X01647Y01161*
X0165Y01157*
X0165Y01157*
X0165Y01156*
X01649Y01151*
X0165Y01145*
X01653Y01141*
X01657Y01138*
X01663Y01137*
X01668Y01138*
X01673Y01141*
X01676Y01145*
X01677Y01151*
X01676Y01156*
X01673Y01161*
X01668Y01164*
X01663Y01165*
X01659Y01164*
X01655Y01168*
X01655Y01168*
X01656Y01169*
X01657Y01175*
X01656Y0118*
X01653Y01184*
X01648Y01188*
X01643Y01189*
G37*
G36*
X00964Y01159D02*
X00959Y01158D01*
X00954Y01155*
X00951Y0115*
X0095Y01145*
X00951Y0114*
X00954Y01135*
X00959Y01132*
X00964Y01131*
X00969Y01132*
X00974Y01135*
X00977Y0114*
X00978Y01145*
X00977Y0115*
X00974Y01155*
X00969Y01158*
X00964Y01159*
G37*
G36*
X00336Y01096D02*
X0033Y01095D01*
X00326Y01092*
X00323Y01088*
X00323Y01088*
X00318*
X00318Y01088*
X00314Y01092*
X0031Y01095*
X00305Y01096*
X00299Y01095*
X00295Y01092*
X00295Y01092*
X0029*
X00289Y01092*
X00285Y01095*
X0028Y01096*
X00274Y01095*
X0027Y01092*
X0027Y01092*
X00265*
X00264Y01092*
X0026Y01095*
X00255Y01096*
X00249Y01095*
X00245Y01092*
X00241Y01088*
X0024Y01082*
X00241Y01077*
X00245Y01072*
X00249Y01069*
X00255Y01068*
X0026Y01069*
X00264Y01072*
X00265Y01072*
X0027*
X0027Y01072*
X00274Y01069*
X0028Y01068*
X00285Y01069*
X00289Y01072*
X0029Y01072*
X00295*
X00295Y01072*
X00299Y01069*
X00305Y01068*
X0031Y01069*
X00314Y01072*
X00318Y01077*
X00318Y01077*
X00323*
X00323Y01077*
X00326Y01072*
X0033Y01069*
X00336Y01068*
X00341Y01069*
X00346Y01072*
X00349Y01077*
X0035Y01082*
X00349Y01088*
X00346Y01092*
X00341Y01095*
X00336Y01096*
G37*
G36*
X01682Y01139D02*
X01677Y01138D01*
X01672Y01134*
X01669Y0113*
X01668Y01125*
X01669Y01119*
X01672Y01115*
X01677Y01111*
X01682Y0111*
X01687Y01111*
X01688Y0111*
X01691Y01107*
X01689Y01105*
X01688Y011*
X01689Y01094*
X01692Y0109*
X01697Y01086*
X01702Y01085*
X01707Y01086*
X01712Y0109*
X01715Y01094*
X01716Y011*
X01715Y01105*
X01712Y01109*
X01707Y01113*
X01702Y01114*
X01697Y01113*
X01696Y01114*
X01694Y01117*
X01695Y01119*
X01696Y01125*
X01695Y0113*
X01692Y01134*
X01688Y01138*
X01682Y01139*
G37*
G36*
X01466Y01089D02*
X0146Y01088D01*
X01456Y01084*
X01453Y0108*
X01452Y01075*
X01453Y01069*
X01456Y01065*
X0146Y01061*
X01466Y0106*
X01471Y01061*
X01476Y01065*
X01479Y01069*
X0148Y01075*
X01479Y0108*
X01476Y01084*
X01471Y01088*
X01466Y01089*
G37*
G36*
X00548Y01057D02*
X00543Y01056D01*
X00538Y01053*
X00535Y01048*
X00534Y01043*
X00535Y01037*
X00538Y01033*
X00543Y0103*
X00548Y01029*
X00553Y0103*
X00558Y01033*
X00561Y01037*
X00562Y01043*
X00561Y01048*
X00558Y01053*
X00553Y01056*
X00548Y01057*
G37*
G36*
X025Y01029D02*
X02495Y01028D01*
X02491Y01024*
X02487Y0102*
X02486Y01015*
X02487Y01009*
X02491Y01005*
X02495Y01001*
X025Y01*
X02506Y01001*
X0251Y01005*
X02514Y01009*
X02515Y01015*
X02514Y0102*
X0251Y01024*
X02506Y01028*
X025Y01029*
G37*
G36*
X02449Y00999D02*
X02444Y00998D01*
X02439Y00994*
X02436Y0099*
X02435Y00985*
X02436Y00979*
X02439Y00975*
X02444Y00971*
X02449Y0097*
X02455Y00971*
X02459Y00975*
X02462Y00979*
X02464Y00985*
X02462Y0099*
X02459Y00994*
X02455Y00998*
X02449Y00999*
G37*
G36*
X02421Y00978D02*
X02415Y00977D01*
X02411Y00974*
X02408Y0097*
X02406Y00964*
X02408Y00959*
X02411Y00954*
X02415Y00951*
X02421Y0095*
X02426Y00951*
X02431Y00954*
X02434Y00959*
X02435Y00964*
X02434Y0097*
X02431Y00974*
X02426Y00977*
X02421Y00978*
G37*
G36*
X02474Y00954D02*
X02469Y00953D01*
X02465Y00949*
X02461Y00945*
X0246Y0094*
X02461Y00934*
X02465Y0093*
X02469Y00926*
X02474Y00925*
X0248Y00926*
X02484Y0093*
X02488Y00934*
X02489Y0094*
X02488Y00945*
X02484Y00949*
X0248Y00953*
X02474Y00954*
G37*
G36*
X00996Y00939D02*
X00991Y00938D01*
X00986Y00935*
X00983Y0093*
X00982Y00925*
X00983Y00919*
X00986Y00915*
X00991Y00912*
X00996Y00911*
X01002Y00912*
X01006Y00915*
X0101Y00919*
X01011Y00925*
X0101Y0093*
X01006Y00935*
X01002Y00938*
X00996Y00939*
G37*
G36*
X01426Y00932D02*
X01421Y00931D01*
X01416Y00928*
X01413Y00923*
X01412Y00918*
X01413Y00913*
X01416Y00908*
X01421Y00905*
X01426Y00904*
X01432Y00905*
X01436Y00908*
X01439Y00913*
X01441Y00918*
X01439Y00923*
X01436Y00928*
X01432Y00931*
X01426Y00932*
G37*
G36*
X01407Y00904D02*
X01401Y00903D01*
X01397Y009*
X01394Y00896*
X01393Y0089*
X01394Y00885*
X01397Y0088*
X01401Y00877*
X01407Y00876*
X01412Y00877*
X01417Y0088*
X0142Y00885*
X01421Y0089*
X0142Y00896*
X01417Y009*
X01412Y00903*
X01407Y00904*
G37*
G36*
X01014Y00899D02*
X01008Y00898D01*
X01004Y00895*
X01001Y00891*
X01Y00885*
X01001Y0088*
X01004Y00875*
X01008Y00872*
X01014Y00871*
X01019Y00872*
X01024Y00875*
X01027Y0088*
X01028Y00885*
X01027Y00891*
X01024Y00895*
X01019Y00898*
X01014Y00899*
G37*
G36*
X01367Y00876D02*
X01362Y00875D01*
X01357Y00872*
X01354Y00868*
X01353Y00862*
X01354Y00857*
X01357Y00852*
X01362Y00849*
X01367Y00848*
X01373Y00849*
X01377Y00852*
X0138Y00857*
X01381Y00862*
X0138Y00868*
X01377Y00872*
X01373Y00875*
X01367Y00876*
G37*
G36*
X02303Y00849D02*
X02297Y00848D01*
X02293Y00844*
X0229Y0084*
X02289Y00835*
X0229Y00829*
X02293Y00825*
X02297Y00821*
X02303Y0082*
X02308Y00821*
X02313Y00825*
X02316Y00829*
X02317Y00835*
X02316Y0084*
X02313Y00844*
X02308Y00848*
X02303Y00849*
G37*
G36*
X02263D02*
X02258Y00848D01*
X02253Y00844*
X0225Y0084*
X02249Y00835*
X0225Y00829*
X02253Y00825*
X02258Y00821*
X02263Y0082*
X02269Y00821*
X02273Y00825*
X02276Y00829*
X02278Y00835*
X02276Y0084*
X02273Y00844*
X02269Y00848*
X02263Y00849*
G37*
G36*
X02224D02*
X02219Y00848D01*
X02214Y00844*
X02211Y0084*
X0221Y00835*
X02211Y00829*
X02214Y00825*
X02219Y00821*
X02224Y0082*
X02229Y00821*
X02234Y00825*
X02237Y00829*
X02238Y00835*
X02237Y0084*
X02234Y00844*
X02229Y00848*
X02224Y00849*
G37*
G36*
X01348D02*
X01342Y00848D01*
X01338Y00844*
X01335Y0084*
X01334Y00835*
X01335Y00829*
X01338Y00825*
X01342Y00821*
X01348Y0082*
X01353Y00821*
X01358Y00825*
X01361Y00829*
X01362Y00835*
X01361Y0084*
X01358Y00844*
X01353Y00848*
X01348Y00849*
G37*
G36*
X02342Y00849D02*
X02337Y00847D01*
X02332Y00844*
X02329Y0084*
X02328Y00834*
X02329Y00829*
X02332Y00824*
X02337Y00821*
X02342Y0082*
X02348Y00821*
X02352Y00824*
X02355Y00829*
X02356Y00834*
X02355Y0084*
X02352Y00844*
X02348Y00847*
X02342Y00849*
G37*
G36*
X01217Y00821D02*
X01211Y0082D01*
X01207Y00817*
X01204Y00812*
X01203Y00807*
X01204Y00801*
X01207Y00797*
X01211Y00794*
X01217Y00792*
X01222Y00794*
X01227Y00797*
X0123Y00801*
X01231Y00807*
X0123Y00812*
X01227Y00817*
X01222Y0082*
X01217Y00821*
G37*
G36*
X02935Y00798D02*
X02929Y00797D01*
X02925Y00794*
X02924Y00794*
X02924Y00793*
X02923Y00792*
X02923Y00792*
X02922Y00792*
X02922Y00791*
X02921Y00791*
X02921Y00791*
X0292Y00791*
X0292Y00791*
X02919Y00791*
X02919Y00791*
X0156*
X0156Y00791*
X01559Y00791*
X01559Y00791*
X01558Y00791*
X01558Y00791*
X01557Y00792*
X01557Y00792*
X01556Y00792*
X01556Y00792*
X01555Y00793*
X01555Y00794*
X01554Y00794*
X0155Y00797*
X01545Y00798*
X01539Y00797*
X01535Y00794*
X01534Y00794*
X01534Y00793*
X01533Y00792*
X01533Y00792*
X01532Y00792*
X01532Y00791*
X01531Y00791*
X01531Y00791*
X0153Y00791*
X0153Y00791*
X01529Y00791*
X01529Y00791*
X01501*
X01501Y00791*
X015Y00791*
X015Y00791*
X01499Y00791*
X01499Y00791*
X01498Y00791*
X01498Y00792*
X01497Y00792*
X01497Y00792*
X01496Y00793*
X01495Y00794*
X01495Y00794*
X01491Y00797*
X01485Y00798*
X0148Y00797*
X01475Y00794*
X01472Y00789*
X01471Y00784*
X01472Y00778*
X01475Y00774*
X0148Y00771*
X01485Y00769*
X01491Y00771*
X01495Y00773*
X01495Y00774*
X01496Y00774*
X01497Y00775*
X01497Y00775*
X01498Y00775*
X01498Y00776*
X01499Y00776*
X01499Y00776*
X015Y00776*
X015Y00776*
X01501Y00776*
X01501Y00776*
X01529*
X01529Y00776*
X0153Y00776*
X0153Y00776*
X01531Y00776*
X01531Y00776*
X01532Y00776*
X01532Y00775*
X01533Y00775*
X01533Y00775*
X01534Y00774*
X01535Y00774*
X01535Y00773*
X01539Y00771*
X01545Y00769*
X0155Y00771*
X01554Y00774*
X01555Y00774*
X01555Y00774*
X01556Y00775*
X01556Y00775*
X01557Y00775*
X01557Y00776*
X01558Y00776*
X01558Y00776*
X01559Y00776*
X01559Y00776*
X0156Y00776*
X0156Y00776*
X02919*
X02919Y00776*
X0292Y00776*
X0292Y00776*
X02921Y00776*
X02921Y00776*
X02922Y00776*
X02922Y00775*
X02923Y00775*
X02923Y00775*
X02924Y00774*
X02925Y00774*
X02925Y00773*
X02929Y00771*
X02935Y0077*
X0294Y00771*
X02944Y00774*
X02948Y00778*
X02949Y00784*
X02948Y00789*
X02944Y00794*
X0294Y00797*
X02935Y00798*
G37*
G36*
X02895Y00769D02*
X02889Y00768D01*
X02885Y00765*
X02884Y00765*
X02884Y00764*
X02883Y00763*
X02883Y00763*
X02882Y00763*
X02882Y00762*
X02881Y00762*
X02881Y00762*
X0288Y00762*
X0288Y00762*
X02879Y00762*
X02879Y00762*
X0158*
X0158Y00762*
X01579Y00762*
X01578Y00762*
X01578Y00762*
X01578Y00762*
X01577Y00762*
X01577Y00763*
X01576Y00763*
X01575Y00763*
X01575Y00764*
X01574Y00765*
X01574Y00765*
X0157Y00768*
X01564Y00769*
X01559Y00768*
X01554Y00765*
X01551Y0076*
X0155Y00755*
X01551Y00749*
X01553Y00747*
X0155Y00742*
X01521*
X01521Y00742*
X0152Y00742*
X01519Y00742*
X01519Y00742*
X01518Y00742*
X01518Y00742*
X01517Y00743*
X01517Y00743*
X01516Y00743*
X01516Y00744*
X01515Y00745*
X01515Y00745*
X01511Y00748*
X01505Y00749*
X015Y00748*
X01495Y00745*
X01492Y0074*
X01491Y00735*
X01492Y00729*
X01495Y00725*
X015Y00722*
X01505Y0072*
X01511Y00722*
X01515Y00724*
X01515Y00725*
X01516Y00725*
X01516Y00726*
X01517Y00726*
X01517Y00726*
X01518Y00727*
X01518Y00727*
X01519Y00727*
X01519Y00727*
X0152Y00727*
X01521Y00727*
X01521Y00727*
X01568*
X01568Y00727*
X01569Y00727*
X0157Y00727*
X0157Y00727*
X01571Y00727*
X01571Y00727*
X01572Y00726*
X01572Y00726*
X01573Y00726*
X01573Y00725*
X01574Y00725*
X01574Y00724*
X01578Y00722*
X01584Y0072*
X01589Y00721*
X0159Y0072*
X01592Y00717*
X01591Y00715*
X01589Y0071*
X01591Y00704*
X01594Y007*
X01598Y00697*
X01604Y00695*
X01609Y00697*
X01613Y00699*
X01614Y007*
X01614Y007*
X01615Y00701*
X01615Y00701*
X01616Y00701*
X01616Y00702*
X01617Y00702*
X01617Y00702*
X01618Y00702*
X01618Y00702*
X01619Y00702*
X01619Y00702*
X02859*
X02859Y00702*
X0286Y00702*
X0286Y00702*
X02861Y00702*
X02861Y00702*
X02862Y00702*
X02862Y00701*
X02863Y00701*
X02863Y00701*
X02864Y007*
X02865Y007*
X02865Y00699*
X02869Y00697*
X02875Y00695*
X0288Y00697*
X02884Y007*
X02888Y00704*
X02889Y0071*
X02888Y00715*
X02884Y0072*
X0288Y00722*
X0288Y00723*
X02883Y00727*
X02899*
X02899Y00727*
X029Y00727*
X029Y00727*
X02901Y00727*
X02901Y00727*
X02902Y00727*
X02902Y00726*
X02903Y00726*
X02903Y00726*
X02904Y00725*
X02905Y00725*
X02905Y00724*
X02909Y00722*
X02915Y0072*
X0292Y00722*
X02924Y00725*
X02928Y00729*
X02929Y00735*
X02928Y0074*
X02924Y00745*
X0292Y00748*
X02915Y00749*
X02912Y00748*
X02908Y00753*
X02909Y00755*
X02908Y0076*
X02904Y00765*
X029Y00768*
X02895Y00769*
G37*
G36*
X0192Y00694D02*
X01914Y00693D01*
X0191Y00689*
X01907Y00685*
X01906Y0068*
X01907Y00674*
X0191Y0067*
X01914Y00666*
X0192Y00665*
X01925Y00666*
X0193Y0067*
X01933Y00674*
X01934Y0068*
X01933Y00685*
X0193Y00689*
X01925Y00693*
X0192Y00694*
G37*
G36*
X0187D02*
X01864Y00693D01*
X0186Y00689*
X01857Y00685*
X01856Y0068*
X01857Y00674*
X0186Y0067*
X01864Y00666*
X0187Y00665*
X01875Y00666*
X0188Y0067*
X01883Y00674*
X01884Y0068*
X01883Y00685*
X0188Y00689*
X01875Y00693*
X0187Y00694*
G37*
G36*
X0182D02*
X01814Y00693D01*
X0181Y00689*
X01807Y00685*
X01806Y0068*
X01807Y00674*
X0181Y0067*
X01814Y00666*
X0182Y00665*
X01825Y00666*
X0183Y0067*
X01833Y00674*
X01834Y0068*
X01833Y00685*
X0183Y00689*
X01825Y00693*
X0182Y00694*
G37*
G36*
X01895Y00663D02*
X01889Y00662D01*
X01885Y00659*
X01882Y00655*
X01881Y00649*
X01882Y00644*
X01885Y00639*
X01889Y00636*
X01895Y00635*
X019Y00636*
X01905Y00639*
X01908Y00644*
X01909Y00649*
X01908Y00655*
X01905Y00659*
X019Y00662*
X01895Y00663*
G37*
G36*
X01845D02*
X01839Y00662D01*
X01835Y00659*
X01832Y00655*
X01831Y00649*
X01832Y00644*
X01835Y00639*
X01839Y00636*
X01845Y00635*
X0185Y00636*
X01855Y00639*
X01858Y00644*
X01859Y00649*
X01858Y00655*
X01855Y00659*
X0185Y00662*
X01845Y00663*
G37*
G36*
X01135Y00663D02*
X01129Y00662D01*
X01125Y00659*
X01121Y00655*
X0112Y00649*
X01121Y00644*
X01125Y00639*
X01129Y00636*
X01135Y00635*
X0114Y00636*
X01144Y00639*
X01148Y00644*
X01149Y00649*
X01148Y00655*
X01144Y00659*
X0114Y00662*
X01135Y00663*
G37*
G36*
X01763Y00665D02*
X01757Y00664D01*
X01752Y00661*
X01748Y00655*
X01747Y00649*
X01748Y00643*
X01752Y00638*
X01757Y00634*
X01763Y00633*
X01769Y00634*
X01774Y00638*
X01778Y00643*
X01779Y00649*
X01778Y00655*
X01774Y00661*
X01769Y00664*
X01763Y00665*
G37*
G36*
X01306D02*
X013Y00664D01*
X01295Y00661*
X01291Y00655*
X0129Y00649*
X01291Y00643*
X01295Y00638*
X013Y00634*
X01306Y00633*
X01312Y00634*
X01318Y00638*
X01321Y00643*
X01322Y00649*
X01321Y00655*
X01318Y00661*
X01312Y00664*
X01306Y00665*
G37*
G36*
X01623Y00633D02*
X01618Y00632D01*
X01613Y00629*
X0161Y00624*
X01609Y00619*
X0161Y00614*
X01613Y00609*
X01618Y00606*
X01623Y00605*
X01629Y00606*
X01633Y00609*
X01636Y00614*
X01637Y00619*
X01636Y00624*
X01633Y00629*
X01629Y00632*
X01623Y00633*
G37*
G36*
X01643Y00578D02*
X01638Y00577D01*
X01633Y00574*
X0163Y00569*
X01629Y00564*
X0163Y00559*
X01633Y00554*
X01638Y00551*
X01643Y0055*
X01648Y00551*
X01653Y00554*
X01656Y00559*
X01657Y00564*
X01656Y00569*
X01653Y00574*
X01648Y00577*
X01643Y00578*
G37*
G36*
X01407D02*
X01401Y00577D01*
X01397Y00574*
X01394Y00569*
X01393Y00564*
X01394Y00559*
X01397Y00554*
X01401Y00551*
X01407Y0055*
X01412Y00551*
X01417Y00554*
X0142Y00559*
X01421Y00564*
X0142Y00569*
X01417Y00574*
X01412Y00577*
X01407Y00578*
G37*
G36*
X01545Y00576D02*
X01539Y00575D01*
X01535Y00572*
X01531Y00568*
X0153Y00562*
X01531Y00557*
X01535Y00552*
X01539Y00549*
X01545Y00548*
X0155Y00549*
X01554Y00552*
X01558Y00557*
X01559Y00562*
X01558Y00568*
X01554Y00572*
X0155Y00575*
X01545Y00576*
G37*
G36*
X006Y00545D02*
X00594Y00544D01*
X0059Y00541*
X00586Y00536*
X00585Y00531*
X00586Y00526*
X0059Y00521*
X00594Y00518*
X006Y00517*
X00605Y00518*
X00609Y00521*
X00613Y00526*
X00614Y00531*
X00613Y00536*
X00609Y00541*
X00605Y00544*
X006Y00545*
G37*
G36*
X01055Y00509D02*
X01049Y00508D01*
X01045Y00505*
X01041Y005*
X0104Y00495*
X01041Y00489*
X01045Y00485*
X01049Y00482*
X01055Y0048*
X0106Y00482*
X01064Y00485*
X01068Y00489*
X01069Y00495*
X01068Y005*
X01064Y00505*
X0106Y00508*
X01055Y00509*
G37*
G36*
X01643Y00488D02*
X01638Y00487D01*
X01633Y00484*
X0163Y00479*
X01629Y00474*
X0163Y00469*
X01633Y00464*
X01638Y00461*
X01643Y0046*
X01648Y00461*
X01653Y00464*
X01656Y00469*
X01657Y00474*
X01656Y00479*
X01653Y00484*
X01648Y00487*
X01643Y00488*
G37*
G36*
X01545D02*
X01539Y00487D01*
X01535Y00484*
X01531Y00479*
X0153Y00474*
X01531Y00469*
X01535Y00464*
X01539Y00461*
X01545Y0046*
X0155Y00461*
X01554Y00464*
X01558Y00469*
X01559Y00474*
X01558Y00479*
X01554Y00484*
X0155Y00487*
X01545Y00488*
G37*
G36*
X01407Y00488D02*
X01401Y00487D01*
X01397Y00484*
X01394Y00479*
X01393Y00474*
X01394Y00469*
X01397Y00464*
X01401Y00461*
X01407Y0046*
X01412Y00461*
X01417Y00464*
X0142Y00469*
X01421Y00474*
X0142Y00479*
X01417Y00484*
X01412Y00487*
X01407Y00488*
G37*
G36*
X01111Y0047D02*
X01106Y00469D01*
X01101Y00465*
X01098Y00461*
X01097Y00455*
X01098Y0045*
X01101Y00446*
X01106Y00442*
X01111Y00441*
X01117Y00442*
X01121Y00446*
X01124Y0045*
X01125Y00455*
X01124Y00461*
X01121Y00465*
X01117Y00469*
X01111Y0047*
G37*
G36*
X01085Y00429D02*
X01079Y00428D01*
X01075Y00425*
X01071Y0042*
X0107Y00415*
X01071Y00409*
X01075Y00405*
X01079Y00402*
X01085Y004*
X0109Y00402*
X01094Y00405*
X01098Y00409*
X01099Y00415*
X01098Y0042*
X01094Y00425*
X0109Y00428*
X01085Y00429*
G37*
G36*
X0187Y00405D02*
X01864Y00404D01*
X0186Y00401*
X01857Y00396*
X01855Y00391*
X01857Y00385*
X0186Y00381*
X01864Y00378*
X0187Y00376*
X01875Y00378*
X0188Y00381*
X01883Y00385*
X01884Y00391*
X01883Y00396*
X0188Y00401*
X01875Y00404*
X0187Y00405*
G37*
G36*
X02145Y00384D02*
X02139Y00383D01*
X02135Y00379*
X02131Y00375*
X0213Y0037*
X02131Y00364*
X02135Y0036*
X02139Y00356*
X02145Y00355*
X0215Y00356*
X02154Y0036*
X02158Y00364*
X02159Y0037*
X02158Y00375*
X02154Y00379*
X0215Y00383*
X02145Y00384*
G37*
G36*
X01485Y00404D02*
X0148Y00403D01*
X01475Y00399*
X01473Y00396*
X01473Y00395*
X01472Y00394*
X01471Y00392*
X0147Y00391*
X0147Y0039*
X01469Y00389*
X01468Y00389*
X01468Y00388*
X01462Y00382*
X0083*
X00827Y00381*
X00824Y0038*
X00802Y00357*
X008Y00354*
X00799Y00352*
Y00346*
X00799Y00346*
X00799Y00345*
X00799Y00345*
X00799Y00344*
X00799Y00344*
X00799Y00343*
X00798Y00343*
X00798Y00342*
X00798Y00342*
X00797Y00341*
X00797Y00341*
X00796Y0034*
X00794Y00336*
X00792Y00331*
X00794Y00325*
X00797Y00321*
X00801Y00318*
X00807Y00316*
X00812Y00318*
X00817Y00321*
X0082Y00325*
X00821Y00331*
X0082Y00336*
X00817Y0034*
X00817Y00341*
X00816Y00341*
X00815Y00342*
X00815Y00342*
X00815Y00343*
X00814Y00343*
X00814Y00344*
X00814Y00344*
X00814Y00345*
X00814Y00345*
X00814Y00346*
X00814Y00346*
Y00349*
X00832Y00367*
X01465*
X01467Y00368*
X0147Y00369*
X01476Y00376*
X01476Y00376*
X01477Y00377*
X01477Y00377*
X01478Y00377*
X01478Y00377*
X01478Y00377*
X01478Y00377*
X01478Y00377*
X01479Y00377*
X01479Y00377*
X01479Y00377*
X0148Y00377*
X0148Y00376*
X01485Y00375*
X01486Y00374*
X01487Y00371*
X01478Y00362*
X00856*
X00853Y00361*
X00852Y0036*
X00851Y0036*
X0085Y00359*
X0085Y00359*
X00849Y00359*
X00849Y00358*
X00849Y00358*
X00849Y00358*
X00848Y00358*
X00848Y00358*
X00848*
X00848Y00358*
X00848Y00358*
X00847Y00358*
X00847Y00358*
X00846Y00358*
X0084Y00357*
X00836Y00354*
X00832Y0035*
X00831Y00344*
X00832Y00339*
X00836Y00334*
X0084Y00331*
X00846Y0033*
X00851Y00331*
X00856Y00334*
X00859Y00339*
X0086Y00344*
X00863Y00347*
X00864Y00347*
X00864Y00347*
X00916*
X00917Y00342*
X00915Y00341*
X00912Y00336*
X00911Y00331*
X00912Y00325*
X00915Y00321*
X00919Y00318*
X00925Y00316*
X0093Y00318*
X00934Y00321*
X00935Y00321*
X00935Y00321*
X00936Y00322*
X00937Y00322*
X00937Y00322*
X00938Y00323*
X00938Y00323*
X00939Y00323*
X00939Y00323*
X00939Y00323*
X0094Y00323*
X00941Y00323*
X01496*
X01499Y00324*
X015Y00325*
X01501Y00325*
X01502Y00326*
X01503Y00327*
X01503Y00327*
X01505Y00326*
X01511Y00327*
X01515Y0033*
X01518Y00335*
X01519Y0034*
X01518Y00346*
X01515Y0035*
X01511Y00353*
X01505Y00355*
X015Y00353*
X01495Y0035*
X01492Y00346*
X01491Y0034*
X01489Y00338*
X00941*
X0094Y00338*
X00939Y00338*
X00939Y00338*
X00939Y00338*
X00938Y00338*
X00938Y00339*
X00937Y00339*
X00937Y00339*
X00936Y00339*
X00935Y0034*
X00935Y00341*
X00934Y00341*
X00932Y00342*
X00934Y00347*
X01481*
X01484Y00348*
X01486Y00349*
X01499Y00362*
X01509*
X01509Y00362*
X0151Y00362*
X01511Y00362*
X01511Y00362*
X01511Y00362*
X01512Y00362*
X01512Y00361*
X01513Y00361*
X01514Y00361*
X01514Y0036*
X01515Y00359*
X01515Y00359*
X01519Y00356*
X01525Y00355*
X0153Y00356*
X01535Y0036*
X01538Y00364*
X01539Y0037*
X01538Y00375*
X01535Y00379*
X0153Y00383*
X01525Y00384*
X01519Y00383*
X01515Y0038*
X01515Y0038*
X01514Y00379*
X01514Y00378*
X01513Y00378*
X01512Y00378*
X01512Y00377*
X01511Y00377*
X01511Y00377*
X01511Y00377*
X0151Y00377*
X01509Y00377*
X01509Y00377*
X01499*
X01497Y00382*
X01498Y00384*
X015Y0039*
X01498Y00395*
X01495Y00399*
X01491Y00403*
X01485Y00404*
G37*
G36*
X0191Y00364D02*
X01904Y00363D01*
X019Y00359*
X01896Y00355*
X01895Y0035*
X01896Y00344*
X019Y0034*
X01904Y00336*
X0191Y00335*
X01915Y00336*
X01919Y0034*
X01923Y00344*
X01924Y0035*
X01923Y00355*
X01919Y00359*
X01915Y00363*
X0191Y00364*
G37*
G36*
X0118Y00217D02*
X01145D01*
X01142Y00216*
X01139Y00215*
X0112Y00195*
X01059*
X01058Y00195*
X01058Y00195*
X01057Y00196*
X01057Y00196*
X01056Y00196*
X01056Y00196*
X01055Y00196*
X01055Y00197*
X01054Y00197*
X01054Y00197*
X01053Y00198*
X01053Y00198*
X01048Y00201*
X01043Y00202*
X01037Y00201*
X01033Y00198*
X0103Y00193*
X01029Y00188*
X0103Y00183*
X01033Y00178*
X01036Y00176*
X01035Y00171*
X00983*
X00981Y00172*
X00979Y00175*
X00978Y0018*
X00974Y00184*
X0097Y00188*
X00965Y00189*
X00959Y00188*
X00955Y00184*
X00951Y0018*
X0095Y00175*
X00951Y00169*
X00955Y00165*
X00959Y00161*
X00965Y0016*
X00965Y00161*
X00965Y0016*
X00965Y0016*
X00966Y0016*
X00966Y0016*
X00967Y0016*
X00967Y0016*
X00967Y0016*
X00968Y0016*
X00968Y0016*
X00969Y0016*
X00969Y00159*
X0097Y00159*
X0097Y00158*
X00971Y00158*
X00973Y00157*
X00975Y00157*
X00975Y00152*
X00947*
X00905Y00193*
X00903Y00195*
X009Y00195*
X00783*
X00783Y00195*
X00782Y00195*
X00782Y00196*
X00781Y00196*
X00781Y00196*
X0078Y00196*
X0078Y00196*
X00779Y00197*
X00778Y00197*
X00778Y00197*
X00777Y00198*
X00777Y00198*
X00773Y00201*
X00767Y00202*
X00762Y00201*
X00757Y00198*
X00754Y00193*
X00753Y00188*
X00754Y00183*
X00756Y0018*
X00754Y00175*
X00749Y00175*
X00731Y00193*
X00729Y00195*
X00726Y00195*
X00586*
X00586Y00195*
X00585Y00195*
X00585Y00196*
X00584Y00196*
X00584Y00196*
X00583Y00196*
X00583Y00196*
X00582Y00197*
X00582Y00197*
X00581Y00197*
X0058Y00198*
X0058Y00198*
X00576Y00201*
X0057Y00202*
X00565Y00201*
X0056Y00198*
X00557Y00193*
X00556Y00188*
X00557Y00183*
X00558Y00182*
X00555Y00177*
X00553Y00176*
X00547Y00182*
X00547Y00182*
X00547Y00183*
X00546Y00183*
X00546Y00184*
X00546Y00184*
X00546Y00185*
X00545Y00185*
X00545Y00186*
X00545Y00186*
X00545Y00187*
X00545Y00188*
X00545Y00188*
X00544Y00193*
X00541Y00198*
X00536Y00201*
X00531Y00202*
X00526Y00201*
X00521Y00198*
X00518Y00193*
X00517Y00188*
X00518Y00183*
X00521Y00178*
X00526Y00175*
X00531Y00174*
X00531Y00174*
X00532Y00174*
X00533Y00174*
X00533Y00174*
X00534Y00174*
X00535Y00173*
X00535Y00173*
X00535Y00173*
X00536Y00173*
X00536Y00172*
X00537Y00172*
X00537Y00172*
X00547Y00162*
X00549Y00161*
X00552Y0016*
X00719*
X00734Y00144*
X00737Y00143*
X0074Y00142*
X00877*
X0092Y00099*
X00922Y00098*
X00925Y00097*
X01402*
X01417Y00082*
Y00055*
X01418Y00052*
X01419Y00049*
X01439Y00029*
X01442Y00028*
X01445Y00027*
X0145*
X0145Y00027*
X01451Y00027*
X01451Y00027*
X01452Y00027*
X01452Y00027*
X01453Y00027*
X01453Y00026*
X01454Y00026*
X01455Y00026*
X01455Y00025*
X01456Y00024*
X01456Y00024*
X0146Y00021*
X01466Y0002*
X01471Y00021*
X01476Y00025*
X01479Y00029*
X0148Y00035*
X01479Y0004*
X01476Y00044*
X01471Y00048*
X01466Y00049*
X01461Y00048*
X0146Y00049*
X01457Y00052*
X01459Y00054*
X0146Y0006*
X01459Y00065*
X01456Y00069*
X01455Y0007*
X01454Y00071*
X01454Y00071*
X01453Y00072*
X01453Y00072*
X01453Y00073*
X01452Y00073*
X01452Y00073*
X01452Y00074*
X01452Y00074*
X01452Y00075*
X01452Y00075*
X01452Y00076*
X01452Y00076*
X01452Y00076*
Y00105*
X01451Y00107*
X0145Y0011*
X0143Y0013*
X01427Y00131*
X01425Y00132*
X00932*
X00892Y00173*
X00889Y00174*
X00887Y00175*
X00784*
X00783Y00175*
X00783Y00175*
X00783Y00176*
X00782Y0018*
X00782Y0018*
X00783Y00181*
X00897*
X00939Y00139*
X00941Y00138*
X00944Y00137*
X016*
X01616Y00122*
Y00075*
X01616Y00075*
X01616Y00074*
X01616Y00074*
X01616Y00073*
X01616Y00073*
X01615Y00072*
X01615Y00072*
X01615Y00071*
X01614Y00071*
X01614Y0007*
X01613Y0007*
X01613Y00069*
X0161Y00065*
X01609Y0006*
X0161Y00054*
X01612Y00052*
X0161Y00049*
X01609Y00048*
X01604Y00049*
X01598Y00048*
X01594Y00044*
X01591Y0004*
X01589Y00035*
X01591Y00029*
X01594Y00025*
X01598Y00021*
X01604Y0002*
X01609Y00021*
X01614Y00025*
X01617Y00029*
X01618Y00035*
X01617Y0004*
X01615Y00042*
X01617Y00045*
X01618Y00046*
X01623Y00045*
X01629Y00046*
X01633Y0005*
X01636Y00054*
X01637Y0006*
X01636Y00065*
X01633Y00069*
X01633Y0007*
X01633Y0007*
X01632Y00071*
X01632Y00071*
X01631Y00072*
X01631Y00072*
X01631Y00073*
X01631Y00073*
X01631Y00074*
X01631Y00074*
X01631Y00075*
X0163Y00075*
Y00125*
X0163Y00127*
X01628Y0013*
X01608Y0015*
X01606Y00151*
X01603Y00152*
X01594*
X01593Y00157*
X01594Y00157*
X01597Y00162*
X01598Y00167*
X01597Y00173*
X01594Y00177*
X01589Y0018*
X01584Y00182*
X01582Y00181*
X01578Y00185*
X01578Y00188*
X01577Y00193*
X01574Y00198*
X0157Y00201*
X01564Y00202*
X01564Y00202*
X01563Y00202*
X01563Y00202*
X01562Y00202*
X01561Y00203*
X01561Y00203*
X0156Y00203*
X0156Y00203*
X01559Y00203*
X01559Y00204*
X01558Y00204*
X01558Y00204*
X01558Y00205*
X01556Y00206*
X01553Y00207*
X01192*
X01185Y00215*
X01182Y00216*
X0118Y00217*
G37*
G36*
X01722Y00202D02*
X01716Y00201D01*
X01712Y00198*
X01709Y00193*
X01708Y00188*
X01708Y00185*
X01704Y00181*
X01702Y00182*
X01697Y0018*
X01692Y00177*
X01689Y00173*
X01688Y00167*
X01689Y00162*
X01692Y00157*
X01697Y00154*
X01702Y00153*
X01707Y00154*
X01712Y00157*
X01715Y00162*
X01716Y00167*
X01716Y0017*
X0172Y00174*
X01722Y00174*
X01727Y00175*
X01732Y00178*
X01735Y00183*
X01736Y00188*
X01735Y00193*
X01732Y00198*
X01727Y00201*
X01722Y00202*
G37*
G36*
X01682Y00131D02*
X01677Y0013D01*
X01672Y00127*
X01669Y00122*
X01668Y00117*
X01669Y00112*
X01672Y00107*
X01677Y00104*
X01682Y00103*
X01688Y00104*
X01692Y00107*
X01695Y00112*
X01696Y00117*
X01695Y00122*
X01692Y00127*
X01688Y0013*
X01682Y00131*
G37*
G36*
X01663Y00099D02*
X01657Y00098D01*
X01653Y00094*
X0165Y0009*
X01649Y00085*
X0165Y00079*
X01653Y00075*
X01657Y00071*
X01663Y0007*
X01668Y00071*
X01673Y00075*
X01676Y00079*
X01677Y00085*
X01676Y0009*
X01673Y00094*
X01668Y00098*
X01663Y00099*
G37*
G36*
X01387Y00074D02*
X01382Y00073D01*
X01377Y00069*
X01374Y00065*
X01373Y0006*
X01374Y00054*
X01376Y00052*
X01373Y00049*
X01372Y00048*
X01367Y00049*
X01362Y00048*
X01357Y00044*
X01354Y0004*
X01353Y00035*
X01354Y00029*
X01357Y00025*
X01362Y00021*
X01367Y0002*
X01373Y00021*
X01377Y00025*
X0138Y00029*
X01381Y00035*
X0138Y0004*
X01379Y00042*
X01381Y00045*
X01382Y00046*
X01387Y00045*
X01392Y00046*
X01397Y0005*
X014Y00054*
X01401Y0006*
X014Y00065*
X01397Y00069*
X01392Y00073*
X01387Y00074*
G37*
G36*
X0005Y00059D02*
X00044Y00058D01*
X0004Y00054*
X00036Y0005*
X00035Y00045*
X00036Y00039*
X0004Y00035*
X00044Y00031*
X0005Y0003*
X00055Y00031*
X00059Y00035*
X00063Y00039*
X00064Y00045*
X00063Y0005*
X00059Y00054*
X00055Y00058*
X0005Y00059*
G37*
%LNmod_duo_x_g3399-3*%
%LPD*%
G36*
X01354Y02511D02*
X01354Y02511D01*
X01354Y0251*
X01354Y0251*
X01354Y02509*
X01355Y02509*
X01355Y02508*
X01356Y02508*
X01356Y02507*
X01357Y02507*
X01352Y02502*
X01352Y02503*
X01351Y02504*
X0135Y02504*
X0135Y02505*
X01349Y02505*
X01348Y02505*
X01348Y02505*
X01348*
X01347Y02505*
X01354Y02512*
X01354Y02511*
G37*
G36*
X01676Y023D02*
X01676Y02301D01*
X01675Y02302*
X01674Y02302*
X01673Y02303*
X01673Y02303*
X01672Y02304*
X01671Y02304*
X0167Y02304*
X01669Y02304*
X01668Y02304*
Y0231*
X01669Y0231*
X0167Y0231*
X01671Y02311*
X01672Y02311*
X01673Y02311*
X01673Y02312*
X01674Y02312*
X01675Y02313*
X01676Y02313*
X01676Y02314*
Y023*
G37*
G36*
X01488Y02063D02*
X01488Y02062D01*
X01488Y02061*
X01489Y02061*
X01489Y0206*
X01489Y0206*
X01489Y02059*
X0149Y02059*
X0149Y02058*
X0149Y02058*
X0148Y02058*
X0148Y02058*
X01481Y02058*
X01481Y02059*
X01481Y02059*
X01482Y0206*
X01482Y02061*
X01482Y02061*
X01482Y02062*
X01482Y02063*
X01482Y02064*
X01488*
X01488Y02063*
G37*
G36*
X00607Y02055D02*
X00608Y02054D01*
X00609Y02053*
X0061Y02053*
X00611Y02052*
X00611Y02052*
X00612Y02052*
X00613Y02052*
X00614Y02051*
X00615Y02051*
X00615Y02045*
X00614Y02045*
X00613Y02045*
X00612Y02045*
X00611Y02045*
X0061Y02044*
X0061Y02044*
X00609Y02044*
X00608Y02043*
X00607Y02042*
X00607Y02042*
X00607Y02055*
X00607Y02055*
G37*
G36*
X01531Y02042D02*
X0153Y02041D01*
X0153Y0204*
X01529Y02039*
X01529Y02039*
X01528Y02038*
X01528Y02037*
X01528Y02036*
X01528Y02035*
X01528Y02034*
X01522*
X01522Y02035*
X01522Y02036*
X01521Y02037*
X01521Y02038*
X01521Y02039*
X0152Y02039*
X0152Y0204*
X01519Y02041*
X01519Y02042*
X01518Y02042*
X01532*
X01531Y02042*
G37*
G36*
X01062Y02031D02*
X01063Y0203D01*
X01064Y02029*
X01065Y02029*
X01066Y02029*
X01066Y02028*
X01067Y02028*
X01068Y02028*
X01069Y02028*
X0107Y02028*
X0107Y02022*
X01069Y02022*
X01068Y02021*
X01067Y02021*
X01066Y02021*
X01065Y02021*
X01065Y0202*
X01064Y0202*
X01063Y02019*
X01062Y02018*
X01062Y02018*
X01062Y02031*
X01062Y02031*
G37*
G36*
X01498Y02013D02*
X01497Y02013D01*
X01497Y02014*
X01496Y02015*
X01495Y02015*
X01494Y02016*
X01493Y02016*
X01492Y02016*
X01492Y02016*
X01491Y02016*
X0149Y02017*
Y02023*
X01491Y02023*
X01492Y02023*
X01492Y02023*
X01493Y02023*
X01494Y02023*
X01495Y02024*
X01496Y02024*
X01497Y02025*
X01497Y02026*
X01498Y02026*
Y02013*
G37*
G36*
X01551Y02012D02*
X0155Y02011D01*
X01549Y0201*
X01549Y02009*
X01548Y02009*
X01548Y02008*
X01548Y02007*
X01548Y02006*
X01548Y02005*
X01547Y02004*
X01541*
X01541Y02005*
X01541Y02006*
X01541Y02007*
X01541Y02008*
X01541Y02009*
X0154Y02009*
X0154Y0201*
X01539Y02011*
X01538Y02012*
X01538Y02012*
X01551*
X01551Y02012*
G37*
G36*
X01004Y02009D02*
X01005Y02008D01*
X01006Y02008*
X01007Y02007*
X01007Y02007*
X01008Y02006*
X01009Y02006*
X0101Y02006*
X01011Y02006*
X01012Y02006*
X01012Y02*
X01011Y02*
X0101Y02*
X01009Y01999*
X01008Y01999*
X01007Y01999*
X01007Y01998*
X01006Y01998*
X01005Y01997*
X01004Y01997*
X01003Y01996*
X01004Y0201*
X01004Y02009*
G37*
G36*
X01032Y01991D02*
X01033Y0199D01*
X01034Y01989*
X01035Y01989*
X01036Y01988*
X01036Y01988*
X01037Y01988*
X01038Y01988*
X01039Y01988*
X0104Y01988*
X0104Y01982*
X01039Y01981*
X01038Y01981*
X01037Y01981*
X01036Y01981*
X01035Y01981*
X01035Y0198*
X01034Y0198*
X01033Y01979*
X01032Y01978*
X01032Y01978*
X01032Y01991*
X01032Y01991*
G37*
G36*
X02859Y01736D02*
X0286Y01735D01*
X02861Y01734*
X02861Y01734*
X02862Y01733*
X02863Y01733*
X02864Y01733*
X02865Y01733*
X02866Y01733*
X02867Y01733*
X02867Y01727*
X02866Y01726*
X02865Y01726*
X02864Y01726*
X02863Y01726*
X02862Y01726*
X02861Y01725*
X02861Y01725*
X0286Y01724*
X02859Y01723*
X02858Y01723*
X02858Y01736*
X02859Y01736*
G37*
G36*
X02936Y0168D02*
X02936Y01679D01*
X02936Y01678*
X02937Y01678*
X02937Y01677*
X02937Y01676*
X02938Y01675*
X02938Y01674*
X02939Y01674*
X0294Y01673*
X02926*
X02927Y01674*
X02927Y01674*
X02928Y01675*
X02929Y01676*
X02929Y01677*
X02929Y01678*
X0293Y01678*
X0293Y01679*
X0293Y0168*
X0293Y01681*
X02936*
X02936Y0168*
G37*
G36*
X02926Y01659D02*
X02925Y0166D01*
X02924Y0166*
X02924Y01661*
X02923Y01661*
X02922Y01662*
X02921Y01662*
X0292Y01662*
X02919Y01663*
X02919Y01663*
X02918Y01663*
X02918Y01669*
X02919Y01669*
X02919Y01669*
X0292Y01669*
X02921Y01669*
X02922Y0167*
X02923Y0167*
X02924Y01671*
X02924Y01671*
X02925Y01672*
X02926Y01673*
X02926Y01659*
G37*
G36*
X02829Y01566D02*
X02829Y01565D01*
X0283Y01565*
X0283Y01564*
X0283Y01563*
X02831Y01562*
X02831Y01561*
X02832Y01561*
X02832Y0156*
X02833Y01559*
X02819*
X0282Y0156*
X02821Y01561*
X02821Y01561*
X02822Y01562*
X02822Y01563*
X02823Y01564*
X02823Y01565*
X02823Y01565*
X02823Y01566*
X02823Y01567*
X02829*
X02829Y01566*
G37*
G36*
X02832Y01544D02*
X02832Y01543D01*
X02831Y01543*
X02831Y01542*
X0283Y01541*
X0283Y0154*
X0283Y01539*
X02829Y01538*
X02829Y01538*
X02829Y01537*
X02823*
X02823Y01538*
X02823Y01538*
X02823Y01539*
X02823Y0154*
X02822Y01541*
X02822Y01542*
X02821Y01543*
X02821Y01543*
X0282Y01544*
X02819Y01545*
X02833*
X02832Y01544*
G37*
G36*
X02898Y01483D02*
X02897Y01483D01*
X02896Y01484*
X02895Y01485*
X02895Y01485*
X02894Y01486*
X02893Y01486*
X02892Y01486*
X02891Y01486*
X0289Y01486*
X02889Y01487*
X02889Y01493*
X0289Y01493*
X02891Y01493*
X02892Y01493*
X02893Y01493*
X02894Y01493*
X02895Y01494*
X02895Y01494*
X02896Y01495*
X02897Y01496*
X02898Y01496*
X02898Y01483*
G37*
G36*
X02911Y01482D02*
X0291Y01481D01*
X0291Y0148*
X02909Y01479*
X02909Y01479*
X02908Y01478*
X02908Y01477*
X02908Y01476*
X02908Y01475*
X02908Y01474*
X02902*
X02902Y01475*
X02902Y01476*
X02901Y01477*
X02901Y01478*
X02901Y01479*
X029Y01479*
X029Y0148*
X02899Y01481*
X02899Y01482*
X02898Y01483*
X02912*
X02911Y01482*
G37*
G36*
X02782Y01262D02*
X02781Y01261D01*
X02781Y0126*
X0278Y01259*
X0278Y01259*
X02779Y01258*
X02779Y01257*
X02779Y01256*
X02779Y01255*
X02779Y01254*
X02773*
X02773Y01255*
X02773Y01256*
X02772Y01257*
X02772Y01258*
X02772Y01259*
X02771Y01259*
X02771Y0126*
X0277Y01261*
X0277Y01262*
X02769Y01263*
X02783*
X02782Y01262*
G37*
G36*
X02877Y01211D02*
X02876Y01211D01*
X02875Y0121*
X02875Y01209*
X02874Y01209*
X02874Y01208*
X02874Y01207*
X02873Y01206*
X02873Y01205*
X02873Y01204*
X02873Y01203*
X02864Y01214*
X02865Y01214*
X02866Y01214*
X02867Y01214*
X02868Y01214*
X02869Y01214*
X0287Y01214*
X02871Y01215*
X02871Y01215*
X02872Y01216*
X02873Y01216*
X02877Y01211*
G37*
G36*
X02856Y01197D02*
X02855Y01198D01*
X02855Y01198*
X02854Y01199*
X02853Y01199*
X02852Y012*
X02851Y012*
X0285Y01201*
X0285Y01201*
X02849Y01201*
X02848Y01201*
X02848Y01207*
X02849Y01207*
X0285Y01207*
X0285Y01207*
X02851Y01208*
X02852Y01208*
X02853Y01208*
X02854Y01209*
X02854Y01209*
X02855Y0121*
X02856Y01211*
X02856Y01197*
G37*
G36*
X00972Y02247D02*
X00973Y02246D01*
X00973Y02246*
X00974Y02245*
X00975Y02245*
X00976Y02244*
X00977Y02244*
X00978Y02244*
X00978Y02244*
X00979Y02244*
X00979Y02238*
X00978Y02238*
X00978Y02238*
X00977Y02237*
X00976Y02237*
X00975Y02237*
X00974Y02236*
X00973Y02236*
X00973Y02235*
X00972Y02235*
X00971Y02234*
X00971Y02248*
X00972Y02247*
G37*
G36*
X01733Y02196D02*
X01734Y02196D01*
X01735Y02195*
X01736Y02195*
X01736Y02195*
X01737Y02194*
X01738Y02194*
X01739Y02194*
X0174Y02194*
X01741Y02194*
X01731Y02184*
X01731Y02185*
X01731Y02186*
X01731Y02187*
X01731Y02188*
X01731Y02189*
X0173Y0219*
X0173Y02191*
X0173Y02191*
X01729Y02192*
X01728Y02193*
X01733Y02197*
X01733Y02196*
G37*
G36*
X0262Y0254D02*
X02665Y02495D01*
X02705*
X0272Y0248*
Y0232*
X027Y023*
X0251*
X02405Y02195*
X02302Y02092*
X01755*
Y02179*
X01755Y02184*
X01755Y02189*
Y02215*
X0179Y0225*
X0193*
X02085Y02405*
X02235*
X0238Y0255*
X0262*
Y0254*
G37*
G36*
X0285Y01858D02*
X0285Y01856D01*
X0285Y01855*
X0285Y01854*
X0285Y01854*
X0285Y01853*
X02851Y01852*
X02851Y01852*
X02851Y01852*
X02838*
X02838Y01852*
X02838Y01852*
X02839Y01853*
X02839Y01854*
X02839Y01854*
X02839Y01855*
X02839Y01856*
X02839Y01857*
X0284Y01859*
X0285*
X0285Y01858*
G37*
G36*
X02851Y01837D02*
X02851Y01837D01*
X0285Y01836*
X0285Y01835*
X0285Y01835*
X0285Y01834*
X0285Y01833*
X0285Y01832*
X0285Y0183*
X0284*
X02839Y01831*
X02839Y01833*
X02839Y01834*
X02839Y01835*
X02839Y01835*
X02839Y01836*
X02838Y01837*
X02838Y01837*
X02838Y01837*
X02851*
X02851Y01837*
G37*
G36*
X02745Y01573D02*
X02745Y01571D01*
X02745Y0157*
X02745Y0157*
X02745Y01569*
X02745Y01568*
X02746Y01568*
X02746Y01567*
X02746Y01567*
X02733*
X02733Y01567*
X02733Y01568*
X02734Y01568*
X02734Y01569*
X02734Y0157*
X02734Y0157*
X02734Y01571*
X02734Y01572*
X02735Y01574*
X02745*
X02745Y01573*
G37*
G36*
X02746Y01552D02*
X02746Y01552D01*
X02745Y01551*
X02745Y01551*
X02745Y0155*
X02745Y01549*
X02745Y01548*
X02745Y01548*
X02745Y01546*
X02735*
X02734Y01547*
X02734Y01548*
X02734Y01549*
X02734Y0155*
X02734Y01551*
X02734Y01551*
X02733Y01552*
X02733Y01552*
X02733Y01553*
X02746*
X02746Y01552*
G37*
G36*
X02705Y0129D02*
X02704Y01289D01*
X02703Y01288*
X02702Y01287*
X02702Y01286*
X02701Y01286*
X02701Y01285*
X02701Y01284*
X02701Y01284*
X02701Y01283*
X02691Y01293*
X02692Y01293*
X02692Y01293*
X02693Y01293*
X02693Y01294*
X02694Y01294*
X02695Y01294*
X02695Y01295*
X02696Y01295*
X02698Y01297*
X02705Y0129*
G37*
G36*
X02928Y00777D02*
X02927Y00777D01*
X02926Y00778*
X02925Y00779*
X02924Y00779*
X02924Y0078*
X02923Y0078*
X02922Y0078*
X02921Y0078*
X0292Y00781*
X02919Y00781*
X02919Y00787*
X0292Y00787*
X02921Y00787*
X02922Y00787*
X02923Y00787*
X02923Y00788*
X02924Y00788*
X02925Y00789*
X02926Y00789*
X02927Y0079*
X02927Y00791*
X02928Y00777*
G37*
G36*
X01552Y0079D02*
X01553Y00789D01*
X01554Y00789*
X01555Y00788*
X01556Y00788*
X01556Y00787*
X01557Y00787*
X01558Y00787*
X01559Y00787*
X0156Y00787*
Y00781*
X01559Y00781*
X01558Y0078*
X01557Y0078*
X01556Y0078*
X01556Y0078*
X01555Y00779*
X01554Y00779*
X01553Y00778*
X01552Y00777*
X01552Y00777*
Y0079*
X01552Y0079*
G37*
G36*
X01538Y00777D02*
X01537Y00777D01*
X01536Y00778*
X01535Y00779*
X01534Y00779*
X01534Y0078*
X01533Y0078*
X01532Y0078*
X01531Y0078*
X0153Y00781*
X01529Y00781*
X01529Y00787*
X0153Y00787*
X01531Y00787*
X01532Y00787*
X01533Y00787*
X01533Y00788*
X01534Y00788*
X01535Y00788*
X01536Y00789*
X01537Y0079*
X01537Y0079*
X01538Y00777*
G37*
G36*
X01493Y0079D02*
X01494Y00789D01*
X01495Y00788*
X01496Y00788*
X01496Y00788*
X01497Y00787*
X01498Y00787*
X01499Y00787*
X015Y00787*
X01501Y00787*
Y00781*
X015Y00781*
X01499Y0078*
X01498Y0078*
X01497Y0078*
X01496Y0078*
X01496Y00779*
X01495Y00779*
X01494Y00778*
X01493Y00777*
X01492Y00777*
Y0079*
X01493Y0079*
G37*
G36*
X02888Y00748D02*
X02887Y00748D01*
X02886Y00749*
X02885Y0075*
X02884Y0075*
X02884Y00751*
X02883Y00751*
X02882Y00751*
X02881Y00751*
X0288Y00752*
X02879Y00752*
X02879Y00758*
X0288Y00758*
X02881Y00758*
X02882Y00758*
X02883Y00758*
X02883Y00759*
X02884Y00759*
X02885Y00759*
X02886Y0076*
X02887Y00761*
X02887Y00761*
X02888Y00748*
G37*
G36*
X01572Y00761D02*
X01573Y0076D01*
X01574Y00759*
X01574Y00759*
X01575Y00759*
X01576Y00758*
X01577Y00758*
X01578Y00758*
X01579Y00758*
X01579Y00758*
Y00752*
X01579Y00752*
X01578Y00751*
X01577Y00751*
X01576Y00751*
X01575Y00751*
X01574Y0075*
X01574Y0075*
X01573Y00749*
X01572Y00748*
X01571Y00748*
Y00761*
X01572Y00761*
G37*
G36*
X02908Y00728D02*
X02907Y00728D01*
X02906Y00729*
X02905Y0073*
X02904Y0073*
X02904Y00731*
X02903Y00731*
X02902Y00731*
X02901Y00731*
X029Y00732*
X02899Y00732*
X02899Y00738*
X029Y00738*
X02901Y00738*
X02902Y00738*
X02903Y00738*
X02903Y00739*
X02904Y00739*
X02905Y00739*
X02906Y0074*
X02907Y00741*
X02907Y00741*
X02908Y00728*
G37*
G36*
X01592Y00741D02*
X01592Y0074D01*
X01593Y00739*
X01594Y00739*
X01595Y00739*
X01596Y00738*
X01597Y00738*
X01597Y00738*
X01598Y00738*
X01599Y00738*
Y00732*
X01598Y00732*
X01597Y00731*
X01597Y00731*
X01596Y00731*
X01595Y00731*
X01594Y0073*
X01593Y0073*
X01592Y00729*
X01592Y00728*
X01591Y00728*
Y00741*
X01592Y00741*
G37*
G36*
X01577Y00728D02*
X01576Y00728D01*
X01575Y00729*
X01575Y0073*
X01574Y0073*
X01573Y00731*
X01572Y00731*
X01571Y00731*
X0157Y00731*
X01569Y00732*
X01569Y00732*
Y00738*
X01569Y00738*
X0157Y00738*
X01571Y00738*
X01572Y00738*
X01573Y00739*
X01574Y00739*
X01575Y00739*
X01575Y0074*
X01576Y00741*
X01577Y00741*
Y00728*
G37*
G36*
X01513Y00741D02*
X01514Y0074D01*
X01515Y00739*
X01515Y00739*
X01516Y00739*
X01517Y00738*
X01518Y00738*
X01519Y00738*
X0152Y00738*
X0152Y00738*
Y00732*
X0152Y00732*
X01519Y00731*
X01518Y00731*
X01517Y00731*
X01516Y00731*
X01515Y0073*
X01515Y0073*
X01514Y00729*
X01513Y00728*
X01512Y00728*
Y00741*
X01513Y00741*
G37*
G36*
X02868Y00703D02*
X02867Y00703D01*
X02866Y00704*
X02865Y00705*
X02864Y00705*
X02864Y00706*
X02863Y00706*
X02862Y00706*
X02861Y00706*
X0286Y00707*
X02859Y00707*
X02859Y00713*
X0286Y00713*
X02861Y00713*
X02862Y00713*
X02863Y00713*
X02863Y00714*
X02864Y00714*
X02865Y00714*
X02866Y00715*
X02867Y00716*
X02867Y00716*
X02868Y00703*
G37*
G36*
X01611Y00716D02*
X01612Y00715D01*
X01613Y00714*
X01614Y00714*
X01615Y00714*
X01615Y00713*
X01616Y00713*
X01617Y00713*
X01618Y00713*
X01619Y00713*
Y00707*
X01618Y00707*
X01617Y00706*
X01616Y00706*
X01615Y00706*
X01615Y00706*
X01614Y00705*
X01613Y00705*
X01612Y00704*
X01611Y00703*
X01611Y00703*
Y00716*
X01611Y00716*
G37*
G36*
X01481Y00381D02*
X0148Y00381D01*
X0148Y00381*
X01479Y00381*
X01478Y00381*
X01477Y00381*
X01476Y00381*
X01476Y00381*
X01475Y0038*
X01474Y0038*
X01474Y00379*
X01471Y00386*
X01472Y00386*
X01473Y00388*
X01474Y00388*
X01475Y0039*
X01476Y00392*
X01476Y00393*
X01481Y00381*
G37*
G36*
X01518Y00363D02*
X01517Y00363D01*
X01516Y00364*
X01515Y00365*
X01515Y00365*
X01514Y00366*
X01513Y00366*
X01512Y00366*
X01511Y00366*
X0151Y00366*
X0151Y00367*
Y00373*
X0151Y00373*
X01511Y00373*
X01512Y00373*
X01513Y00373*
X01514Y00373*
X01515Y00374*
X01515Y00374*
X01516Y00375*
X01517Y00376*
X01518Y00376*
Y00363*
G37*
G36*
X00858Y00352D02*
X00857Y00352D01*
X00857Y00351*
X00856Y0035*
X00856Y0035*
X00856Y00349*
X00855Y00348*
X00855Y00348*
X00855Y00347*
X00855Y00347*
X00855Y00346*
X00847Y00354*
X00848Y00354*
X00849*
X00849Y00354*
X0085Y00354*
X0085Y00354*
X00851Y00355*
X00852Y00355*
X00852Y00355*
X00853Y00356*
X00854Y00357*
X00858Y00352*
G37*
G36*
X0081Y00345D02*
X0081Y00344D01*
X0081Y00343*
X0081Y00342*
X00811Y00342*
X00811Y00341*
X00811Y0034*
X00812Y00339*
X00813Y00338*
X00813Y00338*
X008*
X008Y00338*
X00801Y00339*
X00802Y0034*
X00802Y00341*
X00803Y00342*
X00803Y00342*
X00803Y00343*
X00803Y00344*
X00804Y00345*
X00804Y00346*
X0081*
X0081Y00345*
G37*
G36*
X01502Y00331D02*
X01502Y00331D01*
X01502Y00331*
X01501Y00331*
X01501Y00331*
X01501Y00331*
X015Y0033*
X015Y0033*
X01499Y00329*
X01498Y00328*
X01494Y00333*
X01495Y00333*
X01495Y00334*
X01496Y00335*
X01496Y00335*
X01496Y00335*
X01496Y00336*
X01496Y00336*
Y00336*
X01496Y00336*
X01502Y00331*
G37*
G36*
X00933Y00337D02*
X00933Y00336D01*
X00934Y00336*
X00935Y00335*
X00936Y00335*
X00937Y00334*
X00937Y00334*
X00938Y00334*
X00939Y00334*
X0094Y00334*
Y00328*
X00939Y00328*
X00938Y00327*
X00937Y00327*
X00937Y00327*
X00936Y00327*
X00935Y00326*
X00934Y00326*
X00933Y00325*
X00933Y00324*
X00932Y00324*
Y00337*
X00933Y00337*
G37*
G36*
X01556Y002D02*
X01557Y002D01*
X01558Y00199*
X01558Y00199*
X01559Y00199*
X0156Y00198*
X01561Y00198*
X01562Y00198*
X01563Y00198*
X01564Y00198*
X01554Y00188*
X01554Y00189*
X01554Y0019*
X01554Y00191*
X01554Y00192*
X01554Y00193*
X01553Y00194*
X01553Y00195*
X01552Y00195*
X01552Y00196*
X01551Y00197*
X01556Y00201*
X01556Y002*
G37*
G36*
X01051Y00194D02*
X01051Y00194D01*
X01052Y00193*
X01053Y00192*
X01054Y00192*
X01055Y00192*
X01055Y00191*
X01056Y00191*
X01057Y00191*
X01058Y00191*
Y00185*
X01057Y00185*
X01056Y00185*
X01055Y00185*
X01055Y00184*
X01054Y00184*
X01053Y00184*
X01052Y00183*
X01051Y00183*
X01051Y00182*
X0105Y00181*
Y00195*
X01051Y00194*
G37*
G36*
X00775D02*
X00776Y00194D01*
X00777Y00193*
X00777Y00192*
X00778Y00192*
X00779Y00192*
X0078Y00191*
X00781Y00191*
X00782Y00191*
X00783Y00191*
Y00185*
X00782Y00185*
X00781Y00185*
X0078Y00185*
X00779Y00184*
X00778Y00184*
X00777Y00184*
X00777Y00183*
X00776Y00183*
X00775Y00182*
X00774Y00181*
Y00195*
X00775Y00194*
G37*
G36*
X00578D02*
X00579Y00194D01*
X0058Y00193*
X00581Y00192*
X00581Y00192*
X00582Y00192*
X00583Y00191*
X00584Y00191*
X00585Y00191*
X00586Y00191*
Y00185*
X00585Y00185*
X00584Y00185*
X00583Y00185*
X00582Y00184*
X00581Y00184*
X00581Y00184*
X0058Y00183*
X00579Y00183*
X00578Y00182*
X00577Y00181*
Y00195*
X00578Y00194*
G37*
G36*
X01173Y00183D02*
X01169Y00179D01*
X01167Y00181*
X01171Y00186*
X01173Y00183*
G37*
G36*
X00541Y00187D02*
X00541Y00186D01*
X00541Y00185*
X00541Y00184*
X00542Y00183*
X00542Y00182*
X00542Y00181*
X00543Y00181*
X00543Y0018*
X00544Y00179*
X0054Y00175*
X00539Y00176*
X00538Y00176*
X00538Y00177*
X00537Y00177*
X00536Y00178*
X00535Y00178*
X00534Y00178*
X00533Y00178*
X00532Y00178*
X00531Y00178*
X00541Y00188*
X00541Y00187*
G37*
G36*
X01419Y00174D02*
X01419Y00175D01*
X01418Y00176*
X01417Y00176*
X01416Y00177*
X01415Y00177*
X01415Y00178*
X01414Y00178*
X01413Y00178*
X01412Y00178*
X01411Y00178*
Y00184*
X01412Y00184*
X01413Y00184*
X01414Y00185*
X01415Y00185*
X01415Y00185*
X01416Y00186*
X01417Y00186*
X01418Y00187*
X01419Y00187*
X01419Y00188*
Y00174*
G37*
G36*
X00974Y00173D02*
X00974Y00172D01*
X00974Y00171*
X00975Y0017*
X00975Y0017*
X00975Y00169*
X00976Y00168*
X00976Y00167*
X00977Y00167*
X00977Y00166*
X00973Y00162*
X00972Y00162*
X00972Y00163*
X00971Y00163*
X0097Y00164*
X00969Y00164*
X00969Y00164*
X00968Y00165*
X00967Y00165*
X00966Y00165*
X00965Y00165*
X00974Y00174*
X00974Y00173*
G37*
G36*
X0158Y00158D02*
X01579Y00159D01*
X01576Y0016*
X01575Y0016*
X01573Y00161*
X01572Y00161*
X01571Y00161*
X01568Y00167*
X01569Y00167*
X0157Y00167*
X01571Y00167*
X01572Y00167*
X01572Y00168*
X01573Y00168*
X01573Y00169*
X01574Y0017*
X01574Y0017*
X01575Y00171*
X0158Y00158*
G37*
G36*
X01626Y00074D02*
X01626Y00073D01*
X01627Y00072*
X01627Y00071*
X01627Y00071*
X01628Y0007*
X01628Y00069*
X01629Y00068*
X01629Y00067*
X0163Y00067*
X01616*
X01617Y00067*
X01618Y00068*
X01618Y00069*
X01619Y0007*
X01619Y00071*
X0162Y00071*
X0162Y00072*
X0162Y00073*
X0162Y00074*
X0162Y00075*
X01626*
X01626Y00074*
G37*
G36*
X01448Y00074D02*
X01448Y00073D01*
X01448Y00073*
X01448Y00072*
X01449Y00071*
X01449Y0007*
X0145Y00069*
X0145Y00069*
X01451Y00068*
X01452Y00068*
X01438Y00065*
X01439Y00066*
X0144Y00068*
X0144Y00069*
X01441Y0007*
X01441Y00071*
X01441Y00072*
X01441Y00072*
X01441Y00073*
X01442Y00074*
X01448Y00075*
X01448Y00074*
G37*
G36*
X01459Y00028D02*
X01458Y00028D01*
X01457Y00029*
X01456Y0003*
X01456Y0003*
X01455Y00031*
X01454Y00031*
X01453Y00031*
X01452Y00031*
X01451Y00031*
X0145Y00032*
Y00038*
X01451Y00038*
X01452Y00038*
X01453Y00038*
X01454Y00038*
X01455Y00038*
X01456Y00039*
X01456Y00039*
X01457Y0004*
X01458Y00041*
X01459Y00041*
Y00028*
G37*
%LNmod_duo_x_g3399-4*%
%LPC*%
G36*
X01861Y0224D02*
X01855Y02239D01*
X0185Y02235*
X01847Y0223*
X01845Y02224*
X01847Y02218*
X0185Y02213*
X01855Y02209*
X01861Y02208*
X01868Y02209*
X01873Y02213*
X01876Y02218*
X01878Y02224*
X01876Y0223*
X01873Y02235*
X01868Y02239*
X01861Y0224*
G37*
G36*
X02282Y02179D02*
X02277Y02178D01*
X02272Y02174*
X02269Y0217*
X02268Y02165*
X02269Y02159*
X02272Y02155*
X02277Y02151*
X02282Y0215*
X02287Y02151*
X02292Y02155*
X02295Y02159*
X02296Y02165*
X02295Y0217*
X02292Y02174*
X02287Y02178*
X02282Y02179*
G37*
%LNmod_duo_x_g3399-5*%
%LPD*%
G54D20*
X01345Y02515D02*
X01355Y02505D01*
Y0239D02*
Y02505D01*
Y0239D02*
X01385Y0236D01*
X01405*
X01457Y02307*
X01684*
X01604Y0071D02*
X02875D01*
X02894Y00755D02*
X02895Y00755D01*
X01564Y00755D02*
X02894D01*
X02914Y00735D02*
X02915Y00735D01*
X01584Y00735D02*
X02914D01*
X01545Y00784D02*
X02935D01*
X01505Y00735D02*
X01584D01*
X01544Y00784D02*
X01545Y00784D01*
X01485Y00784D02*
X01544D01*
X00964Y02241D02*
X01198D01*
X012Y02243*
X01242*
X01271Y02214*
X01712*
X01741Y02184*
X01535Y01985D02*
X01544Y01994D01*
X01025Y01985D02*
X01535D01*
X00996Y02003D02*
X01512D01*
X01055Y02025D02*
X01195D01*
X006Y02048D02*
X01184D01*
X01225Y0209*
X0146*
X01485Y02064*
Y0205D02*
Y02064D01*
Y0205D02*
X01485Y0205D01*
X01195Y02025D02*
X01242Y02072D01*
X01446*
X01465Y02054*
Y02035D02*
Y02054D01*
Y02035D02*
X0148Y0202D01*
X01505*
X01512Y02003D02*
X01525Y02015D01*
Y0205*
X01544Y01994D02*
Y0202D01*
X02776Y0124D02*
Y0127D01*
Y0124D02*
X02812Y01204D01*
X02865*
X02826Y01513D02*
Y01552D01*
Y01513D02*
X0285Y0149D01*
X02905*
X02865Y01204D02*
X02905Y01244D01*
Y0149*
X02826Y01552D02*
Y01637D01*
X02855Y01666*
X02908Y0173D02*
X02933Y01704D01*
X02855Y01666D02*
X02933D01*
Y01704*
X02851Y0173D02*
X02908D01*
X01445Y00035D02*
X01466D01*
X01425Y00055D02*
X01445Y00035D01*
X01425Y00055D02*
Y00085D01*
X01405Y00105D02*
X01425Y00085D01*
X00925Y00105D02*
X01405D01*
X0088Y0015D02*
X00925Y00105D01*
X0074Y0015D02*
X0088D01*
X00722Y00167D02*
X0074Y0015D01*
X00552Y00167D02*
X00722D01*
X00531Y00188D02*
X00552Y00167D01*
X01445Y00061D02*
Y00105D01*
Y00061D02*
X01446Y0006D01*
X01425Y00125D02*
X01445Y00105D01*
X0093Y00125D02*
X01425D01*
X01603Y00145D02*
X01623Y00125D01*
X00944Y00145D02*
X01603D01*
X01623Y0006D02*
Y00125D01*
X00887Y00167D02*
X0093Y00125D01*
X00747Y00167D02*
X00887D01*
X00726Y00188D02*
X00747Y00167D01*
X0057Y00188D02*
X00726D01*
X009D02*
X00944Y00145D01*
X00767Y00188D02*
X009D01*
X0148Y0039D02*
X01485D01*
X01465Y00375D02*
X0148Y0039D01*
X0083Y00375D02*
X01465D01*
X00807Y00352D02*
X0083Y00375D01*
X00807Y00331D02*
Y00352D01*
X01496Y0037D02*
X01525D01*
X01481Y00355D02*
X01496Y0037D01*
X00856Y00355D02*
X01481D01*
X00846Y00344D02*
X00856Y00355D01*
X00846Y00344D02*
X00846D01*
X0119Y002D02*
X01553D01*
X0118Y0021D02*
X0119Y002D01*
X01145Y0021D02*
X0118D01*
X01123Y00188D02*
X01145Y0021D01*
X01553Y002D02*
X01564Y00188D01*
X01161D02*
X01164D01*
X01043D02*
X01123D01*
X00975Y00164D02*
X0158D01*
X00965Y00175D02*
X00975Y00164D01*
X01164Y00188D02*
X01171Y00181D01*
X0158Y00164D02*
X01584Y00167D01*
X01171Y00181D02*
X01426D01*
X01496Y00331D02*
X01505Y0034D01*
X00925Y00331D02*
X01496D01*
G54D23*
X01525Y02287D03*
X02468Y02627D03*
X02005Y02216D03*
X0204D03*
X0211D03*
X02075D03*
X0218D03*
X02145D03*
Y0218D03*
X0218D03*
X02075D03*
X0211D03*
X0204D03*
X02005D03*
Y0225D03*
X0204D03*
X0211D03*
X02075D03*
X0218D03*
X02145D03*
X02005Y02285D03*
X0204D03*
X0211D03*
X02075D03*
X0218D03*
X02145D03*
X0191Y0035D03*
X02845Y01845D03*
X0274Y0156D03*
X02691Y01283D03*
X02815Y00335D03*
X0285D03*
X02745D03*
X0278D03*
X0271D03*
X02675D03*
X02815Y003D03*
X0285D03*
X02745D03*
X0278D03*
X0271D03*
X02675D03*
Y0023D03*
X0271D03*
X0278D03*
X02745D03*
X0285D03*
X02815D03*
Y00266D03*
X0285D03*
X02745D03*
X0278D03*
X0271D03*
X02675D03*
X02365Y02512D03*
X01604Y00035D03*
X00336Y01082D03*
X00305D03*
X0028D03*
X00255D03*
X0182Y02298D03*
X01385Y02615D03*
X01437Y02512D03*
X01345Y02515D03*
X01684Y02307D03*
X01722Y02292D03*
X02215Y01974D03*
X02245Y0191D03*
X0182Y0068D03*
X01845Y00649D03*
X02282Y02165D03*
X01367Y0233D03*
X01387Y02307D03*
X02305Y01845D03*
X02335Y0187D03*
X0187Y0068D03*
X01895Y00649D03*
X0192Y0068D03*
X02365Y02027D03*
X02396Y02003D03*
X02421Y01974D03*
X02456Y01948D03*
X02224Y00835D03*
X02263D03*
X02303D03*
X02342Y00834D03*
X01367Y0205D03*
X01387Y0202D03*
X01584Y0205D03*
X01604Y0202D03*
X01623Y0205D03*
X01643Y0202D03*
X01703Y02018D03*
X01683Y02048D03*
X02421Y00964D03*
X02449Y00985D03*
X02474Y0094D03*
X025Y01015D03*
X02933Y01666D03*
X02905Y0149D03*
X02863Y01204D03*
X02826Y01552D03*
X02776Y0127D03*
X02851Y0173D03*
X02875Y0071D03*
X02895Y00755D03*
X02915Y00735D03*
X02935Y00784D03*
X01604Y0071D03*
X01564Y00755D03*
X01584Y00735D03*
X01505D03*
X01545Y00784D03*
X01485Y00784D03*
X00964Y02241D03*
Y01145D03*
X00996Y00925D03*
Y02003D03*
X01014Y00885D03*
X01025Y01985D03*
X006Y00531D03*
Y02048D03*
X01055Y00495D03*
Y02025D03*
X01355Y02025D03*
X01407Y02282D03*
X0057Y0116D03*
Y02224D03*
X01085Y00415D03*
X01085Y0212D03*
X00545Y02271D03*
X01111Y00455D03*
X01135Y02198D03*
X01111Y0216D03*
X00548Y01043D03*
X01135Y00649D03*
X01446Y02282D03*
X01426Y02298D03*
X01397Y02488D03*
X018Y02282D03*
X01781Y02298D03*
X01761Y02282D03*
X01741Y02184D03*
X01217Y00807D03*
X02145Y0037D03*
X0187Y00391D03*
X01466Y01075D03*
X01367Y00862D03*
X01407Y0089D03*
X01426Y00918D03*
X01348Y00835D03*
X01466Y00035D03*
X01446Y0006D03*
X00531Y00188D03*
X0057D03*
X01623Y0006D03*
X00767Y00188D03*
X01485Y0039D03*
X00807Y00331D03*
X01525Y0037D03*
X00846Y00344D03*
X01564Y00188D03*
X01545Y00474D03*
X01161Y00188D03*
X01043D03*
X01426Y00181D03*
X01505Y0034D03*
X00925Y00331D03*
X01584Y00167D03*
X00965Y00175D03*
X01702Y011D03*
X01682Y01125D03*
X01663Y01151D03*
X01643Y01175D03*
X01663Y00085D03*
X01387Y0006D03*
X01367Y00035D03*
X01682Y00117D03*
X01702Y00167D03*
X01722Y00188D03*
X01269Y0205D03*
X01289Y0202D03*
X01308Y0205D03*
X01525D03*
X01544Y0202D03*
X01485Y0205D03*
X01505Y0202D03*
X01426Y0205D03*
X01446Y0202D03*
X01955Y02504D03*
X0198Y02505D03*
X02033Y02504D03*
X02058Y02505D03*
X01623Y00619D03*
X01643Y00564D03*
Y00474D03*
X01545Y00562D03*
X01407Y00474D03*
Y00564D03*
X01585Y02184D03*
Y02284D03*
X0296Y0264D03*
X02915D03*
X0296Y0259D03*
X02915D03*
X0294Y02615D03*
X00065Y02605D03*
X02705Y0137D03*
X0005Y00045D03*
X0279Y02251D03*
X02825D03*
X02895D03*
X0286D03*
X02965D03*
X0293D03*
Y02215D03*
X02965D03*
X0286D03*
X02895D03*
X02825D03*
X0279D03*
Y02285D03*
X02825D03*
X02895D03*
X0286D03*
X02965D03*
X0293D03*
X0279Y0232D03*
X02825D03*
X02895D03*
X0286D03*
X02965D03*
X0293D03*
X0279Y02354D03*
X02825D03*
X02895D03*
X0286D03*
X02965D03*
X0293D03*
Y0239D03*
X02965D03*
X0286D03*
X02895D03*
X02825D03*
X0279D03*
X0263Y02415D03*
X02598D03*
X027D03*
X0271Y0239D03*
X0257Y02415D03*
X02585Y0239D03*
X02615D03*
X0268D03*
X02645D03*
X02665Y02415D03*
G54D24*
X02685Y0234D02*
X0273Y02295D01*
Y02195D02*
Y02295D01*
Y02195D02*
X02769Y02155D01*
X02812*
X02845Y02122*
Y01845D02*
Y02122D01*
Y0181D02*
Y01845D01*
X02825Y0179D02*
X02845Y0181D01*
X02775Y0179D02*
X02825D01*
X0274Y01755D02*
X02775Y0179D01*
X0274Y0156D02*
Y01755D01*
Y01332D02*
Y0156D01*
X02691Y01283D02*
X0274Y01332D01*
X02396Y02213D02*
Y02224D01*
M02*