%FSTAX23Y23*%
%MOIN*%
%SFA1B1*%

%IPPOS*%
%ADD24C,0.010000*%
%ADD60C,0.001000*%
%ADD61C,0.015000*%
%LNmod_duo_x_g3399-1*%
%LPD*%
G54D24*
X06746Y05503D02*
Y05443D01*
X06776*
X06786Y05453*
Y05463*
X06776Y05473*
X06746*
X06776*
X06786Y05483*
Y05493*
X06776Y05503*
X06746*
X06816Y05443D02*
X06836D01*
X06846Y05453*
Y05473*
X06836Y05483*
X06816*
X06806Y05473*
Y05453*
X06816Y05443*
X06876Y05483D02*
X06896D01*
X06906Y05473*
Y05443*
X06876*
X06866Y05453*
X06876Y05463*
X06906*
X06926Y05483D02*
Y05443D01*
Y05463*
X06936Y05473*
X06946Y05483*
X06956*
X07026Y05503D02*
Y05443D01*
X06996*
X06986Y05453*
Y05473*
X06996Y05483*
X07026*
X07106Y05503D02*
Y05443D01*
X07146*
X07176Y05483D02*
X07196D01*
X07206Y05473*
Y05443*
X07176*
X07166Y05453*
X07176Y05463*
X07206*
X07226Y05483D02*
Y05453D01*
X07236Y05443*
X07266*
Y05433*
X07256Y05423*
X07246*
X07266Y05443D02*
Y05483D01*
X07316Y05443D02*
X07296D01*
X07286Y05453*
Y05473*
X07296Y05483*
X07316*
X07326Y05473*
Y05463*
X07286*
X07346Y05483D02*
Y05443D01*
Y05463*
X07356Y05473*
X07366Y05483*
X07376*
X07506Y05493D02*
X07496Y05503D01*
X07476*
X07466Y05493*
Y05483*
X07476Y05473*
X07496*
X07506Y05463*
Y05453*
X07496Y05443*
X07476*
X07466Y05453*
X07536Y05493D02*
Y05483D01*
X07526*
X07546*
X07536*
Y05453*
X07546Y05443*
X07586Y05483D02*
X07606D01*
X07616Y05473*
Y05443*
X07586*
X07576Y05453*
X07586Y05463*
X07616*
X07676Y05483D02*
X07646D01*
X07636Y05473*
Y05453*
X07646Y05443*
X07676*
X07696D02*
Y05503D01*
Y05463D02*
X07726Y05483D01*
X07696Y05463D02*
X07726Y05443D01*
X06176Y05253D02*
X06186Y05263D01*
X06206*
X06216Y05253*
Y05243*
X06206Y05233*
X06196*
X06206*
X06216Y05223*
Y05213*
X06206Y05203*
X06186*
X06176Y05213*
X06236Y05203D02*
Y05213D01*
X06246*
Y05203*
X06236*
X06286Y05253D02*
X06296Y05263D01*
X06316*
X06326Y05253*
Y05243*
X06316Y05233*
X06326Y05223*
Y05213*
X06316Y05203*
X06296*
X06286Y05213*
Y05223*
X06296Y05233*
X06286Y05243*
Y05253*
X06296Y05233D02*
X06316D01*
X06206Y04963D02*
Y05023D01*
X06176Y04993*
X06216*
X06236Y04963D02*
Y04973D01*
X06246*
Y04963*
X06236*
X06286Y05013D02*
X06296Y05023D01*
X06316*
X06326Y05013*
Y04973*
X06316Y04963*
X06296*
X06286Y04973*
Y05013*
X06386Y05023D02*
X06346D01*
Y04993*
X06366Y05003*
X06376*
X06386Y04993*
Y04973*
X06376Y04963*
X06356*
X06346Y04973*
X06206Y04723D02*
Y04783D01*
X06176Y04753*
X06216*
X06236Y04723D02*
Y04733D01*
X06246*
Y04723*
X06236*
X06326D02*
X06286D01*
X06326Y04763*
Y04773*
X06316Y04783*
X06296*
X06286Y04773*
X06206Y04483D02*
Y04543D01*
X06176Y04513*
X06216*
X06236Y04483D02*
Y04493D01*
X06246*
Y04483*
X06236*
X06286Y04533D02*
X06296Y04543D01*
X06316*
X06326Y04533*
Y04493*
X06316Y04483*
X06296*
X06286Y04493*
Y04533*
X06386Y04543D02*
X06346D01*
Y04513*
X06366Y04523*
X06376*
X06386Y04513*
Y04493*
X06376Y04483*
X06356*
X06346Y04493*
X06176Y04293D02*
X06186Y04303D01*
X06206*
X06216Y04293*
Y04283*
X06206Y04273*
X06196*
X06206*
X06216Y04263*
Y04253*
X06206Y04243*
X06186*
X06176Y04253*
X06236Y04243D02*
Y04253D01*
X06246*
Y04243*
X06236*
X06286Y04293D02*
X06296Y04303D01*
X06316*
X06326Y04293*
Y04283*
X06316Y04273*
X06326Y04263*
Y04253*
X06316Y04243*
X06296*
X06286Y04253*
Y04263*
X06296Y04273*
X06286Y04283*
Y04293*
X06296Y04273D02*
X06316D01*
X06216Y05493D02*
X06206Y05503D01*
X06186*
X06176Y05493*
Y05453*
X06186Y05443*
X06206*
X06216Y05453*
X06246Y05443D02*
X06266D01*
X06276Y05453*
Y05473*
X06266Y05483*
X06246*
X06236Y05473*
Y05453*
X06246Y05443*
X06296D02*
Y05483D01*
X06326*
X06336Y05473*
Y05443*
X06356D02*
X06386D01*
X06396Y05453*
X06386Y05463*
X06366*
X06356Y05473*
X06366Y05483*
X06396*
X06426Y05493D02*
Y05483D01*
X06416*
X06436*
X06426*
Y05453*
X06436Y05443*
X06476Y05483D02*
X06496D01*
X06506Y05473*
Y05443*
X06476*
X06466Y05453*
X06476Y05463*
X06506*
X06526Y05443D02*
Y05483D01*
X06556*
X06566Y05473*
Y05443*
X06596Y05493D02*
Y05483D01*
X06586*
X06606*
X06596*
Y05453*
X06606Y05443*
X05526Y05253D02*
X05536Y05263D01*
X05556*
X05566Y05253*
Y05213*
X05556Y05203*
X05536*
X05526Y05213*
Y05253*
X05586Y05203D02*
Y05213D01*
X05596*
Y05203*
X05586*
X05636Y05253D02*
X05646Y05263D01*
X05666*
X05676Y05253*
Y05243*
X05666Y05233*
X05676Y05223*
Y05213*
X05666Y05203*
X05646*
X05636Y05213*
Y05223*
X05646Y05233*
X05636Y05243*
Y05253*
X05646Y05233D02*
X05666D01*
X05696Y05253D02*
X05706Y05263D01*
X05726*
X05736Y05253*
Y05213*
X05726Y05203*
X05706*
X05696Y05213*
Y05253*
X05756Y05203D02*
Y05243D01*
X05766*
X05776Y05233*
Y05203*
Y05233*
X05786Y05243*
X05796Y05233*
Y05203*
X05816D02*
X05836D01*
X05826*
Y05243*
X05816*
X05866Y05203D02*
X05886D01*
X05876*
Y05263*
X05866*
X05526Y05083D02*
X05546D01*
X05536*
Y05143*
X05526Y05133*
X05576Y05083D02*
Y05093D01*
X05586*
Y05083*
X05576*
X05626Y05133D02*
X05636Y05143D01*
X05656*
X05666Y05133*
Y05123*
X05656Y05113*
X05646*
X05656*
X05666Y05103*
Y05093*
X05656Y05083*
X05636*
X05626Y05093*
X05686Y05133D02*
X05696Y05143D01*
X05716*
X05726Y05133*
Y05123*
X05716Y05113*
X05726Y05103*
Y05093*
X05716Y05083*
X05696*
X05686Y05093*
Y05103*
X05696Y05113*
X05686Y05123*
Y05133*
X05696Y05113D02*
X05716D01*
X05746Y05083D02*
Y05123D01*
X05756*
X05766Y05113*
Y05083*
Y05113*
X05776Y05123*
X05786Y05113*
Y05083*
X05806D02*
X05826D01*
X05816*
Y05123*
X05806*
X05856Y05083D02*
X05876D01*
X05866*
Y05143*
X05856*
X05526Y05013D02*
X05536Y05023D01*
X05556*
X05566Y05013*
Y05003*
X05556Y04993*
X05546*
X05556*
X05566Y04983*
Y04973*
X05556Y04963*
X05536*
X05526Y04973*
X05586Y04963D02*
Y04973D01*
X05596*
Y04963*
X05586*
X05636Y04973D02*
X05646Y04963D01*
X05666*
X05676Y04973*
Y05013*
X05666Y05023*
X05646*
X05636Y05013*
Y05003*
X05646Y04993*
X05676*
X05726Y04963D02*
Y05023D01*
X05696Y04993*
X05736*
X05756Y04963D02*
Y05003D01*
X05766*
X05776Y04993*
Y04963*
Y04993*
X05786Y05003*
X05796Y04993*
Y04963*
X05816D02*
X05836D01*
X05826*
Y05003*
X05816*
X05866Y04963D02*
X05886D01*
X05876*
Y05023*
X05866*
X05526Y04893D02*
X05536Y04903D01*
X05556*
X05566Y04893*
Y04853*
X05556Y04843*
X05536*
X05526Y04853*
Y04893*
X05586Y04843D02*
Y04853D01*
X05596*
Y04843*
X05586*
X05676Y04903D02*
X05656Y04893D01*
X05636Y04873*
Y04853*
X05646Y04843*
X05666*
X05676Y04853*
Y04863*
X05666Y04873*
X05636*
X05696Y04853D02*
X05706Y04843D01*
X05726*
X05736Y04853*
Y04893*
X05726Y04903*
X05706*
X05696Y04893*
Y04883*
X05706Y04873*
X05736*
X05756Y04843D02*
Y04883D01*
X05766*
X05776Y04873*
Y04843*
Y04873*
X05786Y04883*
X05796Y04873*
Y04843*
X05816D02*
X05836D01*
X05826*
Y04883*
X05816*
X05866Y04843D02*
X05886D01*
X05876*
Y04903*
X05866*
X05556Y04723D02*
Y04783D01*
X05526Y04753*
X05566*
X05586Y04723D02*
X05606D01*
X05596*
Y04783*
X05586Y04773*
X05636Y04723D02*
Y04733D01*
X05646*
Y04723*
X05636*
X05686Y04733D02*
X05696Y04723D01*
X05716*
X05726Y04733*
Y04773*
X05716Y04783*
X05696*
X05686Y04773*
Y04763*
X05696Y04753*
X05726*
X05746Y04773D02*
X05756Y04783D01*
X05776*
X05786Y04773*
Y04763*
X05776Y04753*
X05766*
X05776*
X05786Y04743*
Y04733*
X05776Y04723*
X05756*
X05746Y04733*
X05806Y04723D02*
Y04763D01*
X05816*
X05826Y04753*
Y04723*
Y04753*
X05836Y04763*
X05846Y04753*
Y04723*
X05866D02*
X05886D01*
X05876*
Y04763*
X05866*
X05916Y04723D02*
X05936D01*
X05926*
Y04783*
X05916*
X05526Y04653D02*
X05536Y04663D01*
X05556*
X05566Y04653*
Y04613*
X05556Y04603*
X05536*
X05526Y04613*
Y04653*
X05586Y04603D02*
Y04613D01*
X05596*
Y04603*
X05586*
X05676Y04663D02*
X05656Y04653D01*
X05636Y04633*
Y04613*
X05646Y04603*
X05666*
X05676Y04613*
Y04623*
X05666Y04633*
X05636*
X05696Y04613D02*
X05706Y04603D01*
X05726*
X05736Y04613*
Y04653*
X05726Y04663*
X05706*
X05696Y04653*
Y04643*
X05706Y04633*
X05736*
X05756Y04603D02*
Y04643D01*
X05766*
X05776Y04633*
Y04603*
Y04633*
X05786Y04643*
X05796Y04633*
Y04603*
X05816D02*
X05836D01*
X05826*
Y04643*
X05816*
X05866Y04603D02*
X05886D01*
X05876*
Y04663*
X05866*
X05526Y04533D02*
X05536Y04543D01*
X05556*
X05566Y04533*
Y04523*
X05556Y04513*
X05546*
X05556*
X05566Y04503*
Y04493*
X05556Y04483*
X05536*
X05526Y04493*
X05586Y04483D02*
Y04493D01*
X05596*
Y04483*
X05586*
X05636Y04493D02*
X05646Y04483D01*
X05666*
X05676Y04493*
Y04533*
X05666Y04543*
X05646*
X05636Y04533*
Y04523*
X05646Y04513*
X05676*
X05726Y04483D02*
Y04543D01*
X05696Y04513*
X05736*
X05756Y04483D02*
Y04523D01*
X05766*
X05776Y04513*
Y04483*
Y04513*
X05786Y04523*
X05796Y04513*
Y04483*
X05816D02*
X05836D01*
X05826*
Y04523*
X05816*
X05866Y04483D02*
X05886D01*
X05876*
Y04543*
X05866*
X05526Y04363D02*
X05546D01*
X05536*
Y04423*
X05526Y04413*
X05576Y04363D02*
Y04373D01*
X05586*
Y04363*
X05576*
X05626Y04413D02*
X05636Y04423D01*
X05656*
X05666Y04413*
Y04403*
X05656Y04393*
X05646*
X05656*
X05666Y04383*
Y04373*
X05656Y04363*
X05636*
X05626Y04373*
X05686Y04413D02*
X05696Y04423D01*
X05716*
X05726Y04413*
Y04403*
X05716Y04393*
X05726Y04383*
Y04373*
X05716Y04363*
X05696*
X05686Y04373*
Y04383*
X05696Y04393*
X05686Y04403*
Y04413*
X05696Y04393D02*
X05716D01*
X05746Y04363D02*
Y04403D01*
X05756*
X05766Y04393*
Y04363*
Y04393*
X05776Y04403*
X05786Y04393*
Y04363*
X05806D02*
X05826D01*
X05816*
Y04403*
X05806*
X05856Y04363D02*
X05876D01*
X05866*
Y04423*
X05856*
X05526Y04293D02*
X05536Y04303D01*
X05556*
X05566Y04293*
Y04253*
X05556Y04243*
X05536*
X05526Y04253*
Y04293*
X05586Y04243D02*
Y04253D01*
X05596*
Y04243*
X05586*
X05636Y04303D02*
X05676D01*
Y04293*
X05636Y04253*
Y04243*
X05696Y04253D02*
X05706Y04243D01*
X05726*
X05736Y04253*
Y04293*
X05726Y04303*
X05706*
X05696Y04293*
Y04283*
X05706Y04273*
X05736*
X05756Y04243D02*
Y04283D01*
X05766*
X05776Y04273*
Y04243*
Y04273*
X05786Y04283*
X05796Y04273*
Y04243*
X05816D02*
X05836D01*
X05826*
Y04283*
X05816*
X05866Y04243D02*
X05886D01*
X05876*
Y04303*
X05866*
X05526Y05503D02*
X05566D01*
X05546*
Y05443*
X05586Y05503D02*
Y05443D01*
Y05473*
X05596Y05483*
X05616*
X05626Y05473*
Y05443*
X05646D02*
X05666D01*
X05656*
Y05483*
X05646*
X05736D02*
X05706D01*
X05696Y05473*
Y05453*
X05706Y05443*
X05736*
X05756D02*
Y05503D01*
Y05463D02*
X05786Y05483D01*
X05756Y05463D02*
X05786Y05443D01*
X05816D02*
Y05483D01*
X05846*
X05856Y05473*
Y05443*
X05906D02*
X05886D01*
X05876Y05453*
Y05473*
X05886Y05483*
X05906*
X05916Y05473*
Y05463*
X05876*
X05936Y05443D02*
X05966D01*
X05976Y05453*
X05966Y05463*
X05946*
X05936Y05473*
X05946Y05483*
X05976*
X05996Y05443D02*
X06026D01*
X06036Y05453*
X06026Y05463*
X06006*
X05996Y05473*
X06006Y05483*
X06036*
X04707Y05253D02*
X04697Y05263D01*
X04677*
X04667Y05253*
Y05243*
X04677Y05233*
X04697*
X04707Y05223*
Y05213*
X04697Y05203*
X04677*
X04667Y05213*
X04737Y05203D02*
X04757D01*
X04767Y05213*
Y05233*
X04757Y05243*
X04737*
X04727Y05233*
Y05213*
X04737Y05203*
X04787D02*
X04807D01*
X04797*
Y05263*
X04787*
X04877D02*
Y05203D01*
X04847*
X04837Y05213*
Y05233*
X04847Y05243*
X04877*
X04927Y05203D02*
X04907D01*
X04897Y05213*
Y05233*
X04907Y05243*
X04927*
X04937Y05233*
Y05223*
X04897*
X04957Y05243D02*
Y05203D01*
Y05223*
X04967Y05233*
X04977Y05243*
X04987*
X05077Y05203D02*
Y05263D01*
X05107*
X05117Y05253*
Y05233*
X05107Y05223*
X05077*
X05097D02*
X05117Y05203D01*
X05167D02*
X05147D01*
X05137Y05213*
Y05233*
X05147Y05243*
X05167*
X05176Y05233*
Y05223*
X05137*
X05196Y05203D02*
X05226D01*
X05236Y05213*
X05226Y05223*
X05206*
X05196Y05233*
X05206Y05243*
X05236*
X05256Y05203D02*
X05276D01*
X05266*
Y05243*
X05256*
X05306Y05203D02*
X05336D01*
X05346Y05213*
X05336Y05223*
X05316*
X05306Y05233*
X05316Y05243*
X05346*
X05376Y05253D02*
Y05243D01*
X05366*
X05386*
X05376*
Y05213*
X05386Y05203*
X04707Y05133D02*
X04697Y05143D01*
X04677*
X04667Y05133*
Y05093*
X04677Y05083*
X04697*
X04707Y05093*
X04737Y05083D02*
X04757D01*
X04767Y05093*
Y05113*
X04757Y05123*
X04737*
X04727Y05113*
Y05093*
X04737Y05083*
X04787Y05063D02*
Y05123D01*
X04817*
X04827Y05113*
Y05093*
X04817Y05083*
X04787*
X04847Y05063D02*
Y05123D01*
X04877*
X04887Y05113*
Y05093*
X04877Y05083*
X04847*
X04937D02*
X04917D01*
X04907Y05093*
Y05113*
X04917Y05123*
X04937*
X04947Y05113*
Y05103*
X04907*
X04967Y05123D02*
Y05083D01*
Y05103*
X04977Y05113*
X04987Y05123*
X04997*
X04707Y05023D02*
X04667D01*
Y04993*
X04687*
X04667*
Y04963*
X04727D02*
Y05023D01*
X04757*
X04767Y05013*
Y04993*
X04757Y04983*
X04727*
X04747D02*
X04767Y04963D01*
X04787Y04993D02*
X04827D01*
X04877Y04963D02*
Y05023D01*
X04847Y04993*
X04887*
X04707Y04893D02*
X04697Y04903D01*
X04677*
X04667Y04893*
Y04853*
X04677Y04843*
X04697*
X04707Y04853*
X04737Y04843D02*
X04757D01*
X04767Y04853*
Y04873*
X04757Y04883*
X04737*
X04727Y04873*
Y04853*
X04737Y04843*
X04787Y04823D02*
Y04883D01*
X04817*
X04827Y04873*
Y04853*
X04817Y04843*
X04787*
X04847Y04823D02*
Y04883D01*
X04877*
X04887Y04873*
Y04853*
X04877Y04843*
X04847*
X04937D02*
X04917D01*
X04907Y04853*
Y04873*
X04917Y04883*
X04937*
X04947Y04873*
Y04863*
X04907*
X04967Y04883D02*
Y04843D01*
Y04863*
X04977Y04873*
X04987Y04883*
X04997*
X04707Y04653D02*
X04697Y04663D01*
X04677*
X04667Y04653*
Y04613*
X04677Y04603*
X04697*
X04707Y04613*
X04737Y04603D02*
X04757D01*
X04767Y04613*
Y04633*
X04757Y04643*
X04737*
X04727Y04633*
Y04613*
X04737Y04603*
X04787Y04583D02*
Y04643D01*
X04817*
X04827Y04633*
Y04613*
X04817Y04603*
X04787*
X04847Y04583D02*
Y04643D01*
X04877*
X04887Y04633*
Y04613*
X04877Y04603*
X04847*
X04937D02*
X04917D01*
X04907Y04613*
Y04633*
X04917Y04643*
X04937*
X04947Y04633*
Y04623*
X04907*
X04967Y04643D02*
Y04603D01*
Y04623*
X04977Y04633*
X04987Y04643*
X04997*
X04707Y04413D02*
X04697Y04423D01*
X04677*
X04667Y04413*
Y04373*
X04677Y04363*
X04697*
X04707Y04373*
X04737Y04363D02*
X04757D01*
X04767Y04373*
Y04393*
X04757Y04403*
X04737*
X04727Y04393*
Y04373*
X04737Y04363*
X04787Y04343D02*
Y04403D01*
X04817*
X04827Y04393*
Y04373*
X04817Y04363*
X04787*
X04847Y04343D02*
Y04403D01*
X04877*
X04887Y04393*
Y04373*
X04877Y04363*
X04847*
X04937D02*
X04917D01*
X04907Y04373*
Y04393*
X04917Y04403*
X04937*
X04947Y04393*
Y04383*
X04907*
X04967Y04403D02*
Y04363D01*
Y04383*
X04977Y04393*
X04987Y04403*
X04997*
X04707Y04293D02*
X04697Y04303D01*
X04677*
X04667Y04293*
Y04283*
X04677Y04273*
X04697*
X04707Y04263*
Y04253*
X04697Y04243*
X04677*
X04667Y04253*
X04737Y04243D02*
X04757D01*
X04767Y04253*
Y04273*
X04757Y04283*
X04737*
X04727Y04273*
Y04253*
X04737Y04243*
X04787D02*
X04807D01*
X04797*
Y04303*
X04787*
X04877D02*
Y04243D01*
X04847*
X04837Y04253*
Y04273*
X04847Y04283*
X04877*
X04927Y04243D02*
X04907D01*
X04897Y04253*
Y04273*
X04907Y04283*
X04927*
X04937Y04273*
Y04263*
X04897*
X04957Y04283D02*
Y04243D01*
Y04263*
X04967Y04273*
X04977Y04283*
X04987*
X05077Y04243D02*
Y04303D01*
X05107*
X05117Y04293*
Y04273*
X05107Y04263*
X05077*
X05097D02*
X05117Y04243D01*
X05167D02*
X05147D01*
X05137Y04253*
Y04273*
X05147Y04283*
X05167*
X05176Y04273*
Y04263*
X05137*
X05196Y04243D02*
X05226D01*
X05236Y04253*
X05226Y04263*
X05206*
X05196Y04273*
X05206Y04283*
X05236*
X05256Y04243D02*
X05276D01*
X05266*
Y04283*
X05256*
X05306Y04243D02*
X05336D01*
X05346Y04253*
X05336Y04263*
X05316*
X05306Y04273*
X05316Y04283*
X05346*
X05376Y04293D02*
Y04283D01*
X05366*
X05386*
X05376*
Y04253*
X05386Y04243*
X04667Y05443D02*
Y05503D01*
X04687Y05483*
X04707Y05503*
Y05443*
X04737Y05483D02*
X04757D01*
X04767Y05473*
Y05443*
X04737*
X04727Y05453*
X04737Y05463*
X04767*
X04797Y05493D02*
Y05483D01*
X04787*
X04807*
X04797*
Y05453*
X04807Y05443*
X04867D02*
X04847D01*
X04837Y05453*
Y05473*
X04847Y05483*
X04867*
X04877Y05473*
Y05463*
X04837*
X04897Y05483D02*
Y05443D01*
Y05463*
X04907Y05473*
X04917Y05483*
X04927*
X04957Y05443D02*
X04977D01*
X04967*
Y05483*
X04957*
X05017D02*
X05037D01*
X05047Y05473*
Y05443*
X05017*
X05007Y05453*
X05017Y05463*
X05047*
X05067Y05443D02*
X05087D01*
X05077*
Y05503*
X05067*
X03737Y05383D02*
X03777D01*
X03757*
Y05323*
X03807D02*
X03827D01*
X03837Y05333*
Y05353*
X03827Y05363*
X03807*
X03797Y05353*
Y05333*
X03807Y05323*
X03857Y05303D02*
Y05363D01*
X03887*
X03897Y05353*
Y05333*
X03887Y05323*
X03857*
X04007Y05383D02*
X03987D01*
X03977Y05373*
Y05333*
X03987Y05323*
X04007*
X04017Y05333*
Y05373*
X04007Y05383*
X04037Y05363D02*
X04057Y05323D01*
X04077Y05363*
X04127Y05323D02*
X04107D01*
X04097Y05333*
Y05353*
X04107Y05363*
X04127*
X04137Y05353*
Y05343*
X04097*
X04157Y05363D02*
Y05323D01*
Y05343*
X04167Y05353*
X04177Y05363*
X04187*
X04217Y05323D02*
X04237D01*
X04227*
Y05383*
X04217*
X04277Y05363D02*
X04297D01*
X04307Y05353*
Y05323*
X04277*
X04267Y05333*
X04277Y05343*
X04307*
X04327Y05363D02*
Y05333D01*
X04337Y05323*
X04367*
Y05313*
X04357Y05303*
X04347*
X04367Y05323D02*
Y05363D01*
X03737Y05263D02*
X03777D01*
X03757*
Y05203*
X03807D02*
X03827D01*
X03837Y05213*
Y05233*
X03827Y05243*
X03807*
X03797Y05233*
Y05213*
X03807Y05203*
X03857Y05183D02*
Y05243D01*
X03887*
X03897Y05233*
Y05213*
X03887Y05203*
X03857*
X04017Y05253D02*
X04007Y05263D01*
X03987*
X03977Y05253*
Y05243*
X03987Y05233*
X04007*
X04017Y05223*
Y05213*
X04007Y05203*
X03987*
X03977Y05213*
X04047Y05203D02*
X04067D01*
X04077Y05213*
Y05233*
X04067Y05243*
X04047*
X04037Y05233*
Y05213*
X04047Y05203*
X04097D02*
X04117D01*
X04107*
Y05263*
X04097*
X04187D02*
Y05203D01*
X04157*
X04147Y05213*
Y05233*
X04157Y05243*
X04187*
X04237Y05203D02*
X04217D01*
X04207Y05213*
Y05233*
X04217Y05243*
X04237*
X04247Y05233*
Y05223*
X04207*
X04267Y05243D02*
Y05203D01*
Y05223*
X04277Y05233*
X04287Y05243*
X04297*
X03737Y05143D02*
X03777D01*
X03757*
Y05083*
X03807D02*
X03827D01*
X03837Y05093*
Y05113*
X03827Y05123*
X03807*
X03797Y05113*
Y05093*
X03807Y05083*
X03857Y05063D02*
Y05123D01*
X03887*
X03897Y05113*
Y05093*
X03887Y05083*
X03857*
X03977Y05143D02*
Y05083D01*
X04017*
X04047Y05123D02*
X04067D01*
X04077Y05113*
Y05083*
X04047*
X04037Y05093*
X04047Y05103*
X04077*
X04097Y05123D02*
Y05093D01*
X04107Y05083*
X04137*
Y05073*
X04127Y05063*
X04117*
X04137Y05083D02*
Y05123D01*
X04187Y05083D02*
X04167D01*
X04157Y05093*
Y05113*
X04167Y05123*
X04187*
X04197Y05113*
Y05103*
X04157*
X04217Y05123D02*
Y05083D01*
Y05103*
X04227Y05113*
X04237Y05123*
X04247*
X03737Y05023D02*
Y04963D01*
X03767*
X03777Y04973*
Y05013*
X03767Y05023*
X03737*
X03797Y04963D02*
X03817D01*
X03807*
Y05003*
X03797*
X03877Y04963D02*
X03857D01*
X03847Y04973*
Y04993*
X03857Y05003*
X03877*
X03887Y04993*
Y04983*
X03847*
X03907Y04963D02*
X03927D01*
X03917*
Y05023*
X03907*
X03987Y04963D02*
X03967D01*
X03957Y04973*
Y04993*
X03967Y05003*
X03987*
X03997Y04993*
Y04983*
X03957*
X04057Y05003D02*
X04027D01*
X04017Y04993*
Y04973*
X04027Y04963*
X04057*
X04087Y05013D02*
Y05003D01*
X04077*
X04097*
X04087*
Y04973*
X04097Y04963*
X04127Y05003D02*
Y04963D01*
Y04983*
X04137Y04993*
X04147Y05003*
X04157*
X04187Y04963D02*
X04207D01*
X04197*
Y05003*
X04187*
X04277D02*
X04247D01*
X04237Y04993*
Y04973*
X04247Y04963*
X04277*
X04357D02*
X04377D01*
X04367*
Y05023*
X04357Y05013*
X03737Y04903D02*
Y04863D01*
X03757Y04843*
X03777Y04863*
Y04903*
X03837Y04893D02*
X03827Y04903D01*
X03807*
X03797Y04893*
Y04853*
X03807Y04843*
X03827*
X03837Y04853*
X03897Y04893D02*
X03887Y04903D01*
X03867*
X03857Y04893*
Y04853*
X03867Y04843*
X03887*
X03897Y04853*
X03737Y04783D02*
Y04723D01*
X03767*
X03777Y04733*
Y04773*
X03767Y04783*
X03737*
X03797Y04723D02*
X03817D01*
X03807*
Y04763*
X03797*
X03877Y04723D02*
X03857D01*
X03847Y04733*
Y04753*
X03857Y04763*
X03877*
X03887Y04753*
Y04743*
X03847*
X03907Y04723D02*
X03927D01*
X03917*
Y04783*
X03907*
X03987Y04723D02*
X03967D01*
X03957Y04733*
Y04753*
X03967Y04763*
X03987*
X03997Y04753*
Y04743*
X03957*
X04057Y04763D02*
X04027D01*
X04017Y04753*
Y04733*
X04027Y04723*
X04057*
X04087Y04773D02*
Y04763D01*
X04077*
X04097*
X04087*
Y04733*
X04097Y04723*
X04127Y04763D02*
Y04723D01*
Y04743*
X04137Y04753*
X04147Y04763*
X04157*
X04187Y04723D02*
X04207D01*
X04197*
Y04763*
X04187*
X04277D02*
X04247D01*
X04237Y04753*
Y04733*
X04247Y04723*
X04277*
X04357Y04773D02*
X04367Y04783D01*
X04387*
X04397Y04773*
Y04763*
X04387Y04753*
X04377*
X04387*
X04397Y04743*
Y04733*
X04387Y04723*
X04367*
X04357Y04733*
X03777Y04653D02*
X03767Y04663D01*
X03747*
X03737Y04653*
Y04613*
X03747Y04603*
X03767*
X03777Y04613*
Y04633*
X03757*
X03797Y04603D02*
Y04663D01*
X03837Y04603*
Y04663*
X03857D02*
Y04603D01*
X03887*
X03897Y04613*
Y04653*
X03887Y04663*
X03857*
X03737Y04543D02*
Y04483D01*
X03767*
X03777Y04493*
Y04533*
X03767Y04543*
X03737*
X03797Y04483D02*
X03817D01*
X03807*
Y04523*
X03797*
X03877Y04483D02*
X03857D01*
X03847Y04493*
Y04513*
X03857Y04523*
X03877*
X03887Y04513*
Y04503*
X03847*
X03907Y04483D02*
X03927D01*
X03917*
Y04543*
X03907*
X03987Y04483D02*
X03967D01*
X03957Y04493*
Y04513*
X03967Y04523*
X03987*
X03997Y04513*
Y04503*
X03957*
X04057Y04523D02*
X04027D01*
X04017Y04513*
Y04493*
X04027Y04483*
X04057*
X04087Y04533D02*
Y04523D01*
X04077*
X04097*
X04087*
Y04493*
X04097Y04483*
X04127Y04523D02*
Y04483D01*
Y04503*
X04137Y04513*
X04147Y04523*
X04157*
X04187Y04483D02*
X04207D01*
X04197*
Y04523*
X04187*
X04277D02*
X04247D01*
X04237Y04513*
Y04493*
X04247Y04483*
X04277*
X04397D02*
X04357D01*
X04397Y04523*
Y04533*
X04387Y04543*
X04367*
X04357Y04533*
X03737Y04423D02*
Y04363D01*
X03767*
X03777Y04373*
Y04383*
X03767Y04393*
X03737*
X03767*
X03777Y04403*
Y04413*
X03767Y04423*
X03737*
X03807Y04363D02*
X03827D01*
X03837Y04373*
Y04393*
X03827Y04403*
X03807*
X03797Y04393*
Y04373*
X03807Y04363*
X03867Y04413D02*
Y04403D01*
X03857*
X03877*
X03867*
Y04373*
X03877Y04363*
X03917Y04413D02*
Y04403D01*
X03907*
X03927*
X03917*
Y04373*
X03927Y04363*
X03967D02*
X03987D01*
X03997Y04373*
Y04393*
X03987Y04403*
X03967*
X03957Y04393*
Y04373*
X03967Y04363*
X04017D02*
Y04403D01*
X04027*
X04037Y04393*
Y04363*
Y04393*
X04047Y04403*
X04057Y04393*
Y04363*
X04137Y04423D02*
Y04363D01*
X04177*
X04207Y04403D02*
X04227D01*
X04237Y04393*
Y04363*
X04207*
X04197Y04373*
X04207Y04383*
X04237*
X04257Y04403D02*
Y04373D01*
X04267Y04363*
X04297*
Y04353*
X04287Y04343*
X04277*
X04297Y04363D02*
Y04403D01*
X04347Y04363D02*
X04327D01*
X04317Y04373*
Y04393*
X04327Y04403*
X04347*
X04357Y04393*
Y04383*
X04317*
X04377Y04403D02*
Y04363D01*
Y04383*
X04387Y04393*
X04397Y04403*
X04407*
X03737Y04303D02*
Y04243D01*
X03767*
X03777Y04253*
Y04263*
X03767Y04273*
X03737*
X03767*
X03777Y04283*
Y04293*
X03767Y04303*
X03737*
X03807Y04243D02*
X03827D01*
X03837Y04253*
Y04273*
X03827Y04283*
X03807*
X03797Y04273*
Y04253*
X03807Y04243*
X03867Y04293D02*
Y04283D01*
X03857*
X03877*
X03867*
Y04253*
X03877Y04243*
X03917Y04293D02*
Y04283D01*
X03907*
X03927*
X03917*
Y04253*
X03927Y04243*
X03967D02*
X03987D01*
X03997Y04253*
Y04273*
X03987Y04283*
X03967*
X03957Y04273*
Y04253*
X03967Y04243*
X04017D02*
Y04283D01*
X04027*
X04037Y04273*
Y04243*
Y04273*
X04047Y04283*
X04057Y04273*
Y04243*
X04177Y04293D02*
X04167Y04303D01*
X04147*
X04137Y04293*
Y04283*
X04147Y04273*
X04167*
X04177Y04263*
Y04253*
X04167Y04243*
X04147*
X04137Y04253*
X04207Y04243D02*
X04227D01*
X04237Y04253*
Y04273*
X04227Y04283*
X04207*
X04197Y04273*
Y04253*
X04207Y04243*
X04257D02*
X04277D01*
X04267*
Y04303*
X04257*
X04347D02*
Y04243D01*
X04317*
X04307Y04253*
Y04273*
X04317Y04283*
X04347*
X04397Y04243D02*
X04377D01*
X04367Y04253*
Y04273*
X04377Y04283*
X04397*
X04407Y04273*
Y04263*
X04367*
X04427Y04283D02*
Y04243D01*
Y04263*
X04437Y04273*
X04447Y04283*
X04457*
X03737Y04183D02*
Y04123D01*
X03767*
X03777Y04133*
Y04143*
X03767Y04153*
X03737*
X03767*
X03777Y04163*
Y04173*
X03767Y04183*
X03737*
X03807Y04123D02*
X03827D01*
X03837Y04133*
Y04153*
X03827Y04163*
X03807*
X03797Y04153*
Y04133*
X03807Y04123*
X03867Y04173D02*
Y04163D01*
X03857*
X03877*
X03867*
Y04133*
X03877Y04123*
X03917Y04173D02*
Y04163D01*
X03907*
X03927*
X03917*
Y04133*
X03927Y04123*
X03967D02*
X03987D01*
X03997Y04133*
Y04153*
X03987Y04163*
X03967*
X03957Y04153*
Y04133*
X03967Y04123*
X04017D02*
Y04163D01*
X04027*
X04037Y04153*
Y04123*
Y04153*
X04047Y04163*
X04057Y04153*
Y04123*
X04167Y04183D02*
X04147D01*
X04137Y04173*
Y04133*
X04147Y04123*
X04167*
X04177Y04133*
Y04173*
X04167Y04183*
X04197Y04163D02*
X04217Y04123D01*
X04237Y04163*
X04287Y04123D02*
X04267D01*
X04257Y04133*
Y04153*
X04267Y04163*
X04287*
X04297Y04153*
Y04143*
X04257*
X04317Y04163D02*
Y04123D01*
Y04143*
X04327Y04153*
X04337Y04163*
X04347*
X04377Y04123D02*
X04397D01*
X04387*
Y04183*
X04377*
X04437Y04163D02*
X04457D01*
X04467Y04153*
Y04123*
X04437*
X04427Y04133*
X04437Y04143*
X04467*
X04487Y04163D02*
Y04133D01*
X04497Y04123*
X04527*
Y04113*
X04517Y04103*
X04507*
X04527Y04123D02*
Y04163D01*
X03737Y05443D02*
Y05503D01*
X03777Y05443*
Y05503*
X03807Y05483D02*
X03827D01*
X03837Y05473*
Y05443*
X03807*
X03797Y05453*
X03807Y05463*
X03837*
X03857Y05443D02*
Y05483D01*
X03867*
X03877Y05473*
Y05443*
Y05473*
X03887Y05483*
X03897Y05473*
Y05443*
X03947D02*
X03927D01*
X03917Y05453*
Y05473*
X03927Y05483*
X03947*
X03957Y05473*
Y05463*
X03917*
X03327Y05083D02*
X03347D01*
X03337*
Y05143*
X03327Y05133*
X03367Y04843D02*
X03327D01*
X03367Y04883*
Y04893*
X03357Y04903*
X03337*
X03327Y04893*
Y04653D02*
X03337Y04663D01*
X03357*
X03367Y04653*
Y04643*
X03357Y04633*
X03347*
X03357*
X03367Y04623*
Y04613*
X03357Y04603*
X03337*
X03327Y04613*
X03357Y04363D02*
Y04423D01*
X03327Y04393*
X03367*
X03327Y05503D02*
Y05443D01*
X03367*
X03397Y05483D02*
X03417D01*
X03427Y05473*
Y05443*
X03397*
X03387Y05453*
X03397Y05463*
X03427*
X03447Y05483D02*
Y05453D01*
X03457Y05443*
X03487*
Y05433*
X03477Y05423*
X03467*
X03487Y05443D02*
Y05483D01*
X03537Y05443D02*
X03517D01*
X03507Y05453*
Y05473*
X03517Y05483*
X03537*
X03547Y05473*
Y05463*
X03507*
X03567Y05483D02*
Y05443D01*
Y05463*
X03577Y05473*
X03587Y05483*
X03597*
G54D60*
X03257Y04043D02*
X03277Y04064D01*
X03257Y03983D02*
X03337Y04064D01*
X03257Y03923D02*
X03397Y04064D01*
X03257Y03863D02*
X03457Y04064D01*
X03257Y03803D02*
X03517Y04064D01*
X03257Y03743D02*
X03577Y04064D01*
X03257Y03683D02*
X03637Y04064D01*
X03257Y03623D02*
X03697Y04064D01*
X03257Y03563D02*
X03757Y04064D01*
X03257Y03503D02*
X03817Y04064D01*
X03257Y03443D02*
X03877Y04064D01*
X03257Y03383D02*
X03937Y04064D01*
X03257Y03323D02*
X03997Y04064D01*
X03257Y03263D02*
X04057Y04064D01*
X03257Y03203D02*
X04117Y04064D01*
X03257Y03143D02*
X04177Y04064D01*
X03257Y03083D02*
X04237Y04064D01*
X03257Y03023D02*
X04297Y04064D01*
X03257Y02963D02*
X04357Y04064D01*
X03257Y02903D02*
X04417Y04064D01*
X03257Y02843D02*
X04477Y04064D01*
X03257Y02783D02*
X04537Y04064D01*
X03257Y02723D02*
X04597Y04064D01*
X03257Y02663D02*
X04657Y04064D01*
X03257Y02603D02*
X04717Y04064D01*
X03257Y02543D02*
X04777Y04064D01*
X03257Y02483D02*
X04837Y04064D01*
X03257Y02423D02*
X04897Y04064D01*
X03257Y02363D02*
X04957Y04064D01*
X03257Y02303D02*
X05017Y04064D01*
X03257Y02243D02*
X05077Y04064D01*
X03257Y02183D02*
X05137Y04064D01*
X03257Y02123D02*
X05197Y04064D01*
X03257Y02063D02*
X05257Y04064D01*
X03257Y02003D02*
X05317Y04064D01*
X03257Y01943D02*
X05377Y04064D01*
X03257Y01883D02*
X05437Y04064D01*
X03257Y01823D02*
X05497Y04064D01*
X03257Y01763D02*
X05557Y04064D01*
X03257Y01703D02*
X05617Y04064D01*
X03257Y01643D02*
X05677Y04064D01*
X03257Y01583D02*
X05737Y04064D01*
X03257Y01523D02*
X05797Y04064D01*
X03257Y01463D02*
X05857Y04064D01*
X03257Y01403D02*
X05917Y04064D01*
X03257Y01343D02*
X05977Y04064D01*
X03257Y01283D02*
X06037Y04064D01*
X03257Y01223D02*
X06097Y04064D01*
X03257Y01163D02*
X06157Y04064D01*
X03257Y01103D02*
X06217Y04064D01*
X03257Y01043D02*
X06277Y04064D01*
X03257Y00983D02*
X06337Y04064D01*
X03257Y00923D02*
X06397Y04064D01*
X03257Y00863D02*
X06457Y04064D01*
X03257Y00803D02*
X06517Y04064D01*
X03257Y00743D02*
X06577Y04064D01*
X03257Y00683D02*
X06637Y04064D01*
X03257Y00623D02*
X06697Y04064D01*
X03257Y00563D02*
X06757Y04064D01*
X03257Y00503D02*
X06817Y04064D01*
X03257Y00443D02*
X06877Y04064D01*
X03257Y00383D02*
X06937Y04064D01*
X03257Y00323D02*
X06997Y04064D01*
X03257Y00263D02*
X07057Y04064D01*
X03257Y00203D02*
X07117Y04064D01*
X03257Y00143D02*
X07177Y04064D01*
X03257Y00083D02*
X07237Y04064D01*
X03257Y00023D02*
X07297Y04064D01*
X03295Y00001D02*
X07357Y04064D01*
X03355Y00001D02*
X07417Y04064D01*
X03415Y00001D02*
X07477Y04064D01*
X03475Y00001D02*
X07537Y04064D01*
X03535Y00001D02*
X07597Y04064D01*
X03595Y00001D02*
X07657Y04064D01*
X03655Y00001D02*
X07717Y04064D01*
X03715Y00001D02*
X07777Y04064D01*
X03775Y00001D02*
X07796Y04022D01*
X03835Y00001D02*
X07796Y03962D01*
X03895Y00001D02*
X07796Y03902D01*
X03955Y00001D02*
X07796Y03842D01*
X04015Y00001D02*
X07796Y03782D01*
X04075Y00001D02*
X07796Y03722D01*
X04135Y00001D02*
X07796Y03662D01*
X04195Y00001D02*
X07796Y03602D01*
X04255Y00001D02*
X07796Y03542D01*
X04315Y00001D02*
X07796Y03482D01*
X04375Y00001D02*
X07796Y03422D01*
X04435Y00001D02*
X07796Y03362D01*
X04495Y00001D02*
X07796Y03302D01*
X04555Y00001D02*
X07796Y03242D01*
X04615Y00001D02*
X07796Y03182D01*
X04675Y00001D02*
X07796Y03122D01*
X04735Y00001D02*
X07796Y03062D01*
X04795Y00001D02*
X07796Y03002D01*
X04855Y00001D02*
X07796Y02942D01*
X04915Y00001D02*
X07796Y02882D01*
X04975Y00001D02*
X07796Y02822D01*
X05035Y00001D02*
X07796Y02762D01*
X05095Y00001D02*
X07796Y02702D01*
X05155Y00001D02*
X07796Y02642D01*
X05215Y00001D02*
X07796Y02582D01*
X05275Y00001D02*
X07796Y02522D01*
X05335Y00001D02*
X07796Y02462D01*
X05395Y00001D02*
X07796Y02402D01*
X05455Y00001D02*
X07796Y02342D01*
X05515Y00001D02*
X07796Y02282D01*
X05575Y00001D02*
X07796Y02222D01*
X05635Y00001D02*
X07796Y02162D01*
X05695Y00001D02*
X07796Y02102D01*
X05755Y00001D02*
X07796Y02042D01*
X05815Y00001D02*
X07796Y01982D01*
X05875Y00001D02*
X07796Y01922D01*
X05935Y00001D02*
X07796Y01862D01*
X05995Y00001D02*
X07796Y01802D01*
X06055Y00001D02*
X07796Y01742D01*
X06115Y00001D02*
X07796Y01682D01*
X06175Y00001D02*
X07796Y01622D01*
X06235Y00001D02*
X07796Y01562D01*
X06295Y00001D02*
X07796Y01502D01*
X06355Y00001D02*
X07796Y01442D01*
X06415Y00001D02*
X07796Y01382D01*
X06475Y00001D02*
X07796Y01322D01*
X06535Y00001D02*
X07796Y01262D01*
X06595Y00001D02*
X07796Y01202D01*
X06655Y00001D02*
X07796Y01142D01*
X06715Y00001D02*
X07796Y01082D01*
X06775Y00001D02*
X07796Y01022D01*
X06835Y00001D02*
X07796Y00962D01*
X06895Y00001D02*
X07796Y00902D01*
X06955Y00001D02*
X07796Y00842D01*
X07015Y00001D02*
X07796Y00782D01*
X07075Y00001D02*
X07796Y00722D01*
X07135Y00001D02*
X07796Y00662D01*
X07195Y00001D02*
X07796Y00602D01*
X07255Y00001D02*
X07796Y00542D01*
X07315Y00001D02*
X07796Y00482D01*
X07375Y00001D02*
X07796Y00422D01*
X07435Y00001D02*
X07796Y00362D01*
X07495Y00001D02*
X07796Y00302D01*
X07555Y00001D02*
X07796Y00242D01*
X07615Y00001D02*
X07796Y00182D01*
X07675Y00001D02*
X07796Y00122D01*
X07735Y00001D02*
X07796Y00062D01*
X06676Y05373D02*
X06716Y05413D01*
X06676Y05313D02*
X06776Y05413D01*
X06716Y05293D02*
X06836Y05413D01*
X06776Y05293D02*
X06896Y05413D01*
X06836Y05293D02*
X06956Y05413D01*
X06896Y05293D02*
X07016Y05413D01*
X06956Y05293D02*
X07076Y05413D01*
X07016Y05293D02*
X07136Y05413D01*
X07076Y05293D02*
X07196Y05413D01*
X07136Y05293D02*
X07256Y05413D01*
X07196Y05293D02*
X07316Y05413D01*
X07256Y05293D02*
X07376Y05413D01*
X07316Y05293D02*
X07436Y05413D01*
X07376Y05293D02*
X07496Y05413D01*
X07436Y05293D02*
X07556Y05413D01*
X07496Y05293D02*
X07616Y05413D01*
X07556Y05293D02*
X07676Y05413D01*
X07616Y05293D02*
X07736Y05413D01*
X07676Y05293D02*
X07796Y05413D01*
X07736Y05293D02*
X07796Y05353D01*
X06676Y05253D02*
X06716Y05293D01*
X06676Y05193D02*
X06776Y05293D01*
X06716Y05173D02*
X06836Y05293D01*
X06776Y05173D02*
X06896Y05293D01*
X06836Y05173D02*
X06956Y05293D01*
X06896Y05173D02*
X07016Y05293D01*
X06956Y05173D02*
X07076Y05293D01*
X07016Y05173D02*
X07136Y05293D01*
X07076Y05173D02*
X07196Y05293D01*
X07136Y05173D02*
X07256Y05293D01*
X07196Y05173D02*
X07316Y05293D01*
X07256Y05173D02*
X07376Y05293D01*
X07316Y05173D02*
X07436Y05293D01*
X07376Y05173D02*
X07496Y05293D01*
X07436Y05173D02*
X07556Y05293D01*
X07496Y05173D02*
X07616Y05293D01*
X07556Y05173D02*
X07676Y05293D01*
X07616Y05173D02*
X07736Y05293D01*
X07676Y05173D02*
X07796Y05293D01*
X07736Y05173D02*
X07796Y05233D01*
X06676Y05133D02*
X06716Y05173D01*
X06676Y05073D02*
X06776Y05173D01*
X06716Y05053D02*
X06836Y05173D01*
X06776Y05053D02*
X06896Y05173D01*
X06836Y05053D02*
X06956Y05173D01*
X06896Y05053D02*
X07016Y05173D01*
X06956Y05053D02*
X07076Y05173D01*
X07016Y05053D02*
X07136Y05173D01*
X07076Y05053D02*
X07196Y05173D01*
X07136Y05053D02*
X07256Y05173D01*
X07196Y05053D02*
X07316Y05173D01*
X07256Y05053D02*
X07376Y05173D01*
X07316Y05053D02*
X07436Y05173D01*
X07376Y05053D02*
X07496Y05173D01*
X07436Y05053D02*
X07556Y05173D01*
X07496Y05053D02*
X07616Y05173D01*
X07556Y05053D02*
X07676Y05173D01*
X07616Y05053D02*
X07736Y05173D01*
X07676Y05053D02*
X07796Y05173D01*
X07736Y05053D02*
X07796Y05113D01*
X06676Y05013D02*
X06716Y05053D01*
X06676Y04953D02*
X06776Y05053D01*
X06716Y04933D02*
X06836Y05053D01*
X06776Y04933D02*
X06896Y05053D01*
X06836Y04933D02*
X06956Y05053D01*
X06896Y04933D02*
X07016Y05053D01*
X06956Y04933D02*
X07076Y05053D01*
X07016Y04933D02*
X07136Y05053D01*
X07076Y04933D02*
X07196Y05053D01*
X07136Y04933D02*
X07256Y05053D01*
X07196Y04933D02*
X07316Y05053D01*
X07256Y04933D02*
X07376Y05053D01*
X07316Y04933D02*
X07436Y05053D01*
X07376Y04933D02*
X07496Y05053D01*
X07436Y04933D02*
X07556Y05053D01*
X07496Y04933D02*
X07616Y05053D01*
X07556Y04933D02*
X07676Y05053D01*
X07616Y04933D02*
X07736Y05053D01*
X07676Y04933D02*
X07796Y05053D01*
X07736Y04933D02*
X07796Y04993D01*
X06676Y04893D02*
X06716Y04933D01*
X06676Y04833D02*
X06776Y04933D01*
X06716Y04813D02*
X06836Y04933D01*
X06776Y04813D02*
X06896Y04933D01*
X06836Y04813D02*
X06956Y04933D01*
X06896Y04813D02*
X07016Y04933D01*
X06956Y04813D02*
X07076Y04933D01*
X07016Y04813D02*
X07136Y04933D01*
X07076Y04813D02*
X07196Y04933D01*
X07136Y04813D02*
X07256Y04933D01*
X07196Y04813D02*
X07316Y04933D01*
X07256Y04813D02*
X07376Y04933D01*
X07316Y04813D02*
X07436Y04933D01*
X07376Y04813D02*
X07496Y04933D01*
X07436Y04813D02*
X07556Y04933D01*
X07496Y04813D02*
X07616Y04933D01*
X07556Y04813D02*
X07676Y04933D01*
X07616Y04813D02*
X07736Y04933D01*
X07676Y04813D02*
X07796Y04933D01*
X07736Y04813D02*
X07796Y04873D01*
X06676Y04773D02*
X06716Y04813D01*
X06676Y04713D02*
X06776Y04813D01*
X06716Y04693D02*
X06836Y04813D01*
X06776Y04693D02*
X06896Y04813D01*
X06836Y04693D02*
X06956Y04813D01*
X06896Y04693D02*
X07016Y04813D01*
X06956Y04693D02*
X07076Y04813D01*
X07016Y04693D02*
X07136Y04813D01*
X07076Y04693D02*
X07196Y04813D01*
X07136Y04693D02*
X07256Y04813D01*
X07196Y04693D02*
X07316Y04813D01*
X07256Y04693D02*
X07376Y04813D01*
X07316Y04693D02*
X07436Y04813D01*
X07376Y04693D02*
X07496Y04813D01*
X07436Y04693D02*
X07556Y04813D01*
X07496Y04693D02*
X07616Y04813D01*
X07556Y04693D02*
X07676Y04813D01*
X07616Y04693D02*
X07736Y04813D01*
X07676Y04693D02*
X07796Y04813D01*
X07736Y04693D02*
X07796Y04753D01*
X06676Y04653D02*
X06716Y04693D01*
X06676Y04593D02*
X06776Y04693D01*
X06716Y04573D02*
X06836Y04693D01*
X06776Y04573D02*
X06896Y04693D01*
X06836Y04573D02*
X06956Y04693D01*
X06896Y04573D02*
X07016Y04693D01*
X06956Y04573D02*
X07076Y04693D01*
X07016Y04573D02*
X07136Y04693D01*
X07076Y04573D02*
X07196Y04693D01*
X07136Y04573D02*
X07256Y04693D01*
X07196Y04573D02*
X07316Y04693D01*
X07256Y04573D02*
X07376Y04693D01*
X07316Y04573D02*
X07436Y04693D01*
X07376Y04573D02*
X07496Y04693D01*
X07436Y04573D02*
X07556Y04693D01*
X07496Y04573D02*
X07616Y04693D01*
X07556Y04573D02*
X07676Y04693D01*
X07616Y04573D02*
X07736Y04693D01*
X07676Y04573D02*
X07796Y04693D01*
X07736Y04573D02*
X07796Y04633D01*
X06676Y04533D02*
X06716Y04573D01*
X06676Y04473D02*
X06776Y04573D01*
X06716Y04453D02*
X06836Y04573D01*
X06776Y04453D02*
X06896Y04573D01*
X06836Y04453D02*
X06956Y04573D01*
X06896Y04453D02*
X07016Y04573D01*
X06956Y04453D02*
X07076Y04573D01*
X07016Y04453D02*
X07136Y04573D01*
X07076Y04453D02*
X07196Y04573D01*
X07136Y04453D02*
X07256Y04573D01*
X07196Y04453D02*
X07316Y04573D01*
X07256Y04453D02*
X07376Y04573D01*
X07316Y04453D02*
X07436Y04573D01*
X07376Y04453D02*
X07496Y04573D01*
X07436Y04453D02*
X07556Y04573D01*
X07496Y04453D02*
X07616Y04573D01*
X07556Y04453D02*
X07676Y04573D01*
X07616Y04453D02*
X07736Y04573D01*
X07676Y04453D02*
X07796Y04573D01*
X07736Y04453D02*
X07796Y04513D01*
X06676Y04413D02*
X06716Y04453D01*
X06676Y04353D02*
X06776Y04453D01*
X06716Y04333D02*
X06836Y04453D01*
X06776Y04333D02*
X06896Y04453D01*
X06836Y04333D02*
X06956Y04453D01*
X06896Y04333D02*
X07016Y04453D01*
X06956Y04333D02*
X07076Y04453D01*
X07016Y04333D02*
X07136Y04453D01*
X07076Y04333D02*
X07196Y04453D01*
X07136Y04333D02*
X07256Y04453D01*
X07196Y04333D02*
X07316Y04453D01*
X07256Y04333D02*
X07376Y04453D01*
X07316Y04333D02*
X07436Y04453D01*
X07376Y04333D02*
X07496Y04453D01*
X07436Y04333D02*
X07556Y04453D01*
X07496Y04333D02*
X07616Y04453D01*
X07556Y04333D02*
X07676Y04453D01*
X07616Y04333D02*
X07736Y04453D01*
X07676Y04333D02*
X07796Y04453D01*
X07736Y04333D02*
X07796Y04393D01*
X06676Y04293D02*
X06716Y04333D01*
X06676Y04233D02*
X06776Y04333D01*
X06716Y04213D02*
X06836Y04333D01*
X06776Y04213D02*
X06896Y04333D01*
X06836Y04213D02*
X06956Y04333D01*
X06896Y04213D02*
X07016Y04333D01*
X06956Y04213D02*
X07076Y04333D01*
X07016Y04213D02*
X07136Y04333D01*
X07076Y04213D02*
X07196Y04333D01*
X07136Y04213D02*
X07256Y04333D01*
X07196Y04213D02*
X07316Y04333D01*
X07256Y04213D02*
X07376Y04333D01*
X07316Y04213D02*
X07436Y04333D01*
X07376Y04213D02*
X07496Y04333D01*
X07436Y04213D02*
X07556Y04333D01*
X07496Y04213D02*
X07616Y04333D01*
X07556Y04213D02*
X07676Y04333D01*
X07616Y04213D02*
X07736Y04333D01*
X07676Y04213D02*
X07796Y04333D01*
X07736Y04213D02*
X07796Y04273D01*
X06676Y04173D02*
X06716Y04213D01*
X06676Y04113D02*
X06776Y04213D01*
X06716Y04093D02*
X06836Y04213D01*
X06776Y04093D02*
X06896Y04213D01*
X06836Y04093D02*
X06956Y04213D01*
X06896Y04093D02*
X07016Y04213D01*
X06956Y04093D02*
X07076Y04213D01*
X07016Y04093D02*
X07136Y04213D01*
X07076Y04093D02*
X07196Y04213D01*
X07136Y04093D02*
X07256Y04213D01*
X07196Y04093D02*
X07316Y04213D01*
X07256Y04093D02*
X07376Y04213D01*
X07316Y04093D02*
X07436Y04213D01*
X07376Y04093D02*
X07496Y04213D01*
X07436Y04093D02*
X07556Y04213D01*
X07496Y04093D02*
X07616Y04213D01*
X07556Y04093D02*
X07676Y04213D01*
X07616Y04093D02*
X07736Y04213D01*
X07676Y04093D02*
X07796Y04213D01*
X07736Y04093D02*
X07796Y04153D01*
G54D61*
X03257Y00002D02*
Y04063D01*
X07796*
Y00002D02*
Y04063D01*
X03257Y00002D02*
X07796D01*
X07796Y04093D02*
Y05533D01*
X06676Y05293D02*
X07796D01*
X06676Y05173D02*
X07796D01*
X06676Y05053D02*
X07796D01*
X06676Y04933D02*
X07796D01*
X06676Y04813D02*
X07796D01*
X06676Y04693D02*
X07796D01*
X06676Y04573D02*
X07796D01*
X06676Y04453D02*
X07796D01*
X06676Y04333D02*
X07796D01*
X06676Y04213D02*
X07796D01*
X06676Y04093D02*
X07796D01*
X06676D02*
Y05533D01*
X06106Y05293D02*
X06676D01*
X06106Y05173D02*
X06676D01*
X06106Y05053D02*
X06676D01*
X06106Y04933D02*
X06676D01*
X06106Y04813D02*
X06676D01*
X06106Y04693D02*
X06676D01*
X06106Y04573D02*
X06676D01*
X06106Y04453D02*
X06676D01*
X06106Y04333D02*
X06676D01*
X06106Y04213D02*
X06676D01*
X06106Y04093D02*
X06676D01*
X06106D02*
Y05533D01*
X05456Y05293D02*
X06106D01*
X05456Y05173D02*
X06106D01*
X05456Y05053D02*
X06106D01*
X05456Y04933D02*
X06106D01*
X05456Y04813D02*
X06106D01*
X05456Y04693D02*
X06106D01*
X05456Y04573D02*
X06106D01*
X05456Y04453D02*
X06106D01*
X05456Y04333D02*
X06106D01*
X05456Y04213D02*
X06106D01*
X05456Y04093D02*
X06106D01*
X05456D02*
Y05533D01*
X04597Y05293D02*
X05456D01*
X04597Y05173D02*
X05456D01*
X04597Y05053D02*
X05456D01*
X04597Y04933D02*
X05456D01*
X04597Y04813D02*
X05456D01*
X04597Y04693D02*
X05456D01*
X04597Y04573D02*
X05456D01*
X04597Y04453D02*
X05456D01*
X04597Y04333D02*
X05456D01*
X04597Y04213D02*
X05456D01*
X04597Y04093D02*
X05456D01*
X04597D02*
Y05533D01*
X03667Y05293D02*
X04597D01*
X03667Y05173D02*
X04597D01*
X03667Y05053D02*
X04597D01*
X03667Y04933D02*
X04597D01*
X03667Y04813D02*
X04597D01*
X03667Y04693D02*
X04597D01*
X03667Y04573D02*
X04597D01*
X03667Y04453D02*
X04597D01*
X03667Y04333D02*
X04597D01*
X03667Y04213D02*
X04597D01*
X03667Y04093D02*
X04597D01*
X03667D02*
Y05533D01*
X03257Y05293D02*
X03667D01*
X03257Y05173D02*
X03667D01*
X03257Y05053D02*
X03667D01*
X03257Y04933D02*
X03667D01*
X03257Y04813D02*
X03667D01*
X03257Y04693D02*
X03667D01*
X03257Y04573D02*
X03667D01*
X03257Y04453D02*
X03667D01*
X03257Y04333D02*
X03667D01*
X03257Y04213D02*
X03667D01*
X03257Y04093D02*
X03667D01*
X03257D02*
Y05533D01*
X07796*
X03257Y05413D02*
X07796D01*
M02*