%FSTAX23Y23*%
%MOIN*%
%SFA1B1*%

%IPPOS*%
%ADD16C,0.047370*%
%ADD19C,0.008000*%
%ADD41R,0.045400X0.056030*%
%ADD42R,0.047370X0.047370*%
%ADD43R,0.019810X0.070990*%
%ADD44R,0.047370X0.047370*%
%ADD45R,0.039500X0.031620*%
%ADD46R,0.059180X0.067060*%
%ADD47R,0.027620X0.013840*%
%ADD48R,0.039310X0.007810*%
%ADD49R,0.035560X0.039500*%
%ADD50R,0.031620X0.039500*%
%ADD51R,0.039500X0.035560*%
%ADD52R,0.067060X0.059180*%
%ADD53R,0.067060X0.055240*%
%ADD54R,0.039500X0.078870*%
%LNmod_duo_x_g3399-1*%
%LPD*%
G54D16*
X02443Y02465D03*
G54D19*
X01763Y00649D03*
X01306D03*
X01208Y02224D03*
X01861D03*
G54D41*
X019Y00465D03*
X02029D03*
G54D42*
X02908Y00463D03*
Y004D03*
X0285Y00463D03*
Y004D03*
X0279Y00463D03*
Y004D03*
G54D43*
X01485Y02236D03*
X01505D03*
X01643D03*
X01663D03*
X01722Y00661D03*
X01702D03*
X01682D03*
X01663D03*
X01643D03*
X01623D03*
X01604D03*
X01584D03*
X01564D03*
X01545D03*
X01525D03*
X01505D03*
X01485D03*
X01466D03*
X01446D03*
X01426D03*
X01407D03*
X01387D03*
X01367D03*
X01722Y00519D03*
X01702D03*
X01682D03*
X01663D03*
X01643D03*
X01623D03*
X01604D03*
X01584D03*
X01564D03*
X01545D03*
X01525D03*
X01505D03*
X01485D03*
X01466D03*
X01446D03*
X01426D03*
X01407D03*
X01387D03*
X01367D03*
X01348D03*
Y00661D03*
X01249Y02236D03*
Y02094D03*
X01269D03*
X01289D03*
X01308D03*
X01328D03*
X01348D03*
X01367D03*
X01387D03*
X01407D03*
X01426D03*
X01446D03*
X01466D03*
X01485D03*
X01505D03*
X01525D03*
X01544D03*
X01564D03*
X01584D03*
X01604D03*
X01623D03*
X01643D03*
X01663D03*
X01682D03*
X01702D03*
X01722D03*
X01741D03*
X01761D03*
X01781D03*
X018D03*
X0182D03*
X01269Y02236D03*
X01289D03*
X01308D03*
X01328D03*
X01348D03*
X01367D03*
X01387D03*
X01407D03*
X01426D03*
X01446D03*
X01466D03*
X01525D03*
X01544D03*
X01564D03*
X01584D03*
X01604D03*
X01623D03*
X01682D03*
X01702D03*
X01722D03*
X01741D03*
X01761D03*
X01781D03*
X018D03*
X0182D03*
G54D44*
X01375Y02568D03*
X01438D03*
G54D45*
X01901Y0039D03*
X01948D03*
G54D46*
X02598Y02455D03*
X02531D03*
G54D47*
X02554Y0254D03*
Y0256D03*
Y02579D03*
G54D48*
X02597Y02579D03*
Y0256D03*
Y0254D03*
G54D49*
X02395Y02627D03*
Y0258D03*
X02445D03*
Y02627D03*
G54D50*
X0249Y02626D03*
Y02579D03*
X0274Y00455D03*
Y00408D03*
G54D51*
X02396Y0253D03*
X02443D03*
G54D52*
X02915Y02471D03*
Y02538D03*
G54D53*
X028Y02558D03*
Y02451D03*
G54D54*
X01281Y0059D03*
X01789D03*
X01887Y02165D03*
X01182D03*
M02*