%FSTAX23Y23*%
%MOIN*%
%SFA1B1*%

%IPPOS*%
%ADD10C,0.023620*%
%ADD11C,0.011810*%
%ADD12C,0.005910*%
%LNmod_duo_x_g3399-1*%
%LPD*%
G54D10*
X00482Y00298D02*
D01*
X00482Y00299*
X00482Y003*
X00481Y003*
X00481Y00301*
X00481Y00302*
X00481Y00303*
X0048Y00303*
X0048Y00304*
X0048Y00305*
X00479Y00305*
X00479Y00306*
X00478Y00306*
X00477Y00307*
X00477Y00307*
X00476Y00308*
X00475Y00308*
X00475Y00308*
X00474Y00309*
X00473Y00309*
X00473Y00309*
X00472Y00309*
X00471Y00309*
X0047*
X00469Y00309*
X00469Y00309*
X00468Y00309*
X00467Y00309*
X00466Y00308*
X00466Y00308*
X00465Y00308*
X00464Y00307*
X00464Y00307*
X00463Y00306*
X00463Y00306*
X00462Y00305*
X00462Y00305*
X00461Y00304*
X00461Y00303*
X0046Y00303*
X0046Y00302*
X0046Y00301*
X0046Y003*
X00459Y003*
X00459Y00299*
X00459Y00298*
X00459Y00297*
X00459Y00297*
X0046Y00296*
X0046Y00295*
X0046Y00294*
X0046Y00294*
X00461Y00293*
X00461Y00292*
X00462Y00292*
X00462Y00291*
X00463Y0029*
X00463Y0029*
X00464Y00289*
X00464Y00289*
X00465Y00288*
X00466Y00288*
X00466Y00288*
X00467Y00287*
X00468Y00287*
X00469Y00287*
X00469Y00287*
X0047Y00287*
X00471*
X00472Y00287*
X00473Y00287*
X00473Y00287*
X00474Y00287*
X00475Y00288*
X00475Y00288*
X00476Y00288*
X00477Y00289*
X00477Y00289*
X00478Y0029*
X00479Y0029*
X00479Y00291*
X0048Y00292*
X0048Y00292*
X0048Y00293*
X00481Y00294*
X00481Y00294*
X00481Y00295*
X00481Y00296*
X00482Y00297*
X00482Y00297*
X00482Y00298*
G54D11*
X02501Y00238D02*
X02571D01*
Y00333*
X00421Y02438D02*
X00491D01*
X00421Y02343D02*
Y02438D01*
X02501D02*
X02571D01*
Y02343D02*
Y02438D01*
X00421Y00333D02*
Y00238D01*
X00491*
G54D12*
X0008Y00113D02*
Y00134D01*
X00091Y00144*
X00101Y00134*
Y00113*
Y00129*
X0008*
X00133Y00144D02*
Y00113D01*
X00117*
X00112Y00118*
Y00129*
X00117Y00134*
X00133*
X00149D02*
X00159D01*
X00164Y00129*
Y00113*
X00149*
X00143Y00118*
X00149Y00123*
X00164*
X00175Y00102D02*
Y00134D01*
X00191*
X00196Y00129*
Y00118*
X00191Y00113*
X00175*
X00212Y00139D02*
Y00134D01*
X00206*
X00217*
X00212*
Y00118*
X00217Y00113*
X00248D02*
X00238D01*
X00233Y00118*
Y00129*
X00238Y00134*
X00248*
X00254Y00129*
Y00123*
X00233*
X00264Y00134D02*
Y00113D01*
Y00123*
X00269Y00129*
X00275Y00134*
X0028*
X00327Y00144D02*
Y00113D01*
X00343*
X00348Y00118*
Y00139*
X00343Y00144*
X00327*
X00359Y00134D02*
Y00118D01*
X00364Y00113*
X0038*
Y00134*
X00395Y00113D02*
X00406D01*
X00411Y00118*
Y00129*
X00406Y00134*
X00395*
X0039Y00129*
Y00118*
X00395Y00113*
X00442D02*
X00422D01*
X00442Y00134*
Y00139*
X00437Y00144*
X00427*
X00422Y00139*
X00453Y00113D02*
Y00118D01*
X00458*
Y00113*
X00453*
X00479Y00139D02*
X00484Y00144D01*
X00495*
X005Y00139*
Y00118*
X00495Y00113*
X00484*
X00479Y00118*
Y00139*
X00511Y00129D02*
X00532D01*
X00563Y00139D02*
X00558Y00144D01*
X00547*
X00542Y00139*
Y00118*
X00547Y00113*
X00558*
X00563Y00118*
Y00129*
X00553*
X00574Y00139D02*
X00579Y00144D01*
X00589*
X00595Y00139*
Y00134*
X00589Y00129*
X00584*
X00589*
X00595Y00123*
Y00118*
X00589Y00113*
X00579*
X00574Y00118*
X00605Y00139D02*
X0061Y00144D01*
X00621*
X00626Y00139*
Y00134*
X00621Y00129*
X00616*
X00621*
X00626Y00123*
Y00118*
X00621Y00113*
X0061*
X00605Y00118*
X00637D02*
X00642Y00113D01*
X00652*
X00658Y00118*
Y00139*
X00652Y00144*
X00642*
X00637Y00139*
Y00134*
X00642Y00129*
X00658*
X00668Y00118D02*
X00673Y00113D01*
X00684*
X00689Y00118*
Y00139*
X00684Y00144*
X00673*
X00668Y00139*
Y00134*
X00673Y00129*
X00689*
X0008Y0005D02*
Y00082D01*
X00096*
X00101Y00077*
Y00066*
X00096Y00061*
X0008*
X00091D02*
X00101Y0005D01*
X00128D02*
X00117D01*
X00112Y00056*
Y00066*
X00117Y00071*
X00128*
X00133Y00066*
Y00061*
X00112*
X00143Y00071D02*
X00154Y0005D01*
X00164Y00071*
X00175D02*
X0018D01*
Y00066*
X00175*
Y00071*
Y00056D02*
X0018D01*
Y0005*
X00175*
Y00056*
X00254Y0005D02*
X00233D01*
X00254Y00071*
Y00077*
X00248Y00082*
X00238*
X00233Y00077*
X00264D02*
X00269Y00082D01*
X0028*
X00285Y00077*
Y00056*
X0028Y0005*
X00269*
X00264Y00056*
Y00077*
X00296Y0005D02*
X00306D01*
X00301*
Y00082*
X00296Y00077*
X00322Y00056D02*
X00327Y0005D01*
X00338*
X00343Y00056*
Y00077*
X00338Y00082*
X00327*
X00322Y00077*
Y00071*
X00327Y00066*
X00343*
X00353Y0005D02*
Y00056D01*
X00359*
Y0005*
X00353*
X0038D02*
X0039D01*
X00385*
Y00082*
X0038Y00077*
X00406D02*
X00411Y00082D01*
X00422*
X00427Y00077*
Y00056*
X00422Y0005*
X00411*
X00406Y00056*
Y00077*
X00437Y0005D02*
Y00056D01*
X00442*
Y0005*
X00437*
X00463D02*
X00474D01*
X00469*
Y00082*
X00463Y00077*
X0049D02*
X00495Y00082D01*
X00505*
X00511Y00077*
Y00071*
X00505Y00066*
X005*
X00505*
X00511Y00061*
Y00056*
X00505Y0005*
X00495*
X0049Y00056*
X02495Y00164D02*
X02514D01*
X02504*
Y00135*
X02524D02*
Y00164D01*
X02539*
X02544Y00159*
Y00149*
X02539Y00144*
X02524*
X02554Y00159D02*
X02558Y00164D01*
X02568*
X02573Y00159*
Y00154*
X02568Y00149*
X02563*
X02568*
X02573Y00144*
Y00139*
X02568Y00135*
X02558*
X02554Y00139*
X0179Y00164D02*
X01809D01*
X01799*
Y00135*
X01819D02*
Y00164D01*
X01834*
X01839Y00159*
Y00149*
X01834Y00144*
X01819*
X01868Y00135D02*
X01849D01*
X01868Y00154*
Y00159*
X01863Y00164*
X01853*
X01849Y00159*
X0035Y02545D02*
Y0252D01*
X00354Y02516*
X00364*
X00369Y0252*
Y02545*
X00399Y02516D02*
X00379D01*
X00399Y02535*
Y0254*
X00394Y02545*
X00384*
X00379Y0254*
M02*