%FSTAX23Y23*%
%MOIN*%
%SFA1B1*%

%IPPOS*%
%ADD23C,0.019680*%
%LNmod_duo_x_g3399-1*%
%LPD*%
G36*
X02985Y00006D02*
X00006D01*
Y0267*
X02985*
Y00006*
G37*
%LNmod_duo_x_g3399-2*%
%LPC*%
G36*
X02468Y02641D02*
X02463Y0264D01*
X02458Y02637*
X02455Y02632*
X02454Y02627*
X02455Y02621*
X02458Y02617*
X02463Y02614*
X02468Y02613*
X02474Y02614*
X02478Y02617*
X02481Y02621*
X02482Y02627*
X02481Y02632*
X02478Y02637*
X02474Y0264*
X02468Y02641*
G37*
G36*
X02058Y02535D02*
X0205Y02534D01*
X02045Y02531*
X02041Y02533*
X02033Y02534*
X02025Y02533*
X02018Y0253*
X02012Y02525*
X0201Y02522*
X02003Y02522*
X02001Y02526*
X01995Y02531*
X01987Y02534*
X0198Y02535*
X01972Y02534*
X01966Y02531*
X01962Y02533*
X01955Y02534*
X01947Y02533*
X01939Y0253*
X01933Y02525*
X01928Y02519*
X01925Y02512*
X01924Y02504*
X01925Y02496*
X01928Y02489*
X01933Y02483*
X01939Y02478*
X01947Y02475*
X01955Y02474*
X01962Y02475*
X01968Y02477*
X01972Y02475*
X0198Y02474*
X01987Y02475*
X01995Y02478*
X02001Y02483*
X02003Y02486*
X02009Y02486*
X02012Y02483*
X02018Y02478*
X02025Y02475*
X02033Y02474*
X02041Y02475*
X02046Y02477*
X0205Y02475*
X02058Y02474*
X02066Y02475*
X02073Y02478*
X0208Y02483*
X02084Y02489*
X02087Y02497*
X02088Y02505*
X02087Y02512*
X02084Y0252*
X0208Y02526*
X02073Y02531*
X02066Y02534*
X02058Y02535*
G37*
G36*
X01345Y02529D02*
X01339Y02528D01*
X01335Y02524*
X01332Y0252*
X01331Y02515*
X01332Y02509*
X01335Y02505*
X01339Y02501*
X01345Y025*
X0135Y02501*
X01355Y02505*
X01358Y02509*
X01359Y02515*
X01358Y0252*
X01355Y02524*
X0135Y02528*
X01345Y02529*
G37*
G36*
X01437Y02527D02*
X01431Y02526D01*
X01427Y02522*
X01424Y02518*
X01423Y02512*
X01424Y02507*
X01427Y02503*
X01431Y02499*
X01437Y02498*
X01442Y02499*
X01447Y02503*
X0145Y02507*
X01451Y02512*
X0145Y02518*
X01447Y02522*
X01442Y02526*
X01437Y02527*
G37*
G36*
X02365Y02526D02*
X02359Y02525D01*
X02355Y02522*
X02351Y02517*
X0235Y02512*
X02351Y02507*
X02355Y02502*
X02359Y02499*
X02365Y02498*
X0237Y02499*
X02374Y02502*
X02378Y02507*
X02379Y02512*
X02378Y02517*
X02374Y02522*
X0237Y02525*
X02365Y02526*
G37*
G36*
X01397Y02502D02*
X01392Y02501D01*
X01387Y02498*
X01384Y02493*
X01383Y02488*
X01384Y02483*
X01387Y02478*
X01392Y02475*
X01397Y02474*
X01403Y02475*
X01407Y02478*
X0141Y02483*
X01411Y02488*
X0141Y02493*
X01407Y02498*
X01403Y02501*
X01397Y02502*
G37*
G36*
X027Y02429D02*
X02694Y02428D01*
X0269Y02424*
X02686Y0242*
X02685Y02415*
X02686Y02409*
X02688Y02406*
X02685Y02403*
X02685Y02403*
X0268Y02404*
X02677Y02408*
X02678Y02409*
X02679Y02415*
X02678Y0242*
X02674Y02424*
X0267Y02428*
X02665Y02429*
X02659Y02428*
X02655Y02424*
X02651Y0242*
X0265Y02415*
X02651Y02409*
X02653Y02406*
X0265Y02403*
X0265Y02403*
X02645Y02404*
X02642Y02408*
X02643Y02409*
X02644Y02415*
X02643Y0242*
X02639Y02424*
X02635Y02428*
X0263Y02429*
X02624Y02428*
X0262Y02424*
X02616Y0242*
X02616Y02419*
X02611*
X02611Y0242*
X02608Y02424*
X02603Y02428*
X02598Y02429*
X02593Y02428*
X02588Y02424*
X02587Y02423*
X02581*
X0258Y02424*
X02575Y02428*
X0257Y02429*
X02564Y02428*
X0256Y02424*
X02556Y0242*
X02555Y02415*
X02556Y02409*
X0256Y02405*
X02564Y02401*
X0257Y024*
X02572Y02396*
X02571Y02395*
X0257Y0239*
X02571Y02384*
X02575Y0238*
X02579Y02376*
X02585Y02375*
X0259Y02376*
X02594Y0238*
X02597Y02383*
X02598Y02383*
X02601*
X02602Y02383*
X02605Y0238*
X02609Y02376*
X02615Y02375*
X0262Y02376*
X02624Y0238*
X02627Y02383*
X02628Y02383*
X02631*
X02632Y02383*
X02635Y0238*
X02639Y02376*
X02645Y02375*
X0265Y02376*
X02654Y0238*
X02658Y02384*
X02659Y0239*
X02658Y02395*
X02656Y02398*
X02659Y02401*
X02659Y02401*
X02665Y024*
X02667Y02396*
X02666Y02395*
X02665Y0239*
X02666Y02384*
X0267Y0238*
X02674Y02376*
X0268Y02375*
X02685Y02376*
X02689Y0238*
X02692Y02383*
X02693Y02383*
X02696*
X02697Y02383*
X027Y0238*
X02704Y02376*
X0271Y02375*
X02715Y02376*
X02719Y0238*
X02723Y02384*
X02724Y0239*
X02723Y02395*
X02719Y02399*
X02715Y02403*
X02714Y02403*
X02712Y02408*
X02713Y02409*
X02714Y02415*
X02713Y0242*
X02709Y02424*
X02705Y02428*
X027Y02429*
G37*
G36*
X02965Y02404D02*
X02959Y02403D01*
X02955Y024*
X02951Y02395*
X0295Y0239*
X02951Y02385*
X02955Y0238*
X02959Y02377*
X02965Y02376*
X0297Y02377*
X02974Y0238*
X02978Y02385*
X02979Y0239*
X02978Y02395*
X02974Y024*
X0297Y02403*
X02965Y02404*
G37*
G36*
X0293D02*
X02924Y02403D01*
X0292Y024*
X02916Y02395*
X02915Y0239*
X02916Y02385*
X0292Y0238*
X02924Y02377*
X0293Y02376*
X02935Y02377*
X02939Y0238*
X02943Y02385*
X02944Y0239*
X02943Y02395*
X02939Y024*
X02935Y02403*
X0293Y02404*
G37*
G36*
X02895D02*
X02889Y02403D01*
X02885Y024*
X02881Y02395*
X0288Y0239*
X02881Y02385*
X02885Y0238*
X02889Y02377*
X02895Y02376*
X029Y02377*
X02904Y0238*
X02908Y02385*
X02909Y0239*
X02908Y02395*
X02904Y024*
X029Y02403*
X02895Y02404*
G37*
G36*
X0286D02*
X02854Y02403D01*
X0285Y024*
X02846Y02395*
X02845Y0239*
X02846Y02385*
X0285Y0238*
X02854Y02377*
X0286Y02376*
X02865Y02377*
X02869Y0238*
X02873Y02385*
X02874Y0239*
X02873Y02395*
X02869Y024*
X02865Y02403*
X0286Y02404*
G37*
G36*
X02825D02*
X02819Y02403D01*
X02815Y024*
X02811Y02395*
X0281Y0239*
X02811Y02385*
X02815Y0238*
X02819Y02377*
X02825Y02376*
X0283Y02377*
X02834Y0238*
X02838Y02385*
X02839Y0239*
X02838Y02395*
X02834Y024*
X0283Y02403*
X02825Y02404*
G37*
G36*
X0279D02*
X02784Y02403D01*
X0278Y024*
X02776Y02395*
X02775Y0239*
X02776Y02385*
X0278Y0238*
X02784Y02377*
X0279Y02376*
X02795Y02377*
X02799Y0238*
X02803Y02385*
X02804Y0239*
X02803Y02395*
X02799Y024*
X02795Y02403*
X0279Y02404*
G37*
G36*
X02965Y02368D02*
X02959Y02367D01*
X02955Y02364*
X02951Y02359*
X0295Y02354*
X02951Y02348*
X02955Y02344*
X02959Y02341*
X02965Y0234*
X0297Y02341*
X02974Y02344*
X02978Y02348*
X02979Y02354*
X02978Y02359*
X02974Y02364*
X0297Y02367*
X02965Y02368*
G37*
G36*
X0293D02*
X02924Y02367D01*
X0292Y02364*
X02916Y02359*
X02915Y02354*
X02916Y02348*
X0292Y02344*
X02924Y02341*
X0293Y0234*
X02935Y02341*
X02939Y02344*
X02943Y02348*
X02944Y02354*
X02943Y02359*
X02939Y02364*
X02935Y02367*
X0293Y02368*
G37*
G36*
X02895D02*
X02889Y02367D01*
X02885Y02364*
X02881Y02359*
X0288Y02354*
X02881Y02348*
X02885Y02344*
X02889Y02341*
X02895Y0234*
X029Y02341*
X02904Y02344*
X02908Y02348*
X02909Y02354*
X02908Y02359*
X02904Y02364*
X029Y02367*
X02895Y02368*
G37*
G36*
X0286D02*
X02854Y02367D01*
X0285Y02364*
X02846Y02359*
X02845Y02354*
X02846Y02348*
X0285Y02344*
X02854Y02341*
X0286Y0234*
X02865Y02341*
X02869Y02344*
X02873Y02348*
X02874Y02354*
X02873Y02359*
X02869Y02364*
X02865Y02367*
X0286Y02368*
G37*
G36*
X02825D02*
X02819Y02367D01*
X02815Y02364*
X02811Y02359*
X0281Y02354*
X02811Y02348*
X02815Y02344*
X02819Y02341*
X02825Y0234*
X0283Y02341*
X02834Y02344*
X02838Y02348*
X02839Y02354*
X02838Y02359*
X02834Y02364*
X0283Y02367*
X02825Y02368*
G37*
G36*
X0279D02*
X02784Y02367D01*
X0278Y02364*
X02776Y02359*
X02775Y02354*
X02776Y02348*
X0278Y02344*
X02784Y02341*
X0279Y0234*
X02795Y02341*
X02799Y02344*
X02803Y02348*
X02804Y02354*
X02803Y02359*
X02799Y02364*
X02795Y02367*
X0279Y02368*
G37*
G36*
X01367Y02344D02*
X01362Y02343D01*
X01357Y02339*
X01354Y02335*
X01353Y0233*
X01354Y02324*
X01357Y0232*
X01362Y02316*
X01367Y02315*
X01373Y02316*
X01377Y0232*
X01381Y02324*
X01382Y0233*
X01381Y02335*
X01377Y02339*
X01373Y02343*
X01367Y02344*
G37*
G36*
X02965Y02334D02*
X02959Y02333D01*
X02955Y02329*
X02951Y02325*
X0295Y0232*
X02951Y02314*
X02955Y0231*
X02959Y02306*
X02965Y02305*
X0297Y02306*
X02974Y0231*
X02978Y02314*
X02979Y0232*
X02978Y02325*
X02974Y02329*
X0297Y02333*
X02965Y02334*
G37*
G36*
X0293D02*
X02924Y02333D01*
X0292Y02329*
X02916Y02325*
X02915Y0232*
X02916Y02314*
X0292Y0231*
X02924Y02306*
X0293Y02305*
X02935Y02306*
X02939Y0231*
X02943Y02314*
X02944Y0232*
X02943Y02325*
X02939Y02329*
X02935Y02333*
X0293Y02334*
G37*
G36*
X02895D02*
X02889Y02333D01*
X02885Y02329*
X02881Y02325*
X0288Y0232*
X02881Y02314*
X02885Y0231*
X02889Y02306*
X02895Y02305*
X029Y02306*
X02904Y0231*
X02908Y02314*
X02909Y0232*
X02908Y02325*
X02904Y02329*
X029Y02333*
X02895Y02334*
G37*
G36*
X0286D02*
X02854Y02333D01*
X0285Y02329*
X02846Y02325*
X02845Y0232*
X02846Y02314*
X0285Y0231*
X02854Y02306*
X0286Y02305*
X02865Y02306*
X02869Y0231*
X02873Y02314*
X02874Y0232*
X02873Y02325*
X02869Y02329*
X02865Y02333*
X0286Y02334*
G37*
G36*
X02825D02*
X02819Y02333D01*
X02815Y02329*
X02811Y02325*
X0281Y0232*
X02811Y02314*
X02815Y0231*
X02819Y02306*
X02825Y02305*
X0283Y02306*
X02834Y0231*
X02838Y02314*
X02839Y0232*
X02838Y02325*
X02834Y02329*
X0283Y02333*
X02825Y02334*
G37*
G36*
X0279D02*
X02784Y02333D01*
X0278Y02329*
X02776Y02325*
X02775Y0232*
X02776Y02314*
X0278Y0231*
X02784Y02306*
X0279Y02305*
X02795Y02306*
X02799Y0231*
X02803Y02314*
X02804Y0232*
X02803Y02325*
X02799Y02329*
X02795Y02333*
X0279Y02334*
G37*
G36*
X01781Y02312D02*
X01775Y02311D01*
X01771Y02307*
X01768Y02303*
X01767Y02298*
X01762Y02296*
X01761Y02296*
X01756Y02295*
X01751Y02292*
X01748Y02287*
X01747Y02282*
X01748Y02276*
X01751Y02272*
X01756Y02269*
X01761Y02267*
X01766Y02269*
X01771Y02272*
X01774Y02276*
X01775Y02282*
X0178Y02284*
X01781Y02283*
X01782Y02284*
X01786Y02282*
X01787Y02276*
X0179Y02272*
X01795Y02269*
X018Y02267*
X01806Y02269*
X0181Y02272*
X01813Y02276*
X01815Y02282*
X01813Y02287*
X0181Y02292*
X01806Y02295*
X018Y02296*
X018Y02296*
X01795Y02298*
X01794Y02303*
X01791Y02307*
X01786Y02311*
X01781Y02312*
G37*
G36*
X01426D02*
X01421Y02311D01*
X01416Y02307*
X01413Y02303*
X01412Y02298*
X01408Y02296*
X01407Y02296*
X01401Y02295*
X01397Y02292*
X01394Y02287*
X01393Y02282*
X01394Y02276*
X01397Y02272*
X01401Y02269*
X01407Y02267*
X01412Y02269*
X01417Y02272*
X0142Y02276*
X01421Y02282*
X01426Y02284*
X01426Y02283*
X01432Y02284*
X01436Y02288*
X01439Y02292*
X01441Y02298*
X01439Y02303*
X01436Y02307*
X01432Y02311*
X01426Y02312*
G37*
G36*
X01684Y02321D02*
X01678Y0232D01*
X01674Y02317*
X0167Y02313*
X01669Y02307*
X0167Y02302*
X01674Y02297*
X01678Y02294*
X01684Y02293*
X01689Y02294*
X01693Y02297*
X01697Y02302*
X01698Y02307*
X01697Y02313*
X01693Y02317*
X01689Y0232*
X01684Y02321*
G37*
G36*
X02965Y02299D02*
X02959Y02298D01*
X02955Y02295*
X02951Y0229*
X0295Y02285*
X02951Y0228*
X02955Y02275*
X02959Y02272*
X02965Y02271*
X0297Y02272*
X02974Y02275*
X02978Y0228*
X02979Y02285*
X02978Y0229*
X02974Y02295*
X0297Y02298*
X02965Y02299*
G37*
G36*
X0293D02*
X02924Y02298D01*
X0292Y02295*
X02916Y0229*
X02915Y02285*
X02916Y0228*
X0292Y02275*
X02924Y02272*
X0293Y02271*
X02935Y02272*
X02939Y02275*
X02943Y0228*
X02944Y02285*
X02943Y0229*
X02939Y02295*
X02935Y02298*
X0293Y02299*
G37*
G36*
X02895D02*
X02889Y02298D01*
X02885Y02295*
X02881Y0229*
X0288Y02285*
X02881Y0228*
X02885Y02275*
X02889Y02272*
X02895Y02271*
X029Y02272*
X02904Y02275*
X02908Y0228*
X02909Y02285*
X02908Y0229*
X02904Y02295*
X029Y02298*
X02895Y02299*
G37*
G36*
X0286D02*
X02854Y02298D01*
X0285Y02295*
X02846Y0229*
X02845Y02285*
X02846Y0228*
X0285Y02275*
X02854Y02272*
X0286Y02271*
X02865Y02272*
X02869Y02275*
X02873Y0228*
X02874Y02285*
X02873Y0229*
X02869Y02295*
X02865Y02298*
X0286Y02299*
G37*
G36*
X02825D02*
X02819Y02298D01*
X02815Y02295*
X02811Y0229*
X0281Y02285*
X02811Y0228*
X02815Y02275*
X02819Y02272*
X02825Y02271*
X0283Y02272*
X02834Y02275*
X02838Y0228*
X02839Y02285*
X02838Y0229*
X02834Y02295*
X0283Y02298*
X02825Y02299*
G37*
G36*
X0279D02*
X02784Y02298D01*
X0278Y02295*
X02776Y0229*
X02775Y02285*
X02776Y0228*
X0278Y02275*
X02784Y02272*
X0279Y02271*
X02795Y02272*
X02799Y02275*
X02803Y0228*
X02804Y02285*
X02803Y0229*
X02799Y02295*
X02795Y02298*
X0279Y02299*
G37*
G36*
X0218Y02299D02*
X02174Y02298D01*
X0217Y02294*
X02166Y0229*
X02165Y02285*
X02166Y02279*
X0217Y02275*
X02174Y02271*
X0218Y0227*
X02185Y02271*
X02189Y02275*
X02193Y02279*
X02194Y02285*
X02193Y0229*
X02189Y02294*
X02185Y02298*
X0218Y02299*
G37*
G36*
X02145D02*
X02139Y02298D01*
X02135Y02294*
X02131Y0229*
X0213Y02285*
X02131Y02279*
X02135Y02275*
X02139Y02271*
X02145Y0227*
X0215Y02271*
X02154Y02275*
X02158Y02279*
X02159Y02285*
X02158Y0229*
X02154Y02294*
X0215Y02298*
X02145Y02299*
G37*
G36*
X0211D02*
X02104Y02298D01*
X021Y02294*
X02096Y0229*
X02095Y02285*
X02096Y02279*
X021Y02275*
X02104Y02271*
X0211Y0227*
X02115Y02271*
X02119Y02275*
X02123Y02279*
X02124Y02285*
X02123Y0229*
X02119Y02294*
X02115Y02298*
X0211Y02299*
G37*
G36*
X02075D02*
X02069Y02298D01*
X02065Y02294*
X02061Y0229*
X0206Y02285*
X02061Y02279*
X02065Y02275*
X02069Y02271*
X02075Y0227*
X0208Y02271*
X02084Y02275*
X02088Y02279*
X02089Y02285*
X02088Y0229*
X02084Y02294*
X0208Y02298*
X02075Y02299*
G37*
G36*
X0204D02*
X02034Y02298D01*
X0203Y02294*
X02026Y0229*
X02025Y02285*
X02026Y02279*
X0203Y02275*
X02034Y02271*
X0204Y0227*
X02045Y02271*
X02049Y02275*
X02053Y02279*
X02054Y02285*
X02053Y0229*
X02049Y02294*
X02045Y02298*
X0204Y02299*
G37*
G36*
X02005D02*
X01999Y02298D01*
X01995Y02294*
X01991Y0229*
X0199Y02285*
X01991Y02279*
X01995Y02275*
X01999Y02271*
X02005Y0227*
X0201Y02271*
X02014Y02275*
X02018Y02279*
X02019Y02285*
X02018Y0229*
X02014Y02294*
X0201Y02298*
X02005Y02299*
G37*
G36*
X00545Y02285D02*
X00539Y02284D01*
X00535Y02281*
X00531Y02276*
X0053Y02271*
X00531Y02265*
X00535Y02261*
X00539Y02258*
X00545Y02257*
X0055Y02258*
X00554Y02261*
X00558Y02265*
X00559Y02271*
X00558Y02276*
X00554Y02281*
X0055Y02284*
X00545Y02285*
G37*
G36*
X02965Y02265D02*
X02959Y02264D01*
X02955Y02261*
X02951Y02256*
X0295Y02251*
X02951Y02245*
X02955Y02241*
X02959Y02238*
X02965Y02237*
X0297Y02238*
X02974Y02241*
X02978Y02245*
X02979Y02251*
X02978Y02256*
X02974Y02261*
X0297Y02264*
X02965Y02265*
G37*
G36*
X0293D02*
X02924Y02264D01*
X0292Y02261*
X02916Y02256*
X02915Y02251*
X02916Y02245*
X0292Y02241*
X02924Y02238*
X0293Y02237*
X02935Y02238*
X02939Y02241*
X02943Y02245*
X02944Y02251*
X02943Y02256*
X02939Y02261*
X02935Y02264*
X0293Y02265*
G37*
G36*
X02895D02*
X02889Y02264D01*
X02885Y02261*
X02881Y02256*
X0288Y02251*
X02881Y02245*
X02885Y02241*
X02889Y02238*
X02895Y02237*
X029Y02238*
X02904Y02241*
X02908Y02245*
X02909Y02251*
X02908Y02256*
X02904Y02261*
X029Y02264*
X02895Y02265*
G37*
G36*
X0286D02*
X02854Y02264D01*
X0285Y02261*
X02846Y02256*
X02845Y02251*
X02846Y02245*
X0285Y02241*
X02854Y02238*
X0286Y02237*
X02865Y02238*
X02869Y02241*
X02873Y02245*
X02874Y02251*
X02873Y02256*
X02869Y02261*
X02865Y02264*
X0286Y02265*
G37*
G36*
X02825D02*
X02819Y02264D01*
X02815Y02261*
X02811Y02256*
X0281Y02251*
X02811Y02245*
X02815Y02241*
X02819Y02238*
X02825Y02237*
X0283Y02238*
X02834Y02241*
X02838Y02245*
X02839Y02251*
X02838Y02256*
X02834Y02261*
X0283Y02264*
X02825Y02265*
G37*
G36*
X0279D02*
X02784Y02264D01*
X0278Y02261*
X02776Y02256*
X02775Y02251*
X02776Y02245*
X0278Y02241*
X02784Y02238*
X0279Y02237*
X02795Y02238*
X02799Y02241*
X02803Y02245*
X02804Y02251*
X02803Y02256*
X02799Y02261*
X02795Y02264*
X0279Y02265*
G37*
G36*
X0218Y02264D02*
X02174Y02263D01*
X0217Y0226*
X02166Y02255*
X02165Y0225*
X02166Y02245*
X0217Y0224*
X02174Y02237*
X0218Y02236*
X02185Y02237*
X02189Y0224*
X02193Y02245*
X02194Y0225*
X02193Y02255*
X02189Y0226*
X02185Y02263*
X0218Y02264*
G37*
G36*
X02145D02*
X02139Y02263D01*
X02135Y0226*
X02131Y02255*
X0213Y0225*
X02131Y02245*
X02135Y0224*
X02139Y02237*
X02145Y02236*
X0215Y02237*
X02154Y0224*
X02158Y02245*
X02159Y0225*
X02158Y02255*
X02154Y0226*
X0215Y02263*
X02145Y02264*
G37*
G36*
X0211D02*
X02104Y02263D01*
X021Y0226*
X02096Y02255*
X02095Y0225*
X02096Y02245*
X021Y0224*
X02104Y02237*
X0211Y02236*
X02115Y02237*
X02119Y0224*
X02123Y02245*
X02124Y0225*
X02123Y02255*
X02119Y0226*
X02115Y02263*
X0211Y02264*
G37*
G36*
X02075D02*
X02069Y02263D01*
X02065Y0226*
X02061Y02255*
X0206Y0225*
X02061Y02245*
X02065Y0224*
X02069Y02237*
X02075Y02236*
X0208Y02237*
X02084Y0224*
X02088Y02245*
X02089Y0225*
X02088Y02255*
X02084Y0226*
X0208Y02263*
X02075Y02264*
G37*
G36*
X0204D02*
X02034Y02263D01*
X0203Y0226*
X02026Y02255*
X02025Y0225*
X02026Y02245*
X0203Y0224*
X02034Y02237*
X0204Y02236*
X02045Y02237*
X02049Y0224*
X02053Y02245*
X02054Y0225*
X02053Y02255*
X02049Y0226*
X02045Y02263*
X0204Y02264*
G37*
G36*
X02005D02*
X01999Y02263D01*
X01995Y0226*
X01991Y02255*
X0199Y0225*
X01991Y02245*
X01995Y0224*
X01999Y02237*
X02005Y02236*
X0201Y02237*
X02014Y0224*
X02018Y02245*
X02019Y0225*
X02018Y02255*
X02014Y0226*
X0201Y02263*
X02005Y02264*
G37*
G36*
X00964Y02255D02*
X00959Y02254D01*
X00954Y02251*
X00951Y02246*
X0095Y02241*
X00951Y02235*
X00954Y02231*
X00959Y02228*
X00964Y02227*
X00969Y02228*
X00974Y02231*
X00977Y02235*
X00978Y02241*
X00977Y02246*
X00974Y02251*
X00969Y02254*
X00964Y02255*
G37*
G36*
X0057Y02238D02*
X00565Y02237D01*
X0056Y02234*
X00557Y02229*
X00556Y02224*
X00557Y02219*
X0056Y02214*
X00565Y02211*
X0057Y0221*
X00576Y02211*
X0058Y02214*
X00583Y02219*
X00584Y02224*
X00583Y02229*
X0058Y02234*
X00576Y02237*
X0057Y02238*
G37*
G36*
X01861Y0224D02*
X01855Y02239D01*
X0185Y02235*
X01847Y0223*
X01845Y02224*
X01847Y02218*
X0185Y02213*
X01855Y02209*
X01861Y02208*
X01868Y02209*
X01873Y02213*
X01876Y02218*
X01878Y02224*
X01876Y0223*
X01873Y02235*
X01868Y02239*
X01861Y0224*
G37*
G36*
X01208D02*
X01202Y02239D01*
X01196Y02235*
X01193Y0223*
X01192Y02224*
X01193Y02218*
X01196Y02213*
X01202Y02209*
X01208Y02208*
X01214Y02209*
X01219Y02213*
X01223Y02218*
X01224Y02224*
X01223Y0223*
X01219Y02235*
X01214Y02239*
X01208Y0224*
G37*
G36*
X0218Y0223D02*
X02174Y02229D01*
X0217Y02226*
X02166Y02221*
X02165Y02216*
X02166Y0221*
X0217Y02206*
X02174Y02203*
X0218Y02202*
X02185Y02203*
X02189Y02206*
X02193Y0221*
X02194Y02216*
X02193Y02221*
X02189Y02226*
X02185Y02229*
X0218Y0223*
G37*
G36*
X02145D02*
X02139Y02229D01*
X02135Y02226*
X02131Y02221*
X0213Y02216*
X02131Y0221*
X02135Y02206*
X02139Y02203*
X02145Y02202*
X0215Y02203*
X02154Y02206*
X02158Y0221*
X02159Y02216*
X02158Y02221*
X02154Y02226*
X0215Y02229*
X02145Y0223*
G37*
G36*
X0211D02*
X02104Y02229D01*
X021Y02226*
X02096Y02221*
X02095Y02216*
X02096Y0221*
X021Y02206*
X02104Y02203*
X0211Y02202*
X02115Y02203*
X02119Y02206*
X02123Y0221*
X02124Y02216*
X02123Y02221*
X02119Y02226*
X02115Y02229*
X0211Y0223*
G37*
G36*
X02075D02*
X02069Y02229D01*
X02065Y02226*
X02061Y02221*
X0206Y02216*
X02061Y0221*
X02065Y02206*
X02069Y02203*
X02075Y02202*
X0208Y02203*
X02084Y02206*
X02088Y0221*
X02089Y02216*
X02088Y02221*
X02084Y02226*
X0208Y02229*
X02075Y0223*
G37*
G36*
X0204D02*
X02034Y02229D01*
X0203Y02226*
X02026Y02221*
X02025Y02216*
X02026Y0221*
X0203Y02206*
X02034Y02203*
X0204Y02202*
X02045Y02203*
X02049Y02206*
X02053Y0221*
X02054Y02216*
X02053Y02221*
X02049Y02226*
X02045Y02229*
X0204Y0223*
G37*
G36*
X02005D02*
X01999Y02229D01*
X01995Y02226*
X01991Y02221*
X0199Y02216*
X01991Y0221*
X01995Y02206*
X01999Y02203*
X02005Y02202*
X0201Y02203*
X02014Y02206*
X02018Y0221*
X02019Y02216*
X02018Y02221*
X02014Y02226*
X0201Y02229*
X02005Y0223*
G37*
G36*
X02965Y02229D02*
X02959Y02228D01*
X02955Y02224*
X02951Y0222*
X0295Y02215*
X02951Y02209*
X02955Y02205*
X02959Y02201*
X02965Y022*
X0297Y02201*
X02974Y02205*
X02978Y02209*
X02979Y02215*
X02978Y0222*
X02974Y02224*
X0297Y02228*
X02965Y02229*
G37*
G36*
X0293D02*
X02924Y02228D01*
X0292Y02224*
X02916Y0222*
X02915Y02215*
X02916Y02209*
X0292Y02205*
X02924Y02201*
X0293Y022*
X02935Y02201*
X02939Y02205*
X02943Y02209*
X02944Y02215*
X02943Y0222*
X02939Y02224*
X02935Y02228*
X0293Y02229*
G37*
G36*
X02895D02*
X02889Y02228D01*
X02885Y02224*
X02881Y0222*
X0288Y02215*
X02881Y02209*
X02885Y02205*
X02889Y02201*
X02895Y022*
X029Y02201*
X02904Y02205*
X02908Y02209*
X02909Y02215*
X02908Y0222*
X02904Y02224*
X029Y02228*
X02895Y02229*
G37*
G36*
X0286D02*
X02854Y02228D01*
X0285Y02224*
X02846Y0222*
X02845Y02215*
X02846Y02209*
X0285Y02205*
X02854Y02201*
X0286Y022*
X02865Y02201*
X02869Y02205*
X02873Y02209*
X02874Y02215*
X02873Y0222*
X02869Y02224*
X02865Y02228*
X0286Y02229*
G37*
G36*
X02825D02*
X02819Y02228D01*
X02815Y02224*
X02811Y0222*
X0281Y02215*
X02811Y02209*
X02815Y02205*
X02819Y02201*
X02825Y022*
X0283Y02201*
X02834Y02205*
X02838Y02209*
X02839Y02215*
X02838Y0222*
X02834Y02224*
X0283Y02228*
X02825Y02229*
G37*
G36*
X0279D02*
X02784Y02228D01*
X0278Y02224*
X02776Y0222*
X02775Y02215*
X02776Y02209*
X0278Y02205*
X02784Y02201*
X0279Y022*
X02795Y02201*
X02799Y02205*
X02803Y02209*
X02804Y02215*
X02803Y0222*
X02799Y02224*
X02795Y02228*
X0279Y02229*
G37*
G36*
X01135Y02212D02*
X01129Y02211D01*
X01125Y02208*
X01121Y02204*
X0112Y02198*
X01121Y02193*
X01125Y02188*
X01129Y02185*
X01135Y02184*
X0114Y02185*
X01144Y02188*
X01148Y02193*
X01149Y02198*
X01148Y02204*
X01144Y02208*
X0114Y02211*
X01135Y02212*
G37*
G36*
X01741Y02198D02*
X01736Y02197D01*
X01731Y02194*
X01728Y02189*
X01727Y02184*
X01728Y02179*
X01731Y02174*
X01736Y02171*
X01741Y0217*
X01747Y02171*
X01751Y02174*
X01754Y02179*
X01755Y02184*
X01754Y02189*
X01751Y02194*
X01747Y02197*
X01741Y02198*
G37*
G36*
X0218Y02194D02*
X02174Y02193D01*
X0217Y02189*
X02166Y02185*
X02165Y0218*
X02166Y02174*
X0217Y0217*
X02174Y02166*
X0218Y02165*
X02185Y02166*
X02189Y0217*
X02193Y02174*
X02194Y0218*
X02193Y02185*
X02189Y02189*
X02185Y02193*
X0218Y02194*
G37*
G36*
X02145D02*
X02139Y02193D01*
X02135Y02189*
X02131Y02185*
X0213Y0218*
X02131Y02174*
X02135Y0217*
X02139Y02166*
X02145Y02165*
X0215Y02166*
X02154Y0217*
X02158Y02174*
X02159Y0218*
X02158Y02185*
X02154Y02189*
X0215Y02193*
X02145Y02194*
G37*
G36*
X0211D02*
X02104Y02193D01*
X021Y02189*
X02096Y02185*
X02095Y0218*
X02096Y02174*
X021Y0217*
X02104Y02166*
X0211Y02165*
X02115Y02166*
X02119Y0217*
X02123Y02174*
X02124Y0218*
X02123Y02185*
X02119Y02189*
X02115Y02193*
X0211Y02194*
G37*
G36*
X02075D02*
X02069Y02193D01*
X02065Y02189*
X02061Y02185*
X0206Y0218*
X02061Y02174*
X02065Y0217*
X02069Y02166*
X02075Y02165*
X0208Y02166*
X02084Y0217*
X02088Y02174*
X02089Y0218*
X02088Y02185*
X02084Y02189*
X0208Y02193*
X02075Y02194*
G37*
G36*
X0204D02*
X02034Y02193D01*
X0203Y02189*
X02026Y02185*
X02025Y0218*
X02026Y02174*
X0203Y0217*
X02034Y02166*
X0204Y02165*
X02045Y02166*
X02049Y0217*
X02053Y02174*
X02054Y0218*
X02053Y02185*
X02049Y02189*
X02045Y02193*
X0204Y02194*
G37*
G36*
X02005D02*
X01999Y02193D01*
X01995Y02189*
X01991Y02185*
X0199Y0218*
X01991Y02174*
X01995Y0217*
X01999Y02166*
X02005Y02165*
X0201Y02166*
X02014Y0217*
X02018Y02174*
X02019Y0218*
X02018Y02185*
X02014Y02189*
X0201Y02193*
X02005Y02194*
G37*
G36*
X02282Y02179D02*
X02277Y02178D01*
X02272Y02174*
X02269Y0217*
X02268Y02165*
X02269Y02159*
X02272Y02155*
X02277Y02151*
X02282Y0215*
X02287Y02151*
X02292Y02155*
X02295Y02159*
X02296Y02165*
X02295Y0217*
X02292Y02174*
X02287Y02178*
X02282Y02179*
G37*
G36*
X01111Y02174D02*
X01106Y02173D01*
X01101Y02169*
X01098Y02165*
X01097Y0216*
X01098Y02154*
X01101Y0215*
X01106Y02146*
X01111Y02145*
X01117Y02146*
X01121Y0215*
X01124Y02154*
X01125Y0216*
X01124Y02165*
X01121Y02169*
X01117Y02173*
X01111Y02174*
G37*
G36*
X01085Y02134D02*
X0108Y02133D01*
X01075Y0213*
X01072Y02125*
X01071Y0212*
X01072Y02114*
X01075Y0211*
X0108Y02107*
X01085Y02105*
X01091Y02107*
X01095Y0211*
X01098Y02114*
X01099Y0212*
X01098Y02125*
X01095Y0213*
X01091Y02133*
X01085Y02134*
G37*
G36*
X01426Y02064D02*
X01421Y02063D01*
X01416Y02059*
X01413Y02055*
X01412Y0205*
X01413Y02044*
X01416Y0204*
X01421Y02036*
X01426Y02035*
X01432Y02036*
X01436Y0204*
X01439Y02044*
X0144Y0205*
X01439Y02055*
X01436Y02059*
X01432Y02063*
X01426Y02064*
G37*
G36*
X01623Y02064D02*
X01618Y02063D01*
X01613Y02059*
X0161Y02055*
X01609Y0205*
X0161Y02044*
X01613Y0204*
X01618Y02036*
X01623Y02035*
X01629Y02036*
X01633Y0204*
X01636Y02044*
X01637Y0205*
X01636Y02055*
X01633Y02059*
X01629Y02063*
X01623Y02064*
G37*
G36*
X01584D02*
X01578Y02063D01*
X01574Y02059*
X01571Y02055*
X0157Y0205*
X01571Y02044*
X01574Y0204*
X01578Y02036*
X01584Y02035*
X01589Y02036*
X01594Y0204*
X01597Y02044*
X01598Y0205*
X01597Y02055*
X01594Y02059*
X01589Y02063*
X01584Y02064*
G37*
G36*
X01525D02*
X01519Y02063D01*
X01515Y02059*
X01512Y02055*
X01511Y0205*
X01512Y02044*
X01515Y0204*
X01519Y02036*
X01525Y02035*
X0153Y02036*
X01535Y0204*
X01538Y02044*
X01539Y0205*
X01538Y02055*
X01535Y02059*
X0153Y02063*
X01525Y02064*
G37*
G36*
X01485D02*
X0148Y02063D01*
X01475Y02059*
X01472Y02055*
X01471Y0205*
X01472Y02044*
X01475Y0204*
X0148Y02036*
X01485Y02035*
X01491Y02036*
X01495Y0204*
X01498Y02044*
X015Y0205*
X01498Y02055*
X01495Y02059*
X01491Y02063*
X01485Y02064*
G37*
G36*
X01367D02*
X01362Y02063D01*
X01357Y02059*
X01354Y02055*
X01353Y0205*
X01354Y02044*
X01357Y0204*
X01362Y02036*
X01367Y02035*
X01373Y02036*
X01377Y0204*
X0138Y02044*
X01381Y0205*
X0138Y02055*
X01377Y02059*
X01373Y02063*
X01367Y02064*
G37*
G36*
X01308D02*
X01303Y02063D01*
X01298Y02059*
X01295Y02055*
X01294Y0205*
X01295Y02044*
X01298Y0204*
X01303Y02036*
X01308Y02035*
X01314Y02036*
X01318Y0204*
X01321Y02044*
X01322Y0205*
X01321Y02055*
X01318Y02059*
X01314Y02063*
X01308Y02064*
G37*
G36*
X01269D02*
X01263Y02063D01*
X01259Y02059*
X01256Y02055*
X01255Y0205*
X01256Y02044*
X01259Y0204*
X01263Y02036*
X01269Y02035*
X01274Y02036*
X01279Y0204*
X01282Y02044*
X01283Y0205*
X01282Y02055*
X01279Y02059*
X01274Y02063*
X01269Y02064*
G37*
G36*
X006Y02063D02*
X00594Y02062D01*
X0059Y02058*
X00586Y02054*
X00585Y02048*
X00586Y02043*
X0059Y02038*
X00594Y02035*
X006Y02034*
X00605Y02035*
X00609Y02038*
X00613Y02043*
X00614Y02048*
X00613Y02054*
X00609Y02058*
X00605Y02062*
X006Y02063*
G37*
G36*
X01683Y02063D02*
X01678Y02061D01*
X01673Y02058*
X0167Y02054*
X01669Y02048*
X0167Y02043*
X01673Y02038*
X01678Y02035*
X01683Y02034*
X01689Y02035*
X01693Y02038*
X01696Y02043*
X01697Y02048*
X01696Y02054*
X01693Y02058*
X01689Y02061*
X01683Y02063*
G37*
G36*
X02365Y02041D02*
X02359Y0204D01*
X02355Y02037*
X02352Y02032*
X02351Y02027*
X02352Y02022*
X02355Y02017*
X02359Y02014*
X02365Y02013*
X0237Y02014*
X02375Y02017*
X02378Y02022*
X02379Y02027*
X02378Y02032*
X02375Y02037*
X0237Y0204*
X02365Y02041*
G37*
G36*
X01055Y02039D02*
X01049Y02038D01*
X01045Y02035*
X01041Y0203*
X0104Y02025*
X01041Y02019*
X01045Y02015*
X01049Y02012*
X01055Y0201*
X0106Y02012*
X01064Y02015*
X01068Y02019*
X01069Y02025*
X01068Y0203*
X01064Y02035*
X0106Y02038*
X01055Y02039*
G37*
G36*
X01446Y02034D02*
X01441Y02033D01*
X01436Y02029*
X01433Y02025*
X01432Y0202*
X01433Y02014*
X01436Y0201*
X01441Y02006*
X01446Y02005*
X01451Y02006*
X01456Y0201*
X01459Y02014*
X0146Y0202*
X01459Y02025*
X01456Y02029*
X01451Y02033*
X01446Y02034*
G37*
G36*
X01643Y02034D02*
X01638Y02033D01*
X01633Y02029*
X0163Y02025*
X01629Y0202*
X0163Y02014*
X01633Y0201*
X01638Y02006*
X01643Y02005*
X01648Y02006*
X01653Y0201*
X01656Y02014*
X01657Y0202*
X01656Y02025*
X01653Y02029*
X01648Y02033*
X01643Y02034*
G37*
G36*
X01604D02*
X01598Y02033D01*
X01594Y02029*
X01591Y02025*
X01589Y0202*
X01591Y02014*
X01594Y0201*
X01598Y02006*
X01604Y02005*
X01609Y02006*
X01614Y0201*
X01617Y02014*
X01618Y0202*
X01617Y02025*
X01614Y02029*
X01609Y02033*
X01604Y02034*
G37*
G36*
X01544D02*
X01539Y02033D01*
X01535Y02029*
X01531Y02025*
X0153Y0202*
X01531Y02014*
X01535Y0201*
X01539Y02006*
X01544Y02005*
X0155Y02006*
X01554Y0201*
X01558Y02014*
X01559Y0202*
X01558Y02025*
X01554Y02029*
X0155Y02033*
X01544Y02034*
G37*
G36*
X01505D02*
X015Y02033D01*
X01495Y02029*
X01492Y02025*
X01491Y0202*
X01492Y02014*
X01495Y0201*
X015Y02006*
X01505Y02005*
X01511Y02006*
X01515Y0201*
X01518Y02014*
X01519Y0202*
X01518Y02025*
X01515Y02029*
X01511Y02033*
X01505Y02034*
G37*
G36*
X01387D02*
X01382Y02033D01*
X01377Y02029*
X01374Y02025*
X01373Y0202*
X01374Y02014*
X01377Y0201*
X01382Y02006*
X01387Y02005*
X01392Y02006*
X01397Y0201*
X014Y02014*
X01401Y0202*
X014Y02025*
X01397Y02029*
X01392Y02033*
X01387Y02034*
G37*
G36*
X01289D02*
X01283Y02033D01*
X01279Y02029*
X01276Y02025*
X01274Y0202*
X01276Y02014*
X01279Y0201*
X01283Y02006*
X01289Y02005*
X01294Y02006*
X01299Y0201*
X01302Y02014*
X01303Y0202*
X01302Y02025*
X01299Y02029*
X01294Y02033*
X01289Y02034*
G37*
G36*
X01703Y02033D02*
X01698Y02031D01*
X01693Y02028*
X0169Y02024*
X01689Y02018*
X0169Y02013*
X01693Y02008*
X01698Y02005*
X01703Y02004*
X01708Y02005*
X01713Y02008*
X01716Y02013*
X01717Y02018*
X01716Y02024*
X01713Y02028*
X01708Y02031*
X01703Y02033*
G37*
G36*
X00996Y02017D02*
X00991Y02016D01*
X00986Y02013*
X00983Y02008*
X00982Y02003*
X00983Y01997*
X00986Y01993*
X00991Y0199*
X00996Y01989*
X01002Y0199*
X01006Y01993*
X0101Y01997*
X01011Y02003*
X0101Y02008*
X01006Y02013*
X01002Y02016*
X00996Y02017*
G37*
G36*
X02396Y02017D02*
X02391Y02016D01*
X02386Y02013*
X02383Y02008*
X02382Y02003*
X02383Y01997*
X02386Y01993*
X02391Y0199*
X02396Y01988*
X02401Y0199*
X02406Y01993*
X02409Y01997*
X0241Y02003*
X02409Y02008*
X02406Y02013*
X02401Y02016*
X02396Y02017*
G37*
G36*
X01025Y01999D02*
X01019Y01998D01*
X01015Y01995*
X01011Y0199*
X0101Y01985*
X01011Y01979*
X01015Y01975*
X01019Y01972*
X01025Y0197*
X0103Y01972*
X01034Y01975*
X01038Y01979*
X01039Y01985*
X01038Y0199*
X01034Y01995*
X0103Y01998*
X01025Y01999*
G37*
G36*
X02215Y01989D02*
X02209Y01988D01*
X02205Y01984*
X02202Y0198*
X02201Y01974*
X02202Y01969*
X02205Y01964*
X02209Y01961*
X02215Y0196*
X0222Y01961*
X02225Y01964*
X02228Y01969*
X02229Y01974*
X02228Y0198*
X02225Y01984*
X0222Y01988*
X02215Y01989*
G37*
G36*
X02421Y01989D02*
X02416Y01987D01*
X02411Y01984*
X02408Y0198*
X02407Y01974*
X02408Y01969*
X02411Y01964*
X02416Y01961*
X02421Y0196*
X02426Y01961*
X02431Y01964*
X02434Y01969*
X02435Y01974*
X02434Y0198*
X02431Y01984*
X02426Y01987*
X02421Y01989*
G37*
G36*
X02456Y01962D02*
X02451Y01961D01*
X02446Y01958*
X02443Y01954*
X02442Y01948*
X02443Y01943*
X02446Y01938*
X02451Y01935*
X02456Y01934*
X02462Y01935*
X02466Y01938*
X0247Y01943*
X02471Y01948*
X0247Y01954*
X02466Y01958*
X02462Y01961*
X02456Y01962*
G37*
G36*
X02245Y01924D02*
X02239Y01923D01*
X02235Y01919*
X02232Y01915*
X02231Y0191*
X02232Y01904*
X02235Y019*
X02239Y01896*
X02245Y01895*
X0225Y01896*
X02255Y019*
X02258Y01904*
X02259Y0191*
X02258Y01915*
X02255Y01919*
X0225Y01923*
X02245Y01924*
G37*
G36*
X02335Y01884D02*
X02329Y01883D01*
X02325Y01879*
X02322Y01875*
X02321Y0187*
X02322Y01864*
X02325Y0186*
X02329Y01856*
X02335Y01855*
X0234Y01856*
X02345Y0186*
X02348Y01864*
X02349Y0187*
X02348Y01875*
X02345Y01879*
X0234Y01883*
X02335Y01884*
G37*
G36*
X02305Y01859D02*
X02299Y01858D01*
X02295Y01855*
X02292Y0185*
X02291Y01845*
X02292Y01839*
X02295Y01835*
X02299Y01832*
X02305Y0183*
X0231Y01832*
X02315Y01835*
X02318Y01839*
X02319Y01845*
X02318Y0185*
X02315Y01855*
X0231Y01858*
X02305Y01859*
G37*
G36*
X01268Y01976D02*
X01258Y01974D01*
X0125Y01968*
X01244Y0196*
X01242Y0195*
X01242Y01945*
X01242Y01226*
X01242Y01226*
X01242*
X01244Y01216*
X0125Y01208*
X01258Y01202*
X01268Y012*
X01268Y012*
X02047Y012*
X02052Y012*
X02062Y01202*
X0207Y01208*
X02076Y01216*
X02077Y01226*
X02077Y01231*
X02077Y0195*
X02077Y0195*
X02077*
X02076Y0196*
X0207Y01968*
X02062Y01974*
X02052Y01975*
X02047Y01975*
X01268Y01975*
Y01976*
G37*
G36*
X0057Y01174D02*
X00565Y01173D01*
X0056Y0117*
X00557Y01165*
X00556Y0116*
X00557Y01154*
X0056Y0115*
X00565Y01147*
X0057Y01145*
X00576Y01147*
X0058Y0115*
X00583Y01154*
X00584Y0116*
X00583Y01165*
X0058Y0117*
X00576Y01173*
X0057Y01174*
G37*
G36*
X01643Y01189D02*
X01638Y01188D01*
X01633Y01184*
X0163Y0118*
X01629Y01175*
X0163Y01169*
X01633Y01165*
X01638Y01161*
X01643Y0116*
X01647Y01161*
X0165Y01157*
X0165Y01157*
X0165Y01156*
X01649Y01151*
X0165Y01145*
X01653Y01141*
X01657Y01138*
X01663Y01137*
X01668Y01138*
X01673Y01141*
X01676Y01145*
X01677Y01151*
X01676Y01156*
X01673Y01161*
X01668Y01164*
X01663Y01165*
X01659Y01164*
X01655Y01168*
X01655Y01168*
X01656Y01169*
X01657Y01175*
X01656Y0118*
X01653Y01184*
X01648Y01188*
X01643Y01189*
G37*
G36*
X00964Y01159D02*
X00959Y01158D01*
X00954Y01155*
X00951Y0115*
X0095Y01145*
X00951Y0114*
X00954Y01135*
X00959Y01132*
X00964Y01131*
X00969Y01132*
X00974Y01135*
X00977Y0114*
X00978Y01145*
X00977Y0115*
X00974Y01155*
X00969Y01158*
X00964Y01159*
G37*
G36*
X01682Y01139D02*
X01677Y01138D01*
X01672Y01134*
X01669Y0113*
X01668Y01125*
X01669Y01119*
X01672Y01115*
X01677Y01111*
X01682Y0111*
X01687Y01111*
X01688Y0111*
X01691Y01107*
X01689Y01105*
X01688Y011*
X01689Y01094*
X01692Y0109*
X01697Y01086*
X01702Y01085*
X01707Y01086*
X01712Y0109*
X01715Y01094*
X01716Y011*
X01715Y01105*
X01712Y01109*
X01707Y01113*
X01702Y01114*
X01697Y01113*
X01696Y01114*
X01694Y01117*
X01695Y01119*
X01696Y01125*
X01695Y0113*
X01692Y01134*
X01688Y01138*
X01682Y01139*
G37*
G36*
X01466Y01089D02*
X0146Y01088D01*
X01456Y01084*
X01453Y0108*
X01452Y01075*
X01453Y01069*
X01456Y01065*
X0146Y01061*
X01466Y0106*
X01471Y01061*
X01476Y01065*
X01479Y01069*
X0148Y01075*
X01479Y0108*
X01476Y01084*
X01471Y01088*
X01466Y01089*
G37*
G36*
X00548Y01057D02*
X00543Y01056D01*
X00538Y01053*
X00535Y01048*
X00534Y01043*
X00535Y01037*
X00538Y01033*
X00543Y0103*
X00548Y01029*
X00553Y0103*
X00558Y01033*
X00561Y01037*
X00562Y01043*
X00561Y01048*
X00558Y01053*
X00553Y01056*
X00548Y01057*
G37*
G36*
X01604Y01029D02*
X01598Y01028D01*
X01594Y01024*
X01591Y0102*
X01589Y01015*
X01591Y01009*
X01594Y01005*
X01598Y01001*
X01604Y01*
X01609Y01001*
X01614Y01005*
X01617Y01009*
X01618Y01015*
X01617Y0102*
X01614Y01024*
X01609Y01028*
X01604Y01029*
G37*
G36*
X01505Y00999D02*
X015Y00998D01*
X01495Y00994*
X01492Y0099*
X01491Y00985*
X01492Y00979*
X01495Y00975*
X015Y00971*
X01505Y0097*
X01511Y00971*
X01515Y00975*
X01518Y00979*
X01519Y00985*
X01518Y0099*
X01515Y00994*
X01511Y00998*
X01505Y00999*
G37*
G36*
X01544Y00978D02*
X01539Y00977D01*
X01535Y00974*
X01531Y00969*
X0153Y00964*
X01531Y00959*
X01535Y00954*
X01539Y00951*
X01544Y0095*
X01549Y00951*
X01551Y00949*
X01552Y00947*
X01551Y00945*
X0155Y0094*
X01551Y00934*
X01554Y0093*
X01559Y00926*
X01564Y00925*
X0157Y00926*
X01574Y0093*
X01577Y00934*
X01578Y0094*
X01577Y00945*
X01574Y00949*
X0157Y00953*
X01564Y00954*
X0156Y00953*
X01558Y00954*
X01556Y00957*
X01558Y00959*
X01559Y00964*
X01558Y00969*
X01554Y00974*
X0155Y00977*
X01544Y00978*
G37*
G36*
X00996Y00939D02*
X00991Y00938D01*
X00986Y00935*
X00983Y0093*
X00982Y00925*
X00983Y00919*
X00986Y00915*
X00991Y00912*
X00996Y00911*
X01002Y00912*
X01006Y00915*
X0101Y00919*
X01011Y00925*
X0101Y0093*
X01006Y00935*
X01002Y00938*
X00996Y00939*
G37*
G36*
X01426Y00932D02*
X01421Y00931D01*
X01416Y00928*
X01413Y00923*
X01412Y00918*
X01413Y00913*
X01416Y00908*
X01421Y00905*
X01426Y00904*
X01432Y00905*
X01436Y00908*
X01439Y00913*
X01441Y00918*
X01439Y00923*
X01436Y00928*
X01432Y00931*
X01426Y00932*
G37*
G36*
X01407Y00904D02*
X01401Y00903D01*
X01397Y009*
X01394Y00896*
X01393Y0089*
X01394Y00885*
X01397Y0088*
X01401Y00877*
X01407Y00876*
X01412Y00877*
X01417Y0088*
X0142Y00885*
X01421Y0089*
X0142Y00896*
X01417Y009*
X01412Y00903*
X01407Y00904*
G37*
G36*
X01014Y00899D02*
X01008Y00898D01*
X01004Y00895*
X01001Y00891*
X01Y00885*
X01001Y0088*
X01004Y00875*
X01008Y00872*
X01014Y00871*
X01019Y00872*
X01024Y00875*
X01027Y0088*
X01028Y00885*
X01027Y00891*
X01024Y00895*
X01019Y00898*
X01014Y00899*
G37*
G36*
X01367Y00876D02*
X01362Y00875D01*
X01357Y00872*
X01354Y00868*
X01353Y00862*
X01354Y00857*
X01357Y00852*
X01362Y00849*
X01367Y00848*
X01373Y00849*
X01377Y00852*
X0138Y00857*
X01381Y00862*
X0138Y00868*
X01377Y00872*
X01373Y00875*
X01367Y00876*
G37*
G36*
X02303Y00849D02*
X02297Y00848D01*
X02293Y00844*
X0229Y0084*
X02289Y00835*
X0229Y00829*
X02293Y00825*
X02297Y00821*
X02303Y0082*
X02308Y00821*
X02313Y00825*
X02316Y00829*
X02317Y00835*
X02316Y0084*
X02313Y00844*
X02308Y00848*
X02303Y00849*
G37*
G36*
X02263D02*
X02258Y00848D01*
X02253Y00844*
X0225Y0084*
X02249Y00835*
X0225Y00829*
X02253Y00825*
X02258Y00821*
X02263Y0082*
X02269Y00821*
X02273Y00825*
X02276Y00829*
X02278Y00835*
X02276Y0084*
X02273Y00844*
X02269Y00848*
X02263Y00849*
G37*
G36*
X02224D02*
X02219Y00848D01*
X02214Y00844*
X02211Y0084*
X0221Y00835*
X02211Y00829*
X02214Y00825*
X02219Y00821*
X02224Y0082*
X02229Y00821*
X02234Y00825*
X02237Y00829*
X02238Y00835*
X02237Y0084*
X02234Y00844*
X02229Y00848*
X02224Y00849*
G37*
G36*
X01348D02*
X01342Y00848D01*
X01338Y00844*
X01335Y0084*
X01334Y00835*
X01335Y00829*
X01338Y00825*
X01342Y00821*
X01348Y0082*
X01353Y00821*
X01358Y00825*
X01361Y00829*
X01362Y00835*
X01361Y0084*
X01358Y00844*
X01353Y00848*
X01348Y00849*
G37*
G36*
X02342Y00849D02*
X02337Y00847D01*
X02332Y00844*
X02329Y0084*
X02328Y00834*
X02329Y00829*
X02332Y00824*
X02337Y00821*
X02342Y0082*
X02348Y00821*
X02352Y00824*
X02355Y00829*
X02356Y00834*
X02355Y0084*
X02352Y00844*
X02348Y00847*
X02342Y00849*
G37*
G36*
X01217Y00821D02*
X01211Y0082D01*
X01207Y00817*
X01204Y00812*
X01203Y00807*
X01204Y00801*
X01207Y00797*
X01211Y00794*
X01217Y00792*
X01222Y00794*
X01227Y00797*
X0123Y00801*
X01231Y00807*
X0123Y00812*
X01227Y00817*
X01222Y0082*
X01217Y00821*
G37*
G36*
X01545Y00798D02*
X01539Y00797D01*
X01535Y00794*
X01531Y00789*
X0153Y00784*
X01531Y00778*
X01535Y00774*
X01539Y00771*
X01545Y00769*
X0155Y00771*
X01554Y00774*
X01558Y00778*
X01559Y00784*
X01558Y00789*
X01554Y00794*
X0155Y00797*
X01545Y00798*
G37*
G36*
X01485Y00798D02*
X0148Y00797D01*
X01475Y00794*
X01472Y00789*
X01471Y00784*
X01472Y00778*
X01475Y00774*
X0148Y00771*
X01485Y00769*
X01491Y00771*
X01495Y00774*
X01498Y00778*
X015Y00784*
X01498Y00789*
X01495Y00794*
X01491Y00797*
X01485Y00798*
G37*
G36*
X01584Y00749D02*
X01578Y00748D01*
X01574Y00745*
X01571Y0074*
X0157Y00735*
X01571Y00729*
X01574Y00725*
X01578Y00722*
X01584Y0072*
X01589Y00722*
X01594Y00725*
X01597Y00729*
X01598Y00735*
X01597Y0074*
X01594Y00745*
X01589Y00748*
X01584Y00749*
G37*
G36*
X01505D02*
X015Y00748D01*
X01495Y00745*
X01492Y0074*
X01491Y00735*
X01492Y00729*
X01495Y00725*
X015Y00722*
X01505Y0072*
X01511Y00722*
X01515Y00725*
X01518Y00729*
X01519Y00735*
X01518Y0074*
X01515Y00745*
X01511Y00748*
X01505Y00749*
G37*
G36*
X0192Y00694D02*
X01914Y00693D01*
X0191Y00689*
X01907Y00685*
X01906Y0068*
X01907Y00674*
X0191Y0067*
X01914Y00666*
X0192Y00665*
X01925Y00666*
X0193Y0067*
X01933Y00674*
X01934Y0068*
X01933Y00685*
X0193Y00689*
X01925Y00693*
X0192Y00694*
G37*
G36*
X0187D02*
X01864Y00693D01*
X0186Y00689*
X01857Y00685*
X01856Y0068*
X01857Y00674*
X0186Y0067*
X01864Y00666*
X0187Y00665*
X01875Y00666*
X0188Y0067*
X01883Y00674*
X01884Y0068*
X01883Y00685*
X0188Y00689*
X01875Y00693*
X0187Y00694*
G37*
G36*
X0182D02*
X01814Y00693D01*
X0181Y00689*
X01807Y00685*
X01806Y0068*
X01807Y00674*
X0181Y0067*
X01814Y00666*
X0182Y00665*
X01825Y00666*
X0183Y0067*
X01833Y00674*
X01834Y0068*
X01833Y00685*
X0183Y00689*
X01825Y00693*
X0182Y00694*
G37*
G36*
X01895Y00663D02*
X01889Y00662D01*
X01885Y00659*
X01882Y00655*
X01881Y00649*
X01882Y00644*
X01885Y00639*
X01889Y00636*
X01895Y00635*
X019Y00636*
X01905Y00639*
X01908Y00644*
X01909Y00649*
X01908Y00655*
X01905Y00659*
X019Y00662*
X01895Y00663*
G37*
G36*
X01845D02*
X01839Y00662D01*
X01835Y00659*
X01832Y00655*
X01831Y00649*
X01832Y00644*
X01835Y00639*
X01839Y00636*
X01845Y00635*
X0185Y00636*
X01855Y00639*
X01858Y00644*
X01859Y00649*
X01858Y00655*
X01855Y00659*
X0185Y00662*
X01845Y00663*
G37*
G36*
X01135Y00663D02*
X01129Y00662D01*
X01125Y00659*
X01121Y00655*
X0112Y00649*
X01121Y00644*
X01125Y00639*
X01129Y00636*
X01135Y00635*
X0114Y00636*
X01144Y00639*
X01148Y00644*
X01149Y00649*
X01148Y00655*
X01144Y00659*
X0114Y00662*
X01135Y00663*
G37*
G36*
X01763Y00665D02*
X01757Y00664D01*
X01752Y00661*
X01748Y00655*
X01747Y00649*
X01748Y00643*
X01752Y00638*
X01757Y00634*
X01763Y00633*
X01769Y00634*
X01774Y00638*
X01778Y00643*
X01779Y00649*
X01778Y00655*
X01774Y00661*
X01769Y00664*
X01763Y00665*
G37*
G36*
X01306D02*
X013Y00664D01*
X01295Y00661*
X01291Y00655*
X0129Y00649*
X01291Y00643*
X01295Y00638*
X013Y00634*
X01306Y00633*
X01312Y00634*
X01318Y00638*
X01321Y00643*
X01322Y00649*
X01321Y00655*
X01318Y00661*
X01312Y00664*
X01306Y00665*
G37*
G36*
X006Y00545D02*
X00594Y00544D01*
X0059Y00541*
X00586Y00536*
X00585Y00531*
X00586Y00526*
X0059Y00521*
X00594Y00518*
X006Y00517*
X00605Y00518*
X00609Y00521*
X00613Y00526*
X00614Y00531*
X00613Y00536*
X00609Y00541*
X00605Y00544*
X006Y00545*
G37*
G36*
X01055Y00509D02*
X01049Y00508D01*
X01045Y00505*
X01041Y005*
X0104Y00495*
X01041Y00489*
X01045Y00485*
X01049Y00482*
X01055Y0048*
X0106Y00482*
X01064Y00485*
X01068Y00489*
X01069Y00495*
X01068Y005*
X01064Y00505*
X0106Y00508*
X01055Y00509*
G37*
G36*
X01111Y0047D02*
X01106Y00469D01*
X01101Y00465*
X01098Y00461*
X01097Y00455*
X01098Y0045*
X01101Y00446*
X01106Y00442*
X01111Y00441*
X01117Y00442*
X01121Y00446*
X01124Y0045*
X01125Y00455*
X01124Y00461*
X01121Y00465*
X01117Y00469*
X01111Y0047*
G37*
G36*
X01085Y00429D02*
X01079Y00428D01*
X01075Y00425*
X01071Y0042*
X0107Y00415*
X01071Y00409*
X01075Y00405*
X01079Y00402*
X01085Y004*
X0109Y00402*
X01094Y00405*
X01098Y00409*
X01099Y00415*
X01098Y0042*
X01094Y00425*
X0109Y00428*
X01085Y00429*
G37*
G36*
X0187Y00405D02*
X01864Y00404D01*
X0186Y00401*
X01857Y00396*
X01855Y00391*
X01857Y00385*
X0186Y00381*
X01864Y00378*
X0187Y00376*
X01875Y00378*
X0188Y00381*
X01883Y00385*
X01884Y00391*
X01883Y00396*
X0188Y00401*
X01875Y00404*
X0187Y00405*
G37*
G36*
X01485Y00404D02*
X0148Y00403D01*
X01475Y00399*
X01472Y00395*
X01471Y0039*
X01472Y00384*
X01475Y0038*
X0148Y00376*
X01485Y00375*
X01491Y00376*
X01495Y0038*
X01498Y00384*
X015Y0039*
X01498Y00395*
X01495Y00399*
X01491Y00403*
X01485Y00404*
G37*
G36*
X02145Y00384D02*
X02139Y00383D01*
X02135Y00379*
X02131Y00375*
X0213Y0037*
X02131Y00364*
X02135Y0036*
X02139Y00356*
X02145Y00355*
X0215Y00356*
X02154Y0036*
X02158Y00364*
X02159Y0037*
X02158Y00375*
X02154Y00379*
X0215Y00383*
X02145Y00384*
G37*
G36*
X01525D02*
X01519Y00383D01*
X01515Y00379*
X01512Y00375*
X01511Y0037*
X01512Y00364*
X01515Y0036*
X01519Y00356*
X01525Y00355*
X0153Y00356*
X01535Y0036*
X01538Y00364*
X01539Y0037*
X01538Y00375*
X01535Y00379*
X0153Y00383*
X01525Y00384*
G37*
G36*
X00846Y00358D02*
X0084Y00357D01*
X00836Y00354*
X00832Y0035*
X00831Y00344*
X00832Y00339*
X00836Y00334*
X0084Y00331*
X00846Y0033*
X00851Y00331*
X00856Y00334*
X00859Y00339*
X0086Y00344*
X00859Y0035*
X00856Y00354*
X00851Y00357*
X00846Y00358*
G37*
G36*
X01505Y00355D02*
X015Y00353D01*
X01495Y0035*
X01492Y00346*
X01491Y0034*
X01492Y00335*
X01495Y0033*
X015Y00327*
X01505Y00326*
X01511Y00327*
X01515Y0033*
X01518Y00335*
X01519Y0034*
X01518Y00346*
X01515Y0035*
X01511Y00353*
X01505Y00355*
G37*
G36*
X0285Y00349D02*
X02844Y00348D01*
X0284Y00344*
X02836Y0034*
X02835Y00335*
X02836Y00329*
X0284Y00325*
X02844Y00321*
X0285Y0032*
X02855Y00321*
X02859Y00325*
X02863Y00329*
X02864Y00335*
X02863Y0034*
X02859Y00344*
X02855Y00348*
X0285Y00349*
G37*
G36*
X02815D02*
X02809Y00348D01*
X02805Y00344*
X02801Y0034*
X028Y00335*
X02801Y00329*
X02805Y00325*
X02809Y00321*
X02815Y0032*
X0282Y00321*
X02824Y00325*
X02828Y00329*
X02829Y00335*
X02828Y0034*
X02824Y00344*
X0282Y00348*
X02815Y00349*
G37*
G36*
X0278D02*
X02774Y00348D01*
X0277Y00344*
X02766Y0034*
X02765Y00335*
X02766Y00329*
X0277Y00325*
X02774Y00321*
X0278Y0032*
X02785Y00321*
X02789Y00325*
X02793Y00329*
X02794Y00335*
X02793Y0034*
X02789Y00344*
X02785Y00348*
X0278Y00349*
G37*
G36*
X02745D02*
X02739Y00348D01*
X02735Y00344*
X02731Y0034*
X0273Y00335*
X02731Y00329*
X02735Y00325*
X02739Y00321*
X02745Y0032*
X0275Y00321*
X02754Y00325*
X02758Y00329*
X02759Y00335*
X02758Y0034*
X02754Y00344*
X0275Y00348*
X02745Y00349*
G37*
G36*
X0271D02*
X02704Y00348D01*
X027Y00344*
X02696Y0034*
X02695Y00335*
X02696Y00329*
X027Y00325*
X02704Y00321*
X0271Y0032*
X02715Y00321*
X02719Y00325*
X02723Y00329*
X02724Y00335*
X02723Y0034*
X02719Y00344*
X02715Y00348*
X0271Y00349*
G37*
G36*
X02675D02*
X02669Y00348D01*
X02665Y00344*
X02661Y0034*
X0266Y00335*
X02661Y00329*
X02665Y00325*
X02669Y00321*
X02675Y0032*
X0268Y00321*
X02684Y00325*
X02688Y00329*
X02689Y00335*
X02688Y0034*
X02684Y00344*
X0268Y00348*
X02675Y00349*
G37*
G36*
X00925Y00345D02*
X00919Y00344D01*
X00915Y00341*
X00912Y00336*
X00911Y00331*
X00912Y00325*
X00915Y00321*
X00919Y00318*
X00925Y00316*
X0093Y00318*
X00935Y00321*
X00938Y00325*
X00939Y00331*
X00938Y00336*
X00935Y00341*
X0093Y00344*
X00925Y00345*
G37*
G36*
X00807D02*
X00801Y00344D01*
X00797Y00341*
X00794Y00336*
X00792Y00331*
X00794Y00325*
X00797Y00321*
X00801Y00318*
X00807Y00316*
X00812Y00318*
X00817Y00321*
X0082Y00325*
X00821Y00331*
X0082Y00336*
X00817Y00341*
X00812Y00344*
X00807Y00345*
G37*
G36*
X0285Y00314D02*
X02844Y00313D01*
X0284Y0031*
X02836Y00305*
X02835Y003*
X02836Y00295*
X0284Y0029*
X02844Y00287*
X0285Y00286*
X02855Y00287*
X02859Y0029*
X02863Y00295*
X02864Y003*
X02863Y00305*
X02859Y0031*
X02855Y00313*
X0285Y00314*
G37*
G36*
X02815D02*
X02809Y00313D01*
X02805Y0031*
X02801Y00305*
X028Y003*
X02801Y00295*
X02805Y0029*
X02809Y00287*
X02815Y00286*
X0282Y00287*
X02824Y0029*
X02828Y00295*
X02829Y003*
X02828Y00305*
X02824Y0031*
X0282Y00313*
X02815Y00314*
G37*
G36*
X0278D02*
X02774Y00313D01*
X0277Y0031*
X02766Y00305*
X02765Y003*
X02766Y00295*
X0277Y0029*
X02774Y00287*
X0278Y00286*
X02785Y00287*
X02789Y0029*
X02793Y00295*
X02794Y003*
X02793Y00305*
X02789Y0031*
X02785Y00313*
X0278Y00314*
G37*
G36*
X02745D02*
X02739Y00313D01*
X02735Y0031*
X02731Y00305*
X0273Y003*
X02731Y00295*
X02735Y0029*
X02739Y00287*
X02745Y00286*
X0275Y00287*
X02754Y0029*
X02758Y00295*
X02759Y003*
X02758Y00305*
X02754Y0031*
X0275Y00313*
X02745Y00314*
G37*
G36*
X0271D02*
X02704Y00313D01*
X027Y0031*
X02696Y00305*
X02695Y003*
X02696Y00295*
X027Y0029*
X02704Y00287*
X0271Y00286*
X02715Y00287*
X02719Y0029*
X02723Y00295*
X02724Y003*
X02723Y00305*
X02719Y0031*
X02715Y00313*
X0271Y00314*
G37*
G36*
X02675D02*
X02669Y00313D01*
X02665Y0031*
X02661Y00305*
X0266Y003*
X02661Y00295*
X02665Y0029*
X02669Y00287*
X02675Y00286*
X0268Y00287*
X02684Y0029*
X02688Y00295*
X02689Y003*
X02688Y00305*
X02684Y0031*
X0268Y00313*
X02675Y00314*
G37*
G36*
X0285Y0028D02*
X02844Y00279D01*
X0284Y00276*
X02836Y00271*
X02835Y00266*
X02836Y0026*
X0284Y00256*
X02844Y00253*
X0285Y00252*
X02855Y00253*
X02859Y00256*
X02863Y0026*
X02864Y00266*
X02863Y00271*
X02859Y00276*
X02855Y00279*
X0285Y0028*
G37*
G36*
X02815D02*
X02809Y00279D01*
X02805Y00276*
X02801Y00271*
X028Y00266*
X02801Y0026*
X02805Y00256*
X02809Y00253*
X02815Y00252*
X0282Y00253*
X02824Y00256*
X02828Y0026*
X02829Y00266*
X02828Y00271*
X02824Y00276*
X0282Y00279*
X02815Y0028*
G37*
G36*
X0278D02*
X02774Y00279D01*
X0277Y00276*
X02766Y00271*
X02765Y00266*
X02766Y0026*
X0277Y00256*
X02774Y00253*
X0278Y00252*
X02785Y00253*
X02789Y00256*
X02793Y0026*
X02794Y00266*
X02793Y00271*
X02789Y00276*
X02785Y00279*
X0278Y0028*
G37*
G36*
X02745D02*
X02739Y00279D01*
X02735Y00276*
X02731Y00271*
X0273Y00266*
X02731Y0026*
X02735Y00256*
X02739Y00253*
X02745Y00252*
X0275Y00253*
X02754Y00256*
X02758Y0026*
X02759Y00266*
X02758Y00271*
X02754Y00276*
X0275Y00279*
X02745Y0028*
G37*
G36*
X0271D02*
X02704Y00279D01*
X027Y00276*
X02696Y00271*
X02695Y00266*
X02696Y0026*
X027Y00256*
X02704Y00253*
X0271Y00252*
X02715Y00253*
X02719Y00256*
X02723Y0026*
X02724Y00266*
X02723Y00271*
X02719Y00276*
X02715Y00279*
X0271Y0028*
G37*
G36*
X02675D02*
X02669Y00279D01*
X02665Y00276*
X02661Y00271*
X0266Y00266*
X02661Y0026*
X02665Y00256*
X02669Y00253*
X02675Y00252*
X0268Y00253*
X02684Y00256*
X02688Y0026*
X02689Y00266*
X02688Y00271*
X02684Y00276*
X0268Y00279*
X02675Y0028*
G37*
G36*
X0285Y00244D02*
X02844Y00243D01*
X0284Y00239*
X02836Y00235*
X02835Y0023*
X02836Y00224*
X0284Y0022*
X02844Y00216*
X0285Y00215*
X02855Y00216*
X02859Y0022*
X02863Y00224*
X02864Y0023*
X02863Y00235*
X02859Y00239*
X02855Y00243*
X0285Y00244*
G37*
G36*
X02815D02*
X02809Y00243D01*
X02805Y00239*
X02801Y00235*
X028Y0023*
X02801Y00224*
X02805Y0022*
X02809Y00216*
X02815Y00215*
X0282Y00216*
X02824Y0022*
X02828Y00224*
X02829Y0023*
X02828Y00235*
X02824Y00239*
X0282Y00243*
X02815Y00244*
G37*
G36*
X0278D02*
X02774Y00243D01*
X0277Y00239*
X02766Y00235*
X02765Y0023*
X02766Y00224*
X0277Y0022*
X02774Y00216*
X0278Y00215*
X02785Y00216*
X02789Y0022*
X02793Y00224*
X02794Y0023*
X02793Y00235*
X02789Y00239*
X02785Y00243*
X0278Y00244*
G37*
G36*
X02745D02*
X02739Y00243D01*
X02735Y00239*
X02731Y00235*
X0273Y0023*
X02731Y00224*
X02735Y0022*
X02739Y00216*
X02745Y00215*
X0275Y00216*
X02754Y0022*
X02758Y00224*
X02759Y0023*
X02758Y00235*
X02754Y00239*
X0275Y00243*
X02745Y00244*
G37*
G36*
X0271D02*
X02704Y00243D01*
X027Y00239*
X02696Y00235*
X02695Y0023*
X02696Y00224*
X027Y0022*
X02704Y00216*
X0271Y00215*
X02715Y00216*
X02719Y0022*
X02723Y00224*
X02724Y0023*
X02723Y00235*
X02719Y00239*
X02715Y00243*
X0271Y00244*
G37*
G36*
X02675D02*
X02669Y00243D01*
X02665Y00239*
X02661Y00235*
X0266Y0023*
X02661Y00224*
X02665Y0022*
X02669Y00216*
X02675Y00215*
X0268Y00216*
X02684Y0022*
X02688Y00224*
X02689Y0023*
X02688Y00235*
X02684Y00239*
X0268Y00243*
X02675Y00244*
G37*
G36*
X01722Y00202D02*
X01716Y00201D01*
X01712Y00198*
X01709Y00193*
X01708Y00188*
X01708Y00185*
X01704Y00181*
X01702Y00182*
X01697Y0018*
X01692Y00177*
X01689Y00173*
X01688Y00167*
X01689Y00162*
X01692Y00157*
X01697Y00154*
X01702Y00153*
X01707Y00154*
X01712Y00157*
X01715Y00162*
X01716Y00167*
X01716Y0017*
X0172Y00174*
X01722Y00174*
X01727Y00175*
X01732Y00178*
X01735Y00183*
X01736Y00188*
X01735Y00193*
X01732Y00198*
X01727Y00201*
X01722Y00202*
G37*
G36*
X01161D02*
X01156Y00201D01*
X01151Y00198*
X01148Y00193*
X01147Y00188*
X01148Y00183*
X01151Y00178*
X01156Y00175*
X01161Y00174*
X01166Y00175*
X01171Y00178*
X01174Y00183*
X01175Y00188*
X01174Y00193*
X01171Y00198*
X01166Y00201*
X01161Y00202*
G37*
G36*
X01043D02*
X01037Y00201D01*
X01033Y00198*
X0103Y00193*
X01029Y00188*
X0103Y00183*
X01033Y00178*
X01037Y00175*
X01043Y00174*
X01048Y00175*
X01053Y00178*
X01056Y00183*
X01057Y00188*
X01056Y00193*
X01053Y00198*
X01048Y00201*
X01043Y00202*
G37*
G36*
X00531D02*
X00526Y00201D01*
X00521Y00198*
X00518Y00193*
X00517Y00188*
X00518Y00183*
X00521Y00178*
X00526Y00175*
X00531Y00174*
X00536Y00175*
X00541Y00178*
X00544Y00183*
X00545Y00188*
X00544Y00193*
X00541Y00198*
X00536Y00201*
X00531Y00202*
G37*
G36*
X00767D02*
X00762Y00201D01*
X00757Y00198*
X00754Y00193*
X00753Y00188*
X00754Y00183*
X00757Y00178*
X00762Y00175*
X00767Y00174*
X00773Y00175*
X00777Y00178*
X0078Y00183*
X00781Y00188*
X0078Y00193*
X00777Y00198*
X00773Y00201*
X00767Y00202*
G37*
G36*
X0057D02*
X00565Y00201D01*
X0056Y00198*
X00557Y00193*
X00556Y00188*
X00557Y00183*
X0056Y00178*
X00565Y00175*
X0057Y00174*
X00576Y00175*
X0058Y00178*
X00583Y00183*
X00584Y00188*
X00583Y00193*
X0058Y00198*
X00576Y00201*
X0057Y00202*
G37*
G36*
X01426Y00195D02*
X01421Y00194D01*
X01416Y00191*
X01413Y00187*
X01412Y00181*
X01413Y00176*
X01416Y00171*
X01421Y00168*
X01426Y00167*
X01432Y00168*
X01436Y00171*
X01439Y00176*
X01441Y00181*
X01439Y00187*
X01436Y00191*
X01432Y00194*
X01426Y00195*
G37*
G36*
X00965Y00189D02*
X00959Y00188D01*
X00955Y00184*
X00951Y0018*
X0095Y00175*
X00951Y00169*
X00955Y00165*
X00959Y00161*
X00965Y0016*
X0097Y00161*
X00974Y00165*
X00978Y00169*
X00979Y00175*
X00978Y0018*
X00974Y00184*
X0097Y00188*
X00965Y00189*
G37*
G36*
X01564Y00202D02*
X01559Y00201D01*
X01554Y00198*
X01551Y00193*
X0155Y00188*
X01551Y00183*
X01554Y00178*
X01559Y00175*
X01564Y00174*
X01566Y00174*
X0157Y0017*
X0157Y00167*
X01571Y00162*
X01574Y00157*
X01578Y00154*
X01584Y00153*
X01589Y00154*
X01594Y00157*
X01597Y00162*
X01598Y00167*
X01597Y00173*
X01594Y00177*
X01589Y0018*
X01584Y00182*
X01582Y00181*
X01578Y00185*
X01578Y00188*
X01577Y00193*
X01574Y00198*
X0157Y00201*
X01564Y00202*
G37*
G36*
X01682Y00131D02*
X01677Y0013D01*
X01672Y00127*
X01669Y00122*
X01668Y00117*
X01669Y00112*
X01672Y00107*
X01677Y00104*
X01682Y00103*
X01688Y00104*
X01692Y00107*
X01695Y00112*
X01696Y00117*
X01695Y00122*
X01692Y00127*
X01688Y0013*
X01682Y00131*
G37*
G36*
X01663Y00099D02*
X01657Y00098D01*
X01653Y00094*
X0165Y0009*
X01649Y00085*
X0165Y00079*
X01653Y00075*
X01657Y00071*
X01663Y0007*
X01668Y00071*
X01673Y00075*
X01676Y00079*
X01677Y00085*
X01676Y0009*
X01673Y00094*
X01668Y00098*
X01663Y00099*
G37*
G36*
X01623Y00074D02*
X01618Y00073D01*
X01613Y00069*
X0161Y00065*
X01609Y0006*
X0161Y00054*
X01612Y00052*
X0161Y00049*
X01609Y00048*
X01604Y00049*
X01598Y00048*
X01594Y00044*
X01591Y0004*
X01589Y00035*
X01591Y00029*
X01594Y00025*
X01598Y00021*
X01604Y0002*
X01609Y00021*
X01614Y00025*
X01617Y00029*
X01618Y00035*
X01617Y0004*
X01615Y00042*
X01617Y00045*
X01618Y00046*
X01623Y00045*
X01629Y00046*
X01633Y0005*
X01636Y00054*
X01637Y0006*
X01636Y00065*
X01633Y00069*
X01629Y00073*
X01623Y00074*
G37*
G36*
X01387D02*
X01382Y00073D01*
X01377Y00069*
X01374Y00065*
X01373Y0006*
X01374Y00054*
X01376Y00052*
X01373Y00049*
X01372Y00048*
X01367Y00049*
X01362Y00048*
X01357Y00044*
X01354Y0004*
X01353Y00035*
X01354Y00029*
X01357Y00025*
X01362Y00021*
X01367Y0002*
X01373Y00021*
X01377Y00025*
X0138Y00029*
X01381Y00035*
X0138Y0004*
X01379Y00042*
X01381Y00045*
X01382Y00046*
X01387Y00045*
X01392Y00046*
X01397Y0005*
X014Y00054*
X01401Y0006*
X014Y00065*
X01397Y00069*
X01392Y00073*
X01387Y00074*
G37*
G36*
X01446D02*
X01441Y00073D01*
X01436Y00069*
X01433Y00065*
X01432Y0006*
X01433Y00054*
X01436Y0005*
X01441Y00046*
X01446Y00045*
X01451Y00046*
X01452Y00045*
X01454Y00042*
X01453Y0004*
X01452Y00035*
X01453Y00029*
X01456Y00025*
X0146Y00021*
X01466Y0002*
X01471Y00021*
X01476Y00025*
X01479Y00029*
X0148Y00035*
X01479Y0004*
X01476Y00044*
X01471Y00048*
X01466Y00049*
X01461Y00048*
X0146Y00049*
X01457Y00052*
X01459Y00054*
X0146Y0006*
X01459Y00065*
X01456Y00069*
X01451Y00073*
X01446Y00074*
G37*
%LNmod_duo_x_g3399-3*%
%LPD*%
G54D23*
X01564Y0094D03*
X01545Y00784D03*
X01544Y00964D03*
X01505Y00985D03*
X01604Y01015D03*
X01525Y02287D03*
X02468Y02627D03*
X02005Y02216D03*
X0204D03*
X0211D03*
X02075D03*
X0218D03*
X02145D03*
Y0218D03*
X0218D03*
X02075D03*
X0211D03*
X0204D03*
X02005D03*
Y0225D03*
X0204D03*
X0211D03*
X02075D03*
X0218D03*
X02145D03*
X02005Y02285D03*
X0204D03*
X0211D03*
X02075D03*
X0218D03*
X02145D03*
X0191Y0035D03*
X02815Y00335D03*
X0285D03*
X02745D03*
X0278D03*
X0271D03*
X02675D03*
X02815Y003D03*
X0285D03*
X02745D03*
X0278D03*
X0271D03*
X02675D03*
Y0023D03*
X0271D03*
X0278D03*
X02745D03*
X0285D03*
X02815D03*
Y00266D03*
X0285D03*
X02745D03*
X0278D03*
X0271D03*
X02675D03*
X02365Y02512D03*
X01604Y00035D03*
X00336Y01082D03*
X00305D03*
X0028D03*
X00255D03*
X0182Y02298D03*
X01385Y02615D03*
X01437Y02512D03*
X01345Y02515D03*
X01684Y02307D03*
X01722Y02292D03*
X02215Y01974D03*
X02245Y0191D03*
X0182Y0068D03*
X01845Y00649D03*
X02282Y02165D03*
X01367Y0233D03*
X01387Y02307D03*
X02305Y01845D03*
X02335Y0187D03*
X0187Y0068D03*
X01895Y00649D03*
X0192Y0068D03*
X02365Y02027D03*
X02396Y02003D03*
X02421Y01974D03*
X02456Y01948D03*
X02224Y00835D03*
X02263D03*
X02303D03*
X02342Y00834D03*
X01367Y0205D03*
X01387Y0202D03*
X01584Y0205D03*
X01604Y0202D03*
X01623Y0205D03*
X01643Y0202D03*
X01703Y02018D03*
X01683Y02048D03*
X01584Y00735D03*
X01505D03*
X01485Y00784D03*
X00964Y02241D03*
Y01145D03*
X00996Y00925D03*
Y02003D03*
X01014Y00885D03*
X01025Y01985D03*
X006Y00531D03*
Y02048D03*
X01055Y00495D03*
Y02025D03*
X01355Y02025D03*
X01407Y02282D03*
X0057Y0116D03*
Y02224D03*
X01085Y00415D03*
X01085Y0212D03*
X00545Y02271D03*
X01111Y00455D03*
X01135Y02198D03*
X01111Y0216D03*
X00548Y01043D03*
X01135Y00649D03*
X01446Y02282D03*
X01426Y02298D03*
X01397Y02488D03*
X018Y02282D03*
X01781Y02298D03*
X01761Y02282D03*
X01741Y02184D03*
X01217Y00807D03*
X02145Y0037D03*
X0187Y00391D03*
X01466Y01075D03*
X01367Y00862D03*
X01407Y0089D03*
X01426Y00918D03*
X01348Y00835D03*
X01466Y00035D03*
X01446Y0006D03*
X00531Y00188D03*
X0057D03*
X01623Y0006D03*
X00767Y00188D03*
X01485Y0039D03*
X00807Y00331D03*
X01525Y0037D03*
X00846Y00344D03*
X01564Y00188D03*
X01545Y00474D03*
X01161Y00188D03*
X01043D03*
X01426Y00181D03*
X01505Y0034D03*
X00925Y00331D03*
X01584Y00167D03*
X00965Y00175D03*
X01702Y011D03*
X01682Y01125D03*
X01663Y01151D03*
X01643Y01175D03*
X01663Y00085D03*
X01387Y0006D03*
X01367Y00035D03*
X01682Y00117D03*
X01702Y00167D03*
X01722Y00188D03*
X01269Y0205D03*
X01289Y0202D03*
X01308Y0205D03*
X01525D03*
X01544Y0202D03*
X01485Y0205D03*
X01505Y0202D03*
X01426Y0205D03*
X01446Y0202D03*
X01955Y02504D03*
X0198Y02505D03*
X02033Y02504D03*
X02058Y02505D03*
X01623Y00619D03*
X01643Y00564D03*
Y00474D03*
X01545Y00562D03*
X01407Y00474D03*
Y00564D03*
X01585Y02184D03*
Y02284D03*
X0296Y0264D03*
X02915D03*
X0296Y0259D03*
X02915D03*
X0294Y02615D03*
X00065Y02605D03*
X0005Y00045D03*
X0279Y02251D03*
X02825D03*
X02895D03*
X0286D03*
X02965D03*
X0293D03*
Y02215D03*
X02965D03*
X0286D03*
X02895D03*
X02825D03*
X0279D03*
Y02285D03*
X02825D03*
X02895D03*
X0286D03*
X02965D03*
X0293D03*
X0279Y0232D03*
X02825D03*
X02895D03*
X0286D03*
X02965D03*
X0293D03*
X0279Y02354D03*
X02825D03*
X02895D03*
X0286D03*
X02965D03*
X0293D03*
Y0239D03*
X02965D03*
X0286D03*
X02895D03*
X02825D03*
X0279D03*
X0263Y02415D03*
X02598D03*
X027D03*
X0271Y0239D03*
X0257Y02415D03*
X02585Y0239D03*
X02615D03*
X0268D03*
X02645D03*
X02665Y02415D03*
M02*