%FSTAX23Y23*%
%MOIN*%
%SFA1B1*%

%IPPOS*%
%ADD13C,0.039370*%
%ADD27R,0.037400X0.048030*%
%ADD28R,0.039370X0.039370*%
%ADD29R,0.011810X0.062990*%
%ADD30R,0.039370X0.039370*%
%ADD31R,0.031500X0.023620*%
%ADD32R,0.051180X0.059060*%
%ADD33R,0.023620X0.009840*%
%ADD34R,0.043310X0.011810*%
%ADD35R,0.027560X0.031500*%
%ADD36R,0.023620X0.031500*%
%ADD37R,0.031500X0.027560*%
%ADD38R,0.059060X0.051180*%
%ADD39R,0.059060X0.047240*%
%ADD40R,0.031500X0.070870*%
%LNmod_duo_x_g3399-1*%
%LPD*%
G54D13*
X02443Y02465D03*
G54D27*
X019Y00465D03*
X02029D03*
G54D28*
X02908Y00463D03*
Y004D03*
X0285Y00463D03*
Y004D03*
X0279Y00463D03*
Y004D03*
G54D29*
X01485Y02236D03*
X01505D03*
X01643D03*
X01663D03*
X01722Y00661D03*
X01702D03*
X01682D03*
X01663D03*
X01643D03*
X01623D03*
X01604D03*
X01584D03*
X01564D03*
X01545D03*
X01525D03*
X01505D03*
X01485D03*
X01466D03*
X01446D03*
X01426D03*
X01407D03*
X01387D03*
X01367D03*
X01722Y00519D03*
X01702D03*
X01682D03*
X01663D03*
X01643D03*
X01623D03*
X01604D03*
X01584D03*
X01564D03*
X01545D03*
X01525D03*
X01505D03*
X01485D03*
X01466D03*
X01446D03*
X01426D03*
X01407D03*
X01387D03*
X01367D03*
X01348D03*
Y00661D03*
X01249Y02236D03*
Y02094D03*
X01269D03*
X01289D03*
X01308D03*
X01328D03*
X01348D03*
X01367D03*
X01387D03*
X01407D03*
X01426D03*
X01446D03*
X01466D03*
X01485D03*
X01505D03*
X01525D03*
X01544D03*
X01564D03*
X01584D03*
X01604D03*
X01623D03*
X01643D03*
X01663D03*
X01682D03*
X01702D03*
X01722D03*
X01741D03*
X01761D03*
X01781D03*
X018D03*
X0182D03*
X01269Y02236D03*
X01289D03*
X01308D03*
X01328D03*
X01348D03*
X01367D03*
X01387D03*
X01407D03*
X01426D03*
X01446D03*
X01466D03*
X01525D03*
X01544D03*
X01564D03*
X01584D03*
X01604D03*
X01623D03*
X01682D03*
X01702D03*
X01722D03*
X01741D03*
X01761D03*
X01781D03*
X018D03*
X0182D03*
G54D30*
X01375Y02568D03*
X01438D03*
G54D31*
X01901Y0039D03*
X01948D03*
G54D32*
X02598Y02455D03*
X02531D03*
G54D33*
X02554Y0254D03*
Y0256D03*
Y02579D03*
G54D34*
X02597Y02579D03*
Y0256D03*
Y0254D03*
G54D35*
X02395Y02627D03*
Y0258D03*
X02445D03*
Y02627D03*
G54D36*
X0249Y02626D03*
Y02579D03*
X0274Y00455D03*
Y00408D03*
G54D37*
X02396Y0253D03*
X02443D03*
G54D38*
X02915Y02471D03*
Y02538D03*
G54D39*
X028Y02558D03*
Y02451D03*
G54D40*
X01281Y0059D03*
X01789D03*
X01887Y02165D03*
X01182D03*
M02*