G04 Layer_Physical_Order=3*
G04 Layer_Color=16440176*
%FSLAX45Y45*%
%MOMM*%
%TF.FileFunction,Copper,L3,Inr,Signal*%
%TF.Part,Single*%
G01*
G75*
%TA.AperFunction,ViaPad*%
%ADD19C,4.50000*%
%ADD20C,0.50000*%
G36*
X4264291Y-1633691D02*
X-3302891D01*
Y5133491D01*
X4264291D01*
Y-1633691D01*
D02*
G37*
%LPC*%
G36*
X2951000Y5058949D02*
X2937281Y5056220D01*
X2925651Y5048449D01*
X2917880Y5036819D01*
X2915151Y5023100D01*
X2917880Y5009381D01*
X2925651Y4997751D01*
X2937281Y4989980D01*
X2951000Y4987251D01*
X2964719Y4989980D01*
X2976349Y4997751D01*
X2984120Y5009381D01*
X2986849Y5023100D01*
X2984120Y5036819D01*
X2976349Y5048449D01*
X2964719Y5056220D01*
X2951000Y5058949D01*
D02*
G37*
G36*
X1709900Y4789054D02*
X1690112Y4786449D01*
X1676460Y4780794D01*
X1666188Y4785049D01*
X1646400Y4787654D01*
X1626612Y4785049D01*
X1608173Y4777411D01*
X1592339Y4765261D01*
X1580189Y4749427D01*
X1572551Y4730988D01*
X1569946Y4711200D01*
X1572551Y4691412D01*
X1580189Y4672973D01*
X1592339Y4657139D01*
X1608173Y4644989D01*
X1626612Y4637351D01*
X1646400Y4634746D01*
X1666188Y4637351D01*
X1679840Y4643006D01*
X1690112Y4638751D01*
X1709900Y4636146D01*
X1729688Y4638751D01*
X1748127Y4646389D01*
X1763961Y4658539D01*
X1776111Y4674373D01*
X1783749Y4692812D01*
X1786354Y4712600D01*
X1783749Y4732388D01*
X1776111Y4750827D01*
X1763961Y4766661D01*
X1748127Y4778811D01*
X1729688Y4786449D01*
X1709900Y4789054D01*
D02*
G37*
G36*
X97400Y4773849D02*
X83682Y4771120D01*
X72051Y4763349D01*
X64280Y4751719D01*
X61552Y4738000D01*
X64280Y4724281D01*
X72051Y4712651D01*
X83682Y4704880D01*
X97400Y4702151D01*
X111119Y4704880D01*
X122749Y4712651D01*
X130520Y4724281D01*
X133249Y4738000D01*
X130520Y4751719D01*
X122749Y4763349D01*
X111119Y4771120D01*
X97400Y4773849D01*
D02*
G37*
G36*
X331101Y4768748D02*
X317382Y4766020D01*
X305752Y4758249D01*
X297981Y4746618D01*
X295252Y4732900D01*
X297981Y4719181D01*
X305752Y4707551D01*
X317382Y4699780D01*
X331101Y4697051D01*
X344819Y4699780D01*
X356450Y4707551D01*
X364221Y4719181D01*
X366949Y4732900D01*
X364221Y4746618D01*
X356450Y4758249D01*
X344819Y4766020D01*
X331101Y4768748D01*
D02*
G37*
G36*
X2687800Y4767599D02*
X2674081Y4764870D01*
X2662451Y4757099D01*
X2654680Y4745469D01*
X2651951Y4731750D01*
X2654680Y4718031D01*
X2662451Y4706401D01*
X2674081Y4698630D01*
X2687800Y4695901D01*
X2701519Y4698630D01*
X2713149Y4706401D01*
X2720920Y4718031D01*
X2723649Y4731750D01*
X2720920Y4745469D01*
X2713149Y4757099D01*
X2701519Y4764870D01*
X2687800Y4767599D01*
D02*
G37*
G36*
X2065500Y4892284D02*
X2045712Y4889679D01*
X2027273Y4882041D01*
X2011439Y4869891D01*
X1999289Y4854057D01*
X1991651Y4835618D01*
X1989046Y4815830D01*
X1991651Y4796042D01*
X1995914Y4785750D01*
X1991651Y4775458D01*
X1989046Y4755670D01*
X1991651Y4735882D01*
X1999289Y4717443D01*
X2011439Y4701609D01*
X2027273Y4689459D01*
X2045712Y4681821D01*
X2065500Y4679216D01*
X2085288Y4681821D01*
X2103727Y4689459D01*
X2119561Y4701609D01*
X2131711Y4717443D01*
X2139349Y4735882D01*
X2141954Y4755670D01*
X2139349Y4775458D01*
X2135086Y4785750D01*
X2139349Y4796042D01*
X2141954Y4815830D01*
X2139349Y4835618D01*
X2131711Y4854057D01*
X2119561Y4869891D01*
X2103727Y4882041D01*
X2085288Y4889679D01*
X2065500Y4892284D01*
D02*
G37*
G36*
X3538700Y4519849D02*
X3524981Y4517120D01*
X3513351Y4509349D01*
X3505580Y4497719D01*
X3502851Y4484000D01*
X3505580Y4470281D01*
X3510449Y4462994D01*
X3502121Y4454153D01*
X3501411Y4453661D01*
X3487900Y4456349D01*
X3481399Y4468005D01*
X3482920Y4470281D01*
X3485649Y4484000D01*
X3482920Y4497719D01*
X3475149Y4509349D01*
X3463519Y4517120D01*
X3449800Y4519849D01*
X3436081Y4517120D01*
X3424451Y4509349D01*
X3416680Y4497719D01*
X3413951Y4484000D01*
X3416680Y4470281D01*
X3421549Y4462994D01*
X3413222Y4454154D01*
X3412511Y4453661D01*
X3399000Y4456349D01*
X3392499Y4468005D01*
X3394020Y4470281D01*
X3396749Y4484000D01*
X3394020Y4497719D01*
X3386249Y4509349D01*
X3374619Y4517120D01*
X3360900Y4519849D01*
X3347181Y4517120D01*
X3335551Y4509349D01*
X3327780Y4497719D01*
X3327325Y4495429D01*
X3314376D01*
X3313920Y4497719D01*
X3306149Y4509349D01*
X3294519Y4517120D01*
X3280800Y4519849D01*
X3267081Y4517120D01*
X3255451Y4509349D01*
X3252291Y4504619D01*
X3237090D01*
X3233929Y4509349D01*
X3222299Y4517120D01*
X3208580Y4519849D01*
X3194861Y4517120D01*
X3183231Y4509349D01*
X3175460Y4497719D01*
X3172731Y4484000D01*
X3175460Y4470281D01*
X3183231Y4458651D01*
X3194861Y4450880D01*
X3208580Y4448151D01*
X3214989Y4436477D01*
X3213480Y4434219D01*
X3210751Y4420500D01*
X3213480Y4406781D01*
X3221251Y4395151D01*
X3232881Y4387380D01*
X3246600Y4384651D01*
X3260319Y4387380D01*
X3271949Y4395151D01*
X3277644Y4403674D01*
X3280729Y4404471D01*
X3288671D01*
X3291756Y4403674D01*
X3297451Y4395151D01*
X3309081Y4387380D01*
X3322800Y4384651D01*
X3336519Y4387380D01*
X3348149Y4395151D01*
X3353844Y4403674D01*
X3356929Y4404471D01*
X3364871D01*
X3367956Y4403674D01*
X3373651Y4395151D01*
X3385281Y4387380D01*
X3399000Y4384651D01*
X3412719Y4387380D01*
X3424349Y4395151D01*
X3432120Y4406781D01*
X3434849Y4420500D01*
X3432120Y4434219D01*
X3427251Y4441505D01*
X3435578Y4450346D01*
X3436289Y4450838D01*
X3449800Y4448151D01*
X3456301Y4436495D01*
X3454780Y4434219D01*
X3452051Y4420500D01*
X3454780Y4406781D01*
X3462551Y4395151D01*
X3474181Y4387380D01*
X3487900Y4384651D01*
X3501619Y4387380D01*
X3513249Y4395151D01*
X3518944Y4403674D01*
X3522029Y4404471D01*
X3529971D01*
X3533056Y4403674D01*
X3538751Y4395151D01*
X3550381Y4387380D01*
X3564100Y4384651D01*
X3577819Y4387380D01*
X3589449Y4395151D01*
X3597220Y4406781D01*
X3599949Y4420500D01*
X3597220Y4434219D01*
X3589449Y4445849D01*
X3577819Y4453620D01*
X3576180Y4453946D01*
X3570334Y4468058D01*
X3571820Y4470281D01*
X3574549Y4484000D01*
X3571820Y4497719D01*
X3564049Y4509349D01*
X3552419Y4517120D01*
X3538700Y4519849D01*
D02*
G37*
G36*
X4211800Y4457749D02*
X4198081Y4455020D01*
X4186451Y4447249D01*
X4178680Y4435619D01*
X4175951Y4421900D01*
X4178680Y4408181D01*
X4186451Y4396551D01*
X4198081Y4388780D01*
X4211800Y4386051D01*
X4225519Y4388780D01*
X4237149Y4396551D01*
X4244920Y4408181D01*
X4247649Y4421900D01*
X4244920Y4435619D01*
X4237149Y4447249D01*
X4225519Y4455020D01*
X4211800Y4457749D01*
D02*
G37*
G36*
X4122900D02*
X4109181Y4455020D01*
X4097551Y4447249D01*
X4089780Y4435619D01*
X4087051Y4421900D01*
X4089780Y4408181D01*
X4097551Y4396551D01*
X4109181Y4388780D01*
X4122900Y4386051D01*
X4136619Y4388780D01*
X4148249Y4396551D01*
X4156020Y4408181D01*
X4158749Y4421900D01*
X4156020Y4435619D01*
X4148249Y4447249D01*
X4136619Y4455020D01*
X4122900Y4457749D01*
D02*
G37*
G36*
X4034000D02*
X4020281Y4455020D01*
X4008651Y4447249D01*
X4000880Y4435619D01*
X3998151Y4421900D01*
X4000880Y4408181D01*
X4008651Y4396551D01*
X4020281Y4388780D01*
X4034000Y4386051D01*
X4047719Y4388780D01*
X4059349Y4396551D01*
X4067120Y4408181D01*
X4069849Y4421900D01*
X4067120Y4435619D01*
X4059349Y4447249D01*
X4047719Y4455020D01*
X4034000Y4457749D01*
D02*
G37*
G36*
X3945100D02*
X3931381Y4455020D01*
X3919751Y4447249D01*
X3911980Y4435619D01*
X3909251Y4421900D01*
X3911980Y4408181D01*
X3919751Y4396551D01*
X3931381Y4388780D01*
X3945100Y4386051D01*
X3958819Y4388780D01*
X3970449Y4396551D01*
X3978220Y4408181D01*
X3980949Y4421900D01*
X3978220Y4435619D01*
X3970449Y4447249D01*
X3958819Y4455020D01*
X3945100Y4457749D01*
D02*
G37*
G36*
X3856200D02*
X3842481Y4455020D01*
X3830851Y4447249D01*
X3823080Y4435619D01*
X3820351Y4421900D01*
X3823080Y4408181D01*
X3830851Y4396551D01*
X3842481Y4388780D01*
X3856200Y4386051D01*
X3869919Y4388780D01*
X3881549Y4396551D01*
X3889320Y4408181D01*
X3892049Y4421900D01*
X3889320Y4435619D01*
X3881549Y4447249D01*
X3869919Y4455020D01*
X3856200Y4457749D01*
D02*
G37*
G36*
X3767300D02*
X3753581Y4455020D01*
X3741951Y4447249D01*
X3734180Y4435619D01*
X3731451Y4421900D01*
X3734180Y4408181D01*
X3741951Y4396551D01*
X3753581Y4388780D01*
X3767300Y4386051D01*
X3781019Y4388780D01*
X3792649Y4396551D01*
X3800420Y4408181D01*
X3803149Y4421900D01*
X3800420Y4435619D01*
X3792649Y4447249D01*
X3781019Y4455020D01*
X3767300Y4457749D01*
D02*
G37*
G36*
X804975Y4338474D02*
X791256Y4335745D01*
X779626Y4327974D01*
X771855Y4316344D01*
X769126Y4302625D01*
X757281Y4297078D01*
X755084Y4297515D01*
X741365Y4294786D01*
X729735Y4287015D01*
X721964Y4275385D01*
X719235Y4261666D01*
X721964Y4247947D01*
X729735Y4236317D01*
X741365Y4228546D01*
X755084Y4225817D01*
X768802Y4228546D01*
X780433Y4236317D01*
X788204Y4247947D01*
X790932Y4261666D01*
X802778Y4267213D01*
X804975Y4266776D01*
X818694Y4269505D01*
X830324Y4277276D01*
X838095Y4288906D01*
X840824Y4302625D01*
X838095Y4316344D01*
X830324Y4327974D01*
X818694Y4335745D01*
X804975Y4338474D01*
D02*
G37*
G36*
X4211800Y4365849D02*
X4198081Y4363120D01*
X4186451Y4355349D01*
X4178680Y4343719D01*
X4175951Y4330000D01*
X4178680Y4316281D01*
X4186451Y4304651D01*
X4198081Y4296880D01*
X4211800Y4294151D01*
X4225519Y4296880D01*
X4237149Y4304651D01*
X4244920Y4316281D01*
X4247649Y4330000D01*
X4244920Y4343719D01*
X4237149Y4355349D01*
X4225519Y4363120D01*
X4211800Y4365849D01*
D02*
G37*
G36*
X4122900D02*
X4109181Y4363120D01*
X4097551Y4355349D01*
X4089780Y4343719D01*
X4087051Y4330000D01*
X4089780Y4316281D01*
X4097551Y4304651D01*
X4109181Y4296880D01*
X4122900Y4294151D01*
X4136619Y4296880D01*
X4148249Y4304651D01*
X4156020Y4316281D01*
X4158749Y4330000D01*
X4156020Y4343719D01*
X4148249Y4355349D01*
X4136619Y4363120D01*
X4122900Y4365849D01*
D02*
G37*
G36*
X4034000D02*
X4020281Y4363120D01*
X4008651Y4355349D01*
X4000880Y4343719D01*
X3998151Y4330000D01*
X4000880Y4316281D01*
X4008651Y4304651D01*
X4020281Y4296880D01*
X4034000Y4294151D01*
X4047719Y4296880D01*
X4059349Y4304651D01*
X4067120Y4316281D01*
X4069849Y4330000D01*
X4067120Y4343719D01*
X4059349Y4355349D01*
X4047719Y4363120D01*
X4034000Y4365849D01*
D02*
G37*
G36*
X3945100D02*
X3931381Y4363120D01*
X3919751Y4355349D01*
X3911980Y4343719D01*
X3909251Y4330000D01*
X3911980Y4316281D01*
X3919751Y4304651D01*
X3931381Y4296880D01*
X3945100Y4294151D01*
X3958819Y4296880D01*
X3970449Y4304651D01*
X3978220Y4316281D01*
X3980949Y4330000D01*
X3978220Y4343719D01*
X3970449Y4355349D01*
X3958819Y4363120D01*
X3945100Y4365849D01*
D02*
G37*
G36*
X3856200D02*
X3842481Y4363120D01*
X3830851Y4355349D01*
X3823080Y4343719D01*
X3820351Y4330000D01*
X3823080Y4316281D01*
X3830851Y4304651D01*
X3842481Y4296880D01*
X3856200Y4294151D01*
X3869919Y4296880D01*
X3881549Y4304651D01*
X3889320Y4316281D01*
X3892049Y4330000D01*
X3889320Y4343719D01*
X3881549Y4355349D01*
X3869919Y4363120D01*
X3856200Y4365849D01*
D02*
G37*
G36*
X3767300D02*
X3753581Y4363120D01*
X3741951Y4355349D01*
X3734180Y4343719D01*
X3731451Y4330000D01*
X3734180Y4316281D01*
X3741951Y4304651D01*
X3753581Y4296880D01*
X3767300Y4294151D01*
X3781019Y4296880D01*
X3792649Y4304651D01*
X3800420Y4316281D01*
X3803149Y4330000D01*
X3800420Y4343719D01*
X3792649Y4355349D01*
X3781019Y4363120D01*
X3767300Y4365849D01*
D02*
G37*
G36*
X-2876275Y4494474D02*
X-2889994Y4491745D01*
X-2901624Y4483974D01*
X-2909395Y4472344D01*
X-2912124Y4458625D01*
X-2909395Y4444906D01*
X-2901624Y4433276D01*
X-2889994Y4425505D01*
X-2876275Y4422776D01*
X-2862556Y4425505D01*
X-2855289Y4430361D01*
X-2852831Y4429153D01*
X-2844996Y4421964D01*
X-2847120Y4411285D01*
X-2844391Y4397567D01*
X-2836620Y4385936D01*
X-2824990Y4378165D01*
X-2811271Y4375437D01*
X-2797552Y4378165D01*
X-2792757Y4381369D01*
X-2781327Y4373732D01*
X-2782124Y4369725D01*
X-2779395Y4356006D01*
X-2771624Y4344376D01*
X-2759994Y4336605D01*
X-2746275Y4333876D01*
X-2732556Y4336605D01*
X-2723611Y4342582D01*
X-2720926Y4344375D01*
X-2711999Y4336229D01*
X-2714395Y4332644D01*
X-2717124Y4318925D01*
X-2714395Y4305206D01*
X-2706624Y4293576D01*
X-2694994Y4285805D01*
X-2681275Y4283076D01*
X-2667556Y4285805D01*
X-2655926Y4293576D01*
X-2648155Y4305206D01*
X-2645426Y4318925D01*
X-2648155Y4332644D01*
X-2655926Y4344274D01*
X-2667556Y4352045D01*
X-2681275Y4354774D01*
X-2694994Y4352045D01*
X-2703939Y4346068D01*
X-2706624Y4344275D01*
X-2715551Y4352420D01*
X-2713155Y4356006D01*
X-2710426Y4369725D01*
X-2713155Y4383444D01*
X-2720926Y4395074D01*
X-2732556Y4402845D01*
X-2746275Y4405574D01*
X-2759994Y4402845D01*
X-2764789Y4399641D01*
X-2776219Y4407278D01*
X-2775422Y4411285D01*
X-2778151Y4425004D01*
X-2785922Y4436634D01*
X-2797552Y4444405D01*
X-2811271Y4447134D01*
X-2824990Y4444405D01*
X-2832257Y4439549D01*
X-2834714Y4440757D01*
X-2842550Y4447946D01*
X-2840426Y4458625D01*
X-2843155Y4472344D01*
X-2850926Y4483974D01*
X-2862556Y4491745D01*
X-2876275Y4494474D01*
D02*
G37*
G36*
X155350Y4303949D02*
X141631Y4301220D01*
X130001Y4293449D01*
X122230Y4281819D01*
X119501Y4268100D01*
X122230Y4254381D01*
X130001Y4242751D01*
X141631Y4234980D01*
X155350Y4232251D01*
X169069Y4234980D01*
X180699Y4242751D01*
X188470Y4254381D01*
X191199Y4268100D01*
X188470Y4281819D01*
X180699Y4293449D01*
X169069Y4301220D01*
X155350Y4303949D01*
D02*
G37*
G36*
X4211800Y4278549D02*
X4198081Y4275820D01*
X4186451Y4268049D01*
X4178680Y4256419D01*
X4175951Y4242700D01*
X4178680Y4228981D01*
X4186451Y4217351D01*
X4198081Y4209580D01*
X4211800Y4206851D01*
X4225519Y4209580D01*
X4237149Y4217351D01*
X4244920Y4228981D01*
X4247649Y4242700D01*
X4244920Y4256419D01*
X4237149Y4268049D01*
X4225519Y4275820D01*
X4211800Y4278549D01*
D02*
G37*
G36*
X4122900D02*
X4109181Y4275820D01*
X4097551Y4268049D01*
X4089780Y4256419D01*
X4087051Y4242700D01*
X4089780Y4228981D01*
X4097551Y4217351D01*
X4109181Y4209580D01*
X4122900Y4206851D01*
X4136619Y4209580D01*
X4148249Y4217351D01*
X4156020Y4228981D01*
X4158749Y4242700D01*
X4156020Y4256419D01*
X4148249Y4268049D01*
X4136619Y4275820D01*
X4122900Y4278549D01*
D02*
G37*
G36*
X4034000D02*
X4020281Y4275820D01*
X4008651Y4268049D01*
X4000880Y4256419D01*
X3998151Y4242700D01*
X4000880Y4228981D01*
X4008651Y4217351D01*
X4020281Y4209580D01*
X4034000Y4206851D01*
X4047719Y4209580D01*
X4059349Y4217351D01*
X4067120Y4228981D01*
X4069849Y4242700D01*
X4067120Y4256419D01*
X4059349Y4268049D01*
X4047719Y4275820D01*
X4034000Y4278549D01*
D02*
G37*
G36*
X3945100D02*
X3931381Y4275820D01*
X3919751Y4268049D01*
X3911980Y4256419D01*
X3909251Y4242700D01*
X3911980Y4228981D01*
X3919751Y4217351D01*
X3931381Y4209580D01*
X3945100Y4206851D01*
X3958819Y4209580D01*
X3970449Y4217351D01*
X3978220Y4228981D01*
X3980949Y4242700D01*
X3978220Y4256419D01*
X3970449Y4268049D01*
X3958819Y4275820D01*
X3945100Y4278549D01*
D02*
G37*
G36*
X3856200D02*
X3842481Y4275820D01*
X3830851Y4268049D01*
X3823080Y4256419D01*
X3820351Y4242700D01*
X3823080Y4228981D01*
X3830851Y4217351D01*
X3842481Y4209580D01*
X3856200Y4206851D01*
X3869919Y4209580D01*
X3881549Y4217351D01*
X3889320Y4228981D01*
X3892049Y4242700D01*
X3889320Y4256419D01*
X3881549Y4268049D01*
X3869919Y4275820D01*
X3856200Y4278549D01*
D02*
G37*
G36*
X3767300D02*
X3753581Y4275820D01*
X3741951Y4268049D01*
X3734180Y4256419D01*
X3731451Y4242700D01*
X3734180Y4228981D01*
X3741951Y4217351D01*
X3753581Y4209580D01*
X3767300Y4206851D01*
X3781019Y4209580D01*
X3792649Y4217351D01*
X3800420Y4228981D01*
X3803149Y4242700D01*
X3800420Y4256419D01*
X3792649Y4268049D01*
X3781019Y4275820D01*
X3767300Y4278549D01*
D02*
G37*
G36*
X1204950Y4222669D02*
X1191231Y4219940D01*
X1179601Y4212169D01*
X1171830Y4200539D01*
X1169101Y4186820D01*
X1157141Y4181849D01*
X1154950Y4182285D01*
X1141231Y4179556D01*
X1129601Y4171785D01*
X1121830Y4160155D01*
X1119101Y4146436D01*
X1121830Y4132717D01*
X1129601Y4121087D01*
X1141231Y4113316D01*
X1154950Y4110587D01*
X1168669Y4113316D01*
X1180299Y4121087D01*
X1188070Y4132717D01*
X1190799Y4146436D01*
X1202759Y4151407D01*
X1204950Y4150971D01*
X1207141Y4151407D01*
X1219101Y4146436D01*
X1221830Y4132717D01*
X1229601Y4121087D01*
X1241231Y4113316D01*
X1254950Y4110587D01*
X1268669Y4113316D01*
X1280299Y4121087D01*
X1288070Y4132717D01*
X1290799Y4146436D01*
X1288070Y4160155D01*
X1280299Y4171785D01*
X1268669Y4179556D01*
X1254950Y4182285D01*
X1252759Y4181849D01*
X1240799Y4186820D01*
X1238070Y4200539D01*
X1230299Y4212169D01*
X1218669Y4219940D01*
X1204950Y4222669D01*
D02*
G37*
G36*
X305000D02*
X291281Y4219940D01*
X279651Y4212169D01*
X271880Y4200539D01*
X269151Y4186820D01*
X257193Y4181838D01*
X254950Y4182285D01*
X241231Y4179556D01*
X229601Y4171785D01*
X221830Y4160155D01*
X219101Y4146436D01*
X221830Y4132717D01*
X229601Y4121087D01*
X241231Y4113316D01*
X254950Y4110587D01*
X268668Y4113316D01*
X280299Y4121087D01*
X288070Y4132717D01*
X290799Y4146436D01*
X302757Y4151417D01*
X305000Y4150971D01*
X318719Y4153700D01*
X330349Y4161471D01*
X338120Y4173101D01*
X340849Y4186820D01*
X338120Y4200539D01*
X330349Y4212169D01*
X318719Y4219940D01*
X305000Y4222669D01*
D02*
G37*
G36*
X404975Y4247649D02*
X391256Y4244921D01*
X379626Y4237150D01*
X371855Y4225519D01*
X369126Y4211801D01*
X371855Y4198082D01*
X379626Y4186452D01*
X391256Y4178680D01*
X404975Y4175952D01*
X418694Y4178680D01*
X430324Y4186452D01*
X438095Y4198082D01*
X440824Y4211801D01*
X438095Y4225519D01*
X430324Y4237150D01*
X418694Y4244921D01*
X404975Y4247649D01*
D02*
G37*
G36*
X958060Y4247624D02*
X944342Y4244896D01*
X932711Y4237125D01*
X924940Y4225494D01*
X922212Y4211776D01*
X924940Y4198057D01*
X932711Y4186427D01*
X944342Y4178656D01*
X958060Y4175927D01*
X971779Y4178656D01*
X983409Y4186427D01*
X991180Y4198057D01*
X993909Y4211776D01*
X991180Y4225494D01*
X983409Y4237125D01*
X971779Y4244896D01*
X958060Y4247624D01*
D02*
G37*
G36*
X-1239275Y4205774D02*
X-1252993Y4203045D01*
X-1264624Y4195274D01*
X-1272395Y4183644D01*
X-1275123Y4169925D01*
X-1272395Y4156206D01*
X-1269865Y4152420D01*
X-1278926Y4144364D01*
X-1281809Y4146289D01*
X-1290556Y4152134D01*
X-1304275Y4154863D01*
X-1317994Y4152134D01*
X-1329624Y4144363D01*
X-1337395Y4132733D01*
X-1340124Y4119014D01*
X-1337395Y4105295D01*
X-1329624Y4093665D01*
X-1317994Y4085894D01*
X-1304275Y4083165D01*
X-1290556Y4085894D01*
X-1278926Y4093665D01*
X-1271155Y4105295D01*
X-1268426Y4119014D01*
X-1271155Y4132733D01*
X-1273684Y4136519D01*
X-1264624Y4144575D01*
X-1261740Y4142650D01*
X-1252993Y4136805D01*
X-1239275Y4134076D01*
X-1225556Y4136805D01*
X-1213926Y4144576D01*
X-1206155Y4156206D01*
X-1203426Y4169925D01*
X-1206155Y4183644D01*
X-1213926Y4195274D01*
X-1225556Y4203045D01*
X-1239275Y4205774D01*
D02*
G37*
G36*
X605000Y4247649D02*
X591281Y4244921D01*
X579651Y4237150D01*
X571880Y4225519D01*
X569151Y4211801D01*
X571880Y4198082D01*
X579651Y4186452D01*
X591281Y4178680D01*
X605000Y4175952D01*
X610535Y4177053D01*
X620504Y4166087D01*
X619126Y4159156D01*
X621855Y4145437D01*
X629626Y4133807D01*
X641256Y4126036D01*
X654975Y4123307D01*
X668694Y4126036D01*
X680324Y4133807D01*
X688095Y4145437D01*
X690824Y4159156D01*
X688095Y4172875D01*
X680324Y4184505D01*
X668694Y4192276D01*
X654975Y4195005D01*
X649440Y4193904D01*
X639470Y4204870D01*
X640849Y4211801D01*
X638120Y4225519D01*
X630349Y4237150D01*
X618719Y4244921D01*
X605000Y4247649D01*
D02*
G37*
G36*
X4211800Y4191049D02*
X4198081Y4188320D01*
X4186451Y4180549D01*
X4178680Y4168919D01*
X4175951Y4155200D01*
X4178680Y4141481D01*
X4186451Y4129851D01*
X4198081Y4122080D01*
X4211800Y4119351D01*
X4225519Y4122080D01*
X4237149Y4129851D01*
X4244920Y4141481D01*
X4247649Y4155200D01*
X4244920Y4168919D01*
X4237149Y4180549D01*
X4225519Y4188320D01*
X4211800Y4191049D01*
D02*
G37*
G36*
X4122900D02*
X4109181Y4188320D01*
X4097551Y4180549D01*
X4089780Y4168919D01*
X4087051Y4155200D01*
X4089780Y4141481D01*
X4097551Y4129851D01*
X4109181Y4122080D01*
X4122900Y4119351D01*
X4136619Y4122080D01*
X4148249Y4129851D01*
X4156020Y4141481D01*
X4158749Y4155200D01*
X4156020Y4168919D01*
X4148249Y4180549D01*
X4136619Y4188320D01*
X4122900Y4191049D01*
D02*
G37*
G36*
X4034000D02*
X4020281Y4188320D01*
X4008651Y4180549D01*
X4000880Y4168919D01*
X3998151Y4155200D01*
X4000880Y4141481D01*
X4008651Y4129851D01*
X4020281Y4122080D01*
X4034000Y4119351D01*
X4047719Y4122080D01*
X4059349Y4129851D01*
X4067120Y4141481D01*
X4069849Y4155200D01*
X4067120Y4168919D01*
X4059349Y4180549D01*
X4047719Y4188320D01*
X4034000Y4191049D01*
D02*
G37*
G36*
X3945100D02*
X3931381Y4188320D01*
X3919751Y4180549D01*
X3911980Y4168919D01*
X3909251Y4155200D01*
X3911980Y4141481D01*
X3919751Y4129851D01*
X3931381Y4122080D01*
X3945100Y4119351D01*
X3958819Y4122080D01*
X3970449Y4129851D01*
X3978220Y4141481D01*
X3980949Y4155200D01*
X3978220Y4168919D01*
X3970449Y4180549D01*
X3958819Y4188320D01*
X3945100Y4191049D01*
D02*
G37*
G36*
X3856200D02*
X3842481Y4188320D01*
X3830851Y4180549D01*
X3823080Y4168919D01*
X3820351Y4155200D01*
X3823080Y4141481D01*
X3830851Y4129851D01*
X3842481Y4122080D01*
X3856200Y4119351D01*
X3869919Y4122080D01*
X3881549Y4129851D01*
X3889320Y4141481D01*
X3892049Y4155200D01*
X3889320Y4168919D01*
X3881549Y4180549D01*
X3869919Y4188320D01*
X3856200Y4191049D01*
D02*
G37*
G36*
X3767300D02*
X3753581Y4188320D01*
X3741951Y4180549D01*
X3734180Y4168919D01*
X3731451Y4155200D01*
X3734180Y4141481D01*
X3741951Y4129851D01*
X3753581Y4122080D01*
X3767300Y4119351D01*
X3781019Y4122080D01*
X3792649Y4129851D01*
X3800420Y4141481D01*
X3803149Y4155200D01*
X3800420Y4168919D01*
X3792649Y4180549D01*
X3781019Y4188320D01*
X3767300Y4191049D01*
D02*
G37*
G36*
X2217900Y4189649D02*
X2204181Y4186920D01*
X2192551Y4179149D01*
X2184780Y4167519D01*
X2182051Y4153800D01*
X2184780Y4140081D01*
X2192551Y4128451D01*
X2204181Y4120680D01*
X2217900Y4117951D01*
X2231619Y4120680D01*
X2243249Y4128451D01*
X2251020Y4140081D01*
X2253749Y4153800D01*
X2251020Y4167519D01*
X2243249Y4179149D01*
X2231619Y4186920D01*
X2217900Y4189649D01*
D02*
G37*
G36*
X2129000D02*
X2115281Y4186920D01*
X2103651Y4179149D01*
X2095880Y4167519D01*
X2093151Y4153800D01*
X2095880Y4140081D01*
X2103651Y4128451D01*
X2115281Y4120680D01*
X2129000Y4117951D01*
X2142719Y4120680D01*
X2154349Y4128451D01*
X2162120Y4140081D01*
X2164849Y4153800D01*
X2162120Y4167519D01*
X2154349Y4179149D01*
X2142719Y4186920D01*
X2129000Y4189649D01*
D02*
G37*
G36*
X2040100D02*
X2026381Y4186920D01*
X2014751Y4179149D01*
X2006980Y4167519D01*
X2004251Y4153800D01*
X2006980Y4140081D01*
X2014751Y4128451D01*
X2026381Y4120680D01*
X2040100Y4117951D01*
X2053819Y4120680D01*
X2065449Y4128451D01*
X2073220Y4140081D01*
X2075949Y4153800D01*
X2073220Y4167519D01*
X2065449Y4179149D01*
X2053819Y4186920D01*
X2040100Y4189649D01*
D02*
G37*
G36*
X1951200D02*
X1937481Y4186920D01*
X1925851Y4179149D01*
X1918080Y4167519D01*
X1915351Y4153800D01*
X1918080Y4140081D01*
X1925851Y4128451D01*
X1937481Y4120680D01*
X1951200Y4117951D01*
X1964919Y4120680D01*
X1976549Y4128451D01*
X1984320Y4140081D01*
X1987049Y4153800D01*
X1984320Y4167519D01*
X1976549Y4179149D01*
X1964919Y4186920D01*
X1951200Y4189649D01*
D02*
G37*
G36*
X1862300D02*
X1848581Y4186920D01*
X1836951Y4179149D01*
X1829180Y4167519D01*
X1826451Y4153800D01*
X1829180Y4140081D01*
X1836951Y4128451D01*
X1848581Y4120680D01*
X1862300Y4117951D01*
X1876019Y4120680D01*
X1887649Y4128451D01*
X1895420Y4140081D01*
X1898149Y4153800D01*
X1895420Y4167519D01*
X1887649Y4179149D01*
X1876019Y4186920D01*
X1862300Y4189649D01*
D02*
G37*
G36*
X1773400D02*
X1759681Y4186920D01*
X1748051Y4179149D01*
X1740280Y4167519D01*
X1737551Y4153800D01*
X1740280Y4140081D01*
X1748051Y4128451D01*
X1759681Y4120680D01*
X1773400Y4117951D01*
X1787119Y4120680D01*
X1798749Y4128451D01*
X1806520Y4140081D01*
X1809249Y4153800D01*
X1806520Y4167519D01*
X1798749Y4179149D01*
X1787119Y4186920D01*
X1773400Y4189649D01*
D02*
G37*
G36*
X4211800Y4103749D02*
X4198081Y4101020D01*
X4186451Y4093249D01*
X4178680Y4081619D01*
X4175951Y4067900D01*
X4178680Y4054181D01*
X4186451Y4042551D01*
X4198081Y4034780D01*
X4211800Y4032051D01*
X4225519Y4034780D01*
X4237149Y4042551D01*
X4244920Y4054181D01*
X4247649Y4067900D01*
X4244920Y4081619D01*
X4237149Y4093249D01*
X4225519Y4101020D01*
X4211800Y4103749D01*
D02*
G37*
G36*
X4122900D02*
X4109181Y4101020D01*
X4097551Y4093249D01*
X4089780Y4081619D01*
X4087051Y4067900D01*
X4089780Y4054181D01*
X4097551Y4042551D01*
X4109181Y4034780D01*
X4122900Y4032051D01*
X4136619Y4034780D01*
X4148249Y4042551D01*
X4156020Y4054181D01*
X4158749Y4067900D01*
X4156020Y4081619D01*
X4148249Y4093249D01*
X4136619Y4101020D01*
X4122900Y4103749D01*
D02*
G37*
G36*
X4034000D02*
X4020281Y4101020D01*
X4008651Y4093249D01*
X4000880Y4081619D01*
X3998151Y4067900D01*
X4000880Y4054181D01*
X4008651Y4042551D01*
X4020281Y4034780D01*
X4034000Y4032051D01*
X4047719Y4034780D01*
X4059349Y4042551D01*
X4067120Y4054181D01*
X4069849Y4067900D01*
X4067120Y4081619D01*
X4059349Y4093249D01*
X4047719Y4101020D01*
X4034000Y4103749D01*
D02*
G37*
G36*
X3945100D02*
X3931381Y4101020D01*
X3919751Y4093249D01*
X3911980Y4081619D01*
X3909251Y4067900D01*
X3911980Y4054181D01*
X3919751Y4042551D01*
X3931381Y4034780D01*
X3945100Y4032051D01*
X3958819Y4034780D01*
X3970449Y4042551D01*
X3978220Y4054181D01*
X3980949Y4067900D01*
X3978220Y4081619D01*
X3970449Y4093249D01*
X3958819Y4101020D01*
X3945100Y4103749D01*
D02*
G37*
G36*
X3856200D02*
X3842481Y4101020D01*
X3830851Y4093249D01*
X3823080Y4081619D01*
X3820351Y4067900D01*
X3823080Y4054181D01*
X3830851Y4042551D01*
X3842481Y4034780D01*
X3856200Y4032051D01*
X3869919Y4034780D01*
X3881549Y4042551D01*
X3889320Y4054181D01*
X3892049Y4067900D01*
X3889320Y4081619D01*
X3881549Y4093249D01*
X3869919Y4101020D01*
X3856200Y4103749D01*
D02*
G37*
G36*
X3767300D02*
X3753581Y4101020D01*
X3741951Y4093249D01*
X3734180Y4081619D01*
X3731451Y4067900D01*
X3734180Y4054181D01*
X3741951Y4042551D01*
X3753581Y4034780D01*
X3767300Y4032051D01*
X3781019Y4034780D01*
X3792649Y4042551D01*
X3800420Y4054181D01*
X3803149Y4067900D01*
X3800420Y4081619D01*
X3792649Y4093249D01*
X3781019Y4101020D01*
X3767300Y4103749D01*
D02*
G37*
G36*
X2217900Y4102149D02*
X2204181Y4099420D01*
X2192551Y4091649D01*
X2184780Y4080019D01*
X2182051Y4066300D01*
X2184780Y4052581D01*
X2192551Y4040951D01*
X2204181Y4033180D01*
X2217900Y4030451D01*
X2231619Y4033180D01*
X2243249Y4040951D01*
X2251020Y4052581D01*
X2253749Y4066300D01*
X2251020Y4080019D01*
X2243249Y4091649D01*
X2231619Y4099420D01*
X2217900Y4102149D01*
D02*
G37*
G36*
X2129000D02*
X2115281Y4099420D01*
X2103651Y4091649D01*
X2095880Y4080019D01*
X2093151Y4066300D01*
X2095880Y4052581D01*
X2103651Y4040951D01*
X2115281Y4033180D01*
X2129000Y4030451D01*
X2142719Y4033180D01*
X2154349Y4040951D01*
X2162120Y4052581D01*
X2164849Y4066300D01*
X2162120Y4080019D01*
X2154349Y4091649D01*
X2142719Y4099420D01*
X2129000Y4102149D01*
D02*
G37*
G36*
X2040100D02*
X2026381Y4099420D01*
X2014751Y4091649D01*
X2006980Y4080019D01*
X2004251Y4066300D01*
X2006980Y4052581D01*
X2014751Y4040951D01*
X2026381Y4033180D01*
X2040100Y4030451D01*
X2053819Y4033180D01*
X2065449Y4040951D01*
X2073220Y4052581D01*
X2075949Y4066300D01*
X2073220Y4080019D01*
X2065449Y4091649D01*
X2053819Y4099420D01*
X2040100Y4102149D01*
D02*
G37*
G36*
X1951200D02*
X1937481Y4099420D01*
X1925851Y4091649D01*
X1918080Y4080019D01*
X1915351Y4066300D01*
X1918080Y4052581D01*
X1925851Y4040951D01*
X1937481Y4033180D01*
X1951200Y4030451D01*
X1964919Y4033180D01*
X1976549Y4040951D01*
X1984320Y4052581D01*
X1987049Y4066300D01*
X1984320Y4080019D01*
X1976549Y4091649D01*
X1964919Y4099420D01*
X1951200Y4102149D01*
D02*
G37*
G36*
X1862300D02*
X1848581Y4099420D01*
X1836951Y4091649D01*
X1829180Y4080019D01*
X1826451Y4066300D01*
X1829180Y4052581D01*
X1836951Y4040951D01*
X1848581Y4033180D01*
X1862300Y4030451D01*
X1876019Y4033180D01*
X1887649Y4040951D01*
X1895420Y4052581D01*
X1898149Y4066300D01*
X1895420Y4080019D01*
X1887649Y4091649D01*
X1876019Y4099420D01*
X1862300Y4102149D01*
D02*
G37*
G36*
X1773400D02*
X1759681Y4099420D01*
X1748051Y4091649D01*
X1740280Y4080019D01*
X1737551Y4066300D01*
X1740280Y4052581D01*
X1748051Y4040951D01*
X1759681Y4033180D01*
X1773400Y4030451D01*
X1787119Y4033180D01*
X1798749Y4040951D01*
X1806520Y4052581D01*
X1809249Y4066300D01*
X1806520Y4080019D01*
X1798749Y4091649D01*
X1787119Y4099420D01*
X1773400Y4102149D01*
D02*
G37*
G36*
X-639500Y4078423D02*
X-653219Y4075695D01*
X-664849Y4067924D01*
X-672620Y4056293D01*
X-675349Y4042575D01*
X-672620Y4028856D01*
X-664849Y4017226D01*
X-653219Y4009455D01*
X-639500Y4006726D01*
X-625781Y4009455D01*
X-614151Y4017226D01*
X-606380Y4028856D01*
X-603651Y4042575D01*
X-606380Y4056293D01*
X-614151Y4067924D01*
X-625781Y4075695D01*
X-639500Y4078423D01*
D02*
G37*
G36*
X-1869300Y4035849D02*
X-1883019Y4033120D01*
X-1894649Y4025349D01*
X-1902420Y4013719D01*
X-1905149Y4000000D01*
X-1902420Y3986281D01*
X-1894649Y3974651D01*
X-1883019Y3966880D01*
X-1869300Y3964151D01*
X-1855581Y3966880D01*
X-1843951Y3974651D01*
X-1836180Y3986281D01*
X-1833451Y4000000D01*
X-1836180Y4013719D01*
X-1843951Y4025349D01*
X-1855581Y4033120D01*
X-1869300Y4035849D01*
D02*
G37*
G36*
X1409950Y4040947D02*
X1394280Y4037830D01*
X1380996Y4028954D01*
X1372120Y4015670D01*
X1369003Y4000000D01*
X1372120Y3984330D01*
X1380996Y3971046D01*
X1394280Y3962170D01*
X1409950Y3959053D01*
X1425620Y3962170D01*
X1438904Y3971046D01*
X1447780Y3984330D01*
X1450897Y4000000D01*
X1447780Y4015670D01*
X1438904Y4028954D01*
X1425620Y4037830D01*
X1409950Y4040947D01*
D02*
G37*
G36*
X-250050D02*
X-265720Y4037830D01*
X-279004Y4028954D01*
X-287880Y4015670D01*
X-290997Y4000000D01*
X-287880Y3984330D01*
X-279004Y3971046D01*
X-265720Y3962170D01*
X-250050Y3959053D01*
X-234380Y3962170D01*
X-221096Y3971046D01*
X-212220Y3984330D01*
X-209103Y4000000D01*
X-212220Y4015670D01*
X-221096Y4028954D01*
X-234380Y4037830D01*
X-250050Y4040947D01*
D02*
G37*
G36*
X2217900Y4014849D02*
X2204181Y4012120D01*
X2192551Y4004349D01*
X2184780Y3992719D01*
X2182051Y3979000D01*
X2184780Y3965281D01*
X2192551Y3953651D01*
X2204181Y3945880D01*
X2217900Y3943151D01*
X2231619Y3945880D01*
X2243249Y3953651D01*
X2251020Y3965281D01*
X2253749Y3979000D01*
X2251020Y3992719D01*
X2243249Y4004349D01*
X2231619Y4012120D01*
X2217900Y4014849D01*
D02*
G37*
G36*
X2129000D02*
X2115281Y4012120D01*
X2103651Y4004349D01*
X2095880Y3992719D01*
X2093151Y3979000D01*
X2095880Y3965281D01*
X2103651Y3953651D01*
X2115281Y3945880D01*
X2129000Y3943151D01*
X2142719Y3945880D01*
X2154349Y3953651D01*
X2162120Y3965281D01*
X2164849Y3979000D01*
X2162120Y3992719D01*
X2154349Y4004349D01*
X2142719Y4012120D01*
X2129000Y4014849D01*
D02*
G37*
G36*
X2040100D02*
X2026381Y4012120D01*
X2014751Y4004349D01*
X2006980Y3992719D01*
X2004251Y3979000D01*
X2006980Y3965281D01*
X2014751Y3953651D01*
X2026381Y3945880D01*
X2040100Y3943151D01*
X2053819Y3945880D01*
X2065449Y3953651D01*
X2073220Y3965281D01*
X2075949Y3979000D01*
X2073220Y3992719D01*
X2065449Y4004349D01*
X2053819Y4012120D01*
X2040100Y4014849D01*
D02*
G37*
G36*
X1951200D02*
X1937481Y4012120D01*
X1925851Y4004349D01*
X1918080Y3992719D01*
X1915351Y3979000D01*
X1918080Y3965281D01*
X1925851Y3953651D01*
X1937481Y3945880D01*
X1951200Y3943151D01*
X1964919Y3945880D01*
X1976549Y3953651D01*
X1984320Y3965281D01*
X1987049Y3979000D01*
X1984320Y3992719D01*
X1976549Y4004349D01*
X1964919Y4012120D01*
X1951200Y4014849D01*
D02*
G37*
G36*
X1862300D02*
X1848581Y4012120D01*
X1836951Y4004349D01*
X1829180Y3992719D01*
X1826451Y3979000D01*
X1829180Y3965281D01*
X1836951Y3953651D01*
X1848581Y3945880D01*
X1862300Y3943151D01*
X1876019Y3945880D01*
X1887649Y3953651D01*
X1895420Y3965281D01*
X1898149Y3979000D01*
X1895420Y3992719D01*
X1887649Y4004349D01*
X1876019Y4012120D01*
X1862300Y4014849D01*
D02*
G37*
G36*
X1773400D02*
X1759681Y4012120D01*
X1748051Y4004349D01*
X1740280Y3992719D01*
X1737551Y3979000D01*
X1740280Y3965281D01*
X1748051Y3953651D01*
X1759681Y3945880D01*
X1773400Y3943151D01*
X1787119Y3945880D01*
X1798749Y3953651D01*
X1806520Y3965281D01*
X1809249Y3979000D01*
X1806520Y3992719D01*
X1798749Y4004349D01*
X1787119Y4012120D01*
X1773400Y4014849D01*
D02*
G37*
G36*
X4211800Y4011849D02*
X4198081Y4009120D01*
X4186451Y4001349D01*
X4178680Y3989719D01*
X4175951Y3976000D01*
X4178680Y3962281D01*
X4186451Y3950651D01*
X4198081Y3942880D01*
X4211800Y3940151D01*
X4225519Y3942880D01*
X4237149Y3950651D01*
X4244920Y3962281D01*
X4247649Y3976000D01*
X4244920Y3989719D01*
X4237149Y4001349D01*
X4225519Y4009120D01*
X4211800Y4011849D01*
D02*
G37*
G36*
X4122900D02*
X4109181Y4009120D01*
X4097551Y4001349D01*
X4089780Y3989719D01*
X4087051Y3976000D01*
X4089780Y3962281D01*
X4097551Y3950651D01*
X4109181Y3942880D01*
X4122900Y3940151D01*
X4136619Y3942880D01*
X4148249Y3950651D01*
X4156020Y3962281D01*
X4158749Y3976000D01*
X4156020Y3989719D01*
X4148249Y4001349D01*
X4136619Y4009120D01*
X4122900Y4011849D01*
D02*
G37*
G36*
X4034000D02*
X4020281Y4009120D01*
X4008651Y4001349D01*
X4000880Y3989719D01*
X3998151Y3976000D01*
X4000880Y3962281D01*
X4008651Y3950651D01*
X4020281Y3942880D01*
X4034000Y3940151D01*
X4047719Y3942880D01*
X4059349Y3950651D01*
X4067120Y3962281D01*
X4069849Y3976000D01*
X4067120Y3989719D01*
X4059349Y4001349D01*
X4047719Y4009120D01*
X4034000Y4011849D01*
D02*
G37*
G36*
X3945100D02*
X3931381Y4009120D01*
X3919751Y4001349D01*
X3911980Y3989719D01*
X3909251Y3976000D01*
X3911980Y3962281D01*
X3919751Y3950651D01*
X3931381Y3942880D01*
X3945100Y3940151D01*
X3958819Y3942880D01*
X3970449Y3950651D01*
X3978220Y3962281D01*
X3980949Y3976000D01*
X3978220Y3989719D01*
X3970449Y4001349D01*
X3958819Y4009120D01*
X3945100Y4011849D01*
D02*
G37*
G36*
X3856200D02*
X3842481Y4009120D01*
X3830851Y4001349D01*
X3823080Y3989719D01*
X3820351Y3976000D01*
X3823080Y3962281D01*
X3830851Y3950651D01*
X3842481Y3942880D01*
X3856200Y3940151D01*
X3869919Y3942880D01*
X3881549Y3950651D01*
X3889320Y3962281D01*
X3892049Y3976000D01*
X3889320Y3989719D01*
X3881549Y4001349D01*
X3869919Y4009120D01*
X3856200Y4011849D01*
D02*
G37*
G36*
X3767300D02*
X3753581Y4009120D01*
X3741951Y4001349D01*
X3734180Y3989719D01*
X3731451Y3976000D01*
X3734180Y3962281D01*
X3741951Y3950651D01*
X3753581Y3942880D01*
X3767300Y3940151D01*
X3781019Y3942880D01*
X3792649Y3950651D01*
X3800420Y3962281D01*
X3803149Y3976000D01*
X3800420Y3989719D01*
X3792649Y4001349D01*
X3781019Y4009120D01*
X3767300Y4011849D01*
D02*
G37*
G36*
X1104950Y3934349D02*
X1091231Y3931620D01*
X1079601Y3923849D01*
X1071830Y3912219D01*
X1069101Y3898500D01*
X1071830Y3884781D01*
X1079601Y3873151D01*
X1091231Y3865380D01*
X1104950Y3862651D01*
X1118669Y3865380D01*
X1130299Y3873151D01*
X1138070Y3884781D01*
X1140799Y3898500D01*
X1138070Y3912219D01*
X1130299Y3923849D01*
X1118669Y3931620D01*
X1104950Y3934349D01*
D02*
G37*
G36*
X2217900Y3922949D02*
X2204181Y3920220D01*
X2192551Y3912449D01*
X2184780Y3900819D01*
X2182051Y3887100D01*
X2184780Y3873381D01*
X2192551Y3861751D01*
X2204181Y3853980D01*
X2217900Y3851251D01*
X2231619Y3853980D01*
X2243249Y3861751D01*
X2251020Y3873381D01*
X2253749Y3887100D01*
X2251020Y3900819D01*
X2243249Y3912449D01*
X2231619Y3920220D01*
X2217900Y3922949D01*
D02*
G37*
G36*
X2129000D02*
X2115281Y3920220D01*
X2103651Y3912449D01*
X2095880Y3900819D01*
X2093151Y3887100D01*
X2095880Y3873381D01*
X2103651Y3861751D01*
X2115281Y3853980D01*
X2129000Y3851251D01*
X2142719Y3853980D01*
X2154349Y3861751D01*
X2162120Y3873381D01*
X2164849Y3887100D01*
X2162120Y3900819D01*
X2154349Y3912449D01*
X2142719Y3920220D01*
X2129000Y3922949D01*
D02*
G37*
G36*
X2040100D02*
X2026381Y3920220D01*
X2014751Y3912449D01*
X2006980Y3900819D01*
X2004251Y3887100D01*
X2006980Y3873381D01*
X2014751Y3861751D01*
X2026381Y3853980D01*
X2040100Y3851251D01*
X2053819Y3853980D01*
X2065449Y3861751D01*
X2073220Y3873381D01*
X2075949Y3887100D01*
X2073220Y3900819D01*
X2065449Y3912449D01*
X2053819Y3920220D01*
X2040100Y3922949D01*
D02*
G37*
G36*
X1951200D02*
X1937481Y3920220D01*
X1925851Y3912449D01*
X1918080Y3900819D01*
X1915351Y3887100D01*
X1918080Y3873381D01*
X1925851Y3861751D01*
X1937481Y3853980D01*
X1951200Y3851251D01*
X1964919Y3853980D01*
X1976549Y3861751D01*
X1984320Y3873381D01*
X1987049Y3887100D01*
X1984320Y3900819D01*
X1976549Y3912449D01*
X1964919Y3920220D01*
X1951200Y3922949D01*
D02*
G37*
G36*
X1862300D02*
X1848581Y3920220D01*
X1836951Y3912449D01*
X1829180Y3900819D01*
X1826451Y3887100D01*
X1829180Y3873381D01*
X1836951Y3861751D01*
X1848581Y3853980D01*
X1862300Y3851251D01*
X1876019Y3853980D01*
X1887649Y3861751D01*
X1895420Y3873381D01*
X1898149Y3887100D01*
X1895420Y3900819D01*
X1887649Y3912449D01*
X1876019Y3920220D01*
X1862300Y3922949D01*
D02*
G37*
G36*
X1773400D02*
X1759681Y3920220D01*
X1748051Y3912449D01*
X1740280Y3900819D01*
X1737551Y3887100D01*
X1740280Y3873381D01*
X1748051Y3861751D01*
X1759681Y3853980D01*
X1773400Y3851251D01*
X1787119Y3853980D01*
X1798749Y3861751D01*
X1806520Y3873381D01*
X1809249Y3887100D01*
X1806520Y3900819D01*
X1798749Y3912449D01*
X1787119Y3920220D01*
X1773400Y3922949D01*
D02*
G37*
G36*
X-495300Y3872149D02*
X-509019Y3869420D01*
X-520649Y3861649D01*
X-528420Y3850019D01*
X-531149Y3836300D01*
X-528420Y3822581D01*
X-520649Y3810951D01*
X-509019Y3803180D01*
X-495300Y3800451D01*
X-481581Y3803180D01*
X-469951Y3810951D01*
X-462180Y3822581D01*
X-459451Y3836300D01*
X-462180Y3850019D01*
X-469951Y3861649D01*
X-481581Y3869420D01*
X-495300Y3872149D01*
D02*
G37*
G36*
X-2616288Y3835774D02*
X-2630006Y3833045D01*
X-2641637Y3825274D01*
X-2649408Y3813644D01*
X-2652136Y3799925D01*
X-2649408Y3786207D01*
X-2641637Y3774576D01*
X-2630006Y3766805D01*
X-2616288Y3764077D01*
X-2602569Y3766805D01*
X-2590939Y3774576D01*
X-2583168Y3786207D01*
X-2580439Y3799925D01*
X-2583168Y3813644D01*
X-2590939Y3825274D01*
X-2602569Y3833045D01*
X-2616288Y3835774D01*
D02*
G37*
G36*
X-561679Y3770649D02*
X-575398Y3767920D01*
X-587028Y3760149D01*
X-594799Y3748519D01*
X-597528Y3734800D01*
X-594799Y3721081D01*
X-587028Y3709451D01*
X-575398Y3701680D01*
X-561679Y3698951D01*
X-547960Y3701680D01*
X-536330Y3709451D01*
X-528559Y3721081D01*
X-525830Y3734800D01*
X-528559Y3748519D01*
X-536330Y3760149D01*
X-547960Y3767920D01*
X-561679Y3770649D01*
D02*
G37*
G36*
X-703100Y3719774D02*
X-716819Y3717045D01*
X-728449Y3709274D01*
X-736220Y3697644D01*
X-738949Y3683925D01*
X-736220Y3670206D01*
X-728449Y3658576D01*
X-716819Y3650805D01*
X-703100Y3648076D01*
X-689381Y3650805D01*
X-677751Y3658576D01*
X-669980Y3670206D01*
X-667251Y3683925D01*
X-669980Y3697644D01*
X-677751Y3709274D01*
X-689381Y3717045D01*
X-703100Y3719774D01*
D02*
G37*
G36*
X304975Y3592774D02*
X291256Y3590045D01*
X279626Y3582274D01*
X271855Y3570644D01*
X269126Y3556925D01*
X271855Y3543206D01*
X279626Y3531576D01*
X291256Y3523805D01*
X304975Y3521076D01*
X318694Y3523805D01*
X330324Y3531576D01*
X338095Y3543206D01*
X340824Y3556925D01*
X338095Y3570644D01*
X330324Y3582274D01*
X318694Y3590045D01*
X304975Y3592774D01*
D02*
G37*
G36*
X804950Y3592749D02*
X791232Y3590020D01*
X779601Y3582249D01*
X771830Y3570619D01*
X769102Y3556900D01*
X771830Y3543181D01*
X779601Y3531551D01*
X791232Y3523780D01*
X804950Y3521051D01*
X818669Y3523780D01*
X830299Y3531551D01*
X838070Y3543181D01*
X840799Y3556900D01*
X838070Y3570619D01*
X830299Y3582249D01*
X818669Y3590020D01*
X804950Y3592749D01*
D02*
G37*
G36*
X704950D02*
X691231Y3590020D01*
X679601Y3582249D01*
X671830Y3570619D01*
X669101Y3556900D01*
X671830Y3543181D01*
X679601Y3531551D01*
X691231Y3523780D01*
X704950Y3521051D01*
X718669Y3523780D01*
X730299Y3531551D01*
X738070Y3543181D01*
X740799Y3556900D01*
X738070Y3570619D01*
X730299Y3582249D01*
X718669Y3590020D01*
X704950Y3592749D01*
D02*
G37*
G36*
X454950D02*
X441231Y3590020D01*
X429601Y3582249D01*
X421830Y3570619D01*
X419101Y3556900D01*
X421830Y3543181D01*
X429601Y3531551D01*
X441231Y3523780D01*
X454950Y3521051D01*
X468669Y3523780D01*
X480299Y3531551D01*
X488070Y3543181D01*
X490799Y3556900D01*
X488070Y3570619D01*
X480299Y3582249D01*
X468669Y3590020D01*
X454950Y3592749D01*
D02*
G37*
G36*
X154950D02*
X141231Y3590020D01*
X129601Y3582249D01*
X121830Y3570619D01*
X119101Y3556900D01*
X121830Y3543181D01*
X129601Y3531551D01*
X141231Y3523780D01*
X154950Y3521051D01*
X168669Y3523780D01*
X180299Y3531551D01*
X188070Y3543181D01*
X190799Y3556900D01*
X188070Y3570619D01*
X180299Y3582249D01*
X168669Y3590020D01*
X154950Y3592749D01*
D02*
G37*
G36*
X4950D02*
X-8769Y3590020D01*
X-20399Y3582249D01*
X-28170Y3570619D01*
X-30899Y3556900D01*
X-28170Y3543181D01*
X-20399Y3531551D01*
X-8769Y3523780D01*
X4950Y3521051D01*
X18669Y3523780D01*
X30299Y3531551D01*
X38070Y3543181D01*
X40799Y3556900D01*
X38070Y3570619D01*
X30299Y3582249D01*
X18669Y3590020D01*
X4950Y3592749D01*
D02*
G37*
G36*
X-95050D02*
X-108769Y3590020D01*
X-120399Y3582249D01*
X-128170Y3570619D01*
X-130899Y3556900D01*
X-128170Y3543181D01*
X-120399Y3531551D01*
X-108769Y3523780D01*
X-95050Y3521051D01*
X-81332Y3523780D01*
X-69701Y3531551D01*
X-61930Y3543181D01*
X-59202Y3556900D01*
X-61930Y3570619D01*
X-69701Y3582249D01*
X-81332Y3590020D01*
X-95050Y3592749D01*
D02*
G37*
G36*
X-1795300Y3590138D02*
X-1809019Y3587409D01*
X-1820649Y3579638D01*
X-1828420Y3568008D01*
X-1831149Y3554289D01*
X-1828420Y3540570D01*
X-1820649Y3528940D01*
X-1809019Y3521169D01*
X-1795300Y3518440D01*
X-1781581Y3521169D01*
X-1769951Y3528940D01*
X-1762180Y3540570D01*
X-1759451Y3554289D01*
X-1762180Y3568008D01*
X-1769951Y3579638D01*
X-1781581Y3587409D01*
X-1795300Y3590138D01*
D02*
G37*
G36*
X957660Y3590038D02*
X943941Y3587310D01*
X932311Y3579538D01*
X924540Y3567908D01*
X921811Y3554189D01*
X924540Y3540471D01*
X932311Y3528841D01*
X943941Y3521069D01*
X957660Y3518341D01*
X971379Y3521069D01*
X983009Y3528841D01*
X990780Y3540471D01*
X993509Y3554189D01*
X990780Y3567908D01*
X983009Y3579538D01*
X971379Y3587310D01*
X957660Y3590038D01*
D02*
G37*
G36*
X2688200Y3535749D02*
X2674482Y3533020D01*
X2662851Y3525249D01*
X2655080Y3513619D01*
X2652352Y3499900D01*
X2655080Y3486181D01*
X2662851Y3474551D01*
X2674482Y3466780D01*
X2688200Y3464051D01*
X2701919Y3466780D01*
X2713549Y3474551D01*
X2721320Y3486181D01*
X2724049Y3499900D01*
X2721320Y3513619D01*
X2713549Y3525249D01*
X2701919Y3533020D01*
X2688200Y3535749D01*
D02*
G37*
G36*
X354976Y3516574D02*
X341257Y3513845D01*
X329627Y3506074D01*
X321856Y3494444D01*
X319127Y3480725D01*
X321856Y3467006D01*
X329627Y3455376D01*
X341257Y3447605D01*
X354976Y3444876D01*
X368694Y3447605D01*
X380325Y3455376D01*
X388096Y3467006D01*
X390824Y3480725D01*
X388096Y3494444D01*
X380325Y3506074D01*
X368694Y3513845D01*
X354976Y3516574D01*
D02*
G37*
G36*
X854951Y3516549D02*
X841232Y3513820D01*
X829602Y3506049D01*
X821831Y3494419D01*
X819102Y3480700D01*
X821831Y3466981D01*
X829602Y3455351D01*
X841232Y3447580D01*
X854951Y3444851D01*
X868670Y3447580D01*
X880300Y3455351D01*
X888071Y3466981D01*
X890800Y3480700D01*
X888071Y3494419D01*
X880300Y3506049D01*
X868670Y3513820D01*
X854951Y3516549D01*
D02*
G37*
G36*
X754950D02*
X741232Y3513820D01*
X729602Y3506049D01*
X721830Y3494419D01*
X719102Y3480700D01*
X721830Y3466981D01*
X729602Y3455351D01*
X741232Y3447580D01*
X754950Y3444851D01*
X768669Y3447580D01*
X780299Y3455351D01*
X788071Y3466981D01*
X790799Y3480700D01*
X788071Y3494419D01*
X780299Y3506049D01*
X768669Y3513820D01*
X754950Y3516549D01*
D02*
G37*
G36*
X204950D02*
X191232Y3513820D01*
X179601Y3506049D01*
X171830Y3494419D01*
X169102Y3480700D01*
X171830Y3466981D01*
X179601Y3455351D01*
X191232Y3447580D01*
X204950Y3444851D01*
X218669Y3447580D01*
X230299Y3455351D01*
X238070Y3466981D01*
X240799Y3480700D01*
X238070Y3494419D01*
X230299Y3506049D01*
X218669Y3513820D01*
X204950Y3516549D01*
D02*
G37*
G36*
X-45050D02*
X-58769Y3513820D01*
X-70399Y3506049D01*
X-78170Y3494419D01*
X-80899Y3480700D01*
X-78170Y3466981D01*
X-70399Y3455351D01*
X-58769Y3447580D01*
X-45050Y3444851D01*
X-31331Y3447580D01*
X-19701Y3455351D01*
X-11930Y3466981D01*
X-9201Y3480700D01*
X-11930Y3494419D01*
X-19701Y3506049D01*
X-31331Y3513820D01*
X-45050Y3516549D01*
D02*
G37*
G36*
X1007660Y3513838D02*
X993942Y3511110D01*
X982311Y3503338D01*
X974540Y3491708D01*
X971812Y3477989D01*
X974540Y3464271D01*
X982311Y3452641D01*
X993942Y3444869D01*
X1007660Y3442141D01*
X1021379Y3444869D01*
X1033009Y3452641D01*
X1040780Y3464271D01*
X1043509Y3477989D01*
X1040780Y3491708D01*
X1033009Y3503338D01*
X1021379Y3511110D01*
X1007660Y3513838D01*
D02*
G37*
G36*
X-1795300Y3494984D02*
X-1809019Y3492255D01*
X-1820649Y3484484D01*
X-1828420Y3472854D01*
X-1831149Y3459135D01*
X-1828420Y3445416D01*
X-1820649Y3433786D01*
X-1809019Y3426015D01*
X-1795300Y3423286D01*
X-1781581Y3426015D01*
X-1769951Y3433786D01*
X-1762180Y3445416D01*
X-1759451Y3459135D01*
X-1762180Y3472854D01*
X-1769951Y3484484D01*
X-1781581Y3492255D01*
X-1795300Y3494984D01*
D02*
G37*
G36*
X2767694Y3473563D02*
X2753975Y3470834D01*
X2742345Y3463063D01*
X2734574Y3451433D01*
X2731845Y3437714D01*
X2734574Y3423995D01*
X2742345Y3412365D01*
X2753975Y3404594D01*
X2767694Y3401865D01*
X2781413Y3404594D01*
X2793043Y3412365D01*
X2800814Y3423995D01*
X2803543Y3437714D01*
X2800814Y3451433D01*
X2793043Y3463063D01*
X2781413Y3470834D01*
X2767694Y3473563D01*
D02*
G37*
G36*
X2307200Y3402149D02*
X2293482Y3399420D01*
X2281851Y3391649D01*
X2274080Y3380019D01*
X2271352Y3366300D01*
X2274080Y3352581D01*
X2281851Y3340951D01*
X2293482Y3333180D01*
X2307200Y3330451D01*
X2320919Y3333180D01*
X2332549Y3340951D01*
X2340320Y3352581D01*
X2343049Y3366300D01*
X2340320Y3380019D01*
X2332549Y3391649D01*
X2320919Y3399420D01*
X2307200Y3402149D01*
D02*
G37*
G36*
X2831250Y3401999D02*
X2817532Y3399270D01*
X2805901Y3391499D01*
X2798130Y3379869D01*
X2795402Y3366150D01*
X2798130Y3352431D01*
X2805901Y3340801D01*
X2817532Y3333030D01*
X2831250Y3330301D01*
X2844969Y3333030D01*
X2856599Y3340801D01*
X2864370Y3352431D01*
X2867099Y3366150D01*
X2864370Y3379869D01*
X2856599Y3391499D01*
X2844969Y3399270D01*
X2831250Y3401999D01*
D02*
G37*
G36*
X-1174287Y3389574D02*
X-1188006Y3386845D01*
X-1199636Y3379074D01*
X-1207408Y3367444D01*
X-1210136Y3353725D01*
X-1207408Y3340006D01*
X-1199636Y3328376D01*
X-1188006Y3320605D01*
X-1174287Y3317876D01*
X-1160569Y3320605D01*
X-1148939Y3328376D01*
X-1141167Y3340006D01*
X-1138439Y3353725D01*
X-1141167Y3367444D01*
X-1148939Y3379074D01*
X-1160569Y3386845D01*
X-1174287Y3389574D01*
D02*
G37*
G36*
X-783187Y3387034D02*
X-796906Y3384305D01*
X-808536Y3376534D01*
X-816307Y3364904D01*
X-819036Y3351185D01*
X-816307Y3337466D01*
X-808536Y3325836D01*
X-796906Y3318065D01*
X-783187Y3315336D01*
X-769469Y3318065D01*
X-757838Y3325836D01*
X-750067Y3337466D01*
X-747339Y3351185D01*
X-750067Y3364904D01*
X-757838Y3376534D01*
X-769469Y3384305D01*
X-783187Y3387034D01*
D02*
G37*
G36*
X2921400Y3335749D02*
X2907682Y3333020D01*
X2896051Y3325249D01*
X2888280Y3313619D01*
X2885552Y3299900D01*
X2888280Y3286181D01*
X2896051Y3274551D01*
X2907682Y3266780D01*
X2921400Y3264051D01*
X2935119Y3266780D01*
X2946749Y3274551D01*
X2954520Y3286181D01*
X2957249Y3299900D01*
X2954520Y3313619D01*
X2946749Y3325249D01*
X2935119Y3333020D01*
X2921400Y3335749D01*
D02*
G37*
G36*
X2383400Y3237149D02*
X2369682Y3234420D01*
X2358051Y3226649D01*
X2350280Y3215019D01*
X2347552Y3201300D01*
X2350280Y3187581D01*
X2358051Y3175951D01*
X2369682Y3168180D01*
X2383400Y3165451D01*
X2397119Y3168180D01*
X2408749Y3175951D01*
X2416520Y3187581D01*
X2419249Y3201300D01*
X2416520Y3215019D01*
X2408749Y3226649D01*
X2397119Y3234420D01*
X2383400Y3237149D01*
D02*
G37*
G36*
X2612000Y3135549D02*
X2598282Y3132820D01*
X2586651Y3125049D01*
X2578880Y3113419D01*
X2576152Y3099700D01*
X2578880Y3085981D01*
X2586651Y3074351D01*
X2598282Y3066580D01*
X2612000Y3063851D01*
X2625719Y3066580D01*
X2637349Y3074351D01*
X2645120Y3085981D01*
X2647849Y3099700D01*
X2645120Y3113419D01*
X2637349Y3125049D01*
X2625719Y3132820D01*
X2612000Y3135549D01*
D02*
G37*
G36*
X-1369275Y3110174D02*
X-1382994Y3107445D01*
X-1394624Y3099674D01*
X-1402395Y3088044D01*
X-1405124Y3074325D01*
X-1402395Y3060606D01*
X-1400000Y3057021D01*
X-1408926Y3048875D01*
X-1411610Y3050667D01*
X-1420556Y3056645D01*
X-1434275Y3059374D01*
X-1447994Y3056645D01*
X-1459624Y3048874D01*
X-1467395Y3037244D01*
X-1470124Y3023525D01*
X-1467395Y3009806D01*
X-1459624Y2998176D01*
X-1447994Y2990405D01*
X-1434275Y2987676D01*
X-1420556Y2990405D01*
X-1408926Y2998176D01*
X-1401155Y3009806D01*
X-1398426Y3023525D01*
X-1401155Y3037244D01*
X-1403550Y3040829D01*
X-1394624Y3048975D01*
X-1391940Y3047183D01*
X-1382994Y3041205D01*
X-1369275Y3038476D01*
X-1355556Y3041205D01*
X-1343926Y3048976D01*
X-1336155Y3060606D01*
X-1333426Y3074325D01*
X-1336155Y3088044D01*
X-1343926Y3099674D01*
X-1355556Y3107445D01*
X-1369275Y3110174D01*
D02*
G37*
G36*
X-2500287Y3108174D02*
X-2514006Y3105445D01*
X-2525636Y3097674D01*
X-2533407Y3086044D01*
X-2536136Y3072325D01*
X-2533407Y3058606D01*
X-2525636Y3046976D01*
X-2514006Y3039205D01*
X-2500287Y3036476D01*
X-2486569Y3039205D01*
X-2474938Y3046976D01*
X-2467167Y3058606D01*
X-2464439Y3072325D01*
X-2467167Y3086044D01*
X-2474938Y3097674D01*
X-2486569Y3105445D01*
X-2500287Y3108174D01*
D02*
G37*
G36*
X2535800Y3072244D02*
X2522082Y3069515D01*
X2510451Y3061744D01*
X2502680Y3050114D01*
X2499952Y3036395D01*
X2502680Y3022676D01*
X2510451Y3011046D01*
X2522082Y3003275D01*
X2535800Y3000546D01*
X2549519Y3003275D01*
X2561149Y3011046D01*
X2568920Y3022676D01*
X2571649Y3036395D01*
X2568920Y3050114D01*
X2561149Y3061744D01*
X2549519Y3069515D01*
X2535800Y3072244D01*
D02*
G37*
G36*
X-1366800Y2935749D02*
X-1380519Y2933020D01*
X-1392149Y2925249D01*
X-1399920Y2913619D01*
X-1402649Y2899900D01*
X-1399920Y2886181D01*
X-1392149Y2874551D01*
X-1380519Y2866780D01*
X-1366800Y2864051D01*
X-1353082Y2866780D01*
X-1341451Y2874551D01*
X-1333680Y2886181D01*
X-1330952Y2899900D01*
X-1333680Y2913619D01*
X-1341451Y2925249D01*
X-1353082Y2933020D01*
X-1366800Y2935749D01*
D02*
G37*
G36*
X-1434300Y2835749D02*
X-1448018Y2833020D01*
X-1459649Y2825249D01*
X-1467420Y2813619D01*
X-1470148Y2799900D01*
X-1467420Y2786181D01*
X-1459649Y2774551D01*
X-1448018Y2766780D01*
X-1434300Y2764051D01*
X-1420581Y2766780D01*
X-1408951Y2774551D01*
X-1401180Y2786181D01*
X-1398451Y2799900D01*
X-1401180Y2813619D01*
X-1408951Y2825249D01*
X-1420581Y2833020D01*
X-1434300Y2835749D01*
D02*
G37*
G36*
X-1174287Y2535774D02*
X-1188006Y2533045D01*
X-1199636Y2525274D01*
X-1207408Y2513644D01*
X-1210136Y2499925D01*
X-1207408Y2486206D01*
X-1199636Y2474576D01*
X-1188006Y2466805D01*
X-1174287Y2464076D01*
X-1160569Y2466805D01*
X-1148939Y2474576D01*
X-1141167Y2486206D01*
X-1138439Y2499925D01*
X-1141167Y2513644D01*
X-1148939Y2525274D01*
X-1160569Y2533045D01*
X-1174287Y2535774D01*
D02*
G37*
G36*
X-1922300Y2435774D02*
X-1936019Y2433045D01*
X-1947649Y2425274D01*
X-1955420Y2413644D01*
X-1958149Y2399925D01*
X-1955420Y2386206D01*
X-1947649Y2374576D01*
X-1936019Y2366805D01*
X-1922300Y2364076D01*
X-1908581Y2366805D01*
X-1896951Y2374576D01*
X-1889180Y2386206D01*
X-1886451Y2399925D01*
X-1889180Y2413644D01*
X-1896951Y2425274D01*
X-1908581Y2433045D01*
X-1922300Y2435774D01*
D02*
G37*
G36*
X-1434287Y2335761D02*
X-1448006Y2333033D01*
X-1459636Y2325262D01*
X-1467407Y2313631D01*
X-1470136Y2299913D01*
X-1467407Y2286194D01*
X-1459636Y2274564D01*
X-1448006Y2266793D01*
X-1434287Y2264064D01*
X-1420568Y2266793D01*
X-1408938Y2274564D01*
X-1401167Y2286194D01*
X-1398438Y2299913D01*
X-1401167Y2313631D01*
X-1408938Y2325262D01*
X-1420568Y2333033D01*
X-1434287Y2335761D01*
D02*
G37*
G36*
X-1369275Y2235774D02*
X-1382994Y2233045D01*
X-1394624Y2225274D01*
X-1402395Y2213644D01*
X-1405124Y2199925D01*
X-1402395Y2186206D01*
X-1394624Y2174576D01*
X-1382994Y2166805D01*
X-1369275Y2164076D01*
X-1355556Y2166805D01*
X-1343926Y2174576D01*
X-1336155Y2186206D01*
X-1333426Y2199925D01*
X-1336155Y2213644D01*
X-1343926Y2225274D01*
X-1355556Y2233045D01*
X-1369275Y2235774D01*
D02*
G37*
G36*
X-1641800Y2174574D02*
X-1655519Y2171845D01*
X-1667149Y2164074D01*
X-1674920Y2152444D01*
X-1677649Y2138725D01*
X-1674920Y2125006D01*
X-1667149Y2113376D01*
X-1655519Y2105605D01*
X-1641800Y2102876D01*
X-1628081Y2105605D01*
X-1616451Y2113376D01*
X-1608680Y2125006D01*
X-1605951Y2138725D01*
X-1608680Y2152444D01*
X-1616451Y2164074D01*
X-1628081Y2171845D01*
X-1641800Y2174574D01*
D02*
G37*
G36*
X-1998500Y2135774D02*
X-2012219Y2133045D01*
X-2023849Y2125274D01*
X-2031620Y2113644D01*
X-2034349Y2099925D01*
X-2031620Y2086206D01*
X-2023849Y2074576D01*
X-2012219Y2066805D01*
X-1998500Y2064076D01*
X-1984781Y2066805D01*
X-1973151Y2074576D01*
X-1965380Y2086206D01*
X-1962651Y2099925D01*
X-1965380Y2113644D01*
X-1973151Y2125274D01*
X-1984781Y2133045D01*
X-1998500Y2135774D01*
D02*
G37*
G36*
X-2440312Y1835786D02*
X-2454031Y1833058D01*
X-2465661Y1825286D01*
X-2473432Y1813656D01*
X-2476161Y1799937D01*
X-2473432Y1786219D01*
X-2465661Y1774589D01*
X-2454031Y1766817D01*
X-2440312Y1764089D01*
X-2426594Y1766817D01*
X-2414963Y1774589D01*
X-2407192Y1786219D01*
X-2404464Y1799937D01*
X-2407192Y1813656D01*
X-2414963Y1825286D01*
X-2426594Y1833058D01*
X-2440312Y1835786D01*
D02*
G37*
G36*
X-2530881Y1747481D02*
X-2544600Y1744752D01*
X-2556230Y1736981D01*
X-2564001Y1725351D01*
X-2566730Y1711632D01*
X-2564001Y1697913D01*
X-2556230Y1686283D01*
X-2544600Y1678512D01*
X-2530881Y1675783D01*
X-2517162Y1678512D01*
X-2505532Y1686283D01*
X-2497761Y1697913D01*
X-2495032Y1711632D01*
X-2497761Y1725351D01*
X-2505532Y1736981D01*
X-2517162Y1744752D01*
X-2530881Y1747481D01*
D02*
G37*
G36*
X-2440312Y1635786D02*
X-2454031Y1633058D01*
X-2465661Y1625287D01*
X-2473432Y1613656D01*
X-2476161Y1599938D01*
X-2473432Y1586219D01*
X-2465661Y1574589D01*
X-2454031Y1566818D01*
X-2440312Y1564089D01*
X-2426594Y1566818D01*
X-2414963Y1574589D01*
X-2407192Y1586219D01*
X-2404464Y1599938D01*
X-2407192Y1613656D01*
X-2414963Y1625287D01*
X-2426594Y1633058D01*
X-2440312Y1635786D01*
D02*
G37*
G36*
X3760000Y2001298D02*
X3713901Y1996758D01*
X3669573Y1983311D01*
X3628720Y1961475D01*
X3592912Y1932088D01*
X3563526Y1896280D01*
X3541689Y1855427D01*
X3528243Y1811100D01*
X3523702Y1765000D01*
X3528243Y1718901D01*
X3541689Y1674573D01*
X3563526Y1633720D01*
X3592912Y1597912D01*
X3628720Y1568525D01*
X3669573Y1546689D01*
X3713901Y1533243D01*
X3760000Y1528702D01*
X3806100Y1533243D01*
X3850427Y1546689D01*
X3891280Y1568525D01*
X3927088Y1597912D01*
X3956475Y1633720D01*
X3978311Y1674573D01*
X3991758Y1718901D01*
X3996298Y1765000D01*
X3991758Y1811100D01*
X3978311Y1855427D01*
X3956475Y1896280D01*
X3927088Y1932088D01*
X3891280Y1961475D01*
X3850427Y1983311D01*
X3806100Y1996758D01*
X3760000Y2001298D01*
D02*
G37*
G36*
X-3035000D02*
X-3081100Y1996758D01*
X-3125427Y1983311D01*
X-3166280Y1961475D01*
X-3202088Y1932088D01*
X-3231475Y1896280D01*
X-3253311Y1855427D01*
X-3266757Y1811100D01*
X-3271298Y1765000D01*
X-3266757Y1718901D01*
X-3253311Y1674573D01*
X-3231475Y1633720D01*
X-3202088Y1597912D01*
X-3166280Y1568525D01*
X-3125427Y1546689D01*
X-3081100Y1533243D01*
X-3035000Y1528702D01*
X-2988901Y1533243D01*
X-2944573Y1546689D01*
X-2903720Y1568525D01*
X-2867912Y1597912D01*
X-2838525Y1633720D01*
X-2816689Y1674573D01*
X-2803243Y1718901D01*
X-2798702Y1765000D01*
X-2803243Y1811100D01*
X-2816689Y1855427D01*
X-2838525Y1896280D01*
X-2867912Y1932088D01*
X-2903720Y1961475D01*
X-2944573Y1983311D01*
X-2988901Y1996758D01*
X-3035000Y2001298D01*
D02*
G37*
G36*
X-2516237Y1535761D02*
X-2529956Y1533033D01*
X-2541586Y1525262D01*
X-2549357Y1513631D01*
X-2552086Y1499913D01*
X-2549357Y1486194D01*
X-2541586Y1474564D01*
X-2529956Y1466793D01*
X-2516237Y1464064D01*
X-2502518Y1466793D01*
X-2490888Y1474564D01*
X-2483117Y1486194D01*
X-2480388Y1499913D01*
X-2483117Y1513631D01*
X-2490888Y1525262D01*
X-2502518Y1533033D01*
X-2516237Y1535761D01*
D02*
G37*
G36*
X-98399Y3368930D02*
X-123082Y3364020D01*
X-144007Y3350038D01*
X-157989Y3329112D01*
X-162899Y3304430D01*
X-162899D01*
X-162153Y3291729D01*
X-162174Y1464348D01*
X-162223Y1464101D01*
X-162969D01*
X-158059Y1439418D01*
X-144077Y1418493D01*
X-123152Y1404511D01*
X-98469Y1399601D01*
X-98419Y1400347D01*
X1881550Y1400396D01*
X1894210Y1399552D01*
Y1399552D01*
X1918893Y1404462D01*
X1939819Y1418444D01*
X1953801Y1439369D01*
X1958710Y1464052D01*
X1958711D01*
X1957964Y1476752D01*
X1957985Y3304240D01*
X1958013Y3304380D01*
X1958759D01*
X1953850Y3329063D01*
X1939868Y3349989D01*
X1918942Y3363971D01*
X1894259Y3368880D01*
Y3368881D01*
X1881559Y3368134D01*
X-98398Y3368183D01*
X-98399Y3368930D01*
D02*
G37*
G36*
X-1369304Y1461870D02*
X-1383023Y1459141D01*
X-1394653Y1451370D01*
X-1402424Y1439740D01*
X-1405153Y1426021D01*
X-1402424Y1412302D01*
X-1394653Y1400672D01*
X-1383023Y1392901D01*
X-1369304Y1390172D01*
X-1355585Y1392901D01*
X-1343955Y1400672D01*
X-1336184Y1412302D01*
X-1333455Y1426021D01*
X-1336184Y1439740D01*
X-1343955Y1451370D01*
X-1355585Y1459141D01*
X-1369304Y1461870D01*
D02*
G37*
G36*
X854951Y1370249D02*
X841232Y1367520D01*
X829602Y1359749D01*
X821831Y1348119D01*
X819102Y1334400D01*
X821831Y1320681D01*
X829602Y1309051D01*
X841232Y1301280D01*
X854951Y1298551D01*
X868670Y1301280D01*
X880300Y1309051D01*
X888071Y1320681D01*
X890800Y1334400D01*
X888071Y1348119D01*
X880300Y1359749D01*
X868670Y1367520D01*
X854951Y1370249D01*
D02*
G37*
G36*
X955000Y1289965D02*
X941281Y1287237D01*
X929651Y1279466D01*
X921880Y1267835D01*
X919151Y1254117D01*
X919298Y1253378D01*
X908498Y1242578D01*
X905000Y1243274D01*
X891281Y1240545D01*
X879651Y1232774D01*
X871880Y1221144D01*
X869151Y1207425D01*
X871880Y1193706D01*
X879651Y1182076D01*
X891281Y1174305D01*
X905000Y1171576D01*
X918719Y1174305D01*
X930349Y1182076D01*
X938120Y1193706D01*
X940849Y1207425D01*
X940702Y1208163D01*
X951503Y1218964D01*
X955000Y1218268D01*
X968719Y1220997D01*
X980349Y1228768D01*
X988120Y1240398D01*
X990849Y1254117D01*
X988120Y1267835D01*
X980349Y1279466D01*
X968719Y1287237D01*
X955000Y1289965D01*
D02*
G37*
G36*
X-1998500Y1243274D02*
X-2012219Y1240545D01*
X-2023849Y1232774D01*
X-2031620Y1221144D01*
X-2034349Y1207425D01*
X-2031620Y1193706D01*
X-2023849Y1182076D01*
X-2012219Y1174305D01*
X-1998500Y1171576D01*
X-1984781Y1174305D01*
X-1973151Y1182076D01*
X-1965380Y1193706D01*
X-1962651Y1207425D01*
X-1965380Y1221144D01*
X-1973151Y1232774D01*
X-1984781Y1240545D01*
X-1998500Y1243274D01*
D02*
G37*
G36*
X-1434275Y1193414D02*
X-1447994Y1190685D01*
X-1459624Y1182914D01*
X-1467395Y1171284D01*
X-1470124Y1157565D01*
X-1467395Y1143846D01*
X-1459624Y1132216D01*
X-1447994Y1124445D01*
X-1434275Y1121716D01*
X-1420556Y1124445D01*
X-1408926Y1132216D01*
X-1401155Y1143846D01*
X-1398426Y1157565D01*
X-1401155Y1171284D01*
X-1408926Y1182914D01*
X-1420556Y1190685D01*
X-1434275Y1193414D01*
D02*
G37*
G36*
X-1571294Y1186780D02*
X-1585012Y1184051D01*
X-1596642Y1176280D01*
X-1604414Y1164650D01*
X-1607142Y1150931D01*
X-1604414Y1137213D01*
X-1596642Y1125582D01*
X-1585012Y1117811D01*
X-1571294Y1115083D01*
X-1557575Y1117811D01*
X-1545945Y1125582D01*
X-1538173Y1137213D01*
X-1535445Y1150931D01*
X-1538173Y1164650D01*
X-1545945Y1176280D01*
X-1557575Y1184051D01*
X-1571294Y1186780D01*
D02*
G37*
G36*
X1005000Y1179749D02*
X991281Y1177020D01*
X979651Y1169249D01*
X971880Y1157619D01*
X969151Y1143900D01*
X971880Y1130181D01*
X979651Y1118551D01*
X991281Y1110780D01*
X1005000Y1108051D01*
X1018719Y1110780D01*
X1030349Y1118551D01*
X1038120Y1130181D01*
X1040849Y1143900D01*
X1038120Y1157619D01*
X1030349Y1169249D01*
X1018719Y1177020D01*
X1005000Y1179749D01*
D02*
G37*
G36*
X-1499300Y1135774D02*
X-1513019Y1133045D01*
X-1524649Y1125274D01*
X-1532420Y1113644D01*
X-1535149Y1099925D01*
X-1532420Y1086206D01*
X-1524649Y1074576D01*
X-1513019Y1066805D01*
X-1499300Y1064076D01*
X-1485581Y1066805D01*
X-1473951Y1074576D01*
X-1466180Y1086206D01*
X-1463451Y1099925D01*
X-1466180Y1113644D01*
X-1473951Y1125274D01*
X-1485581Y1133045D01*
X-1499300Y1135774D01*
D02*
G37*
G36*
X2179825Y1116274D02*
X2166106Y1113545D01*
X2154476Y1105774D01*
X2146705Y1094144D01*
X2143976Y1080425D01*
X2146705Y1066706D01*
X2154476Y1055076D01*
X2166106Y1047305D01*
X2179825Y1044576D01*
X2193544Y1047305D01*
X2205174Y1055076D01*
X2212945Y1066706D01*
X2215674Y1080425D01*
X2212945Y1094144D01*
X2205174Y1105774D01*
X2193544Y1113545D01*
X2179825Y1116274D01*
D02*
G37*
G36*
X2395700Y1065474D02*
X2381981Y1062745D01*
X2370351Y1054974D01*
X2362580Y1043344D01*
X2359851Y1029625D01*
X2362580Y1015906D01*
X2370351Y1004276D01*
X2381981Y996505D01*
X2395700Y993776D01*
X2409419Y996505D01*
X2421049Y1004276D01*
X2428820Y1015906D01*
X2431549Y1029625D01*
X2428820Y1043344D01*
X2421049Y1054974D01*
X2409419Y1062745D01*
X2395700Y1065474D01*
D02*
G37*
G36*
X404975Y1035774D02*
X391256Y1033045D01*
X379626Y1025274D01*
X371855Y1013644D01*
X369126Y999925D01*
X371855Y986206D01*
X379626Y974576D01*
X391256Y966805D01*
X404975Y964076D01*
X418694Y966805D01*
X430324Y974576D01*
X438095Y986206D01*
X440824Y999925D01*
X438095Y1013644D01*
X430324Y1025274D01*
X418694Y1033045D01*
X404975Y1035774D01*
D02*
G37*
G36*
X755000Y963849D02*
X741281Y961120D01*
X729651Y953349D01*
X721880Y941719D01*
X719151Y928000D01*
X721880Y914281D01*
X729651Y902651D01*
X741281Y894880D01*
X755000Y892151D01*
X768719Y894880D01*
X780349Y902651D01*
X788120Y914281D01*
X790849Y928000D01*
X788120Y941719D01*
X780349Y953349D01*
X768719Y961120D01*
X755000Y963849D01*
D02*
G37*
G36*
X-1922300Y935774D02*
X-1936019Y933045D01*
X-1947649Y925274D01*
X-1955420Y913644D01*
X-1958149Y899925D01*
X-1955420Y886206D01*
X-1947649Y874576D01*
X-1936019Y866805D01*
X-1922300Y864076D01*
X-1908581Y866805D01*
X-1896951Y874576D01*
X-1889180Y886206D01*
X-1886451Y899925D01*
X-1889180Y913644D01*
X-1896951Y925274D01*
X-1908581Y933045D01*
X-1922300Y935774D01*
D02*
G37*
G36*
X505000Y887649D02*
X491281Y884920D01*
X479651Y877149D01*
X471880Y865519D01*
X469151Y851800D01*
X471880Y838081D01*
X479651Y826451D01*
X491281Y818680D01*
X505000Y815951D01*
X518719Y818680D01*
X530349Y826451D01*
X538120Y838081D01*
X540849Y851800D01*
X538120Y865519D01*
X530349Y877149D01*
X518719Y884920D01*
X505000Y887649D01*
D02*
G37*
G36*
X604950Y835699D02*
X591231Y832970D01*
X579601Y825199D01*
X571830Y813569D01*
X569101Y799850D01*
X571830Y786132D01*
X579601Y774501D01*
X591231Y766730D01*
X604950Y764002D01*
X616710Y766341D01*
X621650Y761784D01*
X625106Y756048D01*
X621880Y751219D01*
X619151Y737500D01*
X621880Y723781D01*
X629651Y712151D01*
X641281Y704380D01*
X655000Y701651D01*
X668719Y704380D01*
X680349Y712151D01*
X688120Y723781D01*
X690849Y737500D01*
X688120Y751219D01*
X680349Y762849D01*
X668719Y770620D01*
X655000Y773349D01*
X643241Y771010D01*
X638301Y775566D01*
X634844Y781303D01*
X638070Y786132D01*
X640799Y799850D01*
X638070Y813569D01*
X630299Y825199D01*
X618669Y832970D01*
X604950Y835699D01*
D02*
G37*
G36*
X-639112Y735786D02*
X-652831Y733057D01*
X-664461Y725286D01*
X-672232Y713656D01*
X-674961Y699937D01*
X-672232Y686219D01*
X-664461Y674588D01*
X-652831Y666817D01*
X-639112Y664089D01*
X-625393Y666817D01*
X-613763Y674588D01*
X-605992Y686219D01*
X-603263Y699937D01*
X-605992Y713656D01*
X-613763Y725286D01*
X-625393Y733057D01*
X-639112Y735786D01*
D02*
G37*
G36*
X305000Y718592D02*
X291281Y715863D01*
X279651Y708092D01*
X271880Y696462D01*
X269151Y682743D01*
X271880Y669024D01*
X279651Y657394D01*
X291281Y649623D01*
X305000Y646894D01*
X318719Y649623D01*
X330349Y657394D01*
X338120Y669024D01*
X340849Y682743D01*
X338120Y696462D01*
X330349Y708092D01*
X318719Y715863D01*
X305000Y718592D01*
D02*
G37*
G36*
X255000Y647881D02*
X241281Y645152D01*
X229651Y637381D01*
X221880Y625751D01*
X219151Y612032D01*
X221880Y598314D01*
X229651Y586683D01*
X241281Y578912D01*
X255000Y576184D01*
X268719Y578912D01*
X280349Y586683D01*
X288120Y598314D01*
X290849Y612032D01*
X288120Y625751D01*
X280349Y637381D01*
X268719Y645152D01*
X255000Y647881D01*
D02*
G37*
G36*
X-1869275Y635774D02*
X-1882994Y633045D01*
X-1894624Y625274D01*
X-1902395Y613644D01*
X-1905124Y599925D01*
X-1902395Y586206D01*
X-1894624Y574576D01*
X-1882994Y566805D01*
X-1869275Y564076D01*
X-1855556Y566805D01*
X-1843926Y574576D01*
X-1836155Y586206D01*
X-1833426Y599925D01*
X-1836155Y613644D01*
X-1843926Y625274D01*
X-1855556Y633045D01*
X-1869275Y635774D01*
D02*
G37*
G36*
X2531101Y506649D02*
X2517382Y503920D01*
X2505752Y496149D01*
X2497981Y484519D01*
X2495252Y470800D01*
X2497981Y457081D01*
X2505752Y445451D01*
X2517382Y437680D01*
X2531101Y434951D01*
X2544819Y437680D01*
X2556450Y445451D01*
X2564221Y457081D01*
X2566949Y470800D01*
X2564221Y484519D01*
X2556450Y496149D01*
X2544819Y503920D01*
X2531101Y506649D01*
D02*
G37*
G36*
X2431100D02*
X2417381Y503920D01*
X2405751Y496149D01*
X2397980Y484519D01*
X2395251Y470800D01*
X2397980Y457081D01*
X2405751Y445451D01*
X2417381Y437680D01*
X2431100Y434951D01*
X2444819Y437680D01*
X2456449Y445451D01*
X2464220Y457081D01*
X2466949Y470800D01*
X2464220Y484519D01*
X2456449Y496149D01*
X2444819Y503920D01*
X2431100Y506649D01*
D02*
G37*
G36*
X2331100D02*
X2317382Y503920D01*
X2305752Y496149D01*
X2297980Y484519D01*
X2295252Y470800D01*
X2297980Y457081D01*
X2305752Y445451D01*
X2317382Y437680D01*
X2331100Y434951D01*
X2344819Y437680D01*
X2356449Y445451D01*
X2364221Y457081D01*
X2366949Y470800D01*
X2364221Y484519D01*
X2356449Y496149D01*
X2344819Y503920D01*
X2331100Y506649D01*
D02*
G37*
G36*
X105000D02*
X91282Y503920D01*
X79651Y496149D01*
X71880Y484519D01*
X69151Y470800D01*
X71880Y457081D01*
X79651Y445451D01*
X91282Y437680D01*
X105000Y434951D01*
X118719Y437680D01*
X130349Y445451D01*
X138120Y457081D01*
X140849Y470800D01*
X138120Y484519D01*
X130349Y496149D01*
X118719Y503920D01*
X105000Y506649D01*
D02*
G37*
G36*
X1432137Y506472D02*
X1418419Y503743D01*
X1406788Y495972D01*
X1399017Y484342D01*
X1396289Y470623D01*
X1399017Y456904D01*
X1406788Y445274D01*
X1418419Y437503D01*
X1432137Y434774D01*
X1445856Y437503D01*
X1457486Y445274D01*
X1465257Y456904D01*
X1467986Y470623D01*
X1465257Y484342D01*
X1457486Y495972D01*
X1445856Y503743D01*
X1432137Y506472D01*
D02*
G37*
G36*
X2631100Y506459D02*
X2617382Y503731D01*
X2605751Y495960D01*
X2597980Y484329D01*
X2595252Y470611D01*
X2597980Y456892D01*
X2605751Y445262D01*
X2617382Y437491D01*
X2631100Y434762D01*
X2644819Y437491D01*
X2656449Y445262D01*
X2664220Y456892D01*
X2666949Y470611D01*
X2664220Y484329D01*
X2656449Y495960D01*
X2644819Y503731D01*
X2631100Y506459D01*
D02*
G37*
G36*
X-227819Y435748D02*
X-241538Y433020D01*
X-253168Y425249D01*
X-260939Y413618D01*
X-263668Y399900D01*
X-260939Y386181D01*
X-253168Y374551D01*
X-241538Y366780D01*
X-227819Y364051D01*
X-214100Y366780D01*
X-202470Y374551D01*
X-194699Y386181D01*
X-191970Y399900D01*
X-194699Y413618D01*
X-202470Y425249D01*
X-214100Y433020D01*
X-227819Y435748D01*
D02*
G37*
G36*
X605000Y377370D02*
X591281Y374642D01*
X579651Y366870D01*
X571880Y355240D01*
X569151Y341522D01*
X571880Y327803D01*
X579651Y316173D01*
X591281Y308401D01*
X605000Y305673D01*
X618719Y308401D01*
X630349Y316173D01*
X638120Y327803D01*
X640849Y341522D01*
X638120Y355240D01*
X630349Y366870D01*
X618719Y374642D01*
X605000Y377370D01*
D02*
G37*
G36*
X455000Y377271D02*
X441282Y374542D01*
X429651Y366771D01*
X421880Y355141D01*
X419152Y341422D01*
X421880Y327703D01*
X429651Y316073D01*
X441282Y308302D01*
X455000Y305573D01*
X468719Y308302D01*
X480349Y316073D01*
X488120Y327703D01*
X490849Y341422D01*
X488120Y355141D01*
X480349Y366771D01*
X468719Y374542D01*
X455000Y377271D01*
D02*
G37*
G36*
X1432125Y377196D02*
X1418406Y374467D01*
X1406776Y366696D01*
X1399005Y355066D01*
X1396276Y341347D01*
X1399005Y327628D01*
X1406776Y315998D01*
X1418406Y308227D01*
X1432125Y305498D01*
X1445844Y308227D01*
X1457474Y315998D01*
X1465245Y327628D01*
X1467974Y341347D01*
X1465245Y355066D01*
X1457474Y366696D01*
X1445844Y374467D01*
X1432125Y377196D01*
D02*
G37*
G36*
X-703100Y335774D02*
X-716819Y333045D01*
X-728449Y325274D01*
X-736220Y313644D01*
X-738949Y299925D01*
X-736220Y286206D01*
X-728449Y274576D01*
X-716819Y266805D01*
X-703100Y264076D01*
X-689381Y266805D01*
X-677751Y274576D01*
X-669980Y286206D01*
X-667251Y299925D01*
X-669980Y313644D01*
X-677751Y325274D01*
X-689381Y333045D01*
X-703100Y335774D01*
D02*
G37*
G36*
X1557900Y303449D02*
X1544182Y300720D01*
X1532551Y292949D01*
X1524780Y281319D01*
X1522052Y267600D01*
X1524780Y253881D01*
X1532551Y242251D01*
X1544182Y234480D01*
X1557900Y231751D01*
X1571619Y234480D01*
X1583249Y242251D01*
X1591020Y253881D01*
X1593749Y267600D01*
X1591020Y281319D01*
X1583249Y292949D01*
X1571619Y300720D01*
X1557900Y303449D01*
D02*
G37*
G36*
X705000Y252749D02*
X691282Y250020D01*
X679651Y242249D01*
X671880Y230619D01*
X669152Y216900D01*
X671880Y203181D01*
X679651Y191551D01*
X691282Y183780D01*
X705000Y181051D01*
X718719Y183780D01*
X730349Y191551D01*
X738120Y203181D01*
X740849Y216900D01*
X738120Y230619D01*
X730349Y242249D01*
X718719Y250020D01*
X705000Y252749D01*
D02*
G37*
G36*
X505000D02*
X491281Y250020D01*
X479651Y242249D01*
X471880Y230619D01*
X469151Y216900D01*
X471880Y203181D01*
X479651Y191551D01*
X491281Y183780D01*
X505000Y181051D01*
X518719Y183780D01*
X530349Y191551D01*
X538120Y203181D01*
X540849Y216900D01*
X538120Y230619D01*
X530349Y242249D01*
X518719Y250020D01*
X505000Y252749D01*
D02*
G37*
G36*
X2730725Y235774D02*
X2717007Y233045D01*
X2705376Y225274D01*
X2697605Y213644D01*
X2694876Y199925D01*
X2697605Y186206D01*
X2705376Y174576D01*
X2717007Y166805D01*
X2730725Y164076D01*
X2744444Y166805D01*
X2756074Y174576D01*
X2763845Y186206D01*
X2766574Y199925D01*
X2763845Y213644D01*
X2756074Y225274D01*
X2744444Y233045D01*
X2730725Y235774D01*
D02*
G37*
G36*
X-607417Y235749D02*
X-621136Y233020D01*
X-632766Y225249D01*
X-640537Y213619D01*
X-643266Y199900D01*
X-640537Y186181D01*
X-632766Y174551D01*
X-621136Y166780D01*
X-607417Y164051D01*
X-593699Y166780D01*
X-582068Y174551D01*
X-574297Y186181D01*
X-571569Y199900D01*
X-574297Y213619D01*
X-582068Y225249D01*
X-593699Y233020D01*
X-607417Y235749D01*
D02*
G37*
G36*
X155025Y222194D02*
X141306Y219465D01*
X129676Y211694D01*
X121905Y200064D01*
X119176Y186345D01*
X121905Y172626D01*
X129676Y160996D01*
X141306Y153225D01*
X155025Y150496D01*
X168744Y153225D01*
X180374Y160996D01*
X188145Y172626D01*
X190874Y186345D01*
X188145Y200064D01*
X180374Y211694D01*
X168744Y219465D01*
X155025Y222194D01*
D02*
G37*
G36*
X-436375Y143541D02*
X-450094Y140813D01*
X-461724Y133041D01*
X-469495Y121411D01*
X-472224Y107692D01*
X-469495Y93974D01*
X-461724Y82343D01*
X-450094Y74572D01*
X-436375Y71844D01*
X-422656Y74572D01*
X-411026Y82343D01*
X-403255Y93974D01*
X-400526Y107692D01*
X-403255Y121411D01*
X-411026Y133041D01*
X-422656Y140813D01*
X-436375Y143541D01*
D02*
G37*
G36*
X1303900Y112949D02*
X1290182Y110220D01*
X1278551Y102449D01*
X1270780Y90819D01*
X1268052Y77100D01*
X1270780Y63381D01*
X1278551Y51751D01*
X1290182Y43980D01*
X1303900Y41251D01*
X1317619Y43980D01*
X1329249Y51751D01*
X1337020Y63381D01*
X1339749Y77100D01*
X1337020Y90819D01*
X1329249Y102449D01*
X1317619Y110220D01*
X1303900Y112949D01*
D02*
G37*
G36*
X1494400Y35849D02*
X1480682Y33120D01*
X1469051Y25349D01*
X1461280Y13719D01*
X1458552Y0D01*
X1461280Y-13719D01*
X1469051Y-25349D01*
X1480682Y-33120D01*
X1494400Y-35849D01*
X1508119Y-33120D01*
X1519749Y-25349D01*
X1527520Y-13719D01*
X1530249Y0D01*
X1527520Y13719D01*
X1519749Y25349D01*
X1508119Y33120D01*
X1494400Y35849D01*
D02*
G37*
G36*
X-436400Y35749D02*
X-450118Y33020D01*
X-461749Y25249D01*
X-469520Y13619D01*
X-472248Y-100D01*
X-469520Y-13819D01*
X-461749Y-25449D01*
X-450118Y-33220D01*
X-436400Y-35949D01*
X-422681Y-33220D01*
X-411051Y-25449D01*
X-403280Y-13819D01*
X-400551Y-100D01*
X-403280Y13619D01*
X-411051Y25249D01*
X-422681Y33020D01*
X-436400Y35749D01*
D02*
G37*
G36*
X1160000Y40947D02*
X1144330Y37830D01*
X1131047Y28954D01*
X1122170Y15670D01*
X1119053Y0D01*
X1122170Y-15670D01*
X1131047Y-28954D01*
X1144330Y-37830D01*
X1160000Y-40947D01*
X1175670Y-37830D01*
X1188954Y-28954D01*
X1197830Y-15670D01*
X1200947Y0D01*
X1197830Y15670D01*
X1188954Y28954D01*
X1175670Y37830D01*
X1160000Y40947D01*
D02*
G37*
G36*
X0D02*
X-15670Y37830D01*
X-28954Y28954D01*
X-37830Y15670D01*
X-40947Y0D01*
X-37830Y-15670D01*
X-28954Y-28954D01*
X-15670Y-37830D01*
X0Y-40947D01*
X15670Y-37830D01*
X28954Y-28954D01*
X37830Y-15670D01*
X40947Y0D01*
X37830Y15670D01*
X28954Y28954D01*
X15670Y37830D01*
X0Y40947D01*
D02*
G37*
G36*
X155025Y-64226D02*
X141306Y-66955D01*
X129676Y-74726D01*
X121905Y-86356D01*
X119176Y-100075D01*
X121905Y-113794D01*
X129676Y-125424D01*
X141306Y-133195D01*
X155025Y-135924D01*
X168744Y-133195D01*
X180374Y-125424D01*
X188145Y-113794D01*
X190874Y-100075D01*
X188145Y-86356D01*
X180374Y-74726D01*
X168744Y-66955D01*
X155025Y-64226D01*
D02*
G37*
G36*
X1055025Y-409126D02*
X1041307Y-411855D01*
X1029676Y-419626D01*
X1021905Y-431256D01*
X1019177Y-444975D01*
X1021065Y-454468D01*
X1013967Y-463763D01*
X1011290Y-465473D01*
X1005025Y-464226D01*
X991306Y-466955D01*
X979676Y-474726D01*
X971905Y-486356D01*
X969176Y-500075D01*
X971905Y-513794D01*
X972010Y-513951D01*
X964079Y-524941D01*
X955000Y-523135D01*
X944768Y-525170D01*
X936839Y-515922D01*
X936372Y-514877D01*
X938145Y-512223D01*
X940874Y-498504D01*
X938145Y-484786D01*
X930374Y-473156D01*
X918744Y-465384D01*
X905025Y-462656D01*
X891306Y-465384D01*
X879676Y-473156D01*
X871905Y-484786D01*
X869176Y-498504D01*
X871905Y-512223D01*
X879676Y-523853D01*
X891306Y-531625D01*
X905025Y-534353D01*
X915257Y-532318D01*
X923186Y-541566D01*
X923653Y-542611D01*
X921880Y-545265D01*
X919151Y-558984D01*
X921880Y-572703D01*
X929651Y-584333D01*
X941281Y-592104D01*
X955000Y-594833D01*
X968719Y-592104D01*
X980349Y-584333D01*
X988120Y-572703D01*
X990849Y-558984D01*
X988120Y-545265D01*
X988015Y-545108D01*
X995946Y-534118D01*
X1005025Y-535924D01*
X1018744Y-533195D01*
X1030374Y-525424D01*
X1038145Y-513794D01*
X1040874Y-500075D01*
X1038985Y-490583D01*
X1046083Y-481287D01*
X1048760Y-479578D01*
X1055025Y-480824D01*
X1068744Y-478095D01*
X1080374Y-470324D01*
X1088145Y-458694D01*
X1090874Y-444975D01*
X1088145Y-431256D01*
X1080374Y-419626D01*
X1068744Y-411855D01*
X1055025Y-409126D01*
D02*
G37*
G36*
X-495300Y-456030D02*
X-509019Y-458759D01*
X-520649Y-466530D01*
X-528420Y-478160D01*
X-531149Y-491879D01*
X-528420Y-505597D01*
X-520649Y-517228D01*
X-509019Y-524999D01*
X-495300Y-527727D01*
X-481581Y-524999D01*
X-469951Y-517228D01*
X-462180Y-505597D01*
X-459451Y-491879D01*
X-462180Y-478160D01*
X-469951Y-466530D01*
X-481581Y-458759D01*
X-495300Y-456030D01*
D02*
G37*
G36*
X205000Y-496626D02*
X191281Y-499355D01*
X179651Y-507126D01*
X171880Y-518756D01*
X169151Y-532475D01*
X171880Y-546194D01*
X179651Y-557824D01*
X191281Y-565595D01*
X205000Y-568324D01*
X218719Y-565595D01*
X230349Y-557824D01*
X238120Y-546194D01*
X240849Y-532475D01*
X238120Y-518756D01*
X230349Y-507126D01*
X218719Y-499355D01*
X205000Y-496626D01*
D02*
G37*
G36*
X-563400Y-560051D02*
X-577119Y-562780D01*
X-588749Y-570551D01*
X-596520Y-582181D01*
X-599249Y-595900D01*
X-596520Y-609619D01*
X-588749Y-621249D01*
X-577119Y-629020D01*
X-563400Y-631749D01*
X-549681Y-629020D01*
X-538051Y-621249D01*
X-530280Y-609619D01*
X-527551Y-595900D01*
X-530280Y-582181D01*
X-538051Y-570551D01*
X-549681Y-562780D01*
X-563400Y-560051D01*
D02*
G37*
G36*
X1430700Y-620851D02*
X1416981Y-623580D01*
X1405351Y-631351D01*
X1397580Y-642981D01*
X1394851Y-656700D01*
X1397580Y-670419D01*
X1405351Y-682049D01*
X1416981Y-689820D01*
X1430700Y-692549D01*
X1444419Y-689820D01*
X1456049Y-682049D01*
X1463820Y-670419D01*
X1466549Y-656700D01*
X1463820Y-642981D01*
X1456049Y-631351D01*
X1444419Y-623580D01*
X1430700Y-620851D01*
D02*
G37*
G36*
X455000Y-623651D02*
X441282Y-626380D01*
X429651Y-634151D01*
X421880Y-645781D01*
X419152Y-659500D01*
X421880Y-673219D01*
X429651Y-684849D01*
X441282Y-692620D01*
X455000Y-695349D01*
X468719Y-692620D01*
X480349Y-684849D01*
X488120Y-673219D01*
X490849Y-659500D01*
X488120Y-645781D01*
X480349Y-634151D01*
X468719Y-626380D01*
X455000Y-623651D01*
D02*
G37*
G36*
X2129000Y-674451D02*
X2115281Y-677180D01*
X2103651Y-684951D01*
X2095880Y-696581D01*
X2093151Y-710300D01*
X2095880Y-724019D01*
X2103651Y-735649D01*
X2115281Y-743420D01*
X2129000Y-746149D01*
X2142719Y-743420D01*
X2154349Y-735649D01*
X2162120Y-724019D01*
X2164849Y-710300D01*
X2162120Y-696581D01*
X2154349Y-684951D01*
X2142719Y-677180D01*
X2129000Y-674451D01*
D02*
G37*
G36*
X555000D02*
X541281Y-677180D01*
X529651Y-684951D01*
X521880Y-696581D01*
X519151Y-710300D01*
X521880Y-724019D01*
X529651Y-735649D01*
X541281Y-743420D01*
X555000Y-746149D01*
X568719Y-743420D01*
X580349Y-735649D01*
X588120Y-724019D01*
X590849Y-710300D01*
X588120Y-696581D01*
X580349Y-684951D01*
X568719Y-677180D01*
X555000Y-674451D01*
D02*
G37*
G36*
X1430500Y-725226D02*
X1416781Y-727955D01*
X1405151Y-735726D01*
X1397380Y-747356D01*
X1394651Y-761075D01*
X1397380Y-774794D01*
X1405151Y-786424D01*
X1416781Y-794195D01*
X1430500Y-796924D01*
X1444219Y-794195D01*
X1455849Y-786424D01*
X1463620Y-774794D01*
X1466349Y-761075D01*
X1463620Y-747356D01*
X1455849Y-735726D01*
X1444219Y-727955D01*
X1430500Y-725226D01*
D02*
G37*
G36*
X-1170400Y-738751D02*
X-1184119Y-741479D01*
X-1195749Y-749250D01*
X-1203520Y-760881D01*
X-1206249Y-774599D01*
X-1203520Y-788318D01*
X-1195749Y-799948D01*
X-1184119Y-807719D01*
X-1170400Y-810448D01*
X-1156681Y-807719D01*
X-1145051Y-799948D01*
X-1137280Y-788318D01*
X-1134551Y-774599D01*
X-1137280Y-760881D01*
X-1145051Y-749250D01*
X-1156681Y-741479D01*
X-1170400Y-738751D01*
D02*
G37*
G36*
X505000Y-748276D02*
X491281Y-751005D01*
X479651Y-758776D01*
X471880Y-770406D01*
X469151Y-784125D01*
X471880Y-797844D01*
X479651Y-809474D01*
X491281Y-817245D01*
X505000Y-819974D01*
X518719Y-817245D01*
X530349Y-809474D01*
X538120Y-797844D01*
X540849Y-784125D01*
X538120Y-770406D01*
X530349Y-758776D01*
X518719Y-751005D01*
X505000Y-748276D01*
D02*
G37*
G36*
X3919700Y-763351D02*
X3905981Y-766080D01*
X3894351Y-773851D01*
X3886580Y-785481D01*
X3883851Y-799200D01*
X3886580Y-812919D01*
X3894351Y-824549D01*
X3905981Y-832320D01*
X3919700Y-835049D01*
X3933419Y-832320D01*
X3945049Y-824549D01*
X3952820Y-812919D01*
X3955549Y-799200D01*
X3952820Y-785481D01*
X3945049Y-773851D01*
X3933419Y-766080D01*
X3919700Y-763351D01*
D02*
G37*
G36*
X3830800D02*
X3817081Y-766080D01*
X3805451Y-773851D01*
X3797680Y-785481D01*
X3794951Y-799200D01*
X3797680Y-812919D01*
X3805451Y-824549D01*
X3817081Y-832320D01*
X3830800Y-835049D01*
X3844519Y-832320D01*
X3856149Y-824549D01*
X3863920Y-812919D01*
X3866649Y-799200D01*
X3863920Y-785481D01*
X3856149Y-773851D01*
X3844519Y-766080D01*
X3830800Y-763351D01*
D02*
G37*
G36*
X3741900D02*
X3728181Y-766080D01*
X3716551Y-773851D01*
X3708780Y-785481D01*
X3706051Y-799200D01*
X3708780Y-812919D01*
X3716551Y-824549D01*
X3728181Y-832320D01*
X3741900Y-835049D01*
X3755619Y-832320D01*
X3767249Y-824549D01*
X3775020Y-812919D01*
X3777749Y-799200D01*
X3775020Y-785481D01*
X3767249Y-773851D01*
X3755619Y-766080D01*
X3741900Y-763351D01*
D02*
G37*
G36*
X3653000D02*
X3639281Y-766080D01*
X3627651Y-773851D01*
X3619880Y-785481D01*
X3617151Y-799200D01*
X3619880Y-812919D01*
X3627651Y-824549D01*
X3639281Y-832320D01*
X3653000Y-835049D01*
X3666719Y-832320D01*
X3678349Y-824549D01*
X3686120Y-812919D01*
X3688849Y-799200D01*
X3686120Y-785481D01*
X3678349Y-773851D01*
X3666719Y-766080D01*
X3653000Y-763351D01*
D02*
G37*
G36*
X3564100D02*
X3550381Y-766080D01*
X3538751Y-773851D01*
X3530980Y-785481D01*
X3528251Y-799200D01*
X3530980Y-812919D01*
X3538751Y-824549D01*
X3550381Y-832320D01*
X3564100Y-835049D01*
X3577819Y-832320D01*
X3589449Y-824549D01*
X3597220Y-812919D01*
X3599949Y-799200D01*
X3597220Y-785481D01*
X3589449Y-773851D01*
X3577819Y-766080D01*
X3564100Y-763351D01*
D02*
G37*
G36*
X3475200D02*
X3461481Y-766080D01*
X3449851Y-773851D01*
X3442080Y-785481D01*
X3439351Y-799200D01*
X3442080Y-812919D01*
X3449851Y-824549D01*
X3461481Y-832320D01*
X3475200Y-835049D01*
X3488919Y-832320D01*
X3500549Y-824549D01*
X3508320Y-812919D01*
X3511049Y-799200D01*
X3508320Y-785481D01*
X3500549Y-773851D01*
X3488919Y-766080D01*
X3475200Y-763351D01*
D02*
G37*
G36*
X-969300Y-773250D02*
X-983019Y-775979D01*
X-994649Y-783750D01*
X-1002420Y-795380D01*
X-1005149Y-809099D01*
X-1002420Y-822818D01*
X-994649Y-834448D01*
X-983019Y-842219D01*
X-969300Y-844948D01*
X-955581Y-842219D01*
X-943951Y-834448D01*
X-936180Y-822818D01*
X-933451Y-809099D01*
X-936180Y-795380D01*
X-943951Y-783750D01*
X-955581Y-775979D01*
X-969300Y-773250D01*
D02*
G37*
G36*
X-1269300Y-773251D02*
X-1283019Y-775979D01*
X-1294649Y-783751D01*
X-1302420Y-795381D01*
X-1305149Y-809099D01*
X-1302420Y-822818D01*
X-1294649Y-834448D01*
X-1283019Y-842220D01*
X-1269300Y-844948D01*
X-1255581Y-842220D01*
X-1243951Y-834448D01*
X-1236180Y-822818D01*
X-1233451Y-809099D01*
X-1236180Y-795381D01*
X-1243951Y-783751D01*
X-1255581Y-775979D01*
X-1269300Y-773251D01*
D02*
G37*
G36*
X3919700Y-850851D02*
X3905981Y-853580D01*
X3894351Y-861351D01*
X3886580Y-872981D01*
X3883851Y-886700D01*
X3886580Y-900419D01*
X3894351Y-912049D01*
X3905981Y-919820D01*
X3919700Y-922549D01*
X3933419Y-919820D01*
X3945049Y-912049D01*
X3952820Y-900419D01*
X3955549Y-886700D01*
X3952820Y-872981D01*
X3945049Y-861351D01*
X3933419Y-853580D01*
X3919700Y-850851D01*
D02*
G37*
G36*
X3830800D02*
X3817081Y-853580D01*
X3805451Y-861351D01*
X3797680Y-872981D01*
X3794951Y-886700D01*
X3797680Y-900419D01*
X3805451Y-912049D01*
X3817081Y-919820D01*
X3830800Y-922549D01*
X3844519Y-919820D01*
X3856149Y-912049D01*
X3863920Y-900419D01*
X3866649Y-886700D01*
X3863920Y-872981D01*
X3856149Y-861351D01*
X3844519Y-853580D01*
X3830800Y-850851D01*
D02*
G37*
G36*
X3741900D02*
X3728181Y-853580D01*
X3716551Y-861351D01*
X3708780Y-872981D01*
X3706051Y-886700D01*
X3708780Y-900419D01*
X3716551Y-912049D01*
X3728181Y-919820D01*
X3741900Y-922549D01*
X3755619Y-919820D01*
X3767249Y-912049D01*
X3775020Y-900419D01*
X3777749Y-886700D01*
X3775020Y-872981D01*
X3767249Y-861351D01*
X3755619Y-853580D01*
X3741900Y-850851D01*
D02*
G37*
G36*
X3653000D02*
X3639281Y-853580D01*
X3627651Y-861351D01*
X3619880Y-872981D01*
X3617151Y-886700D01*
X3619880Y-900419D01*
X3627651Y-912049D01*
X3639281Y-919820D01*
X3653000Y-922549D01*
X3666719Y-919820D01*
X3678349Y-912049D01*
X3686120Y-900419D01*
X3688849Y-886700D01*
X3686120Y-872981D01*
X3678349Y-861351D01*
X3666719Y-853580D01*
X3653000Y-850851D01*
D02*
G37*
G36*
X3564100D02*
X3550381Y-853580D01*
X3538751Y-861351D01*
X3530980Y-872981D01*
X3528251Y-886700D01*
X3530980Y-900419D01*
X3538751Y-912049D01*
X3550381Y-919820D01*
X3564100Y-922549D01*
X3577819Y-919820D01*
X3589449Y-912049D01*
X3597220Y-900419D01*
X3599949Y-886700D01*
X3597220Y-872981D01*
X3589449Y-861351D01*
X3577819Y-853580D01*
X3564100Y-850851D01*
D02*
G37*
G36*
X3475200D02*
X3461481Y-853580D01*
X3449851Y-861351D01*
X3442080Y-872981D01*
X3439351Y-886700D01*
X3442080Y-900419D01*
X3449851Y-912049D01*
X3461481Y-919820D01*
X3475200Y-922549D01*
X3488919Y-919820D01*
X3500549Y-912049D01*
X3508320Y-900419D01*
X3511049Y-886700D01*
X3508320Y-872981D01*
X3500549Y-861351D01*
X3488919Y-853580D01*
X3475200Y-850851D01*
D02*
G37*
G36*
X3919700Y-938151D02*
X3905981Y-940880D01*
X3894351Y-948651D01*
X3886580Y-960281D01*
X3883851Y-974000D01*
X3886580Y-987719D01*
X3894351Y-999349D01*
X3905981Y-1007120D01*
X3919700Y-1009849D01*
X3933419Y-1007120D01*
X3945049Y-999349D01*
X3952820Y-987719D01*
X3955549Y-974000D01*
X3952820Y-960281D01*
X3945049Y-948651D01*
X3933419Y-940880D01*
X3919700Y-938151D01*
D02*
G37*
G36*
X3830800D02*
X3817081Y-940880D01*
X3805451Y-948651D01*
X3797680Y-960281D01*
X3794951Y-974000D01*
X3797680Y-987719D01*
X3805451Y-999349D01*
X3817081Y-1007120D01*
X3830800Y-1009849D01*
X3844519Y-1007120D01*
X3856149Y-999349D01*
X3863920Y-987719D01*
X3866649Y-974000D01*
X3863920Y-960281D01*
X3856149Y-948651D01*
X3844519Y-940880D01*
X3830800Y-938151D01*
D02*
G37*
G36*
X3741900D02*
X3728181Y-940880D01*
X3716551Y-948651D01*
X3708780Y-960281D01*
X3706051Y-974000D01*
X3708780Y-987719D01*
X3716551Y-999349D01*
X3728181Y-1007120D01*
X3741900Y-1009849D01*
X3755619Y-1007120D01*
X3767249Y-999349D01*
X3775020Y-987719D01*
X3777749Y-974000D01*
X3775020Y-960281D01*
X3767249Y-948651D01*
X3755619Y-940880D01*
X3741900Y-938151D01*
D02*
G37*
G36*
X3653000D02*
X3639281Y-940880D01*
X3627651Y-948651D01*
X3619880Y-960281D01*
X3617151Y-974000D01*
X3619880Y-987719D01*
X3627651Y-999349D01*
X3639281Y-1007120D01*
X3653000Y-1009849D01*
X3666719Y-1007120D01*
X3678349Y-999349D01*
X3686120Y-987719D01*
X3688849Y-974000D01*
X3686120Y-960281D01*
X3678349Y-948651D01*
X3666719Y-940880D01*
X3653000Y-938151D01*
D02*
G37*
G36*
X3564100D02*
X3550381Y-940880D01*
X3538751Y-948651D01*
X3530980Y-960281D01*
X3528251Y-974000D01*
X3530980Y-987719D01*
X3538751Y-999349D01*
X3550381Y-1007120D01*
X3564100Y-1009849D01*
X3577819Y-1007120D01*
X3589449Y-999349D01*
X3597220Y-987719D01*
X3599949Y-974000D01*
X3597220Y-960281D01*
X3589449Y-948651D01*
X3577819Y-940880D01*
X3564100Y-938151D01*
D02*
G37*
G36*
X3475200D02*
X3461481Y-940880D01*
X3449851Y-948651D01*
X3442080Y-960281D01*
X3439351Y-974000D01*
X3442080Y-987719D01*
X3449851Y-999349D01*
X3461481Y-1007120D01*
X3475200Y-1009849D01*
X3488919Y-1007120D01*
X3500549Y-999349D01*
X3508320Y-987719D01*
X3511049Y-974000D01*
X3508320Y-960281D01*
X3500549Y-948651D01*
X3488919Y-940880D01*
X3475200Y-938151D01*
D02*
G37*
G36*
X3919700Y-1030051D02*
X3905981Y-1032780D01*
X3894351Y-1040551D01*
X3886580Y-1052181D01*
X3883851Y-1065900D01*
X3886580Y-1079619D01*
X3894351Y-1091249D01*
X3905981Y-1099020D01*
X3919700Y-1101749D01*
X3933419Y-1099020D01*
X3945049Y-1091249D01*
X3952820Y-1079619D01*
X3955549Y-1065900D01*
X3952820Y-1052181D01*
X3945049Y-1040551D01*
X3933419Y-1032780D01*
X3919700Y-1030051D01*
D02*
G37*
G36*
X3830800D02*
X3817081Y-1032780D01*
X3805451Y-1040551D01*
X3797680Y-1052181D01*
X3794951Y-1065900D01*
X3797680Y-1079619D01*
X3805451Y-1091249D01*
X3817081Y-1099020D01*
X3830800Y-1101749D01*
X3844519Y-1099020D01*
X3856149Y-1091249D01*
X3863920Y-1079619D01*
X3866649Y-1065900D01*
X3863920Y-1052181D01*
X3856149Y-1040551D01*
X3844519Y-1032780D01*
X3830800Y-1030051D01*
D02*
G37*
G36*
X3741900D02*
X3728181Y-1032780D01*
X3716551Y-1040551D01*
X3708780Y-1052181D01*
X3706051Y-1065900D01*
X3708780Y-1079619D01*
X3716551Y-1091249D01*
X3728181Y-1099020D01*
X3741900Y-1101749D01*
X3755619Y-1099020D01*
X3767249Y-1091249D01*
X3775020Y-1079619D01*
X3777749Y-1065900D01*
X3775020Y-1052181D01*
X3767249Y-1040551D01*
X3755619Y-1032780D01*
X3741900Y-1030051D01*
D02*
G37*
G36*
X3653000D02*
X3639281Y-1032780D01*
X3627651Y-1040551D01*
X3619880Y-1052181D01*
X3617151Y-1065900D01*
X3619880Y-1079619D01*
X3627651Y-1091249D01*
X3639281Y-1099020D01*
X3653000Y-1101749D01*
X3666719Y-1099020D01*
X3678349Y-1091249D01*
X3686120Y-1079619D01*
X3688849Y-1065900D01*
X3686120Y-1052181D01*
X3678349Y-1040551D01*
X3666719Y-1032780D01*
X3653000Y-1030051D01*
D02*
G37*
G36*
X3564100D02*
X3550381Y-1032780D01*
X3538751Y-1040551D01*
X3530980Y-1052181D01*
X3528251Y-1065900D01*
X3530980Y-1079619D01*
X3538751Y-1091249D01*
X3550381Y-1099020D01*
X3564100Y-1101749D01*
X3577819Y-1099020D01*
X3589449Y-1091249D01*
X3597220Y-1079619D01*
X3599949Y-1065900D01*
X3597220Y-1052181D01*
X3589449Y-1040551D01*
X3577819Y-1032780D01*
X3564100Y-1030051D01*
D02*
G37*
G36*
X3475200D02*
X3461481Y-1032780D01*
X3449851Y-1040551D01*
X3442080Y-1052181D01*
X3439351Y-1065900D01*
X3442080Y-1079619D01*
X3449851Y-1091249D01*
X3461481Y-1099020D01*
X3475200Y-1101749D01*
X3488919Y-1099020D01*
X3500549Y-1091249D01*
X3508320Y-1079619D01*
X3511049Y-1065900D01*
X3508320Y-1052181D01*
X3500549Y-1040551D01*
X3488919Y-1032780D01*
X3475200Y-1030051D01*
D02*
G37*
G36*
X-751732Y-1135226D02*
X-765451Y-1137955D01*
X-777081Y-1145726D01*
X-784852Y-1157356D01*
X-787581Y-1171075D01*
X-784852Y-1184794D01*
X-782142Y-1188850D01*
X-790492Y-1197699D01*
X-791184Y-1198178D01*
X-804700Y-1195489D01*
X-818419Y-1198218D01*
X-820583Y-1199664D01*
X-834695Y-1193819D01*
X-835080Y-1191881D01*
X-842851Y-1180251D01*
X-854481Y-1172480D01*
X-868200Y-1169751D01*
X-881919Y-1172480D01*
X-893549Y-1180251D01*
X-901320Y-1191881D01*
X-904049Y-1205600D01*
X-901320Y-1219319D01*
X-893549Y-1230949D01*
X-881919Y-1238720D01*
X-868200Y-1241449D01*
X-854481Y-1238720D01*
X-852317Y-1237274D01*
X-838205Y-1243119D01*
X-837820Y-1245057D01*
X-830049Y-1256687D01*
X-818419Y-1264458D01*
X-804700Y-1267187D01*
X-790981Y-1264458D01*
X-779351Y-1256687D01*
X-771580Y-1245057D01*
X-768851Y-1231338D01*
X-771580Y-1217619D01*
X-774290Y-1213563D01*
X-765940Y-1204714D01*
X-765248Y-1204235D01*
X-751732Y-1206924D01*
X-738013Y-1204195D01*
X-726383Y-1196424D01*
X-718612Y-1184794D01*
X-717281Y-1178100D01*
X-716992Y-1176654D01*
X-704045D01*
X-703756Y-1178104D01*
X-702420Y-1184819D01*
X-694649Y-1196449D01*
X-683019Y-1204220D01*
X-669300Y-1206949D01*
X-655581Y-1204220D01*
X-643951Y-1196449D01*
X-636180Y-1184819D01*
X-633451Y-1171100D01*
X-636180Y-1157381D01*
X-643951Y-1145751D01*
X-655581Y-1137980D01*
X-669300Y-1135251D01*
X-683019Y-1137980D01*
X-694649Y-1145751D01*
X-702420Y-1157381D01*
X-703751Y-1164075D01*
X-704039Y-1165521D01*
X-716987D01*
X-717276Y-1164071D01*
X-718612Y-1157356D01*
X-726383Y-1145726D01*
X-738013Y-1137955D01*
X-751732Y-1135226D01*
D02*
G37*
G36*
X1432162D02*
X1418443Y-1137955D01*
X1406813Y-1145726D01*
X1399042Y-1157356D01*
X1396313Y-1171075D01*
X1399042Y-1184794D01*
X1406813Y-1196424D01*
X1418443Y-1204195D01*
X1432162Y-1206924D01*
X1445881Y-1204195D01*
X1457511Y-1196424D01*
X1465282Y-1184794D01*
X1468011Y-1171075D01*
X1465282Y-1157356D01*
X1457511Y-1145726D01*
X1445881Y-1137955D01*
X1432162Y-1135226D01*
D02*
G37*
G36*
X655000Y-1135251D02*
X641281Y-1137980D01*
X629651Y-1145751D01*
X621880Y-1157381D01*
X619151Y-1171100D01*
X621880Y-1184819D01*
X629651Y-1196449D01*
X641281Y-1204220D01*
X655000Y-1206949D01*
X668719Y-1204220D01*
X680349Y-1196449D01*
X688120Y-1184819D01*
X690849Y-1171100D01*
X688120Y-1157381D01*
X680349Y-1145751D01*
X668719Y-1137980D01*
X655000Y-1135251D01*
D02*
G37*
G36*
X-1969300D02*
X-1983019Y-1137980D01*
X-1994649Y-1145751D01*
X-2002420Y-1157381D01*
X-2005149Y-1171100D01*
X-2002420Y-1184819D01*
X-1994649Y-1196449D01*
X-1983019Y-1204220D01*
X-1969300Y-1206949D01*
X-1955581Y-1204220D01*
X-1943951Y-1196449D01*
X-1936180Y-1184819D01*
X-1933451Y-1171100D01*
X-1936180Y-1157381D01*
X-1943951Y-1145751D01*
X-1955581Y-1137980D01*
X-1969300Y-1135251D01*
D02*
G37*
G36*
X-1869300Y-1135251D02*
X-1883019Y-1137980D01*
X-1894649Y-1145751D01*
X-1902420Y-1157381D01*
X-1905149Y-1171100D01*
X-1902420Y-1184819D01*
X-1894649Y-1196449D01*
X-1883019Y-1204220D01*
X-1869300Y-1206949D01*
X-1855581Y-1204220D01*
X-1843951Y-1196449D01*
X-1836180Y-1184819D01*
X-1833451Y-1171100D01*
X-1836180Y-1157381D01*
X-1843951Y-1145751D01*
X-1855581Y-1137980D01*
X-1869300Y-1135251D01*
D02*
G37*
G36*
X305000Y-1152626D02*
X291281Y-1155355D01*
X279651Y-1163126D01*
X271880Y-1174756D01*
X269151Y-1188475D01*
X271880Y-1202194D01*
X279651Y-1213824D01*
X291281Y-1221595D01*
X305000Y-1224324D01*
X318719Y-1221595D01*
X330349Y-1213824D01*
X338120Y-1202194D01*
X340849Y-1188475D01*
X338120Y-1174756D01*
X330349Y-1163126D01*
X318719Y-1155355D01*
X305000Y-1152626D01*
D02*
G37*
G36*
X1032200Y-1168626D02*
X1018481Y-1171355D01*
X1006851Y-1179126D01*
X999080Y-1190756D01*
X996351Y-1204475D01*
X999080Y-1218194D01*
X1006851Y-1229824D01*
X1018481Y-1237595D01*
X1032200Y-1240324D01*
X1045919Y-1237595D01*
X1057549Y-1229824D01*
X1065320Y-1218194D01*
X1068049Y-1204475D01*
X1065320Y-1190756D01*
X1057549Y-1179126D01*
X1045919Y-1171355D01*
X1032200Y-1168626D01*
D02*
G37*
G36*
X705000Y-1245901D02*
X691282Y-1248630D01*
X679651Y-1256401D01*
X671880Y-1268032D01*
X669152Y-1281750D01*
X671880Y-1295469D01*
X679651Y-1307099D01*
X691282Y-1314870D01*
X705000Y-1317599D01*
X718719Y-1314870D01*
X730349Y-1307099D01*
X738120Y-1295469D01*
X740849Y-1281750D01*
X738120Y-1268032D01*
X730349Y-1256401D01*
X718719Y-1248630D01*
X705000Y-1245901D01*
D02*
G37*
G36*
X805025Y-1245926D02*
X791306Y-1248655D01*
X779676Y-1256426D01*
X771905Y-1268056D01*
X769176Y-1281775D01*
X771905Y-1295494D01*
X779676Y-1307124D01*
X791306Y-1314895D01*
X805025Y-1317624D01*
X818744Y-1314895D01*
X830374Y-1307124D01*
X838145Y-1295494D01*
X840874Y-1281775D01*
X838145Y-1268056D01*
X830374Y-1256426D01*
X818744Y-1248655D01*
X805025Y-1245926D01*
D02*
G37*
G36*
X755013Y-1347526D02*
X741294Y-1350255D01*
X729664Y-1358026D01*
X721893Y-1369656D01*
X719164Y-1383375D01*
X721893Y-1397094D01*
X729664Y-1408724D01*
X741294Y-1416495D01*
X755013Y-1419224D01*
X768732Y-1416495D01*
X780362Y-1408724D01*
X788133Y-1397094D01*
X790862Y-1383375D01*
X788133Y-1369656D01*
X780362Y-1358026D01*
X768732Y-1350255D01*
X755013Y-1347526D01*
D02*
G37*
G36*
X-601463Y-1398326D02*
X-615181Y-1401055D01*
X-626812Y-1408826D01*
X-634583Y-1420456D01*
X-637311Y-1434175D01*
X-634583Y-1447894D01*
X-626812Y-1459524D01*
X-615181Y-1467295D01*
X-601463Y-1470024D01*
X-587744Y-1467295D01*
X-576114Y-1459524D01*
X-568343Y-1447894D01*
X-565614Y-1434175D01*
X-568343Y-1420456D01*
X-576114Y-1408826D01*
X-587744Y-1401055D01*
X-601463Y-1398326D01*
D02*
G37*
G36*
X355000Y-1461851D02*
X341281Y-1464580D01*
X329651Y-1472351D01*
X321880Y-1483981D01*
X319151Y-1497700D01*
X321880Y-1511419D01*
X329651Y-1523049D01*
X341281Y-1530820D01*
X355000Y-1533549D01*
X367588Y-1531045D01*
X370641Y-1533512D01*
X376104Y-1541160D01*
X371880Y-1547481D01*
X369151Y-1561200D01*
X371880Y-1574919D01*
X379651Y-1586549D01*
X391281Y-1594320D01*
X405000Y-1597049D01*
X418719Y-1594320D01*
X430349Y-1586549D01*
X438120Y-1574919D01*
X440849Y-1561200D01*
X438120Y-1547481D01*
X430349Y-1535851D01*
X418719Y-1528080D01*
X405000Y-1525351D01*
X392412Y-1527855D01*
X389359Y-1525388D01*
X383896Y-1517740D01*
X388120Y-1511419D01*
X390849Y-1497700D01*
X388120Y-1483981D01*
X380349Y-1472351D01*
X368719Y-1464580D01*
X355000Y-1461851D01*
D02*
G37*
%LPD*%
D19*
X3760000Y1765000D02*
D03*
X-3035000D02*
D03*
D20*
X3449800Y4484000D02*
D03*
X3399000Y4420500D02*
D03*
X3487900D02*
D03*
X3322800D02*
D03*
X3246600D02*
D03*
X3208580Y4484000D02*
D03*
X3564100Y4420500D02*
D03*
X3538700Y4484000D02*
D03*
X3280800D02*
D03*
X3360900D02*
D03*
X3767300Y4421900D02*
D03*
X3856200D02*
D03*
X4034000D02*
D03*
X3945100D02*
D03*
X4211800D02*
D03*
X4122900D02*
D03*
Y4330000D02*
D03*
X4211800D02*
D03*
X3945100D02*
D03*
X4034000D02*
D03*
X3856200D02*
D03*
X3767300D02*
D03*
X4122900Y4242700D02*
D03*
X4211800D02*
D03*
X3945100D02*
D03*
X4034000D02*
D03*
X3856200D02*
D03*
X3767300D02*
D03*
X4122900Y4155200D02*
D03*
X4211800D02*
D03*
X3945100D02*
D03*
X4034000D02*
D03*
X3856200D02*
D03*
X3767300D02*
D03*
Y3976000D02*
D03*
X3856200D02*
D03*
X4034000D02*
D03*
X3945100D02*
D03*
X4211800D02*
D03*
X4122900D02*
D03*
Y4067900D02*
D03*
X4211800D02*
D03*
X3945100D02*
D03*
X4034000D02*
D03*
X3856200D02*
D03*
X3767300D02*
D03*
X-3192300Y-1535800D02*
D03*
X-3154200Y4966600D02*
D03*
X4148300Y4992000D02*
D03*
X4084800Y4928500D02*
D03*
X4199100D02*
D03*
X4084800Y5055500D02*
D03*
X4199100D02*
D03*
X706600Y3898500D02*
D03*
X255000Y-216400D02*
D03*
Y-445000D02*
D03*
X605000Y-221089D02*
D03*
X855000Y-444950D02*
D03*
Y-216400D02*
D03*
X805000Y-76650D02*
D03*
X1709900Y4712600D02*
D03*
X1646400Y4711200D02*
D03*
X354976Y3480725D02*
D03*
X304975Y3556925D02*
D03*
X454950Y3556900D02*
D03*
X4950D02*
D03*
X-45050Y3480700D02*
D03*
X-95050Y3556900D02*
D03*
X854951Y1334400D02*
D03*
X1005000Y1143900D02*
D03*
X-868200Y-1205600D02*
D03*
X-969300Y-809099D02*
D03*
X505000Y-784125D02*
D03*
X-669300Y-1171100D02*
D03*
X605000Y-444950D02*
D03*
X655000Y-1171100D02*
D03*
X-1170400Y-774599D02*
D03*
X555000Y-710300D02*
D03*
X-1269300Y-809099D02*
D03*
X455000Y-659500D02*
D03*
X-1869300Y-1171100D02*
D03*
X-1969300Y-1171100D02*
D03*
X355000Y-1497700D02*
D03*
X405000Y-1561200D02*
D03*
X105000Y470800D02*
D03*
X305000Y682743D02*
D03*
X255000Y612032D02*
D03*
X1430700Y-656700D02*
D03*
X2129000Y-710300D02*
D03*
X-227819Y399900D02*
D03*
X1104950Y3898500D02*
D03*
X1154950Y4146436D02*
D03*
X1204950Y4186820D02*
D03*
X1254950Y4146436D02*
D03*
X305000Y4186820D02*
D03*
X-495300Y3836300D02*
D03*
Y-491879D02*
D03*
X-561679Y3734800D02*
D03*
X-563400Y-595900D02*
D03*
X-1869300Y4000000D02*
D03*
X254950Y4146436D02*
D03*
X122400Y3493500D02*
D03*
X-1795300Y3554289D02*
D03*
X455000Y341422D02*
D03*
X505000Y216900D02*
D03*
X705000D02*
D03*
X957660Y3554189D02*
D03*
X1007660Y3477989D02*
D03*
X854951Y3480700D02*
D03*
X804950Y3556900D02*
D03*
X754950Y3480700D02*
D03*
X704950Y3556900D02*
D03*
X204950Y3480700D02*
D03*
X154950Y3556900D02*
D03*
X2631100Y470611D02*
D03*
X2531101Y470800D02*
D03*
X2431100D02*
D03*
X2331100D02*
D03*
X2921400Y3299900D02*
D03*
X2831250Y3366150D02*
D03*
X2767694Y3437714D02*
D03*
X2688200Y3499900D02*
D03*
X1494400Y0D02*
D03*
X2612000Y3099700D02*
D03*
X2535800Y3036395D02*
D03*
X205350Y4211776D02*
D03*
X1303900Y77100D02*
D03*
X2383400Y3201300D02*
D03*
X2307200Y3366300D02*
D03*
X1055350Y4173999D02*
D03*
X958060Y4211776D02*
D03*
X97400Y4738000D02*
D03*
X331101Y4732900D02*
D03*
X199000Y4992000D02*
D03*
X1305350Y4186820D02*
D03*
X-2671600Y1099900D02*
D03*
X-2608100D02*
D03*
X-2544600D02*
D03*
X-2465450D02*
D03*
X2687800Y4731750D02*
D03*
X3475200Y-974000D02*
D03*
X3564100D02*
D03*
X3741900D02*
D03*
X3653000D02*
D03*
X3919700D02*
D03*
X3830800D02*
D03*
Y-1065900D02*
D03*
X3919700D02*
D03*
X3653000D02*
D03*
X3741900D02*
D03*
X3564100D02*
D03*
X3475200D02*
D03*
Y-886700D02*
D03*
X3564100D02*
D03*
X3741900D02*
D03*
X3653000D02*
D03*
X3919700D02*
D03*
X3830800D02*
D03*
X3475200Y-799200D02*
D03*
X3564100D02*
D03*
X3741900D02*
D03*
X3653000D02*
D03*
X3919700D02*
D03*
X3830800D02*
D03*
X1532100Y-761100D02*
D03*
X2129000Y4153800D02*
D03*
X2217900D02*
D03*
X1951200D02*
D03*
X2040100D02*
D03*
X1862300D02*
D03*
X1773400D02*
D03*
X2129000Y4066300D02*
D03*
X2217900D02*
D03*
X1951200D02*
D03*
X2040100D02*
D03*
X1862300D02*
D03*
X1773400D02*
D03*
Y3887100D02*
D03*
X1862300D02*
D03*
X2040100D02*
D03*
X1951200D02*
D03*
X2217900D02*
D03*
X2129000D02*
D03*
Y3979000D02*
D03*
X2217900D02*
D03*
X1951200D02*
D03*
X2040100D02*
D03*
X1862300D02*
D03*
X1773400D02*
D03*
X2951000Y5023100D02*
D03*
X755000Y928000D02*
D03*
X505000Y851800D02*
D03*
X604950Y799850D02*
D03*
X605000Y341522D02*
D03*
X655000Y737500D02*
D03*
X2065500Y4755670D02*
D03*
Y4815830D02*
D03*
X354950Y4146436D02*
D03*
X755084Y4261666D02*
D03*
X804975Y4302625D02*
D03*
X-2681275Y4318925D02*
D03*
X-2811271Y4411285D02*
D03*
X-2876275Y4458625D02*
D03*
X-1434300Y2799900D02*
D03*
X-1366800Y2899900D02*
D03*
X-1434275Y3023525D02*
D03*
X-1369275Y3074325D02*
D03*
X-1304275Y4119014D02*
D03*
X404975Y999925D02*
D03*
X2179825Y1080425D02*
D03*
X2730725Y199925D02*
D03*
X155025Y-100075D02*
D03*
X1557900Y267600D02*
D03*
X155025Y186345D02*
D03*
X1432125Y341347D02*
D03*
X1432137Y470623D02*
D03*
X955000Y-558984D02*
D03*
X905025Y-498504D02*
D03*
X1432162Y-1171075D02*
D03*
X805025Y-1281775D02*
D03*
X-1869275Y599925D02*
D03*
X-436400Y-100D02*
D03*
X-436375Y107692D02*
D03*
X1055025Y-444975D02*
D03*
X1005025Y-500075D02*
D03*
X-1369275Y2199925D02*
D03*
X-1434287Y2299913D02*
D03*
X2395700Y1029625D02*
D03*
X-1499300Y1099925D02*
D03*
X-1434275Y1157565D02*
D03*
X905000Y1207425D02*
D03*
X955000Y1254117D02*
D03*
X-1369304Y1426021D02*
D03*
X-1795300Y3459135D02*
D03*
X-1922300Y2399925D02*
D03*
Y899925D02*
D03*
X-1998500Y1207425D02*
D03*
Y2099925D02*
D03*
X1430500Y-761075D02*
D03*
X205000Y-532475D02*
D03*
X705000Y-1281750D02*
D03*
X305000Y-1188475D02*
D03*
X1032200Y-1204475D02*
D03*
X-639112Y699937D02*
D03*
X-639500Y4042575D02*
D03*
X-703100Y299925D02*
D03*
Y3683925D02*
D03*
X-751732Y-1171075D02*
D03*
X-804700Y-1231338D02*
D03*
X-2616288Y3799925D02*
D03*
X-1571294Y1150931D02*
D03*
X404975Y4211801D02*
D03*
X155350Y4268100D02*
D03*
X-1239275Y4169925D02*
D03*
X605000Y4211801D02*
D03*
X704975Y4211825D02*
D03*
X654975Y4159156D02*
D03*
X554950Y4159131D02*
D03*
X-2500287Y3072325D02*
D03*
X-1174287Y2499925D02*
D03*
X755013Y-1383375D02*
D03*
X-1174287Y3353725D02*
D03*
X-783187Y3351185D02*
D03*
X-601463Y-1434175D02*
D03*
X-1641800Y2138725D02*
D03*
X-607417Y199900D02*
D03*
X-2746275Y4369725D02*
D03*
X1831431Y-1269831D02*
D03*
X-2440312Y1799937D02*
D03*
Y1599938D02*
D03*
X-2516237Y1499913D02*
D03*
X-2530881Y1711632D02*
D03*
%TF.MD5,580BC86FD26B18F68F314F0891EB6886*%
M02*
