G04 Layer_Color=65535*
%FSLAX45Y45*%
%MOMM*%
%TF.FileFunction,Legend,Top*%
%TF.Part,Single*%
G01*
G75*
%TA.AperFunction,NonConductor*%
%ADD37C,0.60000*%
%ADD38C,0.30000*%
%ADD39C,0.15000*%
D37*
X-2094402Y-891700D02*
G03*
X-2094402Y-891700I-28398J0D01*
G01*
D38*
X-2249800Y-1044100D02*
X-2072000D01*
X-2249800Y-802800D02*
X-2249800Y-1044100D01*
X3211201Y4302600D02*
Y4543900D01*
X3033401D02*
X3211201D01*
X-2249800Y4302600D02*
Y4543900D01*
X-2072000D01*
X3211201Y-1044100D02*
Y-802800D01*
X3033401Y-1044100D02*
X3211201D01*
D39*
X2694489Y4969668D02*
Y5049642D01*
X2721147Y5022984D01*
X2747806Y5049642D01*
Y4969668D01*
X2814451Y5049642D02*
X2787793D01*
X2774464Y5036313D01*
Y4982997D01*
X2787793Y4969668D01*
X2814451D01*
X2827780Y4982997D01*
Y5036313D01*
X2814451Y5049642D01*
X2854438D02*
Y4969668D01*
X2894425D01*
X2907754Y4982997D01*
Y5036313D01*
X2894425Y5049642D01*
X2854438D01*
X3014386D02*
Y4969668D01*
X3054373D01*
X3067702Y4982997D01*
Y5036313D01*
X3054373Y5049642D01*
X3014386D01*
X3134348Y4969668D02*
X3107689D01*
X3094360Y4982997D01*
Y5009655D01*
X3107689Y5022984D01*
X3134348D01*
X3147676Y5009655D01*
Y4996326D01*
X3094360D01*
X3174335Y5022984D02*
X3200993Y4969668D01*
X3227651Y5022984D01*
X3254309Y4969668D02*
X3280967D01*
X3267638D01*
Y5022984D01*
X3254309D01*
X3374270D02*
X3334283D01*
X3320954Y5009655D01*
Y4982997D01*
X3334283Y4969668D01*
X3374270D01*
X3440915D02*
X3414257D01*
X3400928Y4982997D01*
Y5009655D01*
X3414257Y5022984D01*
X3440915D01*
X3454244Y5009655D01*
Y4996326D01*
X3400928D01*
X3480902Y4969668D02*
X3520890D01*
X3534218Y4982997D01*
X3520890Y4996326D01*
X3494232D01*
X3480902Y5009655D01*
X3494232Y5022984D01*
X3534218D01*
X3694167Y5036313D02*
X3680838Y5049642D01*
X3654180D01*
X3640851Y5036313D01*
Y4982997D01*
X3654180Y4969668D01*
X3680838D01*
X3694167Y4982997D01*
Y5009655D01*
X3667509D01*
X3720825Y4969668D02*
Y5022984D01*
X3734154D01*
X3747483Y5009655D01*
Y4969668D01*
Y5009655D01*
X3760812Y5022984D01*
X3774141Y5009655D01*
Y4969668D01*
X3800799Y5049642D02*
Y4969668D01*
X3840786D01*
X3854115Y4982997D01*
Y4996326D01*
Y5009655D01*
X3840786Y5022984D01*
X3800799D01*
X3880773Y5049642D02*
Y4969668D01*
Y5009655D01*
X3934089D01*
Y5049642D01*
Y4969668D01*
X2694489Y4917674D02*
Y4837700D01*
Y4877687D01*
X2707819Y4891016D01*
X2734477D01*
X2747806Y4877687D01*
Y4837700D01*
X2787793Y4904345D02*
Y4891016D01*
X2774464D01*
X2801122D01*
X2787793D01*
Y4851029D01*
X2801122Y4837700D01*
X2854438Y4904345D02*
Y4891016D01*
X2841109D01*
X2867767D01*
X2854438D01*
Y4851029D01*
X2867767Y4837700D01*
X2907754Y4811042D02*
Y4891016D01*
X2947741D01*
X2961070Y4877687D01*
Y4851029D01*
X2947741Y4837700D01*
X2907754D01*
X2987728Y4891016D02*
X3001057D01*
Y4877687D01*
X2987728D01*
Y4891016D01*
Y4851029D02*
X3001057D01*
Y4837700D01*
X2987728D01*
Y4851029D01*
X3054374Y4837700D02*
X3107690Y4891016D01*
X3134348Y4837700D02*
Y4891016D01*
X3147677D01*
X3161006Y4877687D01*
Y4837700D01*
Y4877687D01*
X3174335Y4891016D01*
X3187664Y4877687D01*
Y4837700D01*
X3227651D02*
X3254309D01*
X3267638Y4851029D01*
Y4877687D01*
X3254309Y4891016D01*
X3227651D01*
X3214322Y4877687D01*
Y4851029D01*
X3227651Y4837700D01*
X3347612Y4917674D02*
Y4837700D01*
X3307625D01*
X3294296Y4851029D01*
Y4877687D01*
X3307625Y4891016D01*
X3347612D01*
X3427586Y4917674D02*
Y4837700D01*
X3387600D01*
X3374270Y4851029D01*
Y4877687D01*
X3387600Y4891016D01*
X3427586D01*
X3494232Y4837700D02*
X3467574D01*
X3454245Y4851029D01*
Y4877687D01*
X3467574Y4891016D01*
X3494232D01*
X3507561Y4877687D01*
Y4864358D01*
X3454245D01*
X3534219Y4891016D02*
X3560877Y4837700D01*
X3587535Y4891016D01*
X3614193Y4837700D02*
X3640851D01*
X3627522D01*
Y4891016D01*
X3614193D01*
X3734154D02*
X3694167D01*
X3680838Y4877687D01*
Y4851029D01*
X3694167Y4837700D01*
X3734154D01*
X3800800D02*
X3774142D01*
X3760812Y4851029D01*
Y4877687D01*
X3774142Y4891016D01*
X3800800D01*
X3814129Y4877687D01*
Y4864358D01*
X3760812D01*
X3840787Y4837700D02*
X3880774D01*
X3894103Y4851029D01*
X3880774Y4864358D01*
X3854116D01*
X3840787Y4877687D01*
X3854116Y4891016D01*
X3894103D01*
X3920761Y4837700D02*
Y4851029D01*
X3934090D01*
Y4837700D01*
X3920761D01*
X4040722Y4891016D02*
X4000735D01*
X3987406Y4877687D01*
Y4851029D01*
X4000735Y4837700D01*
X4040722D01*
X4080709D02*
X4107367D01*
X4120696Y4851029D01*
Y4877687D01*
X4107367Y4891016D01*
X4080709D01*
X4067380Y4877687D01*
Y4851029D01*
X4080709Y4837700D01*
X4147354D02*
Y4891016D01*
X4160684D01*
X4174012Y4877687D01*
Y4837700D01*
Y4877687D01*
X4187342Y4891016D01*
X4200671Y4877687D01*
Y4837700D01*
X-3183102Y4962733D02*
X-3209760D01*
Y5042707D01*
X-3183102D01*
X-3143115D02*
Y4962733D01*
X-3103128D01*
X-3089799Y4976062D01*
Y5029378D01*
X-3103128Y5042707D01*
X-3143115D01*
X-3063141D02*
X-3009825Y4962733D01*
Y5042707D02*
X-3063141Y4962733D01*
X-2983167Y5002720D02*
X-2929851D01*
X-2849876Y5042707D02*
X-2903193D01*
Y4962733D01*
X-2849876D01*
X-2903193Y5002720D02*
X-2876535D01*
X-2823218Y5042707D02*
Y4962733D01*
X-2769902D01*
X-2689928Y5042707D02*
X-2743244D01*
Y4962733D01*
X-2689928D01*
X-2743244Y5002720D02*
X-2716586D01*
X-2663270D02*
X-2609954D01*
X-2583296Y5029378D02*
X-2569967Y5042707D01*
X-2543309D01*
X-2529980Y5029378D01*
Y4976062D01*
X-2543309Y4962733D01*
X-2569967D01*
X-2583296Y4976062D01*
Y5029378D01*
X-2503322D02*
X-2489992Y5042707D01*
X-2463334D01*
X-2450006Y5029378D01*
Y4976062D01*
X-2463334Y4962733D01*
X-2489992D01*
X-2503322Y4976062D01*
Y5029378D01*
X-2423347D02*
X-2410018Y5042707D01*
X-2383360D01*
X-2370031Y5029378D01*
Y5016049D01*
X-2383360Y5002720D01*
X-2396689D01*
X-2383360D01*
X-2370031Y4989391D01*
Y4976062D01*
X-2383360Y4962733D01*
X-2410018D01*
X-2423347Y4976062D01*
X-2343373Y4962733D02*
X-2316715D01*
Y5042707D01*
X-2343373D01*
X-3209760Y4830765D02*
Y4884081D01*
X-3183102Y4910739D01*
X-3156444Y4884081D01*
Y4830765D01*
Y4870752D01*
X-3209760D01*
X-3076470Y4910739D02*
Y4830765D01*
X-3116457D01*
X-3129786Y4844094D01*
Y4870752D01*
X-3116457Y4884081D01*
X-3076470D01*
X-3036483D02*
X-3009825D01*
X-2996496Y4870752D01*
Y4830765D01*
X-3036483D01*
X-3049812Y4844094D01*
X-3036483Y4857423D01*
X-2996496D01*
X-2969838Y4804107D02*
Y4884081D01*
X-2929851D01*
X-2916522Y4870752D01*
Y4844094D01*
X-2929851Y4830765D01*
X-2969838D01*
X-2876535Y4897410D02*
Y4884081D01*
X-2889864D01*
X-2863206D01*
X-2876535D01*
Y4844094D01*
X-2863206Y4830765D01*
X-2783231D02*
X-2809889D01*
X-2823218Y4844094D01*
Y4870752D01*
X-2809889Y4884081D01*
X-2783231D01*
X-2769902Y4870752D01*
Y4857423D01*
X-2823218D01*
X-2743244Y4884081D02*
Y4830765D01*
Y4857423D01*
X-2729915Y4870752D01*
X-2716586Y4884081D01*
X-2703257D01*
X-2583296Y4910739D02*
Y4830765D01*
X-2543309D01*
X-2529980Y4844094D01*
Y4897410D01*
X-2543309Y4910739D01*
X-2583296D01*
X-2503322Y4884081D02*
Y4844094D01*
X-2489992Y4830765D01*
X-2450006D01*
Y4884081D01*
X-2410018Y4830765D02*
X-2383360D01*
X-2370031Y4844094D01*
Y4870752D01*
X-2383360Y4884081D01*
X-2410018D01*
X-2423347Y4870752D01*
Y4844094D01*
X-2410018Y4830765D01*
X-2343373Y4910739D02*
X-2290057Y4830765D01*
Y4910739D02*
X-2343373Y4830765D01*
X-2263399Y4870752D02*
X-2210083D01*
X-2183425Y4830765D02*
Y4910739D01*
X-2143438D01*
X-2130109Y4897410D01*
Y4870752D01*
X-2143438Y4857423D01*
X-2183425D01*
X-2156767D02*
X-2130109Y4830765D01*
X-2103451Y4910739D02*
Y4830765D01*
Y4857423D01*
X-2050135Y4910739D01*
X-2090122Y4870752D01*
X-2050135Y4830765D01*
X-2023477Y4897410D02*
X-2010147Y4910739D01*
X-1983489D01*
X-1970160Y4897410D01*
Y4884081D01*
X-1983489Y4870752D01*
X-1996818D01*
X-1983489D01*
X-1970160Y4857423D01*
Y4844094D01*
X-1983489Y4830765D01*
X-2010147D01*
X-2023477Y4844094D01*
X-1943502Y4897410D02*
X-1930173Y4910739D01*
X-1903515D01*
X-1890186Y4897410D01*
Y4884081D01*
X-1903515Y4870752D01*
X-1916844D01*
X-1903515D01*
X-1890186Y4857423D01*
Y4844094D01*
X-1903515Y4830765D01*
X-1930173D01*
X-1943502Y4844094D01*
X-1863528D02*
X-1850199Y4830765D01*
X-1823541D01*
X-1810212Y4844094D01*
Y4897410D01*
X-1823541Y4910739D01*
X-1850199D01*
X-1863528Y4897410D01*
Y4884081D01*
X-1850199Y4870752D01*
X-1810212D01*
X-1783554Y4844094D02*
X-1770225Y4830765D01*
X-1743567D01*
X-1730238Y4844094D01*
Y4897410D01*
X-1743567Y4910739D01*
X-1770225D01*
X-1783554Y4897410D01*
Y4884081D01*
X-1770225Y4870752D01*
X-1730238D01*
X-1703580D02*
X-1650264D01*
X-1570289Y4897410D02*
X-1583618Y4910739D01*
X-1610276D01*
X-1623606Y4897410D01*
Y4884081D01*
X-1610276Y4870752D01*
X-1583618D01*
X-1570289Y4857423D01*
Y4844094D01*
X-1583618Y4830765D01*
X-1610276D01*
X-1623606Y4844094D01*
X-1530302Y4830765D02*
X-1503644D01*
X-1490315Y4844094D01*
Y4870752D01*
X-1503644Y4884081D01*
X-1530302D01*
X-1543631Y4870752D01*
Y4844094D01*
X-1530302Y4830765D01*
X-1463657D02*
Y4910739D01*
X-1436999Y4884081D01*
X-1410341Y4910739D01*
Y4830765D01*
X-3209760Y4672138D02*
Y4752113D01*
X-3169773D01*
X-3156444Y4738784D01*
Y4712126D01*
X-3169773Y4698797D01*
X-3209760D01*
X-3183102D02*
X-3156444Y4672138D01*
X-3089799D02*
X-3116457D01*
X-3129786Y4685468D01*
Y4712126D01*
X-3116457Y4725455D01*
X-3089799D01*
X-3076470Y4712126D01*
Y4698797D01*
X-3129786D01*
X-3049812Y4725455D02*
X-3023154Y4672138D01*
X-2996496Y4725455D01*
X-2969838D02*
X-2956509D01*
Y4712126D01*
X-2969838D01*
Y4725455D01*
Y4685468D02*
X-2956509D01*
Y4672138D01*
X-2969838D01*
Y4685468D01*
X-2769902Y4672138D02*
X-2823218D01*
X-2769902Y4725455D01*
Y4738784D01*
X-2783231Y4752113D01*
X-2809889D01*
X-2823218Y4738784D01*
X-2743244D02*
X-2729915Y4752113D01*
X-2703257D01*
X-2689928Y4738784D01*
Y4685468D01*
X-2703257Y4672138D01*
X-2729915D01*
X-2743244Y4685468D01*
Y4738784D01*
X-2663270Y4672138D02*
X-2636612D01*
X-2649941D01*
Y4752113D01*
X-2663270Y4738784D01*
X-2596625Y4685468D02*
X-2583296Y4672138D01*
X-2556638D01*
X-2543309Y4685468D01*
Y4738784D01*
X-2556638Y4752113D01*
X-2583296D01*
X-2596625Y4738784D01*
Y4725455D01*
X-2583296Y4712126D01*
X-2543309D01*
X-2516651Y4672138D02*
Y4685468D01*
X-2503321D01*
Y4672138D01*
X-2516651D01*
X-2450005D02*
X-2423347D01*
X-2436676D01*
Y4752113D01*
X-2450005Y4738784D01*
X-2330044Y4672138D02*
X-2383360D01*
X-2330044Y4725455D01*
Y4738784D01*
X-2343373Y4752113D01*
X-2370031D01*
X-2383360Y4738784D01*
X-2303386Y4672138D02*
Y4685468D01*
X-2290057D01*
Y4672138D01*
X-2303386D01*
X-2236741D02*
X-2210082D01*
X-2223411D01*
Y4752113D01*
X-2236741Y4738784D01*
X-2170095Y4752113D02*
X-2116779D01*
Y4738784D01*
X-2170095Y4685468D01*
Y4672138D01*
X-2530881Y-1138587D02*
Y-1201067D01*
X-2518385Y-1213563D01*
X-2493393D01*
X-2480897Y-1201067D01*
Y-1138587D01*
X-2405921Y-1213563D02*
X-2455905D01*
X-2405921Y-1163579D01*
Y-1151083D01*
X-2418417Y-1138587D01*
X-2443409D01*
X-2455905Y-1151083D01*
X1721767Y-1240044D02*
X1709271Y-1227548D01*
X1684279D01*
X1671783Y-1240044D01*
Y-1290028D01*
X1684279Y-1302524D01*
X1709271D01*
X1721767Y-1290028D01*
X1746759Y-1302524D02*
X1771751D01*
X1759255D01*
Y-1227548D01*
X1746759Y-1240044D01*
X1809239D02*
X1821735Y-1227548D01*
X1846727D01*
X1859223Y-1240044D01*
Y-1252540D01*
X1846727Y-1265036D01*
X1834231D01*
X1846727D01*
X1859223Y-1277532D01*
Y-1290028D01*
X1846727Y-1302524D01*
X1821735D01*
X1809239Y-1290028D01*
X3018000Y-1232224D02*
X3067984D01*
X3042992D01*
Y-1307200D01*
X3092976D02*
Y-1232224D01*
X3130464D01*
X3142960Y-1244720D01*
Y-1269712D01*
X3130464Y-1282208D01*
X3092976D01*
X3167952Y-1244720D02*
X3180448Y-1232224D01*
X3205440D01*
X3217936Y-1244720D01*
Y-1257216D01*
X3205440Y-1269712D01*
X3192944D01*
X3205440D01*
X3217936Y-1282208D01*
Y-1294704D01*
X3205440Y-1307200D01*
X3180448D01*
X3167952Y-1294704D01*
X1227300Y-1232224D02*
X1277284D01*
X1252292D01*
Y-1307200D01*
X1302276D02*
Y-1232224D01*
X1339764D01*
X1352260Y-1244720D01*
Y-1269712D01*
X1339764Y-1282208D01*
X1302276D01*
X1427236Y-1307200D02*
X1377252D01*
X1427236Y-1257216D01*
Y-1244720D01*
X1414740Y-1232224D01*
X1389748D01*
X1377252Y-1244720D01*
%TF.MD5,AA103F460595A6B5BDF211B5E8EE1131*%
M02*
