G04 Layer_Color=128*
%FSLAX45Y45*%
%MOMM*%
%TF.FileFunction,Paste,Bot*%
%TF.Part,Single*%
G01*
G75*
%TA.AperFunction,SMDPad,CuDef*%
%ADD13R,0.80000X0.60000*%
%ADD14C,1.00000*%
%ADD22R,0.35560X1.67640*%
%ADD23R,0.95000X1.22000*%
%ADD24R,0.70000X0.80000*%
%ADD25R,1.50000X1.20000*%
%ADD27R,0.60000X0.25000*%
%ADD28R,0.30000X1.60000*%
%ADD29R,0.80000X1.80000*%
%ADD30R,1.30000X1.50000*%
%ADD31R,1.00000X1.00000*%
%ADD32R,0.60000X0.80000*%
%TA.AperFunction,ConnectorPad*%
%ADD33R,0.80000X0.60000*%
%TA.AperFunction,SMDPad,CuDef*%
%ADD34R,1.00000X1.00000*%
%ADD35R,0.80000X0.70000*%
%ADD36R,1.50000X1.30000*%
G36*
X3324795Y4912204D02*
X3325733Y4911919D01*
X3326598Y4911457D01*
X3327355Y4910835D01*
X3327977Y4910078D01*
X3328439Y4909213D01*
X3328724Y4908275D01*
X3328820Y4907300D01*
Y4897300D01*
X3328724Y4896324D01*
X3328439Y4895386D01*
X3327977Y4894522D01*
X3327355Y4893764D01*
X3326598Y4893143D01*
X3325733Y4892680D01*
X3324795Y4892396D01*
X3323820Y4892300D01*
X3248820D01*
X3247844Y4892396D01*
X3246906Y4892680D01*
X3246042Y4893143D01*
X3245284Y4893764D01*
X3244663Y4894522D01*
X3244200Y4895386D01*
X3243916Y4896324D01*
X3243820Y4897300D01*
Y4907300D01*
X3243916Y4908275D01*
X3244200Y4909213D01*
X3244663Y4910078D01*
X3245284Y4910835D01*
X3246042Y4911457D01*
X3246906Y4911919D01*
X3247844Y4912204D01*
X3248820Y4912300D01*
X3323820D01*
X3324795Y4912204D01*
D02*
G37*
G36*
Y4862204D02*
X3325733Y4861919D01*
X3326598Y4861457D01*
X3327355Y4860836D01*
X3327977Y4860078D01*
X3328439Y4859213D01*
X3328724Y4858275D01*
X3328820Y4857300D01*
Y4847300D01*
X3328724Y4846325D01*
X3328439Y4845387D01*
X3327977Y4844522D01*
X3327355Y4843764D01*
X3326598Y4843143D01*
X3325733Y4842680D01*
X3324795Y4842396D01*
X3323820Y4842300D01*
X3248820D01*
X3247844Y4842396D01*
X3246906Y4842680D01*
X3246042Y4843143D01*
X3245284Y4843764D01*
X3244663Y4844522D01*
X3244200Y4845387D01*
X3243916Y4846325D01*
X3243820Y4847300D01*
Y4857300D01*
X3243916Y4858275D01*
X3244200Y4859213D01*
X3244663Y4860078D01*
X3245284Y4860836D01*
X3246042Y4861457D01*
X3246906Y4861919D01*
X3247844Y4862204D01*
X3248820Y4862300D01*
X3323820D01*
X3324795Y4862204D01*
D02*
G37*
G36*
Y4812204D02*
X3325733Y4811920D01*
X3326598Y4811457D01*
X3327355Y4810836D01*
X3327977Y4810078D01*
X3328439Y4809213D01*
X3328724Y4808275D01*
X3328820Y4807300D01*
Y4797300D01*
X3328724Y4796325D01*
X3328439Y4795387D01*
X3327977Y4794522D01*
X3327355Y4793764D01*
X3326598Y4793143D01*
X3325733Y4792681D01*
X3324795Y4792396D01*
X3323820Y4792300D01*
X3248820D01*
X3247844Y4792396D01*
X3246906Y4792681D01*
X3246042Y4793143D01*
X3245284Y4793764D01*
X3244663Y4794522D01*
X3244200Y4795387D01*
X3243916Y4796325D01*
X3243820Y4797300D01*
Y4807300D01*
X3243916Y4808275D01*
X3244200Y4809213D01*
X3244663Y4810078D01*
X3245284Y4810836D01*
X3246042Y4811457D01*
X3246906Y4811920D01*
X3247844Y4812204D01*
X3248820Y4812300D01*
X3323820D01*
X3324795Y4812204D01*
D02*
G37*
D13*
X-1641812Y1080400D02*
D03*
X-1761812Y1080400D02*
D03*
X-1641812Y2083700D02*
D03*
X-1761812Y2083700D02*
D03*
X-1145879Y3459110D02*
D03*
X-1025879Y3459110D02*
D03*
X-1145879Y2399900D02*
D03*
X-1025879D02*
D03*
X1630200Y-659500D02*
D03*
X1510200D02*
D03*
D14*
X2887500Y4611000D02*
D03*
D22*
X-1174300Y2652660D02*
D03*
X-1239300D02*
D03*
X-1304300D02*
D03*
X-1369300Y2652660D02*
D03*
X-1434300Y2652660D02*
D03*
X-1499300D02*
D03*
X-1564300D02*
D03*
Y3216540D02*
D03*
X-1499300D02*
D03*
X-1434300D02*
D03*
X-1369300Y3216540D02*
D03*
X-1304300Y3216540D02*
D03*
X-1239300D02*
D03*
X-1174300D02*
D03*
X-1564300Y1856040D02*
D03*
X-1499300D02*
D03*
X-1434300D02*
D03*
X-1369300Y1856040D02*
D03*
X-1304300Y1856040D02*
D03*
X-1239300D02*
D03*
X-1174300D02*
D03*
Y1292160D02*
D03*
X-1239300D02*
D03*
X-1304300D02*
D03*
X-1369300Y1292160D02*
D03*
X-1434300Y1292160D02*
D03*
X-1499300D02*
D03*
X-1564300D02*
D03*
X-2616300Y3401960D02*
D03*
X-2681300D02*
D03*
X-2746300D02*
D03*
X-2811300Y3401960D02*
D03*
X-2876300Y3401960D02*
D03*
X-2941300D02*
D03*
X-3006300D02*
D03*
Y3965840D02*
D03*
X-2941300D02*
D03*
X-2876300D02*
D03*
X-2811300Y3965840D02*
D03*
X-2746300Y3965840D02*
D03*
X-2681300D02*
D03*
X-2616300D02*
D03*
D23*
X1835300Y-469000D02*
D03*
X1508300D02*
D03*
D24*
X2891000Y5023100D02*
D03*
Y4903100D02*
D03*
X-995200Y1501400D02*
D03*
Y1621400D02*
D03*
X-3179600Y3759900D02*
D03*
Y3639900D02*
D03*
X-1731800Y3007300D02*
D03*
X-1731800Y2887300D02*
D03*
X2764000Y4903100D02*
D03*
Y5023100D02*
D03*
D25*
X3792700Y4577600D02*
D03*
Y4847600D02*
D03*
D27*
X3168820Y4902300D02*
D03*
Y4852300D02*
D03*
Y4802300D02*
D03*
D28*
X1304950Y4030000D02*
D03*
X1254950D02*
D03*
X1204950D02*
D03*
X1154950D02*
D03*
X1104950D02*
D03*
X1054950D02*
D03*
X1004950D02*
D03*
X954950D02*
D03*
X804950D02*
D03*
X754950D02*
D03*
X704950D02*
D03*
X654950D02*
D03*
X604950D02*
D03*
X554950D02*
D03*
X404950D02*
D03*
X354950D02*
D03*
X304950D02*
D03*
X254950D02*
D03*
X204950D02*
D03*
X154950D02*
D03*
X104950D02*
D03*
X54950D02*
D03*
X4950D02*
D03*
X-45050D02*
D03*
X-95050D02*
D03*
X1304950Y3670000D02*
D03*
X1254950D02*
D03*
X1204950D02*
D03*
X1154950D02*
D03*
X1104950D02*
D03*
X1054950D02*
D03*
X1004950D02*
D03*
X954950D02*
D03*
X904950D02*
D03*
X854950D02*
D03*
X804950D02*
D03*
X754950D02*
D03*
X704950D02*
D03*
X654950D02*
D03*
X604950D02*
D03*
X554950D02*
D03*
X504950D02*
D03*
X454950D02*
D03*
X404950D02*
D03*
X354950D02*
D03*
X304950D02*
D03*
X254950D02*
D03*
X204950D02*
D03*
X154950D02*
D03*
X104950D02*
D03*
X54950D02*
D03*
X4950D02*
D03*
X-45050D02*
D03*
X-95050D02*
D03*
X-145050D02*
D03*
Y4030000D02*
D03*
X904950D02*
D03*
X854950D02*
D03*
X504950D02*
D03*
X454950D02*
D03*
X105000Y30000D02*
D03*
Y-330000D02*
D03*
X155000D02*
D03*
X205000D02*
D03*
X255000D02*
D03*
X305000D02*
D03*
X355000D02*
D03*
X405000D02*
D03*
X455000D02*
D03*
X505000D02*
D03*
X555000D02*
D03*
X605000D02*
D03*
X655000D02*
D03*
X705000D02*
D03*
X755000D02*
D03*
X805000D02*
D03*
X855000D02*
D03*
X905000D02*
D03*
X955000D02*
D03*
X1005000D02*
D03*
X1055000D02*
D03*
X155000Y30000D02*
D03*
X205000D02*
D03*
X255000D02*
D03*
X305000D02*
D03*
X355000D02*
D03*
X405000D02*
D03*
X455000D02*
D03*
X505000D02*
D03*
X555000D02*
D03*
X605000D02*
D03*
X655000D02*
D03*
X705000D02*
D03*
X755000D02*
D03*
X805000D02*
D03*
X855000D02*
D03*
X905000D02*
D03*
X955000D02*
D03*
X1005000D02*
D03*
X1055000D02*
D03*
D29*
X-315050Y3850000D02*
D03*
X1474950D02*
D03*
X1225000Y-150000D02*
D03*
X-65000D02*
D03*
D30*
X3110800Y4585600D02*
D03*
X3280800D02*
D03*
D31*
X3767300Y-632240D02*
D03*
Y-472240D02*
D03*
X4068319Y-632240D02*
D03*
X4068319Y-472240D02*
D03*
X3919700Y-632240D02*
D03*
Y-472240D02*
D03*
D32*
X3640300Y-612240D02*
D03*
Y-492240D02*
D03*
X3005300Y4902300D02*
D03*
Y5022300D02*
D03*
D33*
X-2500300Y4199900D02*
D03*
X-2380300Y4199900D02*
D03*
X-2500300Y3163200D02*
D03*
X-2380300Y3163200D02*
D03*
D34*
X334950Y4873088D02*
D03*
X174950D02*
D03*
D35*
X2887500Y4776100D02*
D03*
X2767500D02*
D03*
D36*
X4084800Y4797600D02*
D03*
Y4627600D02*
D03*
%TF.MD5,ABED5163E604C6484849E677203A6025*%
M02*
