G04 Layer_Color=16711935*
%FSLAX45Y45*%
%MOMM*%
%TF.FileFunction,Soldermask,Bot*%
%TF.Part,Single*%
G01*
G75*
%TA.AperFunction,SMDPad,CuDef*%
%ADD42R,1.00320X0.80320*%
%ADD43C,1.20320*%
%TA.AperFunction,ComponentPad*%
%ADD44C,0.20320*%
%TA.AperFunction,ViaPad*%
%ADD45C,4.70320*%
%TA.AperFunction,SMDPad,CuDef*%
%ADD50R,0.55880X1.87960*%
%ADD51R,1.15320X1.42320*%
%ADD52R,0.90320X1.00320*%
%ADD53R,1.70320X1.40320*%
%TA.AperFunction,SMDPad,SMDef*%
%ADD54R,0.99840X0.19840*%
%TA.AperFunction,SMDPad,CuDef*%
%ADD55R,0.70160X0.35160*%
%ADD56R,0.50320X1.80320*%
%ADD57R,1.00320X2.00320*%
%ADD58R,1.50320X1.70320*%
%ADD59R,1.20320X1.20320*%
%ADD60R,0.80320X1.00320*%
%TA.AperFunction,ConnectorPad*%
%ADD61R,1.00320X0.80320*%
%TA.AperFunction,SMDPad,CuDef*%
%ADD62R,1.20320X1.20320*%
%ADD63R,1.00320X0.90320*%
%ADD64R,1.70320X1.50320*%
D42*
X-1641812Y1080400D02*
D03*
X-1761812Y1080400D02*
D03*
X-1641812Y2083700D02*
D03*
X-1761812Y2083700D02*
D03*
X-1145879Y3459110D02*
D03*
X-1025879Y3459110D02*
D03*
X-1145879Y2399900D02*
D03*
X-1025879D02*
D03*
X1630200Y-659500D02*
D03*
X1510200D02*
D03*
D43*
X2887500Y4611000D02*
D03*
D44*
X1409950Y4000000D02*
D03*
X-250050D02*
D03*
X0Y0D02*
D03*
X1160000D02*
D03*
D45*
X3760000Y1765000D02*
D03*
X-3035000D02*
D03*
D50*
X-1174300Y2652660D02*
D03*
X-1239300D02*
D03*
X-1304300D02*
D03*
X-1369300Y2652660D02*
D03*
X-1434300Y2652660D02*
D03*
X-1499300D02*
D03*
X-1564300D02*
D03*
Y3216540D02*
D03*
X-1499300D02*
D03*
X-1434300D02*
D03*
X-1369300Y3216540D02*
D03*
X-1304300Y3216540D02*
D03*
X-1239300D02*
D03*
X-1174300D02*
D03*
X-1564300Y1856040D02*
D03*
X-1499300D02*
D03*
X-1434300D02*
D03*
X-1369300Y1856040D02*
D03*
X-1304300Y1856040D02*
D03*
X-1239300D02*
D03*
X-1174300D02*
D03*
Y1292160D02*
D03*
X-1239300D02*
D03*
X-1304300D02*
D03*
X-1369300Y1292160D02*
D03*
X-1434300Y1292160D02*
D03*
X-1499300D02*
D03*
X-1564300D02*
D03*
X-2616300Y3401960D02*
D03*
X-2681300D02*
D03*
X-2746300D02*
D03*
X-2811300Y3401960D02*
D03*
X-2876300Y3401960D02*
D03*
X-2941300D02*
D03*
X-3006300D02*
D03*
Y3965840D02*
D03*
X-2941300D02*
D03*
X-2876300D02*
D03*
X-2811300Y3965840D02*
D03*
X-2746300Y3965840D02*
D03*
X-2681300D02*
D03*
X-2616300D02*
D03*
D51*
X1835300Y-469000D02*
D03*
X1508300D02*
D03*
D52*
X2891000Y5023100D02*
D03*
Y4903100D02*
D03*
X-995200Y1501400D02*
D03*
Y1621400D02*
D03*
X-3179600Y3759900D02*
D03*
Y3639900D02*
D03*
X-1731800Y3007300D02*
D03*
X-1731800Y2887300D02*
D03*
X2764000Y4903100D02*
D03*
Y5023100D02*
D03*
D53*
X3792700Y4577600D02*
D03*
Y4847600D02*
D03*
D54*
X3278820Y4802300D02*
D03*
Y4852300D02*
D03*
Y4902300D02*
D03*
D55*
X3168820D02*
D03*
Y4852300D02*
D03*
Y4802300D02*
D03*
D56*
X1304950Y4030000D02*
D03*
X1254950D02*
D03*
X1204950D02*
D03*
X1154950D02*
D03*
X1104950D02*
D03*
X1054950D02*
D03*
X1004950D02*
D03*
X954950D02*
D03*
X804950D02*
D03*
X754950D02*
D03*
X704950D02*
D03*
X654950D02*
D03*
X604950D02*
D03*
X554950D02*
D03*
X404950D02*
D03*
X354950D02*
D03*
X304950D02*
D03*
X254950D02*
D03*
X204950D02*
D03*
X154950D02*
D03*
X104950D02*
D03*
X54950D02*
D03*
X4950D02*
D03*
X-45050D02*
D03*
X-95050D02*
D03*
X1304950Y3670000D02*
D03*
X1254950D02*
D03*
X1204950D02*
D03*
X1154950D02*
D03*
X1104950D02*
D03*
X1054950D02*
D03*
X1004950D02*
D03*
X954950D02*
D03*
X904950D02*
D03*
X854950D02*
D03*
X804950D02*
D03*
X754950D02*
D03*
X704950D02*
D03*
X654950D02*
D03*
X604950D02*
D03*
X554950D02*
D03*
X504950D02*
D03*
X454950D02*
D03*
X404950D02*
D03*
X354950D02*
D03*
X304950D02*
D03*
X254950D02*
D03*
X204950D02*
D03*
X154950D02*
D03*
X104950D02*
D03*
X54950D02*
D03*
X4950D02*
D03*
X-45050D02*
D03*
X-95050D02*
D03*
X-145050D02*
D03*
Y4030000D02*
D03*
X904950D02*
D03*
X854950D02*
D03*
X504950D02*
D03*
X454950D02*
D03*
X105000Y30000D02*
D03*
Y-330000D02*
D03*
X155000D02*
D03*
X205000D02*
D03*
X255000D02*
D03*
X305000D02*
D03*
X355000D02*
D03*
X405000D02*
D03*
X455000D02*
D03*
X505000D02*
D03*
X555000D02*
D03*
X605000D02*
D03*
X655000D02*
D03*
X705000D02*
D03*
X755000D02*
D03*
X805000D02*
D03*
X855000D02*
D03*
X905000D02*
D03*
X955000D02*
D03*
X1005000D02*
D03*
X1055000D02*
D03*
X155000Y30000D02*
D03*
X205000D02*
D03*
X255000D02*
D03*
X305000D02*
D03*
X355000D02*
D03*
X405000D02*
D03*
X455000D02*
D03*
X505000D02*
D03*
X555000D02*
D03*
X605000D02*
D03*
X655000D02*
D03*
X705000D02*
D03*
X755000D02*
D03*
X805000D02*
D03*
X855000D02*
D03*
X905000D02*
D03*
X955000D02*
D03*
X1005000D02*
D03*
X1055000D02*
D03*
D57*
X-315050Y3850000D02*
D03*
X1474950D02*
D03*
X1225000Y-150000D02*
D03*
X-65000D02*
D03*
D58*
X3110800Y4585600D02*
D03*
X3280800D02*
D03*
D59*
X3767300Y-632240D02*
D03*
Y-472240D02*
D03*
X4068319Y-632240D02*
D03*
X4068319Y-472240D02*
D03*
X3919700Y-632240D02*
D03*
Y-472240D02*
D03*
D60*
X3640300Y-612240D02*
D03*
Y-492240D02*
D03*
X3005300Y4902300D02*
D03*
Y5022300D02*
D03*
D61*
X-2500300Y4199900D02*
D03*
X-2380300Y4199900D02*
D03*
X-2500300Y3163200D02*
D03*
X-2380300Y3163200D02*
D03*
D62*
X334950Y4873088D02*
D03*
X174950D02*
D03*
D63*
X2887500Y4776100D02*
D03*
X2767500D02*
D03*
D64*
X4084800Y4797600D02*
D03*
Y4627600D02*
D03*
%TF.MD5,0E8D2BAD0312993DA096532347A411D6*%
M02*
