G04 Layer_Color=8421504*
%FSLAX45Y45*%
%MOMM*%
%TF.FileFunction,Paste,Top*%
%TF.Part,Single*%
G01*
G75*
%TA.AperFunction,SMDPad,CuDef*%
%ADD11R,2.50000X0.70000*%
%ADD12R,0.70000X2.50000*%
%ADD13R,0.80000X0.60000*%
%ADD14C,1.00000*%
D11*
X-2259300Y-700100D02*
D03*
Y-600100D02*
D03*
Y-500100D02*
D03*
X-2259300Y-400100D02*
D03*
Y-300100D02*
D03*
X-2259300Y-200100D02*
D03*
Y-100100D02*
D03*
Y-100D02*
D03*
Y99900D02*
D03*
Y199900D02*
D03*
X-2259300Y299900D02*
D03*
X-2259300Y399900D02*
D03*
Y499900D02*
D03*
X-2259300Y599900D02*
D03*
Y699900D02*
D03*
X-2259300Y799900D02*
D03*
Y899900D02*
D03*
X-2259300Y999900D02*
D03*
X-2259300Y1099900D02*
D03*
Y1199900D02*
D03*
Y1299900D02*
D03*
Y1399900D02*
D03*
Y1499900D02*
D03*
X-2259300Y1599900D02*
D03*
Y1699900D02*
D03*
X-2259300Y1799900D02*
D03*
Y1899900D02*
D03*
X-2259300Y1999900D02*
D03*
X-2259300Y2099900D02*
D03*
Y2199900D02*
D03*
Y2299900D02*
D03*
Y2399900D02*
D03*
Y2499900D02*
D03*
Y2599901D02*
D03*
X-2259300Y2699900D02*
D03*
X-2259300Y2799900D02*
D03*
Y2899900D02*
D03*
Y2999900D02*
D03*
Y3099900D02*
D03*
Y3199900D02*
D03*
Y3299900D02*
D03*
X-2259300Y3399900D02*
D03*
X-2259300Y3499900D02*
D03*
Y3599900D02*
D03*
Y3699900D02*
D03*
Y3799900D02*
D03*
Y3899900D02*
D03*
Y3999900D02*
D03*
X-2259300Y4099900D02*
D03*
X3220700Y4199900D02*
D03*
Y4099900D02*
D03*
Y3999900D02*
D03*
Y3899900D02*
D03*
Y3799900D02*
D03*
X3220700Y3699900D02*
D03*
Y3599900D02*
D03*
X3220700Y3499900D02*
D03*
Y3399900D02*
D03*
X3220700Y3299900D02*
D03*
X3220700Y3199900D02*
D03*
Y3099900D02*
D03*
Y2999900D02*
D03*
Y2899900D02*
D03*
Y2799900D02*
D03*
Y2699900D02*
D03*
X3220700Y2599900D02*
D03*
X3220700Y2499900D02*
D03*
Y2399900D02*
D03*
Y2299900D02*
D03*
X3220700Y2199900D02*
D03*
X3220700Y2099900D02*
D03*
Y1999900D02*
D03*
Y1899900D02*
D03*
Y1799900D02*
D03*
Y1699900D02*
D03*
Y1599900D02*
D03*
Y1499900D02*
D03*
Y1399900D02*
D03*
Y1299900D02*
D03*
X3220700Y1199900D02*
D03*
X3220700Y1099900D02*
D03*
Y999900D02*
D03*
X3220700Y899900D02*
D03*
X3220700Y799900D02*
D03*
Y699900D02*
D03*
Y599900D02*
D03*
Y499900D02*
D03*
Y399900D02*
D03*
Y299900D02*
D03*
X3220700Y199900D02*
D03*
X3220700Y99900D02*
D03*
Y-100D02*
D03*
Y-100100D02*
D03*
X3220700Y-200100D02*
D03*
X3220700Y-300100D02*
D03*
Y-400100D02*
D03*
Y-500100D02*
D03*
Y-600100D02*
D03*
Y-700100D02*
D03*
X-2259300Y4199900D02*
D03*
D12*
X2930700Y4489900D02*
D03*
X-1969300Y-990100D02*
D03*
X-1869300Y-990100D02*
D03*
X-1769300D02*
D03*
X-1669300D02*
D03*
X-1569300Y-990100D02*
D03*
X-1469300Y-990100D02*
D03*
X-1369300D02*
D03*
X-1269300D02*
D03*
X-1169300D02*
D03*
X-1069300D02*
D03*
X-969300Y-990100D02*
D03*
X-869300D02*
D03*
X-769300Y-990100D02*
D03*
X-669300D02*
D03*
X-569300Y-990100D02*
D03*
X-469300Y-990100D02*
D03*
X-369300D02*
D03*
X-269300Y-990100D02*
D03*
X-169300Y-990100D02*
D03*
X-69300D02*
D03*
X30700D02*
D03*
X130700Y-990100D02*
D03*
X230700Y-990100D02*
D03*
X330700D02*
D03*
X430700Y-990100D02*
D03*
X530700Y-990100D02*
D03*
X630700D02*
D03*
X730700D02*
D03*
X830700Y-990100D02*
D03*
X930700Y-990100D02*
D03*
X1030700D02*
D03*
X1130700D02*
D03*
X1230700D02*
D03*
X1330700D02*
D03*
X1430700Y-990100D02*
D03*
X1530700Y-990100D02*
D03*
X1630700D02*
D03*
X1730700D02*
D03*
X1830700Y-990100D02*
D03*
X1930700Y-990100D02*
D03*
X2030700D02*
D03*
X2130700D02*
D03*
X2230700D02*
D03*
X2330700D02*
D03*
X2430700D02*
D03*
X2530700D02*
D03*
X2630700D02*
D03*
X2730700Y-990100D02*
D03*
X2830700D02*
D03*
X2930700D02*
D03*
X2830700Y4489900D02*
D03*
X2730700D02*
D03*
X2630700Y4489900D02*
D03*
X2530700Y4489900D02*
D03*
X2430700D02*
D03*
X2330700Y4489900D02*
D03*
X2230700Y4489900D02*
D03*
X2130700D02*
D03*
X2030700D02*
D03*
X1930700D02*
D03*
X1830700D02*
D03*
X1730700D02*
D03*
X1630700D02*
D03*
X1530700D02*
D03*
X1430700D02*
D03*
X1330700D02*
D03*
X1230700D02*
D03*
X1130700D02*
D03*
X1030700D02*
D03*
X930700Y4489900D02*
D03*
X830701Y4489900D02*
D03*
X730700D02*
D03*
X630700D02*
D03*
X530700D02*
D03*
X430700D02*
D03*
X330700D02*
D03*
X230700Y4489900D02*
D03*
X130700Y4489900D02*
D03*
X30700D02*
D03*
X-69300Y4489900D02*
D03*
X-169300D02*
D03*
X-269300Y4489900D02*
D03*
X-369300D02*
D03*
X-469300D02*
D03*
X-569300D02*
D03*
X-669300D02*
D03*
X-769300D02*
D03*
X-869300D02*
D03*
X-969300D02*
D03*
X-1069300D02*
D03*
X-1169300Y4489900D02*
D03*
X-1269300Y4489900D02*
D03*
X-1369300D02*
D03*
X-1469300D02*
D03*
X-1569300D02*
D03*
X-1669300D02*
D03*
X-1769300D02*
D03*
X-1869300D02*
D03*
X-1969300D02*
D03*
D13*
X2049300Y-1269100D02*
D03*
X1929300Y-1269100D02*
D03*
D14*
X2930700Y-1269100D02*
D03*
X1130700D02*
D03*
%TF.MD5,9ABFE1341BD10A85F4C9F071A411F29D*%
M02*
