G04 Layer_Color=32896*
%FSLAX45Y45*%
%MOMM*%
%TF.FileFunction,Legend,Bot*%
%TF.Part,Single*%
G01*
G75*
%TA.AperFunction,NonConductor*%
%ADD39C,0.15000*%
%ADD46C,0.15240*%
%ADD47C,0.25000*%
%ADD48C,0.20000*%
%ADD49C,0.10000*%
G36*
X-1285250Y1157540D02*
X-1323350D01*
Y1182940D01*
X-1285250D01*
Y1157540D01*
D02*
G37*
G36*
X-1415250Y3325760D02*
X-1453350D01*
Y3351160D01*
X-1415250D01*
Y3325760D01*
D02*
G37*
G36*
X-2857250Y4075060D02*
X-2895350D01*
Y4100460D01*
X-2857250D01*
Y4075060D01*
D02*
G37*
D39*
X-980903Y2709810D02*
X-1043383D01*
X-1055879Y2722306D01*
Y2747298D01*
X-1043383Y2759794D01*
X-980903D01*
X-993399Y2784786D02*
X-980903Y2797282D01*
Y2822274D01*
X-993399Y2834770D01*
X-1005895D01*
X-1018391Y2822274D01*
Y2809778D01*
Y2822274D01*
X-1030887Y2834770D01*
X-1043383D01*
X-1055879Y2822274D01*
Y2797282D01*
X-1043383Y2784786D01*
X2979900Y4520876D02*
X2929916D01*
X2954908D01*
Y4445900D01*
X2904924D02*
Y4520876D01*
X2867436D01*
X2854940Y4508380D01*
Y4483388D01*
X2867436Y4470892D01*
X2904924D01*
X2829948Y4445900D02*
X2804956D01*
X2817452D01*
Y4520876D01*
X2829948Y4508380D01*
X2076976Y-471540D02*
X2002000D01*
Y-434052D01*
X2014496Y-421556D01*
X2064480D01*
X2076976Y-434052D01*
Y-471540D01*
X2002000Y-396564D02*
Y-371572D01*
Y-384068D01*
X2076976D01*
X2064480Y-396564D01*
X2548100Y5068200D02*
X2473124D01*
Y5030712D01*
X2485620Y5018216D01*
X2510612D01*
X2523108Y5030712D01*
Y5068200D01*
Y5043208D02*
X2548100Y5018216D01*
Y4993224D02*
Y4968232D01*
Y4980728D01*
X2473124D01*
X2485620Y4993224D01*
X3969276Y4318900D02*
X3894300D01*
Y4368884D01*
Y4393876D02*
Y4418868D01*
Y4406372D01*
X3969276D01*
X3956780Y4393876D01*
X3308820Y5066976D02*
Y5004496D01*
X3296324Y4992000D01*
X3271332D01*
X3258836Y5004496D01*
Y5066976D01*
X3233844Y4992000D02*
X3208852D01*
X3221348D01*
Y5066976D01*
X3233844Y5054480D01*
X1509240Y4186820D02*
Y4261796D01*
X1471752D01*
X1459256Y4249300D01*
Y4224308D01*
X1471752Y4211812D01*
X1509240D01*
X1384280Y4186820D02*
X1434264D01*
X1384280Y4236804D01*
Y4249300D01*
X1396776Y4261796D01*
X1421768D01*
X1434264Y4249300D01*
X1260320Y186320D02*
Y261296D01*
X1222832D01*
X1210336Y248800D01*
Y223808D01*
X1222832Y211312D01*
X1260320D01*
X1185344Y248800D02*
X1172848Y261296D01*
X1147856D01*
X1135360Y248800D01*
Y236304D01*
X1147856Y223808D01*
X1160352D01*
X1147856D01*
X1135360Y211312D01*
Y198816D01*
X1147856Y186320D01*
X1172848D01*
X1185344Y198816D01*
X3323616Y4432180D02*
X3336112Y4444676D01*
X3361104D01*
X3373600Y4432180D01*
Y4382196D01*
X3361104Y4369700D01*
X3336112D01*
X3323616Y4382196D01*
X3298624Y4369700D02*
X3273632D01*
X3286128D01*
Y4444676D01*
X3298624Y4432180D01*
X3236144Y4444676D02*
X3186160D01*
Y4432180D01*
X3236144Y4382196D01*
Y4369700D01*
X3784080Y-273656D02*
X3796576Y-286152D01*
Y-311144D01*
X3784080Y-323640D01*
X3734096D01*
X3721600Y-311144D01*
Y-286152D01*
X3734096Y-273656D01*
X3721600Y-198680D02*
Y-248664D01*
X3771584Y-198680D01*
X3784080D01*
X3796576Y-211176D01*
Y-236168D01*
X3784080Y-248664D01*
X3663680Y-273656D02*
X3676176Y-286152D01*
Y-311144D01*
X3663680Y-323640D01*
X3613696D01*
X3601200Y-311144D01*
Y-286152D01*
X3613696Y-273656D01*
X3601200Y-211176D02*
X3676176D01*
X3638688Y-248664D01*
Y-198680D01*
X-1752625Y1797400D02*
X-1690145D01*
X-1677649Y1784904D01*
Y1759912D01*
X-1690145Y1747416D01*
X-1752625D01*
Y1672440D02*
Y1722424D01*
X-1715137D01*
X-1727633Y1697432D01*
Y1684936D01*
X-1715137Y1672440D01*
X-1690145D01*
X-1677649Y1684936D01*
Y1709928D01*
X-1690145Y1722424D01*
X-2415324Y3480700D02*
X-2477804D01*
X-2490300Y3493196D01*
Y3518188D01*
X-2477804Y3530684D01*
X-2415324D01*
X-2490300Y3593164D02*
X-2415324D01*
X-2452812Y3555676D01*
Y3605660D01*
X-894953Y1499900D02*
X-819977D01*
Y1537388D01*
X-832473Y1549884D01*
X-857465D01*
X-869961Y1537388D01*
Y1499900D01*
Y1524892D02*
X-894953Y1549884D01*
X-819977Y1624860D02*
X-832473Y1599868D01*
X-857465Y1574876D01*
X-882457D01*
X-894953Y1587372D01*
Y1612364D01*
X-882457Y1624860D01*
X-869961D01*
X-857465Y1612364D01*
Y1574876D01*
X-3209611Y3426015D02*
X-3134635D01*
Y3463503D01*
X-3147131Y3475999D01*
X-3172123D01*
X-3184619Y3463503D01*
Y3426015D01*
Y3451007D02*
X-3209611Y3475999D01*
X-3134635Y3550975D02*
Y3500991D01*
X-3172123D01*
X-3159627Y3525983D01*
Y3538479D01*
X-3172123Y3550975D01*
X-3197115D01*
X-3209611Y3538479D01*
Y3513487D01*
X-3197115Y3500991D01*
X-1776960Y2680600D02*
X-1701984D01*
Y2718088D01*
X-1714480Y2730584D01*
X-1739472D01*
X-1751968Y2718088D01*
Y2680600D01*
Y2705592D02*
X-1776960Y2730584D01*
Y2793064D02*
X-1701984D01*
X-1739472Y2755576D01*
Y2805560D01*
X-1644043Y987754D02*
X-1631547Y1000250D01*
X-1606556D01*
X-1594060Y987754D01*
Y937770D01*
X-1606556Y925274D01*
X-1631547D01*
X-1644043Y937770D01*
X-1669036Y925274D02*
X-1694028D01*
X-1681532D01*
Y1000250D01*
X-1669036Y987754D01*
X-1781499Y925274D02*
X-1731515D01*
X-1781499Y975258D01*
Y987754D01*
X-1769003Y1000250D01*
X-1744011D01*
X-1731515Y987754D01*
X-1919284Y2113228D02*
X-1906788Y2125724D01*
X-1881796D01*
X-1869300Y2113228D01*
Y2063244D01*
X-1881796Y2050748D01*
X-1906788D01*
X-1919284Y2063244D01*
X-1944276Y2050748D02*
X-1969268D01*
X-1956772D01*
Y2125724D01*
X-1944276Y2113228D01*
X-2006756Y2050748D02*
X-2031748D01*
X-2019252D01*
Y2125724D01*
X-2006756Y2113228D01*
X-2340584Y4091336D02*
X-2328088Y4103832D01*
X-2303096D01*
X-2290600Y4091336D01*
Y4041352D01*
X-2303096Y4028856D01*
X-2328088D01*
X-2340584Y4041352D01*
X-2365576Y4028856D02*
X-2390568D01*
X-2378072D01*
Y4103832D01*
X-2365576Y4091336D01*
X-2428056D02*
X-2440552Y4103832D01*
X-2465544D01*
X-2478040Y4091336D01*
Y4041352D01*
X-2465544Y4028856D01*
X-2440552D01*
X-2428056Y4041352D01*
Y4091336D01*
X-2391384Y3069780D02*
X-2378888Y3082276D01*
X-2353896D01*
X-2341400Y3069780D01*
Y3019796D01*
X-2353896Y3007300D01*
X-2378888D01*
X-2391384Y3019796D01*
X-2416376D02*
X-2428872Y3007300D01*
X-2453864D01*
X-2466360Y3019796D01*
Y3069780D01*
X-2453864Y3082276D01*
X-2428872D01*
X-2416376Y3069780D01*
Y3057284D01*
X-2428872Y3044788D01*
X-2466360D01*
X-970484Y3360341D02*
X-957988Y3372837D01*
X-932996D01*
X-920500Y3360341D01*
Y3310357D01*
X-932996Y3297861D01*
X-957988D01*
X-970484Y3310357D01*
X-995476Y3360341D02*
X-1007972Y3372837D01*
X-1032964D01*
X-1045460Y3360341D01*
Y3347845D01*
X-1032964Y3335349D01*
X-1045460Y3322853D01*
Y3310357D01*
X-1032964Y3297861D01*
X-1007972D01*
X-995476Y3310357D01*
Y3322853D01*
X-1007972Y3335349D01*
X-995476Y3347845D01*
Y3360341D01*
X-1007972Y3335349D02*
X-1032964D01*
X-1015184Y2287754D02*
X-1002688Y2300250D01*
X-977696D01*
X-965200Y2287754D01*
Y2237770D01*
X-977696Y2225274D01*
X-1002688D01*
X-1015184Y2237770D01*
X-1040176Y2300250D02*
X-1090160D01*
Y2287754D01*
X-1040176Y2237770D01*
Y2225274D01*
X4096480Y-273656D02*
X4108976Y-286152D01*
Y-311144D01*
X4096480Y-323640D01*
X4046496D01*
X4034000Y-311144D01*
Y-286152D01*
X4046496Y-273656D01*
X4034000Y-248664D02*
Y-223672D01*
Y-236168D01*
X4108976D01*
X4096480Y-248664D01*
X1837716Y-637180D02*
X1850212Y-624684D01*
X1875204D01*
X1887700Y-637180D01*
Y-687164D01*
X1875204Y-699660D01*
X1850212D01*
X1837716Y-687164D01*
X1762740Y-624684D02*
X1787732Y-637180D01*
X1812724Y-662172D01*
Y-687164D01*
X1800228Y-699660D01*
X1775236D01*
X1762740Y-687164D01*
Y-674668D01*
X1775236Y-662172D01*
X1812724D01*
X-23634Y4902468D02*
X-11138Y4914964D01*
X13854D01*
X26350Y4902468D01*
Y4852484D01*
X13854Y4839988D01*
X-11138D01*
X-23634Y4852484D01*
X-98610Y4914964D02*
X-48626D01*
Y4877476D01*
X-73618Y4889972D01*
X-86114D01*
X-98610Y4877476D01*
Y4852484D01*
X-86114Y4839988D01*
X-61122D01*
X-48626Y4852484D01*
X3942580Y-273656D02*
X3955076Y-286152D01*
Y-311144D01*
X3942580Y-323640D01*
X3892596D01*
X3880100Y-311144D01*
Y-286152D01*
X3892596Y-273656D01*
X3942580Y-248664D02*
X3955076Y-236168D01*
Y-211176D01*
X3942580Y-198680D01*
X3930084D01*
X3917588Y-211176D01*
Y-223672D01*
Y-211176D01*
X3905092Y-198680D01*
X3892596D01*
X3880100Y-211176D01*
Y-236168D01*
X3892596Y-248664D01*
X2433800Y5068200D02*
X2358824D01*
Y5030712D01*
X2371320Y5018216D01*
X2396312D01*
X2408808Y5030712D01*
Y5068200D01*
Y5043208D02*
X2433800Y5018216D01*
X2371320Y4993224D02*
X2358824Y4980728D01*
Y4955736D01*
X2371320Y4943240D01*
X2383816D01*
X2396312Y4955736D01*
Y4968232D01*
Y4955736D01*
X2408808Y4943240D01*
X2421304D01*
X2433800Y4955736D01*
Y4980728D01*
X2421304Y4993224D01*
X2649700Y4738000D02*
Y4812976D01*
X2612212D01*
X2599716Y4800480D01*
Y4775488D01*
X2612212Y4762992D01*
X2649700D01*
X2624708D02*
X2599716Y4738000D01*
X2524740D02*
X2574724D01*
X2524740Y4787984D01*
Y4800480D01*
X2537236Y4812976D01*
X2562228D01*
X2574724Y4800480D01*
X4121880Y4356184D02*
X4134376Y4343688D01*
Y4318696D01*
X4121880Y4306200D01*
X4071896D01*
X4059400Y4318696D01*
Y4343688D01*
X4071896Y4356184D01*
X4059400Y4381176D02*
Y4406168D01*
Y4393672D01*
X4134376D01*
X4121880Y4381176D01*
Y4443656D02*
X4134376Y4456152D01*
Y4481144D01*
X4121880Y4493640D01*
X4109384D01*
X4096888Y4481144D01*
X4084392Y4493640D01*
X4071896D01*
X4059400Y4481144D01*
Y4456152D01*
X4071896Y4443656D01*
X4084392D01*
X4096888Y4456152D01*
X4109384Y4443656D01*
X4121880D01*
X4096888Y4456152D02*
Y4481144D01*
X2612620Y5018216D02*
X2600124Y5030712D01*
Y5055704D01*
X2612620Y5068200D01*
X2662604D01*
X2675100Y5055704D01*
Y5030712D01*
X2662604Y5018216D01*
X2675100Y4993224D02*
Y4968232D01*
Y4980728D01*
X2600124D01*
X2612620Y4993224D01*
X2600124Y4880760D02*
X2612620Y4905752D01*
X2637612Y4930744D01*
X2662604D01*
X2675100Y4918248D01*
Y4893256D01*
X2662604Y4880760D01*
X2650108D01*
X2637612Y4893256D01*
Y4930744D01*
D46*
X-1114030Y2965080D02*
G03*
X-1114030Y2904120I0J-30480D01*
G01*
X-1624570Y1543620D02*
G03*
X-1624570Y1604580I0J30480D01*
G01*
X-2556030Y3714380D02*
G03*
X-2556030Y3653420I0J-30480D01*
G01*
X-1624570Y2709810D02*
Y3159390D01*
X-1114030Y2709810D02*
Y3159390D01*
Y1349310D02*
Y1798890D01*
X-1624570Y1349310D02*
Y1798890D01*
X-3066570Y3459110D02*
Y3908690D01*
X-2556030Y3459110D02*
Y3908690D01*
D47*
X-1084300Y2629800D02*
G03*
X-1084300Y2629800I-12500J0D01*
G01*
X-1629300Y1878900D02*
G03*
X-1629300Y1878900I-12500J0D01*
G01*
X-2526300Y3379100D02*
G03*
X-2526300Y3379100I-12500J0D01*
G01*
D48*
X1430500Y-570600D02*
X1576808D01*
X1430500Y-367400D02*
X1576808D01*
X1430500Y-570600D02*
Y-367400D01*
X1766808D02*
X1887700D01*
X1925800Y-405500D01*
X1760700Y-570600D02*
X1887700D01*
X1925800Y-532500D01*
Y-405500D01*
X3158820Y4762300D02*
X3208820D01*
X3283820D02*
X3303820D01*
X3288820Y4942300D02*
X3308820D01*
X3161320D02*
X3181320D01*
D49*
X3627600Y4903100D02*
X3691100D01*
X3627600Y4522100D02*
Y4903100D01*
Y4522100D02*
X3691100D01*
X3894300Y4903100D02*
X3957800D01*
Y4522100D02*
Y4903100D01*
X3894300Y4522100D02*
X3957800D01*
%TF.MD5,1D3B29999B0A9E6EFFDC81D3D6A84954*%
M02*
